<svg width="32" height="32" viewBox="0 0 32 32" fill="none" xmlns="http://www.w3.org/2000/svg">
<g opacity="0.25">
<path d="M26 9.5C26 9.22386 26.2239 9 26.5 9H29.5C29.7761 9 30 9.22386 30 9.5V24.5C30 24.7761 29.7761 25 29.5 25H26.5C26.2239 25 26 24.7761 26 24.5V9.5Z" fill="#36485C"/>
<path d="M21.5 13C21.2239 13 21 13.2239 21 13.5V24.5C21 24.7761 21.2239 25 21.5 25H24.5C24.7761 25 25 24.7761 25 24.5V13.5C25 13.2239 24.7761 13 24.5 13H21.5Z" fill="#36485C"/>
<path d="M16 17.5C16 17.2239 16.2239 17 16.5 17H19.5C19.7761 17 20 17.2239 20 17.5V24.5C20 24.7761 19.7761 25 19.5 25H16.5C16.2239 25 16 24.7761 16 24.5V17.5Z" fill="#36485C"/>
</g>
<path d="M14.5 21C14.7761 21 15 21.2239 15 21.5V24.5C15 24.7761 14.7761 25 14.5 25H11.5C11.2239 25 11 24.7761 11 24.5V21.5C11 21.2239 11.2239 21 11.5 21H14.5Z" fill="#36485C"/>
<path d="M12.7959 7C13.4255 7 13.9835 7.12407 14.4697 7.37207C14.9559 7.61207 15.3307 7.94418 15.5938 8.36816C15.8646 8.79211 16 9.26055 16 9.77246V9.83203C16 9.87202 15.984 9.90844 15.9521 9.94043C15.9283 9.96428 15.8962 9.97559 15.8564 9.97559H14.1592C14.1195 9.97559 14.0835 9.96417 14.0518 9.94043C14.0279 9.90844 14.0156 9.87202 14.0156 9.83203C14.0156 9.52004 13.9038 9.25604 13.6807 9.04004C13.4655 8.81604 13.1705 8.7041 12.7959 8.7041C12.4293 8.70412 12.1343 8.82447 11.9111 9.06445C11.6882 9.30441 11.5762 9.61616 11.5762 10V12.5801C11.5762 12.964 11.7003 13.2757 11.9473 13.5156C12.1943 13.7556 12.5053 13.876 12.8799 13.876C13.2305 13.8759 13.5134 13.7836 13.7285 13.5996C13.9436 13.4076 14.0518 13.1435 14.0518 12.8076V12.4717C14.0517 12.4319 14.031 12.4121 13.9912 12.4121H12.7959C12.7561 12.4121 12.7203 12.3999 12.6885 12.376C12.6646 12.344 12.6523 12.3076 12.6523 12.2676V10.9482C12.6523 10.9082 12.6646 10.8756 12.6885 10.8516C12.7203 10.8198 12.7562 10.8037 12.7959 10.8037H15.8564C15.8962 10.8037 15.9283 10.8198 15.9521 10.8516C15.984 10.8756 16 10.9082 16 10.9482V12.5801C16 13.18 15.8647 13.7081 15.5938 14.1641C15.3308 14.62 14.9559 14.9717 14.4697 15.2197C13.9915 15.4677 13.4335 15.5918 12.7959 15.5918C12.1583 15.5918 11.5965 15.464 11.1104 15.208C10.6321 14.952 10.2573 14.5919 9.98633 14.1279C9.72335 13.664 9.5918 13.1275 9.5918 12.5195V10.0596C9.59186 9.45175 9.72337 8.91976 9.98633 8.46387C10.2573 7.99989 10.6322 7.63978 11.1104 7.38379C11.5965 7.12785 12.1584 7.00001 12.7959 7Z" fill="#36485C"/>
<path fill-rule="evenodd" clip-rule="evenodd" d="M7.77441 7.08984C7.81423 7.08984 7.84621 7.10575 7.87012 7.1377C7.90188 7.16161 7.91785 7.19361 7.91797 7.2334V11.5781C7.91806 11.6179 7.93788 11.6376 7.97754 11.6377H8.49219C8.53184 11.6378 8.56406 11.6537 8.58789 11.6855C8.61966 11.7095 8.63477 11.7423 8.63477 11.7822V13.2578C8.63477 13.2978 8.61973 13.3342 8.58789 13.3662C8.56407 13.3901 8.53184 13.4013 8.49219 13.4014H7.97754C7.93778 13.4014 7.91797 13.422 7.91797 13.4619V15.3574C7.91797 15.3974 7.90198 15.4338 7.87012 15.4658C7.84621 15.4898 7.81427 15.502 7.77441 15.502H6.07715C6.0373 15.502 6.00063 15.4898 5.96875 15.4658C5.94495 15.4339 5.93359 15.3973 5.93359 15.3574V13.4619C5.93359 13.4221 5.91355 13.4015 5.87402 13.4014H2.14355C2.10385 13.4014 2.06793 13.39 2.03613 13.3662C2.01222 13.3342 2 13.2978 2 13.2578V12.0938C2.00002 12.0458 2.01226 11.986 2.03613 11.9141L5.30469 7.19824C5.33652 7.12636 5.39218 7.08996 5.47168 7.08984H7.77441ZM4.38965 11.5654C4.38168 11.5814 4.38168 11.5983 4.38965 11.6143C4.39762 11.6301 4.40992 11.6377 4.42578 11.6377H5.87402C5.91346 11.6375 5.9335 11.6178 5.93359 11.5781V9.35352L4.38965 11.5654Z" fill="#36485C"/>
</svg>
