<svg width="32" height="32" viewBox="0 0 32 32" fill="none" xmlns="http://www.w3.org/2000/svg">
<path d="M6 20H8.5C8.77614 20 9 20.2239 9 20.5V21.5C9 21.7761 8.77614 22 8.5 22H4.5L4.39941 21.9902C4.20392 21.9503 4.04966 21.7961 4.00977 21.6006L4 21.5V6.5C4 6.22386 4.22386 6 4.5 6H27.5C27.7761 6 28 6.22386 28 6.5V21.5C28 21.7417 27.8286 21.9437 27.6006 21.9902L27.5 22H23.5C23.2239 22 23 21.7761 23 21.5V20.5C23 20.2239 23.2239 20 23.5 20H26V8H6V20Z" fill="#36485C"/>
<path d="M15.7117 18.1365C15.8513 17.9545 16.1493 17.9545 16.2889 18.1365L21.937 25.5027C22.0982 25.7129 21.9315 26 21.6484 26H10.3516C10.0685 26 9.90184 25.7129 10.063 25.5027L15.7117 18.1365Z" fill="#36485C"/>
</svg>
