<svg width="32" height="32" viewBox="0 0 32 32" fill="none" xmlns="http://www.w3.org/2000/svg">
<path fill-rule="evenodd" clip-rule="evenodd" d="M23 6.5C23 6.22386 22.7761 6 22.5 6H2.5C2.22386 6 2 6.22386 2 6.5V25.5C2 25.7761 2.22386 26 2.5 26H22.5C22.7761 26 23 25.7761 23 25.5V21.0625L29.2549 24.5809C29.5882 24.7683 30 24.5275 30 24.1451V7.85492C30 7.47251 29.5882 7.23165 29.2549 7.41914L23 10.9375V6.5ZM7.94884 18.62C7.8955 18.62 7.8475 18.604 7.80484 18.572C7.77284 18.5293 7.75684 18.4813 7.75684 18.428V17.148C7.75684 17.084 7.77284 17.004 7.80484 16.908L10.6848 10.444C10.7275 10.348 10.8022 10.3 10.9088 10.3H12.9088C12.9835 10.3 13.0315 10.3213 13.0528 10.364C13.0848 10.396 13.0848 10.4493 13.0528 10.524L10.3968 16.524C10.3862 16.5453 10.3862 16.5667 10.3968 16.588C10.4075 16.6093 10.4235 16.62 10.4448 16.62H12.8608C12.9142 16.62 12.9408 16.5933 12.9408 16.54V14.556C12.9408 14.5027 12.9568 14.46 12.9888 14.428C13.0315 14.3853 13.0795 14.364 13.1328 14.364H15.0048C15.0582 14.364 15.1008 14.3853 15.1328 14.428C15.1755 14.46 15.1968 14.5027 15.1968 14.556V16.54C15.1968 16.5933 15.2235 16.62 15.2768 16.62H15.9648C16.0182 16.62 16.0608 16.6413 16.0928 16.684C16.1355 16.716 16.1568 16.7587 16.1568 16.812V18.428C16.1568 18.4813 16.1355 18.5293 16.0928 18.572C16.0608 18.604 16.0182 18.62 15.9648 18.62H15.2768C15.2235 18.62 15.1968 18.6467 15.1968 18.7V21.308C15.1968 21.3613 15.1755 21.4093 15.1328 21.452C15.1008 21.484 15.0582 21.5 15.0048 21.5H13.1328C13.0795 21.5 13.0315 21.484 12.9888 21.452C12.9568 21.4093 12.9408 21.3613 12.9408 21.308V18.7C12.9408 18.6467 12.9142 18.62 12.8608 18.62H7.94884Z" fill="#36485C"/>
</svg>
