<svg width="32" height="32" viewBox="0 0 32 32" fill="none" xmlns="http://www.w3.org/2000/svg">
<path fill-rule="evenodd" clip-rule="evenodd" d="M23 6.5C23 6.22386 22.7761 6 22.5 6H2.5C2.22386 6 2 6.22386 2 6.5V25.5C2 25.7761 2.22386 26 2.5 26H22.5C22.7761 26 23 25.7761 23 25.5V21.0625L29.2549 24.5809C29.5882 24.7683 30 24.5275 30 24.1451V7.85492C30 7.47251 29.5882 7.23165 29.2549 7.41914L23 10.9375V6.5ZM12.5548 21.692C11.7334 21.692 11.0081 21.4893 10.3788 21.084C9.76011 20.6787 9.32277 20.1187 9.06677 19.404C8.97077 19.1053 8.89611 18.796 8.84277 18.476V18.444C8.84277 18.3267 8.90677 18.268 9.03477 18.268H10.9708C11.0774 18.268 11.1468 18.3267 11.1788 18.444C11.2001 18.572 11.2214 18.6573 11.2428 18.7L11.3388 18.924C11.5734 19.4787 11.9734 19.756 12.5388 19.756C12.8481 19.756 13.1094 19.6707 13.3228 19.5C13.5468 19.3187 13.7014 19.0787 13.7868 18.78C13.8401 18.6413 13.8828 18.476 13.9148 18.284C13.9468 18.092 13.9628 17.9267 13.9628 17.788C13.9628 17.468 13.9201 17.164 13.8348 16.876C13.7388 16.524 13.5788 16.268 13.3548 16.108C13.1308 15.9373 12.8748 15.852 12.5868 15.852C12.2774 15.852 12.0108 15.9267 11.7868 16.076C11.5628 16.2253 11.3974 16.428 11.2908 16.684C11.2588 16.7907 11.1894 16.844 11.0828 16.844H9.09877C8.98144 16.844 8.92277 16.78 8.92277 16.652L9.30677 10.46C9.30677 10.396 9.32277 10.348 9.35477 10.316C9.39744 10.284 9.45077 10.268 9.51477 10.268H15.4348C15.4881 10.268 15.5308 10.2893 15.5628 10.332C15.6054 10.364 15.6268 10.4067 15.6268 10.46V12.012C15.6268 12.0653 15.6054 12.1133 15.5628 12.156C15.5308 12.188 15.4881 12.204 15.4348 12.204H11.4348C11.3814 12.204 11.3548 12.2307 11.3548 12.284L11.2108 14.38C11.2108 14.444 11.2374 14.46 11.2908 14.428C11.7174 14.076 12.2614 13.9 12.9228 13.9C13.7441 13.9 14.4161 14.092 14.9388 14.476C15.4721 14.8493 15.8348 15.372 16.0268 16.044C16.1868 16.5773 16.2668 17.1587 16.2668 17.788C16.2668 18.3533 16.1814 18.876 16.0108 19.356C15.7654 20.0707 15.3281 20.6413 14.6988 21.068C14.0801 21.484 13.3654 21.692 12.5548 21.692Z" fill="#36485C"/>
</svg>
