<svg width="32" height="32" viewBox="0 0 32 32" fill="none" xmlns="http://www.w3.org/2000/svg">
<path fill-rule="evenodd" clip-rule="evenodd" d="M23 6.5C23 6.22386 22.7761 6 22.5 6H2.5C2.22386 6 2 6.22386 2 6.5V25.5C2 25.7761 2.22386 26 2.5 26H22.5C22.7761 26 23 25.7761 23 25.5V21.0625L29.2549 24.5809C29.5882 24.7683 30 24.5275 30 24.1451V7.85492C30 7.47251 29.5882 7.23165 29.2549 7.41914L23 10.9375V6.5ZM8.75529 19.836C8.75529 19.74 8.78196 19.6654 8.83529 19.612C9.03796 19.356 9.64596 18.6947 10.6593 17.628C11.534 16.6894 12.1046 16.0707 12.3713 15.772C13.3526 14.684 13.8433 13.8734 13.8433 13.34C13.8433 12.9667 13.71 12.6627 13.4433 12.428C13.1766 12.1827 12.83 12.06 12.4033 12.06C11.9766 12.06 11.63 12.1827 11.3633 12.428C11.0966 12.6627 10.9633 12.9774 10.9633 13.372V13.772C10.9633 13.8254 10.942 13.8734 10.8993 13.916C10.8673 13.948 10.8246 13.964 10.7713 13.964H8.86729C8.81396 13.964 8.76596 13.948 8.72329 13.916C8.69129 13.8734 8.67529 13.8254 8.67529 13.772V13.02C8.67529 12.444 8.84063 11.9374 9.17129 11.5C9.51263 11.052 9.96596 10.7107 10.5313 10.476C11.1073 10.2307 11.7313 10.108 12.4033 10.108C13.15 10.108 13.806 10.252 14.3713 10.54C14.9366 10.8174 15.3686 11.2014 15.6673 11.692C15.966 12.1827 16.1153 12.7214 16.1153 13.308C16.1153 14.172 15.6726 15.148 14.7873 16.236C14.3606 16.7374 13.5553 17.6014 12.3713 18.828L11.7633 19.468C11.742 19.4894 11.7366 19.5107 11.7473 19.532C11.758 19.5534 11.7793 19.564 11.8113 19.564H16.1313C16.1846 19.564 16.2273 19.5854 16.2593 19.628C16.302 19.66 16.3233 19.7027 16.3233 19.756V21.324C16.3233 21.3774 16.302 21.4254 16.2593 21.468C16.2273 21.5 16.1846 21.516 16.1313 21.516H8.94729C8.89396 21.516 8.84596 21.5 8.80329 21.468C8.77129 21.4254 8.75529 21.3774 8.75529 21.324V19.836Z" fill="#36485C"/>
</svg>
