<svg width="32" height="32" viewBox="0 0 32 32" fill="none" xmlns="http://www.w3.org/2000/svg">
<path d="M12.4613 12.092C12.1626 12.1027 11.9066 12.1774 11.6933 12.316C11.4799 12.4547 11.3199 12.6467 11.2133 12.892C11.0959 13.18 11.0373 13.4787 11.0373 13.788C11.0373 14.1827 11.1119 14.5134 11.2613 14.78C11.3786 15.004 11.5386 15.18 11.7413 15.308C11.9439 15.436 12.1839 15.5 12.4613 15.5C13.0479 15.5 13.4693 15.2547 13.7253 14.764C13.8533 14.476 13.9172 14.14 13.9172 13.756C13.9172 13.436 13.8639 13.1534 13.7572 12.908C13.5333 12.364 13.1013 12.092 12.4613 12.092Z" fill="#36485C"/>
<path fill-rule="evenodd" clip-rule="evenodd" d="M23 6.5C23 6.22386 22.7761 6 22.5 6H2.5C2.22386 6 2 6.22386 2 6.5V25.5C2 25.7761 2.22386 26 2.5 26H22.5C22.7761 26 23 25.7761 23 25.5V21.0625L29.2549 24.5809C29.5882 24.7683 30 24.5275 30 24.1451V7.85492C30 7.47251 29.5882 7.23165 29.2549 7.41914L23 10.9375V6.5ZM12.4773 10.108C13.2879 10.108 13.9919 10.3 14.5893 10.684C15.1973 11.0574 15.6346 11.5907 15.9013 12.284C16.0826 12.7427 16.1733 13.2707 16.1733 13.868V18.684C16.1733 19.292 16.0186 19.8254 15.7093 20.284C15.4106 20.7427 14.9893 21.0947 14.4453 21.34C13.9012 21.5854 13.2773 21.708 12.5732 21.708C11.8799 21.708 11.2666 21.5854 10.7332 21.34C10.1999 21.0947 9.78392 20.748 9.48525 20.3C9.19725 19.852 9.05325 19.3347 9.05325 18.748V18.364C9.05325 18.3107 9.06925 18.268 9.10125 18.236C9.14392 18.1934 9.19192 18.172 9.24525 18.172L11.1173 18.124C11.1706 18.124 11.2133 18.1454 11.2453 18.188C11.2879 18.22 11.3092 18.2627 11.3092 18.316V18.396C11.3092 18.812 11.4213 19.148 11.6453 19.404C11.8799 19.6494 12.1946 19.772 12.5893 19.772C12.9839 19.772 13.3039 19.644 13.5492 19.388C13.7946 19.132 13.9172 18.796 13.9172 18.38V16.908C13.9172 16.876 13.9066 16.86 13.8853 16.86C13.8639 16.8494 13.8426 16.8547 13.8213 16.876C13.3946 17.2494 12.8132 17.436 12.0772 17.436C11.4373 17.436 10.8612 17.292 10.3492 17.004C9.84792 16.7054 9.45858 16.2787 9.18125 15.724C8.91458 15.2014 8.78125 14.5774 8.78125 13.852C8.78125 13.212 8.88792 12.6467 9.10125 12.156C9.36792 11.516 9.79458 11.0147 10.3813 10.652C10.9786 10.2894 11.6772 10.108 12.4773 10.108Z" fill="#36485C"/>
</svg>
