<svg width="32" height="32" viewBox="0 0 32 32" fill="none" xmlns="http://www.w3.org/2000/svg">
<path fill-rule="evenodd" clip-rule="evenodd" d="M23 6.5C23 6.22386 22.7761 6 22.5 6H2.5C2.22386 6 2 6.22386 2 6.5V25.5C2 25.7761 2.22386 26 2.5 26H22.5C22.7761 26 23 25.7761 23 25.5V21.0625L29.2549 24.5809C29.5882 24.7683 30 24.5275 30 24.1451V7.85492C30 7.47251 29.5882 7.23165 29.2549 7.41914L23 10.9375V6.5ZM10.4606 21.5C10.3006 21.5 10.2473 21.4253 10.3006 21.276L13.7886 12.332C13.7993 12.3107 13.794 12.2893 13.7726 12.268C13.762 12.2467 13.746 12.236 13.7246 12.236H10.7166C10.6633 12.236 10.6366 12.2627 10.6366 12.316V13.052C10.6366 13.1053 10.6153 13.1533 10.5726 13.196C10.5406 13.228 10.498 13.244 10.4446 13.244H8.98863C8.9353 13.244 8.8873 13.228 8.84463 13.196C8.81263 13.1533 8.79663 13.1053 8.79663 13.052L8.81263 10.492C8.81263 10.4387 8.82863 10.396 8.86063 10.364C8.9033 10.3213 8.9513 10.3 9.00463 10.3H15.9966C16.05 10.3 16.0926 10.3213 16.1246 10.364C16.1673 10.396 16.1886 10.4387 16.1886 10.492V12.108C16.1886 12.172 16.1726 12.252 16.1406 12.348L12.6846 21.356C12.6526 21.452 12.578 21.5 12.4606 21.5H10.4606Z" fill="#36485C"/>
</svg>
