<svg width="32" height="32" viewBox="0 0 32 32" fill="none" xmlns="http://www.w3.org/2000/svg">
<path fill-rule="evenodd" clip-rule="evenodd" d="M23 6.5C23 6.22386 22.7761 6 22.5 6H2.5C2.22386 6 2 6.22386 2 6.5V25.5C2 25.7761 2.22386 26 2.5 26H22.5C22.7761 26 23 25.7761 23 25.5V21.0625L29.2549 24.5809C29.5882 24.7683 30 24.5275 30 24.1451V7.85492C30 7.47251 29.5882 7.23165 29.2549 7.41914L23 10.9375V6.5ZM11.4011 10.348C11.4545 10.316 11.5345 10.3 11.6411 10.3H13.5771C13.6305 10.3 13.6731 10.3213 13.7051 10.364C13.7478 10.396 13.7691 10.4387 13.7691 10.492V21.308C13.7691 21.3613 13.7478 21.4093 13.7051 21.452C13.6731 21.484 13.6305 21.5 13.5771 21.5H11.7051C11.6518 21.5 11.6038 21.484 11.5611 21.452C11.5291 21.4093 11.5131 21.3613 11.5131 21.308V12.62C11.5131 12.5987 11.5025 12.5827 11.4811 12.572C11.4598 12.5507 11.4385 12.5453 11.4171 12.556L9.84915 13.148C9.82782 13.148 9.80115 13.1533 9.76915 13.164C9.72648 13.164 9.68915 13.148 9.65715 13.116C9.63582 13.084 9.62515 13.0413 9.62515 12.988L9.57715 11.356C9.57715 11.2493 9.62515 11.1747 9.72115 11.132L11.4011 10.348Z" fill="#36485C"/>
</svg>
