<svg width="32" height="32" viewBox="0 0 32 32" fill="none" xmlns="http://www.w3.org/2000/svg">
<path fill-rule="evenodd" clip-rule="evenodd" d="M23 6.5C23 6.22386 22.7761 6 22.5 6H2.5C2.22386 6 2 6.22386 2 6.5V25.5C2 25.7761 2.22386 26 2.5 26H22.5C22.7761 26 23 25.7761 23 25.5V21.0625L29.2549 24.5809C29.5882 24.7683 30 24.5275 30 24.1451V7.85492C30 7.47251 29.5882 7.23165 29.2549 7.41914L23 10.9375V6.5ZM12.4085 21.692C11.5979 21.692 10.8885 21.4893 10.2805 21.084C9.67253 20.6787 9.22987 20.1293 8.95253 19.436C8.8032 19.02 8.71787 18.5667 8.69653 18.076C8.69653 17.948 8.76053 17.884 8.88853 17.884H10.7765C10.9045 17.884 10.9739 17.948 10.9845 18.076C11.0059 18.428 11.0592 18.6947 11.1445 18.876C11.2405 19.1533 11.3952 19.372 11.6085 19.532C11.8325 19.6813 12.0939 19.756 12.3925 19.756C12.9899 19.756 13.4005 19.4947 13.6245 18.972C13.6885 18.8227 13.7419 18.6413 13.7845 18.428C13.8272 18.2147 13.8485 18.0067 13.8485 17.804C13.8485 17.3347 13.7685 16.9187 13.6085 16.556C13.3525 16.0333 12.9419 15.772 12.3765 15.772C12.2165 15.772 11.9392 15.9053 11.5445 16.172C11.5019 16.204 11.4592 16.22 11.4165 16.22C11.3525 16.22 11.3045 16.188 11.2725 16.124L10.3285 14.844C10.2965 14.7907 10.2805 14.748 10.2805 14.716C10.2805 14.684 10.3072 14.6413 10.3605 14.588L13.0485 12.332C13.0699 12.3107 13.0752 12.2893 13.0645 12.268C13.0539 12.2467 13.0325 12.236 13.0005 12.236H9.11253C9.0592 12.236 9.0112 12.22 8.96853 12.188C8.93653 12.1453 8.92053 12.0973 8.92053 12.044V10.492C8.92053 10.4387 8.93653 10.396 8.96853 10.364C9.0112 10.3213 9.0592 10.3 9.11253 10.3H15.6245C15.6779 10.3 15.7205 10.3213 15.7525 10.364C15.7952 10.396 15.8165 10.4387 15.8165 10.492V12.268C15.8165 12.364 15.7845 12.444 15.7205 12.508L13.6565 14.412C13.6139 14.4547 13.6245 14.4867 13.6885 14.508C14.2005 14.5827 14.6325 14.7693 14.9845 15.068C15.3365 15.356 15.6085 15.7347 15.8005 16.204C16.0139 16.716 16.1205 17.2813 16.1205 17.9C16.1205 18.476 16.0245 19.0147 15.8325 19.516C15.5765 20.1987 15.1445 20.732 14.5365 21.116C13.9392 21.5 13.2299 21.692 12.4085 21.692Z" fill="#36485C"/>
</svg>
