<svg width="32" height="32" viewBox="0 0 32 32" fill="none" xmlns="http://www.w3.org/2000/svg">
<path d="M12.5413 19.708C12.84 19.6974 13.096 19.6227 13.3093 19.484C13.5227 19.3454 13.6827 19.1534 13.7893 18.908C13.9067 18.62 13.9653 18.3214 13.9653 18.012C13.9653 17.6174 13.8907 17.2867 13.7413 17.02C13.624 16.796 13.464 16.62 13.2613 16.492C13.0587 16.364 12.8187 16.3 12.5413 16.3C11.9547 16.3 11.5333 16.5454 11.2773 17.036C11.1493 17.324 11.0853 17.66 11.0853 18.044C11.0853 18.364 11.1387 18.6467 11.2453 18.892C11.4693 19.436 11.9013 19.708 12.5413 19.708Z" fill="#36485C"/>
<path fill-rule="evenodd" clip-rule="evenodd" d="M23 6.5C23 6.22386 22.7761 6 22.5 6H2.5C2.22386 6 2 6.22386 2 6.5V25.5C2 25.7761 2.22386 26 2.5 26H22.5C22.7761 26 23 25.7761 23 25.5V21.0625L29.2549 24.5809C29.5882 24.7683 30 24.5275 30 24.1451V7.85492C30 7.47251 29.5882 7.23165 29.2549 7.41914L23 10.9375V6.5ZM12.5253 21.692C11.7147 21.692 11.0053 21.5054 10.3973 21.132C9.80001 20.748 9.36801 20.2094 9.10135 19.516C8.92001 19.0574 8.82935 18.5294 8.82935 17.932V13.116C8.82935 12.508 8.97868 11.9747 9.27735 11.516C9.58668 11.0574 10.0133 10.7054 10.5573 10.46C11.1013 10.2147 11.7253 10.092 12.4293 10.092C13.1227 10.092 13.736 10.2147 14.2693 10.46C14.8027 10.7054 15.2133 11.052 15.5013 11.5C15.8 11.948 15.9493 12.4654 15.9493 13.052V13.436C15.9493 13.4894 15.928 13.5374 15.8853 13.58C15.8533 13.612 15.8107 13.628 15.7573 13.628L13.8853 13.676C13.832 13.676 13.784 13.66 13.7413 13.628C13.7093 13.5854 13.6933 13.5374 13.6933 13.484V13.404C13.6933 12.988 13.576 12.6574 13.3413 12.412C13.1173 12.156 12.808 12.028 12.4133 12.028C12.0187 12.028 11.6987 12.156 11.4533 12.412C11.208 12.668 11.0853 13.004 11.0853 13.42V14.892C11.0853 14.924 11.096 14.9454 11.1173 14.956C11.1387 14.956 11.16 14.9454 11.1813 14.924C11.608 14.5507 12.1893 14.364 12.9253 14.364C13.5653 14.364 14.136 14.5134 14.6373 14.812C15.1493 15.1 15.544 15.5214 15.8213 16.076C16.088 16.5987 16.2213 17.2227 16.2213 17.948C16.2213 18.588 16.1147 19.1534 15.9013 19.644C15.6347 20.284 15.2027 20.7854 14.6053 21.148C14.0187 21.5107 13.3253 21.692 12.5253 21.692Z" fill="#36485C"/>
</svg>
