<svg width="32" height="32" viewBox="0 0 32 32" fill="none" xmlns="http://www.w3.org/2000/svg">
<path d="M12.4912 14.844C13.0352 14.844 13.4245 14.6467 13.6592 14.252C13.7979 14.06 13.8672 13.7774 13.8672 13.404C13.8672 13.1374 13.8085 12.9027 13.6912 12.7C13.5739 12.4974 13.4139 12.3374 13.2112 12.22C13.0085 12.1027 12.7685 12.044 12.4912 12.044C12.2352 12.044 12.0059 12.1027 11.8032 12.22C11.6005 12.3374 11.4459 12.5027 11.3392 12.716C11.2112 12.94 11.1472 13.1747 11.1472 13.42C11.1472 13.7507 11.2219 14.0334 11.3712 14.268C11.6165 14.652 11.9899 14.844 12.4912 14.844Z" fill="#36485C"/>
<path d="M12.5072 19.74C13.0299 19.74 13.4085 19.5587 13.6432 19.196C13.8459 18.9294 13.9472 18.5507 13.9472 18.06C13.9472 17.6654 13.8725 17.3294 13.7232 17.052C13.4992 16.6147 13.0939 16.396 12.5072 16.396C11.9419 16.396 11.5419 16.6094 11.3072 17.036C11.1579 17.3027 11.0832 17.6547 11.0832 18.092C11.0832 18.5294 11.1685 18.8867 11.3392 19.164C11.5845 19.548 11.9739 19.74 12.5072 19.74Z" fill="#36485C"/>
<path fill-rule="evenodd" clip-rule="evenodd" d="M23 6.5C23 6.22386 22.7761 6 22.5 6H2.5C2.22386 6 2 6.22386 2 6.5V25.5C2 25.7761 2.22386 26 2.5 26H22.5C22.7761 26 23 25.7761 23 25.5V21.0625L29.2549 24.5809C29.5882 24.7683 30 24.5275 30 24.1451V7.85492C30 7.47251 29.5882 7.23165 29.2549 7.41914L23 10.9375V6.5ZM12.5232 21.692C11.7659 21.692 11.0885 21.5427 10.4912 21.244C9.90452 20.9347 9.45652 20.492 9.14718 19.916C8.89118 19.4147 8.76318 18.86 8.76318 18.252C8.76318 17.9534 8.80052 17.66 8.87518 17.372C8.94985 17.0734 9.04052 16.812 9.14718 16.588C9.32852 16.236 9.59518 15.9374 9.94718 15.692C9.98985 15.66 9.99518 15.6227 9.96318 15.58C9.66452 15.3347 9.43518 15.0734 9.27518 14.796C9.02985 14.3374 8.90718 13.852 8.90718 13.34C8.90718 12.604 9.12585 11.964 9.56318 11.42C9.87252 11.004 10.2832 10.684 10.7952 10.46C11.3072 10.2254 11.8779 10.108 12.5072 10.108C13.1472 10.108 13.7179 10.2254 14.2192 10.46C14.7312 10.6947 15.1419 11.0147 15.4512 11.42C15.6539 11.676 15.8085 11.9694 15.9152 12.3C16.0325 12.6307 16.0912 12.9774 16.0912 13.34C16.0912 13.8947 15.9579 14.396 15.6912 14.844C15.4992 15.1427 15.2752 15.3827 15.0192 15.564C14.9765 15.6067 14.9765 15.644 15.0192 15.676C15.4032 15.932 15.6805 16.2414 15.8512 16.604C16.1072 17.0947 16.2352 17.6494 16.2352 18.268C16.2352 18.8974 16.1019 19.452 15.8352 19.932C15.5472 20.476 15.1152 20.908 14.5392 21.228C13.9739 21.5374 13.3019 21.692 12.5232 21.692Z" fill="#36485C"/>
</svg>
