<svg width="32" height="32" viewBox="0 0 32 32" fill="none" xmlns="http://www.w3.org/2000/svg">
<path d="M16 2.99998C14.2899 2.98936 12.5946 3.31836 11.0126 3.96791C9.43055 4.61746 7.99322 5.57463 6.78394 6.78391C5.57465 7.99319 4.61748 9.43052 3.96793 11.0126C3.31839 12.5946 2.98938 14.2898 3.00001 16V17C3.00001 20.4478 4.36964 23.7544 6.80762 26.1924C9.24559 28.6303 12.5522 30 16 30H22.5C22.7761 30 23 29.7761 23 29.5V28.5C23 28.2238 22.7761 28 22.5 28H16C13.0826 28 10.2847 26.8411 8.22183 24.7782C6.15893 22.7153 5.00001 19.9174 5.00001 17V16C4.99205 14.5532 5.27114 13.1192 5.82112 11.7811C6.37111 10.4429 7.18106 9.2271 8.20409 8.20406C9.22712 7.18103 10.4429 6.37108 11.7811 5.8211C13.1193 5.27111 14.5532 4.99202 16 4.99998C17.4581 4.94975 18.9109 5.19992 20.2682 5.73495C21.6255 6.26998 22.8583 7.07842 23.8899 8.11006C24.9216 9.14169 25.73 10.3745 26.265 11.7318C26.8001 13.0891 27.0502 14.5419 27 16C27 19.59 25.6 21 23.34 21C21.76 21 21 19.71 21 18V10.5C21 10.2238 20.7761 9.99998 20.5 9.99998H19.5C19.2239 9.99998 19 10.2238 19 10.5V11.94C18.6513 11.3261 18.1402 10.8203 17.5227 10.478C16.9052 10.1358 16.2054 9.97037 15.5 9.99998C14.0501 9.99465 12.6571 10.5642 11.6262 11.5838C10.5953 12.6034 10.0106 13.9901 10 15.44V17.56C10.0106 19.0099 10.5953 20.3965 11.6262 21.4162C12.6571 22.4358 14.0501 23.0053 15.5 23C16.3339 23.0244 17.1568 22.8046 17.8675 22.3675C18.5782 21.9305 19.1456 21.2953 19.5 20.54C19.855 21.2758 20.41 21.8968 21.1015 22.3319C21.793 22.7669 22.593 22.9985 23.41 23C26.48 23 29 21 29 16C29.0382 14.2823 28.7281 12.5747 28.0884 10.9802C27.4486 9.38568 26.4924 7.93729 25.2776 6.72243C24.0627 5.50756 22.6143 4.5514 21.0198 3.91162C19.4253 3.27185 17.7177 2.96173 16 2.99998ZM19 17.56C19 18.4882 18.6313 19.3785 17.9749 20.0349C17.3185 20.6912 16.4283 21.06 15.5 21.06C14.5717 21.06 13.6815 20.6912 13.0251 20.0349C12.3688 19.3785 12 18.4882 12 17.56V15.44C12 14.5117 12.3688 13.6215 13.0251 12.9651C13.6815 12.3087 14.5717 11.94 15.5 11.94C16.4283 11.94 17.3185 12.3087 17.9749 12.9651C18.6313 13.6215 19 14.5117 19 15.44V17.56Z" fill="#36485C"/>
</svg>
