<svg width="32" height="32" viewBox="0 0 32 32" fill="none" xmlns="http://www.w3.org/2000/svg">
<path d="M3.89995 18.9001L18.9 3.90006C21.4 1.30006 25.5 1.30006 28.1 3.80006C30.7 6.30006 30.7 10.5001 28.1 13.0001L28 13.1001L25.5534 15.634C25.3592 15.8351 25.0378 15.8379 24.8401 15.6403L24.1535 14.9536C23.9582 14.7584 23.9582 14.4418 24.1535 14.2465L26.7 11.7001C28.4 10.0001 28.4 7.10006 26.7 5.40006C25 3.70006 22.1 3.60006 20.4 5.30006C20.4 5.30006 20.4 5.30006 20.3 5.40006L5.39995 20.3001C3.59995 22.0001 3.59995 24.9001 5.29995 26.6001C6.99995 28.4001 9.89995 28.4001 11.6 26.7001C11.6 26.7001 11.6 26.7001 11.7 26.6001L19.1 19.2001C20.1 18.2001 20 16.6001 19.1 15.7001C18.1 14.8001 16.6 14.8001 15.6 15.7001L11.8535 19.4465C11.6582 19.6418 11.3417 19.6418 11.1464 19.4465L10.4535 18.7536C10.2582 18.5584 10.2582 18.2418 10.4535 18.0465L14.2999 14.2001C16.0999 12.5001 18.9 12.6001 20.6 14.4001C22.2 16.1001 22.2 18.8001 20.6 20.6001L13.1 28.1001C10.6 30.7001 6.49995 30.7001 3.89995 28.2001C1.29995 25.7001 1.29995 21.5001 3.89995 18.9001Z" fill="#36485C"/>
</svg>
