<svg width="32" height="32" viewBox="0 0 32 32" fill="none" xmlns="http://www.w3.org/2000/svg">
<path fill-rule="evenodd" clip-rule="evenodd" d="M10 10.5H2.5C2.22386 10.5 2 10.7238 2 11V21C2 21.2761 2.22386 21.5 2.5 21.5H10L18.1567 29.2035C18.4756 29.5047 19 29.2786 19 28.84V3.15993C19 2.72133 18.4756 2.49527 18.1567 2.79642L10 10.5ZM10.7952 12.5H4V19.5H10.7952L17 25.3601V6.63983L10.7952 12.5Z" fill="#36485C"/>
<path d="M30.6464 12.0564C30.8416 12.2517 30.8416 12.5682 30.6464 12.7635L27.4099 16L30.6464 19.2364C30.8416 19.4317 30.8416 19.7482 30.6464 19.9435L29.9435 20.6464C29.7482 20.8417 29.4316 20.8417 29.2364 20.6464L25.9999 17.41L22.7635 20.6464C22.5682 20.8417 22.2516 20.8417 22.0564 20.6464L21.3535 19.9435C21.1582 19.7482 21.1582 19.4317 21.3535 19.2364L24.5899 16L21.3535 12.7635C21.1582 12.5682 21.1582 12.2517 21.3535 12.0564L22.0564 11.3535C22.2516 11.1582 22.5682 11.1582 22.7635 11.3535L25.9999 14.59L29.2364 11.3535C29.4316 11.1582 29.7482 11.1582 29.9435 11.3535L30.6464 12.0564Z" fill="#36485C"/>
</svg>
