<svg width="32" height="32" viewBox="0 0 32 32" fill="none" xmlns="http://www.w3.org/2000/svg">
<path fill-rule="evenodd" clip-rule="evenodd" d="M10 10.5H2.5C2.22386 10.5 2 10.7238 2 11V21C2 21.2761 2.22386 21.5 2.5 21.5H10L18.1567 29.2035C18.4756 29.5047 19 29.2786 19 28.84V3.15993C19 2.72133 18.4756 2.49527 18.1567 2.79642L10 10.5ZM10.7952 12.5H4V19.5H10.7952L17 25.3601V6.63983L10.7952 12.5Z" fill="#36485C"/>
<path d="M26.0236 9.04849C25.8073 9.22519 25.7788 9.54413 25.9479 9.76642C27.3144 11.5627 28.0361 13.7734 27.9864 16.0398C27.9366 18.3116 27.1149 20.4935 25.6646 22.2302C25.4897 22.4397 25.4987 22.751 25.6964 22.9393L26.4423 23.6497C26.6445 23.8422 26.9661 23.8325 27.1466 23.6195C28.9213 21.5252 29.9278 18.8808 29.9885 16.1262C30.0493 13.3662 29.1567 10.6749 27.4697 8.50229C27.3023 8.28668 26.9905 8.25851 26.7791 8.43122L26.0236 9.04849Z" fill="#36485C"/>
<path d="M21.8851 12.3939C21.7255 12.1693 21.7499 11.8557 21.9599 11.6774L22.718 11.0341C22.9288 10.8552 23.2462 10.8805 23.4112 11.1024C24.4694 12.526 25.0273 14.2656 24.9886 16.0485C24.9499 17.8314 24.3168 19.5453 23.1977 20.9216C23.0234 21.1361 22.7053 21.1477 22.5024 20.96L21.7667 20.2793C21.5641 20.0919 21.5536 19.7769 21.7234 19.5592C22.5149 18.545 22.9623 17.299 22.9916 16.004C23.021 14.7086 22.6303 13.4432 21.8851 12.3939Z" fill="#36485C"/>
</svg>
