<svg width="32" height="32" viewBox="0 0 32 32" fill="none" xmlns="http://www.w3.org/2000/svg">
<path fill-rule="evenodd" clip-rule="evenodd" d="M27.0717 6.61851C26.8634 6.24256 26.6265 5.91156 26.3528 5.63368C23.5507 2.75681 14.4661 3.46786 8.46965 9.46677C2.47728 15.4657 1.74611 24.6725 4.64222 27.3532C4.92407 27.6147 5.25493 27.8476 5.62256 28.0479C7.48114 29.0695 10.3487 29.2983 13.4327 28.5914C16.5085 27.8844 19.8008 26.2458 22.5254 23.5201C25.1151 20.9293 26.7204 17.7991 27.4802 14.8364C28.3135 11.5795 28.1215 8.5228 27.0717 6.61851ZM23.9714 18.7594C23.232 19.9812 22.3211 21.1663 21.2428 22.2451C20.0092 23.4792 18.6081 24.4968 17.1661 25.2895C14.6172 26.6912 11.9254 27.3859 9.72777 27.3614C12.7628 26.4174 16.4145 24.0922 19.7518 20.7536C23.0972 17.4068 25.4215 13.7453 26.361 10.7009C26.4386 13.071 25.638 16.0092 23.9714 18.7594ZM4.69592 21.2489C4.4463 22.9593 4.67185 24.5929 5.62518 25.9254C7.00722 27.8572 14.1247 24.9975 19.1061 20.0503C21.7707 17.4039 23.7848 14.1622 24.7915 11.5089C25.436 9.96199 25.6803 8.58807 25.4337 7.53797C25.4283 7.53691 25.4229 7.53587 25.4175 7.53484C25.3383 7.22807 25.2055 6.97894 25.0159 6.79824C24.7101 6.50674 24.3503 6.28952 23.9468 6.13809C20.6355 4.46555 14.2824 6.20981 9.75228 10.7417C6.59379 13.9015 4.95034 17.9836 4.69592 21.2489ZM8.98554 16.9715C8.83963 17.1942 8.72911 17.3695 8.66263 17.4774C8.33022 18.0136 9.15995 18.2165 9.38444 17.8746C9.49064 17.7322 9.60029 17.5949 9.70822 17.4541C9.80751 17.531 9.9068 17.607 10.0113 17.6976C10.5949 18.2079 10.9558 17.417 10.6122 17.1519C10.5043 17.0682 10.3635 16.9525 10.2029 16.8256C10.4775 16.4854 10.7555 16.1538 11.0353 15.8292C11.1769 15.9345 11.3047 16.0356 11.4385 16.1478C11.8167 16.4629 12.8441 16.0131 12.1646 15.5028C11.998 15.3776 11.8253 15.2507 11.6543 15.1272C11.9574 14.7922 12.2604 14.4659 12.5635 14.1516C12.7949 14.3105 12.9857 14.4477 13.1161 14.541C13.452 14.7802 14.4311 14.4616 13.7326 13.8995C13.5625 13.7622 13.3829 13.6292 13.2016 13.5023C13.591 13.1155 13.9743 12.7494 14.3499 12.4041C14.6624 12.6052 14.9267 12.7822 15.0769 12.8876C15.4481 13.1449 16.1536 12.5854 15.5051 12.1381C15.3592 12.038 15.1883 11.9257 15.0095 11.8109C15.3022 11.5536 15.5889 11.3084 15.8634 11.0822C16.0888 11.2048 16.3003 11.3213 16.4661 11.4129C17.0144 11.7125 17.5281 11.2022 17.0843 10.7843C16.9591 10.6669 16.8132 10.5581 16.6561 10.4545C16.9608 10.2222 17.2509 10.009 17.5151 9.82765C17.6662 9.94076 17.8078 10.0556 17.9261 10.1661C18.3121 10.5287 18.8413 10.1903 18.4744 9.82938C18.3639 9.72146 18.2283 9.59281 18.0781 9.4633C18.2974 9.32947 18.4994 9.21463 18.6678 9.13434C19.4405 8.76566 18.8362 8.3944 18.4537 8.47556C18.0695 8.61111 17.693 8.77171 17.3226 8.95043C17.1741 8.88136 17.023 8.83301 16.8745 8.81833C16.6733 8.81315 16.0534 9.07217 16.3582 9.1801C16.4532 9.21377 16.5473 9.2604 16.6422 9.30357C16.2822 9.50474 15.9308 9.72232 15.588 9.95458C15.4447 9.90622 15.3014 9.85787 15.1451 9.81643C14.5114 9.65066 13.8672 10.2628 14.381 10.3966C14.4915 10.426 14.6279 10.4778 14.7756 10.5408C14.5027 10.7506 14.2359 10.9674 13.9769 11.1892C13.7196 11.0468 13.4994 10.9363 13.376 10.8974C13.0211 10.7878 12.3105 11.2203 12.8398 11.5018C12.9952 11.5847 13.1593 11.6779 13.3242 11.7738C12.9365 12.1355 12.567 12.5042 12.2181 12.8729C12.0256 12.7589 11.8521 12.6614 11.7165 12.588C11.2615 12.3402 10.6804 13.0438 11.2175 13.3279C11.3504 13.3978 11.4791 13.4704 11.6051 13.5438C11.309 13.8788 11.0318 14.2086 10.7737 14.5272C10.607 14.4218 10.4611 14.3372 10.3575 14.2915C10.0095 14.1361 9.34472 14.7249 9.96292 15.1143C10.0467 15.167 10.1227 15.2153 10.1969 15.2628C9.91025 15.6392 9.659 15.9872 9.44401 16.2946C9.27392 16.1953 9.09692 16.1055 8.91647 16.039C8.51067 15.8888 8.14372 16.513 8.50376 16.7047C8.66349 16.7893 8.82322 16.8782 8.98554 16.9715Z" fill="#36485C"/>
</svg>
