<svg width="32" height="32" viewBox="0 0 32 32" fill="none" xmlns="http://www.w3.org/2000/svg">
<path d="M7.86615 20.4091L11.2754 17H1.5C1.22386 17 1 16.7761 1 16.5V15.5C1 15.2238 1.22386 15 1.5 15L11.2754 15L7.86615 11.5908C7.76852 11.4932 7.76852 11.3349 7.86615 11.2373L8.92669 10.1767C9.02432 10.0791 9.18261 10.0791 9.28025 10.1767L14.9267 15.8232C15.0243 15.9208 15.0243 16.0791 14.9267 16.1767L9.28025 21.8232C9.18261 21.9208 9.02432 21.9208 8.92669 21.8232L7.86615 20.7626C7.76852 20.665 7.76852 20.5067 7.86615 20.4091Z" fill="#36485C"/>
<path d="M23.8661 20.4091L27.2754 17H17.5C17.2239 17 17 16.7761 17 16.5V15.5C17 15.2238 17.2239 15 17.5 15L27.2754 15L23.8661 11.5908C23.7685 11.4932 23.7685 11.3349 23.8661 11.2373L24.9267 10.1767C25.0243 10.0791 25.1826 10.0791 25.2802 10.1767L30.9267 15.8232C31.0243 15.9208 31.0243 16.0791 30.9267 16.1767L25.2802 21.8232C25.1826 21.9208 25.0243 21.9208 24.9267 21.8232L23.8661 20.7626C23.7685 20.665 23.7685 20.5067 23.8661 20.4091Z" fill="#36485C"/>
</svg>
