<svg width="32" height="32" viewBox="0 0 32 32" fill="none" xmlns="http://www.w3.org/2000/svg">
<path fill-rule="evenodd" clip-rule="evenodd" d="M16 3C8.82026 3 3 8.82026 3 16C3 23.1797 8.82026 29 16 29C23.1797 29 29 23.1797 29 16C29 8.82026 23.1797 3 16 3ZM15.5879 27.1307C15.8173 27.2199 16.0255 27.3007 16.2252 27.3686C16.1487 27.3686 16.0765 27.3729 16.0042 27.3729C9.81438 27.3729 4.78007 22.4278 4.63562 16.2719C4.70784 16.2379 4.80131 16.1742 4.92451 16.0722C5.00523 16.0042 5.0732 15.932 5.14542 15.8556C5.39608 15.9278 5.66373 16.0212 5.94837 16.1317C5.88889 16.1954 5.82941 16.2379 5.77843 16.2464C5.2219 16.3229 5.4768 17.266 6.19052 16.8709C6.40719 16.8157 6.62386 16.701 6.81078 16.5225C7.14216 16.6882 7.49052 16.8752 7.84314 17.0876C7.45229 17.232 7.1719 17.2915 6.99346 17.3552C6.51765 17.5209 6.98497 17.9585 7.26961 18.0137C7.90261 17.933 8.3402 17.7886 8.65033 17.5931C9.00719 17.831 9.3683 18.0902 9.73791 18.3706C9.26209 18.4428 8.77353 18.4938 8.54412 18.5745C8.0683 18.7402 8.32745 19.2075 8.61634 19.267C9.4915 19.3265 10.1075 19.2288 10.5451 19.0206C10.8892 19.3095 11.2333 19.6154 11.5775 19.9425C11.535 19.9595 11.501 19.9722 11.467 19.9765C10.9487 20.0275 10.3837 20.0402 10.1245 20.1124C9.6402 20.2441 9.86961 20.7284 10.15 20.8092C11.1399 20.9408 11.8324 20.8899 12.3252 20.6944C12.6013 20.9791 12.8775 21.2765 13.1493 21.5866C13.1196 21.5951 13.0899 21.6036 13.0686 21.6036C12.5503 21.6206 11.981 21.6036 11.7219 21.6546C11.2291 21.7565 11.4288 22.2536 11.7049 22.3513C12.7288 22.5552 13.383 22.5637 13.8418 22.415C14.0542 22.6827 14.2667 22.9546 14.4748 23.235C14.0203 23.2435 13.5699 23.235 13.349 23.2817C12.8562 23.3837 13.0559 23.8807 13.332 23.9784C14.1095 24.1314 14.6618 24.1611 15.0739 24.0889C15.2735 24.3863 15.469 24.6879 15.6601 24.998C15.2098 24.9471 14.666 24.8621 14.4706 24.8833C14.0118 24.9386 14.4493 25.4866 14.6958 25.5971C15.2905 25.7118 15.7451 25.7712 16.1105 25.7712C16.2676 26.0516 16.4206 26.3405 16.5693 26.6337C16.1742 26.5997 15.8088 26.5402 15.6007 26.5657C15.1503 26.6124 15.3415 27.0245 15.5879 27.1307ZM18.1327 27.2794C18.1327 27.2752 18.1284 27.2157 18.1284 27.2114C18.3536 27.033 18.583 26.7654 18.8379 26.4297C19.2075 25.9497 18.6425 25.5121 18.1157 26.0644C17.9882 26.2003 17.8565 26.298 17.7248 26.3788C17.5804 26.1111 17.402 25.7967 17.2023 25.4569C17.4572 25.2487 17.6526 24.9386 17.8778 24.518C18.1624 23.9827 17.4105 23.4431 17.1768 24.0422C17.0578 24.3438 16.9049 24.552 16.7392 24.6964C16.5183 24.3438 16.2719 23.9699 16.0042 23.5791C16.2337 23.3199 16.4036 22.9843 16.616 22.6147C16.9431 22.0412 16.0977 21.7523 15.7833 22.2918C15.6601 22.5 15.5454 22.6614 15.4392 22.7846C15.1928 22.4448 14.9294 22.1007 14.6575 21.7523C14.8062 21.5271 14.9379 21.2552 15.0824 20.9408C15.4137 20.2271 14.5938 19.6196 14.3176 20.4013C14.2412 20.618 14.1307 20.8007 14.0075 20.9578C13.7356 20.635 13.4552 20.3163 13.1621 19.9977C13.3405 19.7173 13.451 19.3817 13.5359 19.0036C13.6761 18.3578 12.9199 18.0137 12.6438 18.702C12.5716 18.8846 12.4824 19.0461 12.3846 19.1905C12.0448 18.8507 11.6879 18.5193 11.3225 18.2007C11.4585 17.865 11.4925 17.4699 11.4755 17.0578C11.4458 16.3993 10.6513 16.2592 10.5876 16.8794C10.5663 17.1046 10.5196 17.3085 10.4644 17.4912C10.0905 17.198 9.70392 16.9219 9.30882 16.6627C9.39804 16.2931 9.40229 15.8683 9.42353 15.4137C9.44902 14.8997 8.59085 15.0611 8.60359 15.384C8.62059 15.7111 8.62484 16 8.61209 16.2379C8.18301 15.9873 7.74543 15.7663 7.2951 15.5667C7.34183 15.35 7.36307 15.1036 7.35458 14.8232C7.32484 14.1647 6.70033 14.1307 6.64085 14.751C6.6366 14.8147 6.56438 15.0101 6.46667 15.2353C6.19052 15.1376 5.91438 15.0569 5.62974 14.9846C5.80392 14.4069 5.69771 13.8546 5.19216 13.7059C5.0732 13.6719 4.96275 13.6719 4.86078 13.7016C5.81242 9.07516 9.57222 5.4768 14.2794 4.75882C14.0373 4.9415 13.7824 5.20065 13.502 5.56601C13.1324 6.04608 13.6974 6.46667 14.2242 5.91438C14.3771 5.75294 14.5301 5.64248 14.6788 5.55752C14.8232 5.82516 14.9931 6.13105 15.1928 6.47091C14.9082 6.67484 14.7 7.00196 14.4621 7.45229C14.1775 7.98758 14.9294 8.52712 15.1631 7.9281C15.2948 7.59248 15.4732 7.37157 15.6559 7.22712C15.8768 7.57549 16.119 7.94935 16.3866 8.33595C16.1317 8.59935 15.9533 8.95621 15.7239 9.3598C15.3967 9.93333 16.2422 10.2222 16.5565 9.68268C16.701 9.43627 16.8327 9.26209 16.9516 9.13039C17.198 9.46601 17.4572 9.80588 17.7333 10.15C17.5634 10.3922 17.419 10.6853 17.2575 11.0337C16.9261 11.7474 17.7461 12.3549 18.0222 11.5732C18.1114 11.3225 18.2431 11.1144 18.3918 10.9444C18.6637 11.2588 18.9441 11.5732 19.2373 11.8833C19.0248 12.1807 18.8931 12.5503 18.7997 12.9752C18.6595 13.6209 19.4157 13.965 19.6918 13.2768C19.781 13.0516 19.9 12.8562 20.0232 12.6863C20.3588 13.0134 20.7114 13.332 21.0725 13.6379C20.8814 14.0033 20.8389 14.4493 20.8559 14.9209C20.8856 15.5794 21.6801 15.7196 21.7438 15.0993C21.7735 14.8062 21.8373 14.5471 21.9222 14.3261C22.2961 14.6108 22.6827 14.8784 23.0778 15.1333C22.9333 15.5454 22.9333 16.034 22.9078 16.565C22.8824 17.0791 23.7405 16.9176 23.7278 16.5948C23.7065 16.1614 23.7023 15.7918 23.7363 15.5284C24.1739 15.7791 24.6242 16.0085 25.083 16.2082C25.0023 16.4716 24.9598 16.7817 24.9725 17.1513C25.0023 17.8098 25.6268 17.8438 25.6863 17.2235C25.6948 17.1386 25.801 16.8539 25.9454 16.5523C26.2131 16.6458 26.485 16.8412 26.7611 16.9176C26.502 17.5549 26.5742 18.4895 27.135 18.4895H27.1392C26.2386 23.1755 22.6572 26.4212 18.1327 27.2794ZM26.5529 15.7239C26.5572 15.7239 26.5614 15.7196 26.5614 15.7196C27.118 15.6431 26.8631 14.7 26.1493 15.0951C25.9837 15.1376 25.818 15.2141 25.665 15.3288C25.3549 15.1758 25.032 15.0016 24.7007 14.8105C24.981 14.717 25.1977 14.666 25.3422 14.615C25.818 14.4493 25.3507 14.0118 25.066 13.9565C24.5392 14.0245 24.1484 14.135 23.8552 14.2837C23.5239 14.0627 23.184 13.8206 22.8399 13.5657C23.2307 13.5105 23.6046 13.4637 23.7958 13.4C24.2716 13.2343 24.0124 12.767 23.7235 12.7075C22.9588 12.6565 22.3895 12.7245 21.969 12.8775C21.6333 12.5971 21.2977 12.3039 20.9621 11.9895C21.4549 11.9471 21.9732 11.9301 22.2154 11.8621C22.6997 11.7304 22.4703 11.2461 22.1899 11.1654C21.3062 11.0464 20.6562 11.0761 20.1761 11.2248C19.9042 10.9487 19.6366 10.6641 19.3732 10.3667C19.8618 10.3539 20.3758 10.3667 20.618 10.3157C21.1108 10.2137 20.9111 9.71667 20.635 9.61895C19.7173 9.43627 19.0928 9.41078 18.6467 9.51274C18.4386 9.25784 18.2346 8.99869 18.0307 8.73529C18.4258 8.73105 18.7997 8.73105 18.9951 8.68856C19.4879 8.5866 19.2882 8.08954 19.0121 7.99183C18.3154 7.85588 17.8013 7.8219 17.4062 7.86438C17.2108 7.57974 17.0154 7.2866 16.8284 6.98497C17.2448 7.03595 17.6993 7.10392 17.8735 7.08268C18.3324 7.02745 17.8948 6.47941 17.6484 6.36895C17.1173 6.26699 16.6967 6.20752 16.3484 6.19477C16.1869 5.91438 16.034 5.62974 15.881 5.34085C16.2337 5.37484 16.548 5.42157 16.7392 5.40033C17.198 5.3451 17.0069 4.93725 16.7605 4.8268C16.565 4.75033 16.3866 4.68235 16.2167 4.62288C22.381 4.73333 27.3516 9.74641 27.3856 15.9278C27.3686 15.9448 27.3474 15.9618 27.3304 15.9788C27.0797 15.9193 26.8206 15.8301 26.5529 15.7239Z" fill="#36485C"/>
</svg>
