<svg width="32" height="32" viewBox="0 0 32 32" fill="none" xmlns="http://www.w3.org/2000/svg">
<path d="M17.2836 7.31715L15.006 14.4942H18.704C19.074 14.4942 19.3159 14.8821 19.153 15.2142L14.1295 25.4584C14.0128 25.6963 13.7308 25.8019 13.4865 25.699L12.499 25.2832C12.2607 25.1829 12.1382 24.9175 12.2164 24.6712L14.4939 17.4942H10.796C10.426 17.4942 10.1841 17.1062 10.347 16.7741L15.3705 6.52992C15.4872 6.29201 15.7692 6.18642 16.0134 6.28932L17.001 6.70509C17.2393 6.80544 17.3618 7.07082 17.2836 7.31715Z" fill="#36485C"/>
<path d="M4.5 7.99416H13.5387L12.5579 9.99416H6V21.9942H12.0167L11.382 23.9942H4.5C4.22388 23.9942 4 23.7703 4 23.4942V8.49416C4 8.21803 4.22388 7.99416 4.5 7.99416Z" fill="#36485C"/>
<path d="M24 21.9942H16.942L15.9612 23.9942H25.5C25.7761 23.9942 26 23.7703 26 23.4942V20.9942H28.5C28.7761 20.9942 29 20.7703 29 20.4942V11.4942C29 11.218 28.7761 10.9942 28.5 10.9942H26V8.49416C26 8.21803 25.7761 7.99416 25.5 7.99416H18.1179L17.4832 9.99416H24V12.4942C24 12.7703 24.2239 12.9942 24.5 12.9942H27V18.9942H24.5C24.2239 18.9942 24 19.218 24 19.4942V21.9942Z" fill="#36485C"/>
</svg>
