<svg width="32" height="32" viewBox="0 0 32 32" fill="none" xmlns="http://www.w3.org/2000/svg">
<path d="M7.5 11C7.22385 11 7 11.2239 7 11.5V20.5C7 20.7761 7.22385 21 7.5 21H10.5C10.7762 21 11 20.7761 11 20.5V11.5C11 11.2239 10.7762 11 10.5 11H7.5Z" fill="#36485C"/>
<path fill-rule="evenodd" clip-rule="evenodd" d="M25.5 24C25.7762 24 26 23.7761 26 23.5V21H28.5C28.7762 21 29 20.7761 29 20.5V11.5C29 11.2239 28.7762 11 28.5 11H26V8.5C26 8.22388 25.7762 8 25.5 8H4.5C4.22385 8 4 8.22388 4 8.5V23.5C4 23.7761 4.22385 24 4.5 24H25.5ZM24.5 19C24.2238 19 24 19.2239 24 19.5V22H6V10H24V12.5C24 12.7761 24.2238 13 24.5 13H27V19H24.5Z" fill="#36485C"/>
</svg>
