<svg width="32" height="32" viewBox="0 0 32 32" fill="none" xmlns="http://www.w3.org/2000/svg">
<path d="M17.2836 7.31716L15.0061 14.4941H18.704C19.074 14.4941 19.3158 14.8821 19.1529 15.2143L14.1295 25.4583C14.0128 25.6963 13.7308 25.8018 13.4865 25.699L12.4989 25.2832C12.2607 25.1829 12.1382 24.9175 12.2164 24.6711L14.4939 17.4941H10.796C10.426 17.4941 10.1841 17.1062 10.3471 16.774L15.3705 6.52996C15.4872 6.29202 15.7692 6.18645 16.0135 6.28928L17.001 6.70511C17.2393 6.80542 17.3618 7.07078 17.2836 7.31716Z" fill="#36485C"/>
<path d="M13.5387 7.99414H4.5C4.22386 7.99414 4 8.218 4 8.49414V23.4941C4 23.7703 4.22386 23.9941 4.5 23.9941H11.382L12.0167 21.9941H6V9.99414H12.5579L13.5387 7.99414Z" fill="#36485C"/>
<path d="M16.942 21.9941H24V19.4941C24 19.218 24.2239 18.9941 24.5 18.9941H27V12.9941H24.5C24.2239 12.9941 24 12.7703 24 12.4941V9.99414H17.4832L18.1179 7.99414H25.5C25.7761 7.99414 26 8.218 26 8.49414V10.9941H28.5C28.7761 10.9941 29 11.218 29 11.4941V20.4941C29 20.7703 28.7761 20.9941 28.5 20.9941H26V23.4941C26 23.7703 25.7761 23.9941 25.5 23.9941H15.9612L16.942 21.9941Z" fill="#36485C"/>
<path d="M12.0676 10.9941H7V20.9941H12.3341L13.1274 18.4941H10.796C9.68595 18.4941 8.96045 17.3303 9.44918 16.3337L12.0676 10.9941Z" fill="#36485C"/>
<path d="M17.4323 20.9941H22.5C22.7761 20.9941 23 20.7703 23 20.4941V11.4941C23 11.218 22.7761 10.9941 22.5 10.9941H17.1659L16.3725 13.4941H18.704C19.814 13.4941 20.5395 14.6579 20.0508 15.6545L17.4323 20.9941Z" fill="#36485C"/>
</svg>
