<svg width="32" height="32" viewBox="0 0 32 32" fill="none" xmlns="http://www.w3.org/2000/svg">
<path fill-rule="evenodd" clip-rule="evenodd" d="M4.18322 23.2998L13.3646 3.78706C13.447 3.61183 13.6233 3.5 13.817 3.5H17.1965C17.3828 3.5 17.5537 3.60364 17.6398 3.7689L27.8169 23.3001C27.9372 23.5273 28 23.7612 28 24C28 26.2091 22.6274 28 16 28C9.37258 28 4 26.2091 4 24C4 23.7611 4.06281 23.5272 4.18322 23.2998ZM14.7688 5.5H16.2868L24.4486 21.1594C22.28 20.4427 19.2951 20 16 20C12.6114 20 9.55083 20.4682 7.36874 21.2211L14.7688 5.5ZM26.0518 23.7598C26.0518 23.7598 26.0499 23.7643 26.0436 23.773C26.0482 23.7642 26.0518 23.7598 26.0518 23.7598ZM23.8528 23.0689C24.8063 23.3868 25.4413 23.7216 25.8013 24C25.4413 24.2784 24.8063 24.6132 23.8528 24.9311C21.9351 25.5703 19.1586 26 16 26C12.8414 26 10.0649 25.5703 8.14717 24.9311C7.19371 24.6132 6.55874 24.2784 6.1987 24C6.55874 23.7216 7.19371 23.3868 8.14717 23.0689C10.0649 22.4297 12.8414 22 16 22C19.1586 22 21.9351 22.4297 23.8528 23.0689ZM5.94823 23.7598C5.94823 23.7598 5.95183 23.7642 5.95639 23.7731C5.95007 23.7643 5.94823 23.7598 5.94823 23.7598ZM5.94823 24.2402C5.94823 24.2402 5.95007 24.2357 5.95639 24.2269C5.95183 24.2358 5.94823 24.2402 5.94823 24.2402ZM26.0436 24.227C26.0499 24.2357 26.0518 24.2402 26.0518 24.2402C26.0518 24.2402 26.0482 24.2358 26.0436 24.227Z" fill="#36485C"/>
</svg>
