<svg width="32" height="32" viewBox="0 0 32 32" fill="none" xmlns="http://www.w3.org/2000/svg">
<path d="M6.86546 4.25262C6.6885 4.02775 6.73567 3.6998 6.97476 3.54258C9.64481 1.78675 12.7977 0.899052 16.0001 1.00913C18.5397 1.00913 22.1368 1.41933 25.0855 3.34505C25.3175 3.49656 25.3677 3.81148 25.205 4.03572L24.8762 4.48871C24.721 4.7025 24.4267 4.75787 24.1994 4.62323C21.7258 3.1579 18.8798 2.43261 16.0001 2.53913C13.1262 2.44149 10.296 3.23117 7.8919 4.79479C7.66957 4.93938 7.37183 4.89614 7.20783 4.68772L6.86546 4.25262Z" fill="#36485C"/>
<path d="M28.008 11.6495C27.7827 11.8094 27.4717 11.7564 27.3061 11.5353C25.5239 9.15587 22.4122 6.24901 16.0001 6.24901C13.7458 6.19224 11.5112 6.68085 9.48631 7.67326C7.61464 8.59059 5.97339 9.91328 4.68049 11.5428C4.50615 11.7625 4.18729 11.8082 3.96509 11.637L3.5386 11.3084C3.32283 11.1421 3.27918 10.8332 3.44807 10.6195C4.88779 8.79769 6.71891 7.31997 8.80818 6.29729C11.0444 5.20265 13.511 4.66137 16.0001 4.71901C21.4298 4.71901 25.5387 6.66748 28.5444 10.6551C28.7107 10.8758 28.6573 11.1888 28.4319 11.3487L28.008 11.6495Z" fill="#36485C"/>
<path d="M12.4416 29.3407C12.1962 29.4446 12.0655 29.7178 12.1488 29.9711L12.3263 30.511C12.4155 30.7821 12.7136 30.9244 12.9768 30.8139C17.6841 28.8364 20.4901 24.9631 20.4901 20.3789C20.526 19.7742 20.434 19.1686 20.2201 18.6018C20.0062 18.0349 19.6752 17.5196 19.2487 17.0893C18.8222 16.659 18.3097 16.3235 17.7448 16.1046C17.1799 15.8857 16.5752 15.7884 15.9701 15.8189C13.3001 15.8189 11.7701 17.3989 11.4101 20.5089C11.3775 20.8694 11.2739 21.2198 11.1051 21.5399C10.9364 21.8601 10.7059 22.1436 10.427 22.3742C10.1481 22.6048 9.82621 22.7778 9.48003 22.8834C9.13385 22.9889 8.77021 23.0247 8.41008 22.9889C8.0189 22.9939 7.6311 22.916 7.27222 22.7603C6.91334 22.6045 6.59151 22.3745 6.32793 22.0855C6.06435 21.7964 5.86499 21.4547 5.74299 21.083C5.62098 20.7113 5.5791 20.318 5.62008 19.9289C5.6435 18.5903 5.93073 17.2694 6.46534 16.042C6.99995 14.8145 7.77144 13.7045 8.73563 12.7757C9.69981 11.8468 10.8378 11.1172 12.0843 10.6287C13.3308 10.1402 14.6615 9.90243 16.0001 9.92894C18.7664 9.92361 21.422 11.0154 23.3846 12.9649C25.3473 14.9144 26.4569 17.5626 26.4701 20.3289C26.4038 22.1931 26.0356 24.033 25.3809 25.7773C25.2845 26.0343 25.4042 26.3244 25.6574 26.4303L26.1458 26.6347C26.4017 26.7417 26.6966 26.6202 26.795 26.3608C27.5272 24.4318 27.9348 22.3935 28.0001 20.3289C27.9816 17.1585 26.7091 14.1242 24.4607 11.8889C22.2123 9.65355 19.1706 8.39888 16.0001 8.39894C12.908 8.36411 9.92767 9.55376 7.70948 11.7082C5.49129 13.8627 4.21534 16.8072 4.16008 19.8989C4.11558 20.4902 4.19473 21.0843 4.39247 21.6434C4.59022 22.2024 4.90223 22.7141 5.30863 23.1459C5.71503 23.5777 6.20691 23.9201 6.75294 24.1514C7.29897 24.3826 7.88718 24.4976 8.48008 24.4889C9.58261 24.5593 10.6695 24.1995 11.5124 23.4853C12.3552 22.7711 12.8885 21.7581 13.0001 20.6589C13.2401 18.3089 14.1401 17.3089 16.0001 17.3089C16.4017 17.2791 16.805 17.3362 17.1826 17.4764C17.5601 17.6166 17.9029 17.8366 18.1877 18.1213C18.4725 18.4061 18.6925 18.7489 18.8327 19.1265C18.9729 19.504 19.03 19.9073 19.0001 20.3089C19.0001 24.2593 16.5466 27.6032 12.4416 29.3407Z" fill="#36485C"/>
<path d="M19.6279 29.3556C19.4208 29.1656 19.4118 28.8429 19.5985 28.6329C21.6304 26.3481 22.7685 23.3981 22.7901 20.329C22.7901 18.769 22.3101 13.679 16.0901 13.679C15.1838 13.6472 14.2802 13.7961 13.432 14.1172C12.5838 14.4382 11.8081 14.925 11.1501 15.549C10.5613 16.1316 10.0959 16.8267 9.78147 17.5929C9.46706 18.3591 9.31015 19.1808 9.32008 20.009C9.31745 20.2115 9.23517 20.4048 9.09105 20.547C8.94693 20.6893 8.75258 20.769 8.55008 20.769C8.44944 20.7704 8.34954 20.7517 8.25617 20.7141C8.16281 20.6765 8.07784 20.6207 8.00621 20.55C7.93457 20.4793 7.8777 20.3951 7.83888 20.3022C7.80006 20.2093 7.78008 20.1097 7.78008 20.009C7.7645 18.9846 7.95274 17.9672 8.33385 17.0161C8.71497 16.0651 9.28136 15.1992 10.0001 14.469C10.7968 13.7044 11.7374 13.1055 12.7674 12.7073C13.7974 12.309 14.8962 12.1192 16.0001 12.149C22.0801 12.149 24.2401 16.549 24.2401 20.329C24.2276 23.7723 22.955 27.0858 20.6724 29.6487C20.4913 29.852 20.1796 29.8618 19.9789 29.6777L19.6279 29.3556Z" fill="#36485C"/>
<path d="M7.59703 27.7065C7.95066 27.734 8.30526 27.7482 8.66008 27.749C10.62 27.8373 12.5465 27.2199 14.0901 26.009C14.8947 25.3031 15.5472 24.4407 16.0079 23.4746C16.4686 22.5084 16.7279 21.4586 16.7701 20.389C16.7784 20.187 16.708 19.9897 16.5737 19.8386C16.4394 19.6875 16.2517 19.5944 16.0501 19.579C15.9492 19.5695 15.8473 19.5804 15.7508 19.6113C15.6542 19.6422 15.5649 19.6923 15.4883 19.7587C15.4116 19.8251 15.3492 19.9063 15.3048 19.9974C15.2605 20.0886 15.235 20.1878 15.2301 20.289C15.2006 21.1481 14.9976 21.9923 14.6333 22.7708C14.2689 23.5493 13.7508 24.2461 13.1101 24.819C11.8142 25.9005 10.0228 26.3562 7.76839 26.186C7.49291 26.1652 7.24518 26.3617 7.21447 26.6362L7.15557 27.1629C7.12491 27.437 7.32202 27.6851 7.59703 27.7065Z" fill="#36485C"/>
</svg>
