<svg width="32" height="32" viewBox="0 0 32 32" fill="none" xmlns="http://www.w3.org/2000/svg">
<g clip-path="url(#clip0_10341_10)">
<path fill-rule="evenodd" clip-rule="evenodd" d="M7.8963 17.18H15.0484C15.3838 17.18 15.6241 17.5036 15.527 17.8247L12.7032 27.1669L24.2021 14.82H17.9515C17.6161 14.82 17.3758 14.4963 17.4729 14.1753L20.3771 4.56706L7.8963 17.18ZM21.5141 0.574595C21.6757 0.411286 21.9278 0.379118 22.1252 0.496614L23.1211 1.08933C23.3186 1.20683 23.4105 1.44374 23.344 1.66366L19.9719 12.82H27.6489C28.0858 12.82 28.3125 13.341 28.0148 13.6608L11.5025 31.3909C11.3439 31.561 11.089 31.5995 10.8874 31.4836L9.88709 30.9086C9.68546 30.7927 9.59036 30.5531 9.65765 30.3304L13.028 19.18H4.30178C3.8576 19.18 3.63394 18.644 3.94637 18.3283L21.5141 0.574595Z" fill="#36485C"/>
</g>
<defs>
<clipPath id="clip0_10341_10">
<rect width="32" height="32" fill="white"/>
</clipPath>
</defs>
</svg>
