<svg width="32" height="32" viewBox="0 0 32 32" fill="none" xmlns="http://www.w3.org/2000/svg">
<path d="M4.5 4H8.5C8.77614 4 9 4.22386 9 4.5V5.5C9 5.77614 8.77614 6 8.5 6H6V8.5C6 8.77614 5.77614 9 5.5 9H4.5C4.22386 9 4 8.77614 4 8.5V4.5C4 4.22386 4.22386 4 4.5 4Z" fill="#36485C"/>
<path d="M4 11.5C4 11.2239 4.22386 11 4.5 11H5.5C5.77614 11 6 11.2239 6 11.5V14.5C6 14.7761 5.77614 15 5.5 15H4.5C4.22386 15 4 14.7761 4 14.5V11.5Z" fill="#36485C"/>
<path d="M28 11.5C28 11.2239 27.7761 11 27.5 11H26.5C26.2239 11 26 11.2239 26 11.5V14.5C26 14.7761 26.2239 15 26.5 15H27.5C27.7761 15 28 14.7761 28 14.5V11.5Z" fill="#36485C"/>
<path d="M26 8.5C26 8.77614 26.2239 9 26.5 9H27.5C27.7761 9 28 8.77614 28 8.5V4.5C28 4.22386 27.7761 4 27.5 4H23.5C23.2239 4 23 4.22386 23 4.5V5.5C23 5.77614 23.2239 6 23.5 6H26V8.5Z" fill="#36485C"/>
<path d="M4.5 23C4.22386 23 4 23.2239 4 23.5V27.5C4 27.7761 4.21373 28 4.48987 28H8.5C8.77614 28 9 27.7761 9 27.5V26.5C9 26.2239 8.77614 26 8.5 26H6V23.5C6 23.2239 5.77614 23 5.5 23H4.5Z" fill="#36485C"/>
<path d="M4 20.5C4 20.7761 4.22386 21 4.5 21H5.5C5.77614 21 6 20.7761 6 20.5V17.5C6 17.2239 5.77614 17 5.5 17H4.5C4.22386 17 4 17.2239 4 17.5V20.5Z" fill="#36485C"/>
<path d="M26.5 23C26.2239 23 26 23.2239 26 23.5V26H23.5C23.2239 26 23 26.2239 23 26.5V27.5C23 27.7761 23.2239 28 23.5 28H27.5027C27.7789 28 28 27.7761 28 27.5V23.5C28 23.2239 27.7761 23 27.5 23H26.5Z" fill="#36485C"/>
<path d="M28 20.5C28 20.7761 27.7761 21 27.5 21H26.5C26.2239 21 26 20.7761 26 20.5V17.5C26 17.2239 26.2239 17 26.5 17H27.5C27.7761 17 28 17.2239 28 17.5V20.5Z" fill="#36485C"/>
<path d="M11.5 28C11.2239 28 11 27.7761 11 27.5V26.5C11 26.2239 11.2239 26 11.5 26H14.5C14.7761 26 15 26.2239 15 26.5V27.5C15 27.7761 14.7761 28 14.5 28H11.5Z" fill="#36485C"/>
<path d="M11.5 4C11.2239 4 11 4.22386 11 4.5V5.5C11 5.77614 11.2239 6 11.5 6H14.5C14.7761 6 15 5.77614 15 5.5V4.5C15 4.22386 14.7761 4 14.5 4H11.5Z" fill="#36485C"/>
<path d="M21 4.5C21 4.22386 20.7761 4 20.5 4H17.5C17.2239 4 17 4.22386 17 4.5V5.5C17 5.77614 17.2239 6 17.5 6H20.5C20.7761 6 21 5.77614 21 5.5V4.5Z" fill="#36485C"/>
<path d="M21 26.5C21 26.2239 20.7761 26 20.5 26H17.5C17.2239 26 17 26.2239 17 26.5V27.5C17 27.7761 17.2239 28 17.5 28H20.5C20.7761 28 21 27.7761 21 27.5V26.5Z" fill="#36485C"/>
</svg>
