<svg width="32" height="32" viewBox="0 0 32 32" fill="none" xmlns="http://www.w3.org/2000/svg">
<path d="M24 15.5C24 16.3284 23.3284 17 22.5 17C21.6716 17 21 16.3284 21 15.5C21 14.6716 21.6716 14 22.5 14C23.3284 14 24 14.6716 24 15.5Z" fill="#36485C"/>
<path d="M16 24C16.8284 24 17.5 23.3284 17.5 22.5C17.5 21.6716 16.8284 21 16 21C15.1716 21 14.5 21.6716 14.5 22.5C14.5 23.3284 15.1716 24 16 24Z" fill="#36485C"/>
<path d="M17.5 15.5C17.5 16.3284 16.8284 17 16 17C15.1716 17 14.5 16.3284 14.5 15.5C14.5 14.6716 15.1716 14 16 14C16.8284 14 17.5 14.6716 17.5 15.5Z" fill="#36485C"/>
<path d="M22.5 24C23.3284 24 24 23.3284 24 22.5C24 21.6716 23.3284 21 22.5 21C21.6716 21 21 21.6716 21 22.5C21 23.3284 21.6716 24 22.5 24Z" fill="#36485C"/>
<path d="M11 15.5C11 16.3284 10.3284 17 9.5 17C8.67157 17 8 16.3284 8 15.5C8 14.6716 8.67157 14 9.5 14C10.3284 14 11 14.6716 11 15.5Z" fill="#36485C"/>
<path d="M9.5 24C10.3284 24 11 23.3284 11 22.5C11 21.6716 10.3284 21 9.5 21C8.67157 21 8 21.6716 8 22.5C8 23.3284 8.67157 24 9.5 24Z" fill="#36485C"/>
<path fill-rule="evenodd" clip-rule="evenodd" d="M22 4V2.5C22 2.22386 21.7761 2 21.5 2H20.5C20.2239 2 20 2.22386 20 2.5V4H12V2.5C12 2.22386 11.7761 2 11.5 2H10.5C10.2239 2 10 2.22386 10 2.5V4H4.5C4.22386 4 4 4.2184 4 4.49454V27.5079C4 27.784 4.2184 28 4.49454 28H27.5079C27.784 28 28 27.7816 28 27.5055V4.49213C28 4.21598 27.7761 4 27.5 4H22ZM26 12V26H6V12H26ZM26 10H6V6H10V7.5C10 7.77614 10.2239 8 10.5 8H11.5C11.7761 8 12 7.77614 12 7.5V6H20V7.5C20 7.77614 20.2239 8 20.5 8H21.5C21.7761 8 22 7.77614 22 7.5V6H26V10Z" fill="#36485C"/>
</svg>
