<svg width="32" height="32" viewBox="0 0 32 32" fill="none" xmlns="http://www.w3.org/2000/svg">
<path fill-rule="evenodd" clip-rule="evenodd" d="M19 3C24.5228 3 29 7.47715 29 13V19C29 24.5228 24.5228 29 19 29H13C7.47715 29 3 24.5228 3 19V13C3 7.47715 7.47715 3 13 3H19ZM14.3536 21.0604C14.1583 21.2557 13.8417 21.2557 13.6465 21.0604L9.35348 16.7666C9.15825 16.5713 9.15827 16.2547 9.35352 16.0595L10.0595 15.3535C10.2547 15.1583 10.5713 15.1582 10.7666 15.3535L14 18.586L21.2314 11.3536C21.4267 11.1583 21.7433 11.1583 21.9386 11.3536L22.6464 12.0614C22.8417 12.2567 22.8417 12.5733 22.6464 12.7686L14.3536 21.0604Z" fill="#36485C"/>
</svg>
