<svg width="32" height="32" viewBox="0 0 32 32" fill="none" xmlns="http://www.w3.org/2000/svg">
<path fill-rule="evenodd" clip-rule="evenodd" d="M14.0176 5.10778C13.8541 4.86642 13.6572 4.65454 13.4261 4.47705C11.3501 2.88287 7.29161 4.66199 4.53558 8.24663C1.77955 11.8358 1.22564 16.0374 3.30167 17.6315C3.62584 17.8805 3.99492 18.0512 4.39747 18.1485C5.41719 18.6361 7.80776 19.771 10.7592 21.1171C10.489 21.3558 10.2593 21.6485 10.1152 22.0088C9.62433 23.2247 10.2098 24.6027 11.4212 25.089L16.9963 27.3317C18.2077 27.8181 19.5812 27.2281 20.072 26.0122C20.1711 25.76 20.2251 25.5033 20.2387 25.2512C21.9332 25.946 23.5685 26.5837 25.0296 27.1046C25.0699 27.4761 25.2151 27.7833 25.4715 27.9802C26.2281 28.5611 27.6601 27.9577 28.6779 26.6382C29.6956 25.3142 29.9073 23.7741 29.1507 23.1931C28.8753 22.9804 28.5081 22.9265 28.1033 23.0084C23.4316 16.7205 15.2749 6.65583 14.0176 5.10778ZM7.46854 17.7528C9.03802 17.0947 10.6872 15.8035 12.0516 14.0289C13.4736 12.18 14.3462 10.1243 14.5743 8.3476L27.6646 24.5126C27.6646 24.5126 26.9756 26.1518 26.3136 26.35C25.9759 26.2599 22.9181 24.8819 19.2389 23.1931C19.0948 23.0896 13.308 20.4596 13.308 20.4596L7.46854 17.7528ZM17.0413 25.4943C17.7033 25.76 18.2932 25.8366 18.5589 25.1746C18.5904 25.089 18.631 24.8684 18.6535 24.5982C16.4559 23.675 14.2222 22.6888 12.1732 21.7656C11.9616 22.1033 11.8129 22.387 11.7859 22.4546C11.5202 23.1166 11.9976 23.4678 12.6596 23.7335L17.0413 25.4943Z" fill="#36485C"/>
</svg>
