<svg width="32" height="32" viewBox="0 0 32 32" fill="none" xmlns="http://www.w3.org/2000/svg">
<path fill-rule="evenodd" clip-rule="evenodd" d="M2 16C2 8.268 8.268 2 16 2C23.732 2 30 8.268 30 16C30 23.732 23.732 30 16 30C8.268 30 2 23.732 2 16ZM13.9201 27.8204C14.5957 27.9384 15.2906 28 16 28C16.1953 28 16.3895 27.9953 16.5826 27.9861L27.9861 16.5826C27.9953 16.3895 28 16.1953 28 16C28 15.2906 27.9384 14.5957 27.8204 13.9201L13.9201 27.8204ZM11.704 27.2081L27.2081 11.704C26.9536 11.0403 26.6418 10.4051 26.2788 9.8042L9.8042 26.2788C10.4051 26.6418 11.0403 26.9536 11.704 27.2081ZM8.16511 25.0895L25.0895 8.16511C24.6534 7.65964 24.1759 7.19093 23.6622 6.76427L6.76427 23.6622C7.19093 24.1759 7.65964 24.6534 8.16511 25.0895ZM5.60268 21.9953L21.9953 5.60268C21.3837 5.24923 20.7379 4.94819 20.0642 4.70573L4.70573 20.0642C4.94819 20.7379 5.24923 21.3837 5.60268 21.9953ZM4.13507 17.8064L17.8064 4.13507C17.2172 4.04612 16.614 4 16 4C15.6896 4 15.3819 4.01179 15.0774 4.03494L4.03494 15.0774C4.01179 15.3819 4 15.6896 4 16C4 16.614 4.04612 17.2172 4.13507 17.8064ZM11.3495 4.93439L4.93439 11.3495C6.14945 8.46185 8.46185 6.14945 11.3495 4.93439ZM27.2723 20.1248L20.1248 27.2723C23.434 26.061 26.061 23.434 27.2723 20.1248Z" fill="#36485C"/>
</svg>
