<svg width="32" height="32" viewBox="0 0 32 32" fill="none" xmlns="http://www.w3.org/2000/svg">
<path d="M5.54706 19.63L11.8071 16L5.54706 12.37C4.67739 11.8804 3.97414 11.1417 3.52783 10.2491C3.08151 9.35639 2.91255 8.35058 3.0427 7.36108C3.17284 6.37158 3.59612 5.44366 4.25808 4.69675C4.92003 3.94985 5.79036 3.41813 6.75706 3.17003C7.17822 3.05947 7.61163 3.00236 8.04706 3.00003C8.92915 2.99697 9.79636 3.22732 10.5607 3.66771C11.325 4.1081 11.9592 4.74285 12.3989 5.50754C12.8386 6.27222 13.0682 7.13963 13.0644 8.02172C13.0605 8.90381 12.8234 9.76919 12.3771 10.53C11.8303 11.4716 10.9911 12.2089 9.98706 12.63L13.8071 14.84L27.613 6.85119C27.8525 6.7126 28.1591 6.7949 28.2969 7.03482L28.7986 7.90777C28.9359 8.1467 28.854 8.45169 28.6155 8.5897L15.8071 16L28.6163 23.4302C28.8545 23.5683 28.9361 23.8731 28.7989 24.1118L28.2972 24.9848C28.1592 25.2249 27.8524 25.3071 27.6128 25.1681L13.8071 17.16L9.98706 19.37C10.9911 19.7911 11.8303 20.5285 12.3771 21.47C12.8234 22.2309 13.0605 23.0962 13.0644 23.9783C13.0682 24.8604 12.8386 25.7278 12.3989 26.4925C11.9592 27.2572 11.325 27.892 10.5607 28.3323C9.79636 28.7727 8.92915 29.0031 8.04706 29C7.61163 28.9977 7.17822 28.9406 6.75706 28.83C5.79036 28.5819 4.92003 28.0502 4.25808 27.3033C3.59612 26.5564 3.17284 25.6285 3.0427 24.639C2.91255 23.6495 3.08151 22.6437 3.52783 21.751C3.97414 20.8583 4.67739 20.1196 5.54706 19.63ZM10.6471 9.53003C10.8474 9.18781 10.9779 8.80926 11.031 8.41628C11.0841 8.0233 11.0588 7.62369 10.9565 7.24056C10.8542 6.85743 10.677 6.49838 10.4351 6.18418C10.1931 5.86997 9.89132 5.60685 9.54706 5.41003C9.20508 5.21324 8.82764 5.08584 8.43636 5.03513C8.04508 4.98441 7.64763 5.01138 7.26679 5.11449C6.88594 5.21759 6.52918 5.39481 6.21692 5.636C5.90466 5.87718 5.64305 6.17759 5.44706 6.52003C5.24829 6.86183 5.11905 7.23956 5.06677 7.63149C5.01449 8.02341 5.04021 8.42181 5.14243 8.80376C5.24466 9.18572 5.42138 9.54369 5.66244 9.85711C5.9035 10.1705 6.20413 10.4332 6.54706 10.63C6.88844 10.8272 7.26534 10.9552 7.65622 11.0067C8.04709 11.0581 8.44427 11.032 8.82505 10.9298C9.20583 10.8277 9.56274 10.6515 9.87538 10.4113C10.188 10.1711 10.4502 9.87163 10.6471 9.53003ZM5.44706 25.53C5.64305 25.8725 5.90466 26.1729 6.21692 26.4141C6.52918 26.6552 6.88594 26.8325 7.26679 26.9356C7.64763 27.0387 8.04508 27.0656 8.43636 27.0149C8.82764 26.9642 9.20508 26.8368 9.54706 26.64C9.89132 26.4432 10.1931 26.1801 10.4351 25.8659C10.677 25.5517 10.8542 25.1926 10.9565 24.8095C11.0588 24.4264 11.0841 24.0268 11.031 23.6338C10.9779 23.2408 10.8474 22.8623 10.6471 22.52C10.4502 22.1784 10.188 21.879 9.87538 21.6388C9.56274 21.3986 9.20583 21.2224 8.82505 21.1202C8.44427 21.0181 8.04709 20.992 7.65622 21.0434C7.26534 21.0948 6.88844 21.2228 6.54706 21.42C5.86793 21.8173 5.37206 22.4655 5.16631 23.225C4.96055 23.9844 5.06138 24.7942 5.44706 25.48V25.53Z" fill="#36485C"/>
</svg>
