<svg width="32" height="32" viewBox="0 0 32 32" fill="none" xmlns="http://www.w3.org/2000/svg">
<path fill-rule="evenodd" clip-rule="evenodd" d="M4 6.5C4 6.22386 4.22386 6 4.5 6H23.5C23.7761 6 24 6.22386 24 6.5V21.5C24 21.7761 23.7761 22 23.5 22H4.5C4.22386 22 4 21.7761 4 21.5V6.5ZM6 20V8H22V20H6Z" fill="#36485C"/>
<path d="M27.5 10C27.7761 10 28 10.2239 28 10.5V25.5C28 25.7761 27.7761 26 27.5 26H8.5C8.22386 26 8 25.7761 8 25.5V24.5C8 24.2239 8.22386 24 8.5 24H26V10.5C26 10.2239 26.2239 10 26.5 10H27.5Z" fill="#36485C"/>
</svg>
