<svg width="32" height="32" viewBox="0 0 32 32" fill="none" xmlns="http://www.w3.org/2000/svg">
<path d="M16.5 7C16.7761 7 17 7.22386 17 7.5V15.5801L21.6475 20.2363C21.8423 20.4317 21.8416 20.7483 21.6465 20.9434L20.9434 21.6465C20.7481 21.8416 20.4316 21.8417 20.2363 21.6465L15.1465 16.5566C15.0528 16.4629 15.0001 16.3356 15 16.2031V7.5C15 7.22386 15.2239 7 15.5 7H16.5Z" fill="#36485C"/>
<path fill-rule="evenodd" clip-rule="evenodd" d="M16 2C23.732 2 30 8.268 30 16C30 23.732 23.732 30 16 30C8.268 30 2 23.732 2 16C2 8.268 8.268 2 16 2ZM16 4C9.3726 4 4 9.3726 4 16C4 22.6274 9.3726 28 16 28C22.6274 28 28 22.6274 28 16C28 9.3726 22.6274 4 16 4Z" fill="#36485C"/>
</svg>
