<svg width="32" height="32" viewBox="0 0 32 32" fill="none" xmlns="http://www.w3.org/2000/svg">
<path d="M20.0001 18V14.8982C20.0276 13.5318 20.4283 12.199 21.1588 11.044C21.8938 9.8097 22.1595 8.35193 21.9072 6.93769C21.655 5.52346 20.9017 4.24745 19.7853 3.34338C18.9794 2.68638 18.0166 2.25019 16.9913 2.07762C15.9659 1.90505 14.9134 2.00203 13.9369 2.35904C12.9603 2.71605 12.0934 3.32083 11.4212 4.11401C10.7489 4.9072 10.2945 5.86154 10.1024 6.88338C9.82647 8.31964 10.0929 9.80718 10.8502 11.0584C11.5679 12.175 11.9656 13.4672 12.0001 14.7942V18C9.50019 18 7.00031 18.0008 4.50043 18.0001C4.22415 18.0001 4.00015 18.2241 4.00024 18.5003C4.001 20.8334 4.00118 23.1665 4.00028 25.4995C4.00018 25.7759 4.22406 25.9999 4.50038 25.9998C4.97737 25.9997 5.67036 25.9996 6.00007 26C6.00007 27.1665 6.00053 28.333 6.00024 29.4995C6.00018 29.7759 6.2242 29.9999 6.50052 29.9998C12.8336 29.9971 19.1666 29.9971 25.4996 29.9998C25.7759 29.9999 26 29.7759 25.9999 29.4995C25.9996 28.333 26.0001 27.1665 26.0001 26C26.3298 25.9996 27.0228 25.9997 27.4998 25.9998C27.7761 25.9999 28 25.7759 27.9999 25.4995C27.999 23.1665 27.9991 20.8334 27.9999 18.5003C28 18.2241 27.776 18.0001 27.4997 18.0001C24.9998 18.0008 22.5 18 20.0001 18ZM12.0701 7.24398C12.1776 6.6699 12.4095 6.12632 12.7495 5.65146C13.0896 5.1766 13.5295 4.78198 14.0384 4.49534C14.5472 4.20869 15.1127 4.03699 15.6951 3.99228C16.2774 3.94758 16.8625 4.03097 17.4091 4.23658C17.9558 4.4422 18.4508 4.76505 18.8594 5.18245C19.2679 5.59985 19.58 6.10166 19.7739 6.65262C19.9677 7.20357 20.0385 7.79029 19.9814 8.37155C19.9242 8.9528 19.7404 9.51447 19.4429 10.0171C18.6995 11.2286 18.2298 12.588 18.0665 14H13.9401C13.7826 12.5896 13.3125 11.2321 12.5641 10.0264C12.0607 9.19202 11.8847 8.20062 12.0701 7.24398ZM18.0001 16V18H14.0001V16H18.0001ZM24.0001 28H8.00007V26H24.0001V28ZM6.00007 24V20H26.0001V24H6.00007Z" fill="#36485C"/>
</svg>
