<svg width="32" height="32" viewBox="0 0 32 32" fill="none" xmlns="http://www.w3.org/2000/svg">
<path fill-rule="evenodd" clip-rule="evenodd" d="M26 6C28.2091 6 30 7.79086 30 10V22C30 24.2091 28.2091 26 26 26H6C3.79086 26 2 24.2091 2 22V10C2 7.79086 3.79086 6 6 6H26ZM11.3848 10.9883C10.6381 10.9883 9.97949 11.1325 9.41016 11.4219C8.85022 11.7112 8.41204 12.1223 8.09473 12.6543C7.78673 13.177 7.63281 13.7839 7.63281 14.4746V17.498C7.63281 18.198 7.78681 18.8138 8.09473 19.3457C8.41202 19.8776 8.85027 20.2888 9.41016 20.5781C9.97949 20.8675 10.6381 21.0117 11.3848 21.0117C12.1313 21.0117 12.7848 20.8771 13.3447 20.6064C13.914 20.3264 14.3522 19.9337 14.6602 19.4297C14.9774 18.9257 15.1367 18.3423 15.1367 17.6797C15.1366 17.6425 15.1173 17.6099 15.0801 17.582C15.0522 17.5543 15.0151 17.5401 14.9688 17.54L12.9805 17.4424C12.8686 17.4424 12.8127 17.4933 12.8125 17.5957C12.8125 18.0248 12.682 18.3705 12.4209 18.6318C12.1596 18.8931 11.8139 19.0243 11.3848 19.0244C10.9554 19.0244 10.61 18.8932 10.3486 18.6318C10.0873 18.3705 9.95605 18.025 9.95605 17.5957V14.418C9.95609 13.9887 10.0873 13.6431 10.3486 13.3818C10.6099 13.1113 10.9556 12.9766 11.3848 12.9766C11.8139 12.9766 12.1596 13.1069 12.4209 13.3682C12.682 13.6294 12.8125 13.9795 12.8125 14.418C12.8125 14.5206 12.8685 14.5723 12.9805 14.5723L14.9688 14.4463C15.0151 14.4462 15.0522 14.4321 15.0801 14.4043C15.1174 14.3763 15.1367 14.3387 15.1367 14.292C15.1367 13.6387 14.9775 13.0649 14.6602 12.5703C14.3522 12.0664 13.9139 11.6789 13.3447 11.4082C12.7848 11.1282 12.1313 10.9883 11.3848 10.9883ZM20.6152 10.9883C19.8688 10.9883 19.2108 11.1326 18.6416 11.4219C18.0816 11.7112 17.6435 12.1223 17.3262 12.6543C17.0182 13.177 16.8633 13.7839 16.8633 14.4746V17.498C16.8633 18.198 17.0182 18.8137 17.3262 19.3457C17.6435 19.8777 18.0816 20.2888 18.6416 20.5781C19.2108 20.8674 19.8688 21.0117 20.6152 21.0117C21.3619 21.0117 22.0162 20.8771 22.5762 20.6064C23.1454 20.3265 23.5837 19.9336 23.8916 19.4297C24.2088 18.9258 24.3682 18.3422 24.3682 17.6797C24.368 17.6425 24.3487 17.6099 24.3115 17.582C24.2835 17.5541 24.2458 17.54 24.1992 17.54L22.2119 17.4424C22.1001 17.4424 22.0441 17.4933 22.0439 17.5957C22.0439 18.025 21.9127 18.3705 21.6514 18.6318C21.39 18.8932 21.0446 19.0244 20.6152 19.0244C20.1861 19.0243 19.8413 18.8931 19.5801 18.6318C19.3187 18.3705 19.1875 18.025 19.1875 17.5957V14.418C19.1875 13.9887 19.3188 13.6431 19.5801 13.3818C19.8413 13.1115 20.1863 12.9767 20.6152 12.9766C21.0445 12.9766 21.3901 13.1069 21.6514 13.3682C21.9127 13.6295 22.0439 13.9794 22.0439 14.418C22.0439 14.5206 22.0999 14.5723 22.2119 14.5723L24.1992 14.4463C24.2458 14.4463 24.2835 14.4322 24.3115 14.4043C24.3489 14.3763 24.3682 14.3387 24.3682 14.292C24.3681 13.6388 24.2089 13.0649 23.8916 12.5703C23.5837 12.0664 23.1453 11.6789 22.5762 11.4082C22.0162 11.1282 21.3619 10.9883 20.6152 10.9883Z" fill="#36485C"/>
</svg>
