<svg width="32" height="32" viewBox="0 0 32 32" fill="none" xmlns="http://www.w3.org/2000/svg">
<path d="M11.3848 10.9883C12.1313 10.9883 12.7848 11.1282 13.3447 11.4082C13.9139 11.6789 14.3522 12.0664 14.6602 12.5703C14.9775 13.0649 15.1367 13.6387 15.1367 14.292C15.1367 14.3387 15.1174 14.3763 15.0801 14.4043C15.0522 14.4321 15.0151 14.4462 14.9688 14.4463L12.9805 14.5723C12.8685 14.5723 12.8125 14.5206 12.8125 14.418C12.8125 13.9795 12.682 13.6294 12.4209 13.3682C12.1596 13.1069 11.8139 12.9766 11.3848 12.9766C10.9556 12.9766 10.6099 13.1113 10.3486 13.3818C10.0873 13.6431 9.95609 13.9887 9.95605 14.418V17.5957C9.95605 18.025 10.0873 18.3705 10.3486 18.6318C10.61 18.8932 10.9554 19.0244 11.3848 19.0244C11.8139 19.0243 12.1596 18.8931 12.4209 18.6318C12.682 18.3705 12.8125 18.0248 12.8125 17.5957C12.8127 17.4933 12.8686 17.4424 12.9805 17.4424L14.9688 17.54C15.0151 17.5401 15.0522 17.5543 15.0801 17.582C15.1173 17.6099 15.1366 17.6425 15.1367 17.6797C15.1367 18.3423 14.9774 18.9257 14.6602 19.4297C14.3522 19.9337 13.914 20.3264 13.3447 20.6064C12.7848 20.8771 12.1313 21.0117 11.3848 21.0117C10.6381 21.0117 9.97949 20.8675 9.41016 20.5781C8.85027 20.2888 8.41202 19.8776 8.09473 19.3457C7.78681 18.8138 7.63281 18.198 7.63281 17.498V14.4746C7.63281 13.7839 7.78673 13.177 8.09473 12.6543C8.41204 12.1223 8.85022 11.7112 9.41016 11.4219C9.97949 11.1325 10.6381 10.9883 11.3848 10.9883Z" fill="#36485C"/>
<path d="M20.6152 10.9883C21.3619 10.9883 22.0162 11.1282 22.5762 11.4082C23.1453 11.6789 23.5837 12.0664 23.8916 12.5703C24.2089 13.0649 24.3681 13.6388 24.3682 14.292C24.3682 14.3387 24.3489 14.3763 24.3115 14.4043C24.2835 14.4322 24.2458 14.4463 24.1992 14.4463L22.2119 14.5723C22.0999 14.5723 22.0439 14.5206 22.0439 14.418C22.0439 13.9794 21.9127 13.6295 21.6514 13.3682C21.3901 13.1069 21.0445 12.9766 20.6152 12.9766C20.1863 12.9767 19.8413 13.1115 19.5801 13.3818C19.3188 13.6431 19.1875 13.9887 19.1875 14.418V17.5957C19.1875 18.025 19.3187 18.3705 19.5801 18.6318C19.8413 18.8931 20.1861 19.0243 20.6152 19.0244C21.0446 19.0244 21.39 18.8932 21.6514 18.6318C21.9127 18.3705 22.0439 18.025 22.0439 17.5957C22.0441 17.4933 22.1001 17.4424 22.2119 17.4424L24.1992 17.54C24.2458 17.54 24.2835 17.5541 24.3115 17.582C24.3487 17.6099 24.368 17.6425 24.3682 17.6797C24.3682 18.3422 24.2088 18.9258 23.8916 19.4297C23.5837 19.9336 23.1454 20.3265 22.5762 20.6064C22.0162 20.8771 21.3619 21.0117 20.6152 21.0117C19.8688 21.0117 19.2108 20.8674 18.6416 20.5781C18.0816 20.2888 17.6435 19.8777 17.3262 19.3457C17.0182 18.8137 16.8633 18.198 16.8633 17.498V14.4746C16.8633 13.7839 17.0182 13.177 17.3262 12.6543C17.6435 12.1223 18.0816 11.7112 18.6416 11.4219C19.2108 11.1326 19.8688 10.9883 20.6152 10.9883Z" fill="#36485C"/>
<path fill-rule="evenodd" clip-rule="evenodd" d="M26.2061 6.00488C28.3194 6.11211 30 7.85996 30 10V22L29.9951 22.2061C29.8913 24.2512 28.2512 25.8913 26.2061 25.9951L26 26H6L5.79395 25.9951C3.7488 25.8913 2.10865 24.2512 2.00488 22.2061L2 22V10C2 7.85996 3.68056 6.11211 5.79395 6.00488L6 6H26L26.2061 6.00488ZM6 8C4.89543 8 4 8.89543 4 10V22C4 23.1046 4.89543 24 6 24H26C27.1046 24 28 23.1046 28 22V10C28 8.89543 27.1046 8 26 8H6Z" fill="#36485C"/>
</svg>
