<svg width="32" height="32" viewBox="0 0 32 32" fill="none" xmlns="http://www.w3.org/2000/svg">
<path fill-rule="evenodd" clip-rule="evenodd" d="M20.5 21H24C25.1046 21 26 20.1046 26 19V11C26 9.89543 25.1046 9 24 9H8C6.89543 9 6 9.89543 6 11V19C6 20.1046 6.89543 21 8 21H14.6771L20.5 25.4528V21ZM22.5 28.4882C22.5 28.9024 22.0253 29.137 21.6963 28.8854L14 23H8C5.79086 23 4 21.2091 4 19V11C4 8.79086 5.79086 7 8 7H24C26.2091 7 28 8.79086 28 11V19C28 21.2091 26.2091 23 24 23H22.5V28.4882Z" fill="#36485C"/>
</svg>
