<svg width="32" height="32" viewBox="0 0 32 32" fill="none" xmlns="http://www.w3.org/2000/svg">
<path d="M21.6464 15.6465C21.8416 15.8418 22.1582 15.8418 22.3535 15.6465L27.6464 10.3536C27.8416 10.1583 27.8416 9.84176 27.6464 9.64649L22.3535 4.3536C22.1582 4.15834 21.8416 4.15834 21.6464 4.3536L20.9395 5.06049C20.7442 5.25576 20.7442 5.57234 20.9395 5.7676L24.1719 9.00005L6.49992 9.00005C6.22378 9.00005 5.99992 9.22391 5.99992 9.50005V10.5C5.99992 10.7762 6.22378 11 6.49992 11L24.1719 11L20.9395 14.2325C20.7442 14.4278 20.7442 14.7443 20.9395 14.9396L21.6464 15.6465Z" fill="#36485C"/>
<path d="M10.3535 16.3536C10.1582 16.1583 9.84163 16.1583 9.64637 16.3536L4.35348 21.6465C4.15822 21.8418 4.15822 22.1583 4.35348 22.3536L9.64637 27.6465C9.84163 27.8418 10.1582 27.8418 10.3535 27.6465L11.0604 26.9396C11.2556 26.7443 11.2556 26.4278 11.0604 26.2325L7.82792 23H25.4999C25.7761 23 25.9999 22.7762 25.9999 22.5V21.5C25.9999 21.2239 25.7761 21 25.4999 21H7.82792L11.0604 17.7676C11.2556 17.5723 11.2556 17.2558 11.0604 17.0605L10.3535 16.3536Z" fill="#36485C"/>
</svg>
