<svg width="32" height="32" viewBox="0 0 32 32" fill="none" xmlns="http://www.w3.org/2000/svg">
<path d="M16 2C13.2311 2 10.5243 2.82109 8.22202 4.35943C5.91973 5.89777 4.12532 8.08427 3.06569 10.6424C2.00607 13.2006 1.72882 16.0155 2.26901 18.7313C2.80921 21.447 4.14258 23.9416 6.10051 25.8995C8.05845 27.8574 10.553 29.1908 13.2687 29.731C15.9845 30.2712 18.7994 29.9939 21.3576 28.9343C23.9157 27.8747 26.1022 26.0803 27.6406 23.778C29.1789 21.4757 30 18.7689 30 16C30 12.287 28.525 8.72601 25.8995 6.1005C23.274 3.475 19.713 2 16 2ZM14.3536 21.2373C14.1583 21.4325 13.8417 21.4325 13.6465 21.2373L9.35354 16.9443C9.15828 16.7491 9.15827 16.4325 9.35352 16.2372L10.2371 15.3536C10.4323 15.1583 10.7489 15.1583 10.9442 15.3536L14 18.4092L21.0575 11.3524C21.2524 11.1576 21.5681 11.1571 21.7635 11.3514L22.65 12.2323C22.8462 12.4274 22.8467 12.7449 22.651 12.9405L14.3536 21.2373Z" fill="#36485C"/>
</svg>
