<svg width="32" height="32" viewBox="0 0 32 32" fill="none" xmlns="http://www.w3.org/2000/svg">
<path fill-rule="evenodd" clip-rule="evenodd" d="M22.1309 2.04449C23.2937 1.83942 24.4919 2.05254 25.5127 2.64606C26.5335 3.23969 27.312 4.17548 27.709 5.28766C28.1059 6.39976 28.0959 7.61646 27.6816 8.72223C27.2674 9.82807 26.4753 10.752 25.4453 11.3296C24.4154 11.9072 23.2142 12.1016 22.0547 11.8785C20.8951 11.6552 19.8513 11.0286 19.1094 10.1099L11.7998 14.6802C12.0661 15.5399 12.0662 16.4602 11.7998 17.3199L19.1094 21.8902C19.575 21.3041 20.1666 20.8296 20.8398 20.5025C21.5131 20.1754 22.2515 20.0033 23 19.9996C23.9887 19.9996 24.9552 20.2931 25.7773 20.8423C26.5996 21.3918 27.2407 22.1729 27.6191 23.0865C27.9975 24.0001 28.0962 25.0053 27.9033 25.9752C27.7104 26.9451 27.2344 27.8364 26.5352 28.5357C25.836 29.2347 24.9452 29.7109 23.9756 29.9039C23.0057 30.0968 21.9996 29.9972 21.0859 29.6187C20.1726 29.2403 19.3921 28.5998 18.8428 27.7779C18.2934 26.9556 18 25.9885 18 24.9996C18.0047 24.5527 18.0714 24.1085 18.1992 23.6802L10.8896 19.1099C10.2443 19.9223 9.36177 20.5137 8.36523 20.8023C7.36893 21.0908 6.30751 21.0628 5.32812 20.7213C4.34852 20.3795 3.49923 19.7409 2.89844 18.8951C2.29764 18.0492 1.97461 17.0371 1.97461 15.9996C1.97465 14.9621 2.29767 13.9499 2.89844 13.1041C3.49922 12.2584 4.34863 11.6206 5.32812 11.2789C6.30752 10.9373 7.3689 10.9084 8.36523 11.1968C9.36182 11.4855 10.2443 12.0778 10.8896 12.8902L18.1992 8.31988C18.0713 7.89139 18.0047 7.44674 18 6.99957C17.9926 5.81877 18.403 4.67313 19.1592 3.76617C19.9153 2.85935 20.9681 2.24964 22.1309 2.04449ZM21.8057 27.7496C22.181 27.9126 22.587 27.9996 23 27.9996C23.7955 27.9995 24.5586 27.6832 25.1211 27.1207C25.6835 26.5581 26 25.7951 26 24.9996C26 24.5867 25.9119 24.1814 25.749 23.8062L21.8057 27.7496ZM24.1475 22.2281C23.5994 22.0011 22.9959 21.9415 22.4141 22.0572C21.8322 22.173 21.2974 22.459 20.8779 22.8785C20.4585 23.298 20.1734 23.8328 20.0576 24.4146C19.9419 24.9965 20.0015 25.5998 20.2285 26.148C20.2622 26.2294 20.3003 26.3086 20.3408 26.3863L24.3867 22.3404C24.3089 22.2998 24.229 22.2619 24.1475 22.2281ZM8.14746 13.2281C7.59935 13.0011 6.99591 12.9415 6.41406 13.0572C5.83224 13.173 5.29741 13.459 4.87793 13.8785C4.4585 14.298 4.17335 14.8328 4.05762 15.4146C3.94187 15.9965 4.00146 16.5998 4.22852 17.148C4.45556 17.696 4.83985 18.1641 5.33301 18.4937C5.82636 18.8234 6.40666 18.9996 7 18.9996C7.79554 18.9995 8.55856 18.6832 9.12109 18.1207C9.68354 17.5581 10 16.7951 10 15.9996C9.99996 15.4063 9.82375 14.8259 9.49414 14.3326C9.16451 13.8394 8.69552 13.4551 8.14746 13.2281ZM23 3.99957C22.2044 3.99957 21.4405 4.31587 20.8779 4.87848C20.3155 5.44102 20.0001 6.20411 20 6.99957C20 7.59286 20.1753 8.17325 20.5049 8.66656C20.8345 9.15985 21.3035 9.54398 21.8516 9.77106C22.3997 9.99812 23.003 10.0577 23.585 9.94196C24.1669 9.8262 24.7015 9.54022 25.1211 9.12067C25.5404 8.70124 25.8266 8.16719 25.9424 7.58551C26.0581 7.0037 25.9984 6.40019 25.7715 5.85211C25.5444 5.30393 25.1594 4.83508 24.666 4.50543C24.1728 4.17595 23.5931 3.99963 23 3.99957Z" fill="#36485C"/>
</svg>
