<svg width="32" height="32" viewBox="0 0 32 32" fill="none" xmlns="http://www.w3.org/2000/svg">
<path fill-rule="evenodd" clip-rule="evenodd" d="M10.5 4C10.2239 4 10 4.22386 10 4.5V23.5C10 23.7761 10.2239 24 10.5 24H25.5C25.7761 24 26 23.7761 26 23.5V10.2071C26 10.0745 25.9473 9.94732 25.8536 9.85355L20.1464 4.14645C20.0527 4.05268 19.9255 4 19.7929 4H10.5ZM20 6.82843L23.1716 10H20V6.82843ZM12 6H18V11.5C18 11.7761 18.2239 12 18.5 12H24V22H12V6Z" fill="#36485C"/>
<path d="M8 26V8.5C8 8.22386 7.77614 8 7.5 8H6.5C6.22386 8 6 8.22386 6 8.5V27.5C6 27.7761 6.22386 28 6.5 28H21.5C21.7761 28 22 27.7761 22 27.5V26.5C22 26.2239 21.7761 26 21.5 26H8Z" fill="#36485C"/>
</svg>
