<svg width="32" height="32" viewBox="0 0 32 32" fill="none" xmlns="http://www.w3.org/2000/svg">
<path d="M25.1774 1.20153L28.6702 4.04071C29.0542 4.35119 29.1114 4.91902 28.7968 5.30303C28.4823 5.68703 27.9144 5.74831 27.5304 5.43375L27.1301 5.11102C27.0688 5.24584 26.9953 5.37656 26.8972 5.49911L21.5007 12.1334L22.1993 12.7012C22.9714 13.3304 23.0899 14.462 22.4608 15.234L20.6061 17.5177C20.3978 17.4972 20.1812 17.485 19.9647 17.485C19.2988 17.485 18.6616 17.5953 18.0651 17.7914L20.4999 14.7929C20.8144 14.4088 20.7532 13.841 20.3692 13.5265L17.5749 11.2551C17.1909 10.9405 16.6231 11.0018 16.3085 11.3858L6.36932 23.6086C6.05476 23.9926 6.11604 24.5605 6.50004 24.875L9.29429 27.1464C9.6783 27.4609 10.2461 27.3996 10.5607 27.0156L13.9309 22.8733C13.9064 23.098 13.8901 23.3227 13.8901 23.5555C13.8901 24.2051 13.9963 24.8301 14.1842 25.4183L11.39 28.854C10.7609 29.6261 9.62927 29.7445 8.85718 29.1154L4.66581 25.7084C3.89371 25.0793 3.77524 23.9477 4.40436 23.1756L15.4792 9.55568C16.1083 8.78358 17.2399 8.66511 18.012 9.29423L18.7106 9.86206L24.1071 3.23185C24.2092 3.1093 24.3236 3.01125 24.4421 2.92138L24.0417 2.59865C23.6577 2.2841 23.5964 1.71626 23.911 1.33225C24.2255 0.948249 24.7934 0.886971 25.1774 1.20153Z" fill="#36485C"/>
<path fill-rule="evenodd" clip-rule="evenodd" d="M14.7888 23.3349C14.7888 20.6019 17.0071 18.3837 19.74 18.3837C22.473 18.3837 24.6913 20.6019 24.6913 23.3349C24.6913 26.0679 22.473 28.2861 19.74 28.2861C17.0071 28.2861 14.7888 26.0679 14.7888 23.3349ZM22.7671 21.3986C22.1258 20.4018 21.0105 19.74 19.74 19.74C17.7547 19.74 16.141 21.3495 16.1451 23.3349C16.1451 23.9436 16.2963 24.5114 16.5618 25.0139C17.9507 24.8178 20.9288 24.2541 22.7671 21.3986ZM17.244 25.9208C17.8895 26.5458 18.7719 26.9299 19.74 26.9299C21.7254 26.9299 23.335 25.3203 23.335 23.3349C23.335 22.9754 23.2778 22.6241 23.1797 22.2973C22.7018 23.1266 21.3496 25.018 17.244 25.9208Z" fill="#36485C"/>
</svg>
