<svg width="32" height="32" viewBox="0 0 32 32" fill="none" xmlns="http://www.w3.org/2000/svg">
<path fill-rule="evenodd" clip-rule="evenodd" d="M2.50957 28.8715C2.65929 28.9558 2.8282 29 3.00001 29H29C29.1718 29 29.3407 28.9558 29.4904 28.8715C29.6402 28.7872 29.7657 28.6658 29.8548 28.519C29.944 28.3721 29.9938 28.2047 29.9995 28.033C30.0051 27.8613 29.9665 27.691 29.8872 27.5386L16.8872 2.53861C16.8028 2.37625 16.6754 2.24017 16.519 2.14519C16.3625 2.05022 16.183 2 16 2C15.817 2 15.6375 2.05022 15.4811 2.14519C15.3246 2.24017 15.1972 2.37625 15.1128 2.53861L2.11281 27.5386C2.03354 27.691 1.99487 27.8613 2.00055 28.033C2.00622 28.2047 2.05603 28.3721 2.14519 28.519C2.23435 28.6658 2.35984 28.7872 2.50957 28.8715ZM15.3747 11C15.0986 11 14.8747 11.2238 14.8747 11.5V19.5C14.8747 19.7761 15.0986 20 15.3747 20H16.6247C16.9009 20 17.1247 19.7761 17.1247 19.5V11.5C17.1247 11.2238 16.9009 11 16.6247 11H15.3747ZM15.1664 24.7472C15.4131 24.912 15.7031 25 15.9997 25C16.3976 25 16.7791 24.842 17.0604 24.5606C17.3417 24.2793 17.4997 23.8978 17.4997 23.5C17.4997 23.2033 17.4118 22.9133 17.2469 22.6666C17.0821 22.42 16.8478 22.2277 16.5738 22.1142C16.2997 22.0006 15.9981 21.9709 15.7071 22.0288C15.4161 22.0867 15.1489 22.2295 14.9391 22.4393C14.7293 22.6491 14.5864 22.9164 14.5286 23.2074C14.4707 23.4983 14.5004 23.7999 14.6139 24.074C14.7274 24.3481 14.9197 24.5824 15.1664 24.7472Z" fill="#36485C"/>
</svg>
