<svg width="32" height="32" viewBox="0 0 32 32" fill="none" xmlns="http://www.w3.org/2000/svg">
<path fill-rule="evenodd" clip-rule="evenodd" d="M12.6301 6.48573C8.72016 6.16807 6.02987 14.8272 5.6024 16.1998C5.24552 17.341 1.42578 30.1572 7.02598 30.7572C14.4302 31.5533 17.144 6.85045 12.6301 6.48573ZM9.30449 27.161C8.1672 25.4237 7.09657 26.1845 6.50831 26.6904C5.92006 27.1963 5.49651 26.3139 5.88084 25.9609C8.87311 22.9883 9.83393 25.8394 10.2653 26.5923C10.6967 27.3414 9.50842 27.6316 9.30449 27.161ZM11.2536 23.4158C10.5634 23.7844 6.33184 23.2942 6.26909 22.3255C5.82594 21.2745 6.95147 14.9056 9.76726 10.3486C12.4223 6.05434 12.8458 9.57604 12.9987 10.9643C13.4027 14.5801 12.1791 22.9255 11.2536 23.4158ZM24.9678 10.529C24.356 9.227 20.6265 1.21887 16.795 2.06204C12.3713 3.03462 18.3989 27.1414 25.6267 25.357C31.0935 24.004 25.4737 11.6114 24.9678 10.529ZM20.4225 18.4862C19.4382 18.1214 17.1126 9.28191 17.0342 6.54847C16.991 5.15234 16.944 1.6032 20.1519 5.50138C23.556 9.63878 25.5325 15.7959 25.2345 16.8979C25.3051 17.8665 21.1559 18.7568 20.4225 18.4862ZM25.5874 21.2549C24.9364 20.8353 23.7717 20.2274 22.8775 22.102C22.7364 22.5961 21.5206 22.4706 21.85 21.6667C22.1795 20.8627 22.7403 17.9097 26.109 20.4509C26.5404 20.7411 26.2424 21.6745 25.5874 21.2549Z" fill="#36485C"/>
</svg>
