<svg width="32" height="32" viewBox="0 0 32 32" fill="none" xmlns="http://www.w3.org/2000/svg">
<path d="M13.5 13H12.5C12.2239 13 12 13.2239 12 13.5V22.5C12 22.7761 12.2239 23 12.5 23H13.5C13.7761 23 14 22.7761 14 22.5V13.5C14 13.2239 13.7761 13 13.5 13Z" fill="#36485C"/>
<path d="M19.5 13H18.5C18.2239 13 18 13.2239 18 13.5V22.5C18 22.7761 18.2239 23 18.5 23H19.5C19.7761 23 20 22.7761 20 22.5V13.5C20 13.2239 19.7761 13 19.5 13Z" fill="#36485C"/>
<path fill-rule="evenodd" clip-rule="evenodd" d="M10 4.5C10 4.22386 10.2239 4 10.5 4H21.5C21.7761 4 22 4.22386 22 4.5V8H27.5C27.7761 8 28 8.22386 28 8.5V9.5C28 9.77614 27.7761 10 27.5 10H26L25.0262 27.5277C25.0115 27.7927 24.7924 28 24.527 28H7.47299C7.20763 28 6.98848 27.7927 6.97376 27.5277L6 10H4.5C4.22386 10 4 9.77614 4 9.5V8.5C4 8.22386 4.22386 8 4.5 8H10V4.5ZM12 8H20V6H12V8ZM23.997 10L23.1081 26H8.89206L8.00317 10H23.997Z" fill="#36485C"/>
</svg>
