<svg width="32" height="32" viewBox="0 0 32 32" fill="none" xmlns="http://www.w3.org/2000/svg">
<path d="M7 18C7 18.5523 7.44775 19 8 19C8.55225 19 9 18.5523 9 18V14C9 13.4477 8.55225 13 8 13C7.44775 13 7 13.4477 7 14V18Z" fill="#36485C"/>
<path fill-rule="evenodd" clip-rule="evenodd" d="M8 24C5.79089 24 4 22.2092 4 20L4 12C4 9.79083 5.79089 8 8 8L24 8C26.2091 8 28 9.79083 28 12V20C28 22.2092 26.2091 24 24 24H8ZM6 20L6 12C6 10.8954 6.89539 10 8 10L24 10C25.1046 10 26 10.8954 26 12V20C26 21.1046 25.1046 22 24 22L8 22C6.89539 22 6 21.1046 6 20Z" fill="#36485C"/>
</svg>
