<svg width="32" height="32" viewBox="0 0 32 32" fill="none" xmlns="http://www.w3.org/2000/svg">
<path d="M14 7C13.4477 7 13 7.44775 13 8C13 8.55225 13.4477 9 14 9H18C18.5523 9 19 8.55225 19 8C19 7.44775 18.5523 7 18 7H14Z" fill="#36485C"/>
<path fill-rule="evenodd" clip-rule="evenodd" d="M8 8C8 5.79089 9.79083 4 12 4H20C22.2092 4 24 5.79089 24 8V24C24 26.2091 22.2092 28 20 28H12C9.79083 28 8 26.2091 8 24V8ZM12 6H20C21.1046 6 22 6.89539 22 8V24C22 25.1046 21.1046 26 20 26H12C10.8954 26 10 25.1046 10 24V8C10 6.89539 10.8954 6 12 6Z" fill="#36485C"/>
</svg>
