<svg width="32" height="32" viewBox="0 0 32 32" fill="none" xmlns="http://www.w3.org/2000/svg">
<path d="M8.71289 21.2188C8.77592 21.2003 8.83964 21.2478 8.83984 21.3135C8.83984 21.3509 8.81848 21.3854 8.78516 21.4023C7.85807 21.8707 7.00003 22.3985 7 23C7 24.6569 11.0294 26 16 26C20.9706 26 25 24.6569 25 23C25 22.4279 24.0798 21.9027 23.2246 21.4482C23.1853 21.4274 23.1602 21.3863 23.1602 21.3418C23.1602 21.2621 23.2371 21.2042 23.3135 21.2266C25.5751 21.8981 27 22.8768 27 23.9658C27 25.9909 22.0751 27.6328 16 27.6328C9.92487 27.6328 5 25.9909 5 23.9658C5.00003 22.8725 6.43573 21.8905 8.71289 21.2188Z" fill="#36485C"/>
<path d="M15.6152 8.02734C15.7622 7.91013 15.9626 7.88524 16.1338 7.96289L21.459 10.3828C21.7102 10.4972 21.8212 10.7936 21.707 11.0449L21.293 11.9551C21.1787 12.2063 20.8821 12.3172 20.6309 12.2031L18.0137 11.0137L19.4766 14.2334C19.5199 14.3288 19.5323 14.4353 19.5117 14.5381L18.585 19.1709L21.3535 21.9395C21.5486 22.1347 21.5486 22.4513 21.3535 22.6465L20.6465 23.3535C20.4513 23.5486 20.1347 23.5486 19.9395 23.3535L16.793 20.208C16.5566 19.9717 16.4541 19.6325 16.5195 19.3047L17.1699 16.0488L13.3984 18.1436L12.5732 22.6865C12.5239 22.9581 12.2628 23.1381 11.9912 23.0889L11.0088 22.9111C10.7371 22.8618 10.5571 22.6008 10.6064 22.3291L11.5166 17.3213C11.5702 17.0266 11.7529 16.7715 12.0146 16.626L15.6934 14.5811L14.2939 11.6445L12.0156 13.4688C11.8 13.6413 11.4851 13.6062 11.3125 13.3906L10.6875 12.6094C10.515 12.3937 10.55 12.0787 10.7656 11.9062L15.6152 8.02734Z" fill="#36485C"/>
<path d="M13 5C14.1044 5.00015 15 5.89552 15 7C15 8.10448 14.1044 8.99985 13 9C11.8955 8.99989 11 8.1045 11 7C11 5.8955 11.8955 5.00011 13 5Z" fill="#36485C"/>
</svg>
