<svg width="32" height="32" viewBox="0 0 32 32" fill="none" xmlns="http://www.w3.org/2000/svg">
<path d="M10.3535 16.6464C10.1582 16.8417 10.1582 17.1583 10.3535 17.3536L15.6464 22.6464C15.8416 22.8417 16.1582 22.8417 16.3535 22.6464L21.6464 17.3536C21.8416 17.1583 21.8416 16.8417 21.6464 16.6464L20.9395 15.9396C20.7442 15.7443 20.4276 15.7443 20.2324 15.9396L16.9999 19.172V4.5C16.9999 4.22386 16.7761 4 16.4999 4H15.4999C15.2238 4 14.9999 4.22386 14.9999 4.5V19.172L11.7675 15.9396C11.5722 15.7443 11.2556 15.7443 11.0604 15.9396L10.3535 16.6464Z" fill="#36485C"/>
<path d="M4.5 20C4.22386 20 4 20.2239 4 20.5V27.5C4 27.7761 4.22386 28 4.5 28H27.5C27.7761 28 28 27.7761 28 27.5V20.5C28 20.2239 27.7761 20 27.5 20H26.5C26.2239 20 26 20.2239 26 20.5V26H6V20.5C6 20.2239 5.77614 20 5.5 20H4.5Z" fill="#36485C"/>
</svg>
