<svg width="32" height="32" viewBox="0 0 32 32" fill="none" xmlns="http://www.w3.org/2000/svg">
<path fill-rule="evenodd" clip-rule="evenodd" d="M6.45001 7.91449C6.09003 7.92815 5.93303 7.56668 6.20472 7.33011C6.31353 7.23537 6.43819 7.13427 6.57972 7.02698C7.29622 6.48379 8.22475 5.93848 9.20056 5.36541C9.3721 5.26467 9.5451 5.16307 9.71866 5.06047C9.95638 4.91996 10.0332 4.61281 9.89108 4.37602L9.37659 3.51853C9.23451 3.28174 8.92736 3.2049 8.6895 3.34519C8.55124 3.42673 8.41037 3.5094 8.26789 3.59302C7.26951 4.1789 6.19156 4.81148 5.37146 5.4332C4.84089 5.83544 4.32218 6.30147 3.99225 6.82878C3.64096 7.39024 3.44685 8.13297 3.82762 8.8945C4.1736 9.58645 4.90069 9.78976 5.36838 9.8629C5.89539 9.94532 6.52174 9.92877 7.16028 9.87138C8.41158 9.75893 9.9733 9.46149 11.4757 9.17535C11.5175 9.16739 11.5592 9.15944 11.6009 9.1515C13.1768 8.85147 14.6796 8.56914 15.8457 8.47363C15.9091 8.46843 15.9743 8.46442 16.0401 8.4614C16.4665 8.44182 16.6491 8.93247 16.312 9.19443C16.1917 9.28791 16.0649 9.38038 15.9365 9.46472C14.7504 10.2439 13.0441 11.0742 11.2441 11.9501L11.1396 12.001C9.34681 12.8735 7.46419 13.7934 6.13526 14.6962C5.4783 15.1424 4.86556 15.6434 4.47569 16.2013C4.06331 16.7915 3.81549 17.5943 4.25004 18.4152C4.71817 19.2994 5.67656 19.4862 6.40311 19.4962C7.17855 19.5068 8.10968 19.3305 9.08608 19.0734C10.8701 18.6035 13.0745 17.7873 15.2733 16.9732C15.4961 16.8907 15.7188 16.8083 15.941 16.7262C18.3951 15.8197 20.7958 14.9569 22.7211 14.5253C23.3209 14.3908 25.0969 13.8253 25.5793 14.5253C25.845 14.9108 25.0719 15.5183 24.86 15.6669C23.7505 16.4446 22.034 17.2553 20.0991 18.1692L20.0291 18.2022C18.1165 19.1056 16.0274 20.0971 14.3875 21.1906C13.5647 21.7392 12.8123 22.3407 12.2397 23.0053C11.6663 23.6706 11.2284 24.452 11.1388 25.3478C11.0566 26.1702 11.2241 26.9315 11.7208 27.5355C12.2011 28.1197 12.8831 28.4264 13.5732 28.5797C14.9219 28.8794 16.6964 28.6798 18.4684 28.3001C21.8385 27.5779 25.7334 26.0793 28.0823 25.0619C28.3357 24.9521 28.4491 24.6565 28.3369 24.4042L27.9308 23.4904C27.8186 23.238 27.5236 23.1244 27.2701 23.2341C24.9763 24.2268 21.2282 25.6633 18.0493 26.3445C16.3213 26.7148 14.9082 26.8276 14.007 26.6273C13.5721 26.5307 13.3634 26.3843 13.2656 26.2653C13.1842 26.1662 13.0861 25.9744 13.1289 25.5468C13.1643 25.1926 13.347 24.7841 13.7548 24.3108C14.1632 23.8368 14.7526 23.351 15.497 22.8546C16.9914 21.8582 18.9385 20.9292 20.8833 20.0106C20.9483 19.9799 21.0134 19.9492 21.0784 19.9185C22.9093 19.0541 24.7559 18.1823 26.008 17.3045C26.6481 16.8559 27.2569 16.3235 27.5932 15.6862C27.7704 15.3504 27.8836 14.9634 27.8643 14.5402C27.8448 14.1141 27.6942 13.7238 27.4573 13.3799C26.9092 12.5845 26.0027 12.3187 25.166 12.2614C24.3147 12.2031 23.3194 12.3415 22.2835 12.5737C20.2045 13.0398 17.6754 13.9535 15.248 14.8501C15.0304 14.9305 14.8136 15.0107 14.5979 15.0905C12.3697 15.9152 10.2604 16.6959 8.57672 17.1393C8.0136 17.2876 7.30327 17.5167 6.65244 17.5252C6.33714 17.5293 6.19335 17.1935 6.42236 16.9767C6.67959 16.7332 6.99493 16.53 7.25906 16.3506C8.44329 15.5461 10.1794 14.6925 12.0148 13.7993C12.076 13.7696 12.1373 13.7397 12.1986 13.7099C13.9331 12.8661 15.7386 11.9877 17.0346 11.1363C17.6982 10.7004 18.3172 10.2159 18.7205 9.68206C19.1374 9.13037 19.4464 8.33631 19.0283 7.50006C18.6851 6.81377 17.9744 6.59291 17.4904 6.50954C16.9571 6.41768 16.3252 6.42765 15.6824 6.4803C14.3877 6.58635 12.7696 6.89307 11.2268 7.1868L11.1704 7.19755C9.61295 7.49408 8.13266 7.77593 6.98125 7.87941C6.78744 7.89683 6.61041 7.9084 6.45001 7.91449Z" fill="#36485C"/>
</svg>
