<svg width="32" height="32" viewBox="0 0 32 32" fill="none" xmlns="http://www.w3.org/2000/svg">
<path fill-rule="evenodd" clip-rule="evenodd" d="M15.078 7.83221C14.8827 7.63695 14.8827 7.32036 15.078 7.1251L15.7851 6.41799C15.9804 6.22273 16.2969 6.22273 16.4922 6.41799L17.5529 7.47866L18.9671 6.06444C20.9197 4.11182 24.0855 4.11182 26.0381 6.06444C27.9908 8.01706 27.9908 11.1829 26.0381 13.1355L24.6239 14.5497L25.6846 15.6104C25.8799 15.8056 25.8799 16.1222 25.6846 16.3175L24.9775 17.0246C24.7822 17.2199 24.4656 17.2199 24.2704 17.0246L23.2097 15.9639L12.6418 26.5319C12.2442 26.9295 11.7446 27.0319 11.2046 26.9439L9.94423 26.7383C8.8055 26.5525 7.93911 26.8983 6.92204 27.3043L6.75492 27.3709C6.57118 27.4439 6.36206 27.3995 6.22222 27.2598L4.74518 25.7835C4.60517 25.6436 4.56062 25.4341 4.63581 25.251C4.67178 25.1635 4.70839 25.0757 4.7451 24.9877C5.09369 24.1522 5.45039 23.2973 5.33431 22.3882L5.13697 20.8419C5.07082 20.3236 5.19173 19.8398 5.57071 19.4608L16.1386 8.89287L15.078 7.83221ZM9.74526 18.1147L17.5529 10.3071L21.7955 14.5497L18.2305 18.1147H9.74526ZM18.9671 8.89287L23.2097 13.1355L24.6239 11.7213C25.7955 10.5497 25.7955 8.65023 24.6239 7.47866C23.4524 6.30708 21.5529 6.30708 20.3813 7.47866L18.9671 8.89287Z" fill="#36485C"/>
</svg>
