<svg width="32" height="32" viewBox="0 0 32 32" fill="none" xmlns="http://www.w3.org/2000/svg">
<path d="M4.5 7C4.22386 7 4 7.22386 4 7.5V12.5C4 12.7761 4.22386 13 4.5 13H5.5C5.77614 13 6 12.7761 6 12.5V9H11.5C11.7761 9 12 8.77614 12 8.5V7.5C12 7.22386 11.7761 7 11.5 7H4.5Z" fill="#36485C"/>
<path d="M11.5 23H6V19.5C6 19.2239 5.77614 19 5.5 19H4.5C4.22386 19 4 19.2239 4 19.5V24.5C4 24.7761 4.22386 25 4.5 25H11.5C11.7761 25 12 24.7761 12 24.5V23.5C12 23.2239 11.7761 23 11.5 23Z" fill="#36485C"/>
<path d="M20 7.5C20 7.22386 20.2239 7 20.5 7H27.5C27.7761 7 28 7.22386 28 7.5V12.5C28 12.7761 27.7761 13 27.5 13H26.5C26.2239 13 26 12.7761 26 12.5V9H20.5C20.2239 9 20 8.77614 20 8.5V7.5Z" fill="#36485C"/>
<path d="M20.5 23C20.2239 23 20 23.2239 20 23.5V24.5C20 24.7761 20.2239 25 20.5 25H27.5C27.7761 25 28 24.7761 28 24.5V19.5C28 19.2239 27.7761 19 27.5 19H26.5C26.2239 19 26 19.2239 26 19.5V23H20.5Z" fill="#36485C"/>
</svg>
