<svg width="32" height="32" viewBox="0 0 32 32" fill="none" xmlns="http://www.w3.org/2000/svg">
<path d="M7.71744 20.5961C7.9127 20.4009 7.9127 20.0843 7.71744 19.889L3.82835 15.9999L7.71744 12.1108C7.9127 11.9156 7.9127 11.599 7.71744 11.4037L7.01033 10.6966C6.81507 10.5014 6.49849 10.5014 6.30323 10.6966L1.35348 15.6464C1.15822 15.8416 1.15822 16.1582 1.35348 16.3535L6.30323 21.3032C6.49849 21.4985 6.81507 21.4985 7.01033 21.3032L7.71744 20.5961Z" fill="#36485C"/>
<path d="M24.286 11.4038C24.0908 11.5991 24.0908 11.9157 24.286 12.1109L28.1751 16L24.286 19.8891C24.0908 20.0844 24.0908 20.4009 24.286 20.5962L24.9931 21.3033C25.1884 21.4986 25.505 21.4986 25.7002 21.3033L30.65 16.3536C30.8452 16.1583 30.8452 15.8417 30.65 15.6465L25.7002 10.6967C25.505 10.5014 25.1884 10.5014 24.9931 10.6967L24.286 11.4038Z" fill="#36485C"/>
<path d="M15.9999 18C17.1045 18 17.9999 17.1045 17.9999 16C17.9999 14.8954 17.1045 14 15.9999 14C14.8954 14 13.9999 14.8954 13.9999 16C13.9999 17.1045 14.8954 18 15.9999 18Z" fill="#36485C"/>
<path d="M23.9999 15.9999C23.9999 17.1045 23.1045 17.9999 21.9999 17.9999C20.8953 17.9999 19.9999 17.1045 19.9999 15.9999C19.9999 14.8953 20.8953 13.9999 21.9999 13.9999C23.1045 13.9999 23.9999 14.8953 23.9999 15.9999Z" fill="#36485C"/>
<path d="M9.99991 17.9999C11.1045 17.9999 11.9999 17.1045 11.9999 15.9999C11.9999 14.8953 11.1045 13.9999 9.99991 13.9999C8.89534 13.9999 7.99991 14.8953 7.99991 15.9999C7.99991 17.1045 8.89534 17.9999 9.99991 17.9999Z" fill="#36485C"/>
</svg>
