<svg width="32" height="32" viewBox="0 0 32 32" fill="none" xmlns="http://www.w3.org/2000/svg">
<path d="M7.71744 19.889C7.9127 20.0843 7.9127 20.4009 7.71744 20.5961L7.01033 21.3032C6.81507 21.4985 6.49849 21.4985 6.30323 21.3032L1.35348 16.3535C1.15822 16.1582 1.15822 15.8416 1.35348 15.6464L6.30323 10.6966C6.49849 10.5014 6.81507 10.5014 7.01033 10.6966L7.71744 11.4037C7.9127 11.599 7.9127 11.9156 7.71744 12.1108L3.82835 15.9999L7.71744 19.889Z" fill="#36485C"/>
<path d="M24.286 12.1109C24.0908 11.9157 24.0908 11.5991 24.286 11.4038L24.9931 10.6967C25.1884 10.5014 25.505 10.5014 25.7002 10.6967L30.65 15.6465C30.8452 15.8417 30.8452 16.1583 30.65 16.3536L25.7002 21.3033C25.505 21.4986 25.1884 21.4986 24.9931 21.3033L24.286 20.5962C24.0908 20.4009 24.0908 20.0844 24.286 19.8891L28.1751 16L24.286 12.1109Z" fill="#36485C"/>
<path d="M23.9999 15.9999C23.9999 17.1045 23.1045 17.9999 21.9999 17.9999C20.8953 17.9999 19.9999 17.1045 19.9999 15.9999C19.9999 14.8953 20.8953 13.9999 21.9999 13.9999C23.1045 13.9999 23.9999 14.8953 23.9999 15.9999Z" fill="#36485C"/>
<path d="M9.99991 17.9999C11.1045 17.9999 11.9999 17.1045 11.9999 15.9999C11.9999 14.8953 11.1045 13.9999 9.99991 13.9999C8.89534 13.9999 7.99991 14.8953 7.99991 15.9999C7.99991 17.1045 8.89534 17.9999 9.99991 17.9999Z" fill="#36485C"/>
<path d="M15.0936 20.04C14.8853 20.04 14.7811 19.94 14.7811 19.74L14.4999 5.5C14.4999 5.5 14.4999 5 14.9999 5H16.9999C17.4999 5 17.4999 5.5 17.4999 5.5L17.2186 19.74C17.2186 19.94 17.1145 20.04 16.9061 20.04H15.0936Z" fill="#36485C"/>
<path d="M15.9999 27C17.1044 27 17.9999 26.1046 17.9999 25C17.9999 23.8954 17.1044 23 15.9999 23C14.8953 23 13.9999 23.8954 13.9999 25C13.9999 26.1046 14.8953 27 15.9999 27Z" fill="#36485C"/>
</svg>
