<svg width="32" height="32" viewBox="0 0 32 32" fill="none" xmlns="http://www.w3.org/2000/svg">
<path d="M21.6464 15.6464C21.8416 15.8417 22.1582 15.8417 22.3535 15.6464L27.6464 10.3535C27.8416 10.1583 27.8416 9.84169 27.6464 9.64643L22.3535 4.35354C22.1582 4.15828 21.8416 4.15828 21.6464 4.35354L20.9395 5.06043C20.7442 5.25569 20.7442 5.57228 20.9395 5.76754L24.1719 8.99999L6.49992 8.99999C6.22378 8.99999 5.99992 9.22384 5.99992 9.49999V10.5C5.99992 10.7761 6.22378 11 6.49992 11L24.1719 11L20.9395 14.2324C20.7442 14.4277 20.7442 14.7443 20.9395 14.9395L21.6464 15.6464Z" fill="#36485C"/>
<path d="M10.3535 16.3535C10.1582 16.1583 9.84163 16.1583 9.64637 16.3535L4.35348 21.6464C4.15822 21.8417 4.15822 22.1583 4.35348 22.3535L9.64637 27.6464C9.84163 27.8417 10.1582 27.8417 10.3535 27.6464L11.0604 26.9395C11.2556 26.7443 11.2556 26.4277 11.0604 26.2324L7.82792 23H25.4999C25.7761 23 25.9999 22.7761 25.9999 22.5V21.5C25.9999 21.2238 25.7761 21 25.4999 21H7.82792L11.0604 17.7675C11.2556 17.5723 11.2556 17.2557 11.0604 17.0604L10.3535 16.3535Z" fill="#36485C"/>
</svg>
