<svg width="32" height="32" viewBox="0 0 32 32" fill="none" xmlns="http://www.w3.org/2000/svg">
<path d="M16.4074 8.29602C16.2792 7.90133 15.7208 7.90133 15.5926 8.29602L14.942 10.2983C14.8846 10.4748 14.7201 10.5943 14.5345 10.5943H12.4292C12.0142 10.5943 11.8417 11.1254 12.1774 11.3693L13.8807 12.6068C14.0308 12.7159 14.0936 12.9092 14.0363 13.0858L13.3857 15.088C13.2575 15.4827 13.7092 15.8109 14.045 15.567L15.7482 14.3295C15.8983 14.2204 16.1017 14.2204 16.2518 14.3295L17.955 15.567C18.2908 15.8109 18.7425 15.4827 18.6143 15.088L17.9637 13.0858C17.9064 12.9092 17.9692 12.7159 18.1193 12.6068L19.8226 11.3693C20.1583 11.1254 19.9858 10.5943 19.5708 10.5943H17.4655C17.2799 10.5943 17.1154 10.4748 17.058 10.2983L16.4074 8.29602Z" fill="#36485C"/>
<path fill-rule="evenodd" clip-rule="evenodd" d="M25 5V4.5C25 4.22386 24.7761 4 24.5 4H7.5C7.22386 4 7 4.22386 7 4.5V5C7 5.68689 7.00212 6.35348 7.01113 7.00008L5.659 7.00015C4.93947 7.00025 4.21994 7.00035 3.50041 7.00019C3.22411 7.00013 3.0001 7.22414 3.00017 7.50044C3.00041 8.44475 3.00028 9.38906 3.00015 10.3334L3 12C3.00119 13.0605 3.423 14.0773 4.17289 14.8271C4.92278 15.577 5.9395 15.9988 7 16H8.63198C9.06388 16.799 9.60968 17.5361 10.2993 18.2134C11.2095 19.1074 11.9901 19.7453 12.6261 20.2635C13.2794 20.7958 13.7191 21.1559 14.0568 21.5456C14.6369 22.2149 15 23.063 15 25.5V26H10.5C10.2239 26 10 26.2239 10 26.5V27.5C10 27.7761 10.2239 28 10.5 28H21.5C21.7761 28 22 27.7761 22 27.5V26.5C22 26.2239 21.7761 26 21.5 26H17V25.5C17 23.063 17.3631 22.2149 17.9432 21.5456C18.2809 21.1559 18.7206 20.7958 19.3739 20.2635C20.0099 19.7453 20.7905 19.1074 21.7007 18.2134C22.3903 17.5361 22.9361 16.799 23.368 16H25C26.0605 15.9988 27.0772 15.577 27.8271 14.8271C28.577 14.0773 28.9988 13.0605 29 12L28.9998 10.3334C28.9997 9.38906 28.9996 8.44475 28.9998 7.50044C28.9999 7.22414 28.7759 7.00013 28.4996 7.00019C27.7801 7.00035 27.0605 7.00025 26.341 7.00015L24.9889 7.00008C24.9979 6.35348 25 5.68689 25 5ZM24.19 14C24.6402 12.5109 24.8415 10.8472 24.9307 9.00003H27V12C26.9994 12.5303 26.7885 13.0386 26.4135 13.4136C26.0386 13.7885 25.5302 13.9994 25 14H24.19ZM5 9.00003H7.0693C7.15847 10.8472 7.35981 12.5109 7.80999 14H7C6.46975 13.9994 5.9614 13.7885 5.58646 13.4136C5.21152 13.0386 5.00061 12.5303 5 12V9.00003ZM11.7007 16.7866C9.39045 14.5175 9.03584 11.3582 9.00282 6H22.9972C22.9642 11.3582 22.6096 14.5175 20.2993 16.7866C19.4595 17.6113 18.7401 18.2 18.1105 18.713L18.0451 18.7663C17.4561 19.246 16.8897 19.7073 16.4318 20.2357C16.273 20.419 16.1294 20.6075 16 20.8046C15.8706 20.6075 15.727 20.419 15.5682 20.2357C15.1103 19.7073 14.5439 19.246 13.9549 18.7663L13.8895 18.713C13.2599 18.2 12.5405 17.6113 11.7007 16.7866Z" fill="#36485C"/>
</svg>
