<svg width="32" height="32" viewBox="0 0 32 32" fill="none" xmlns="http://www.w3.org/2000/svg">
<path d="M12 12.5C12 12.7761 11.7761 13 11.5 13L4.5 13C4.22386 13 4 12.7761 4 12.5L4 11.5C4 11.2239 4.22386 11 4.5 11L10 11L10 7.5C10 7.22386 10.2239 7 10.5 7H11.5C11.7761 7 12 7.22386 12 7.5L12 12.5Z" fill="#36485C"/>
<path d="M20 12.5C20 12.7761 20.2239 13 20.5 13L27.5 13C27.7761 13 28 12.7761 28 12.5V11.5C28 11.2239 27.7761 11 27.5 11L22 11V7.5C22 7.22386 21.7761 7 21.5 7H20.5C20.2239 7 20 7.22386 20 7.5V12.5Z" fill="#36485C"/>
<path d="M20.5 19C20.2239 19 20 19.2239 20 19.5V24.5C20 24.7761 20.2239 25 20.5 25H21.5C21.7761 25 22 24.7761 22 24.5V21H27.5C27.7761 21 28 20.7761 28 20.5V19.5C28 19.2239 27.7761 19 27.5 19H20.5Z" fill="#36485C"/>
<path d="M12 19.5C12 19.2239 11.7761 19 11.5 19H4.5C4.22386 19 4 19.2239 4 19.5V20.5C4 20.7761 4.22386 21 4.5 21H10V24.5C10 24.7761 10.2239 25 10.5 25H11.5C11.7761 25 12 24.7761 12 24.5V19.5Z" fill="#36485C"/>
</svg>
