<svg width="32" height="32" viewBox="0 0 32 32" fill="none" xmlns="http://www.w3.org/2000/svg">
<path fill-rule="evenodd" clip-rule="evenodd" d="M30 16C30 23.732 23.732 30 16 30C8.26801 30 2 23.732 2 16C2 8.26801 8.26801 2 16 2C23.732 2 30 8.26801 30 16ZM23.4366 25.4185C21.3921 27.035 18.8087 28 16 28C15.7962 28 15.5937 27.9949 15.3924 27.9849L15.9486 26.3162C16.5246 24.5884 16.4083 22.7732 15.5407 21.3535C14.654 19.9026 13.0633 19 10.9999 19C10.788 19 10.3637 18.9471 9.91897 18.7706C9.47938 18.596 9.08735 18.3283 8.83199 17.9453C8.38409 17.2734 8.31241 16.8162 8.35452 16.3769C8.39317 15.9737 8.52184 15.5728 8.71674 15H11V16.5C11 16.7762 11.2239 17 11.5 17H12.5C12.7761 17 13 16.7762 13 16.5V14.1814L15.7608 6.81934C15.8577 6.56078 15.7267 6.27257 15.4682 6.17561L14.5318 5.82449C14.2733 5.72753 13.9851 5.85853 13.8881 6.11709L13.557 6.99997H10.5661L9.80027 5.72352C11.6097 4.62956 13.7313 4 16 4C17.0359 4 18.0411 4.13126 19 4.37805V8.5C19 10.1569 20.3431 11.5 22 11.5H23.2342C23.3826 11.5 23.5233 11.4341 23.6183 11.3201L25.6563 8.87444C26.5574 10.0935 27.2331 11.4892 27.6219 13H22.5737C20.5994 13 18.9204 14.4404 18.6202 16.3918L18.2682 18.6801C18.0459 20.1251 18.8976 21.52 20.2846 21.9823L22.6833 22.7819L23.4366 25.4185ZM25.0705 23.8569C26.8956 21.7517 28 19.0048 28 16C28 15.6632 27.9861 15.3297 27.9589 15H22.5737C21.5866 15 20.7471 15.7202 20.597 16.6959L20.2449 18.9842C20.1708 19.4659 20.4547 19.9308 20.9171 20.0849L24.0664 21.1347C24.2229 21.1869 24.3437 21.313 24.389 21.4717L25.0705 23.8569ZM24.3206 7.35319C23.3549 6.42361 22.2337 5.65431 21 5.08808V8.5C21 9.05228 21.4477 9.5 22 9.5H22.5316L24.3206 7.35319ZM8.17497 6.90199C5.61864 9.10264 4 12.3623 4 16C4 21.7258 8.0102 26.5149 13.3752 27.7121L14.0513 25.6838C14.4753 24.4116 14.3416 23.2268 13.8342 22.3965C13.3459 21.5974 12.4366 21 10.9999 21C10.5452 21 9.86957 20.9029 9.18091 20.6294C8.48717 20.354 7.71254 19.8717 7.16789 19.0547C6.49513 18.0456 6.27266 17.1352 6.36364 16.186C6.43046 15.489 6.67673 14.7747 6.90953 14.0994C6.95793 13.959 7.00575 13.8203 7.05126 13.6838L7.27918 13H11.307L12.807 8.99997H9.43376L8.17497 6.90199Z" fill="#36485C"/>
</svg>
