<svg width="32" height="32" viewBox="0 0 32 32" fill="none" xmlns="http://www.w3.org/2000/svg">
<path fill-rule="evenodd" clip-rule="evenodd" d="M9.60613 19.0651C9.60613 16.2569 8.14896 14.5746 6.01631 14.5746C3.88365 14.5746 3 16.7752 3 18.9079C3 21.0405 3.39934 25.3866 7.81334 27.1369C7.87612 27.1578 7.95876 27.189 8.05969 27.227C8.94229 27.5599 11.2235 28.4204 13.8502 27.5702C13.812 26.916 13.778 26.6823 13.5953 25.6457C12.725 25.9884 12.0956 25.9332 10.8971 25.8282C10.7734 25.8173 10.6435 25.8059 10.5068 25.7944C4.72482 25.3143 4.59312 20.6327 4.66959 18.1644C4.74606 15.6919 7.66465 15.9171 7.81334 17.7141C7.94079 19.2477 8.29765 23.101 11.4032 23.101C13.5058 23.101 14.2904 21.9176 14.9527 20.9186C14.9662 20.8982 14.9796 20.878 14.993 20.8579C15.0632 20.7522 15.1952 20.5541 15.376 20.2829C16.1254 19.1587 17.7134 16.7767 19.2158 14.4939L20.5838 16.9537C20.2604 17.5207 20.044 17.8493 19.8426 18.1551C19.6894 18.3876 19.5449 18.6069 19.3688 18.9079C19.4553 18.8948 19.4961 18.8881 19.5372 18.8857C19.6291 18.8803 19.7223 18.8961 20.3331 18.9079C20.6788 18.9162 20.8343 18.9136 20.9999 18.9109C21.0867 18.9094 21.1763 18.9079 21.2975 18.9079C23.9495 14.3274 26.7808 8.82101 28.1293 6.19837C28.5544 5.37178 28.8321 4.83165 28.9105 4.69726C29.5817 3.53747 26.2893 0.958743 25.3164 2.45415C24.8823 3.12452 23.2674 5.52857 21.3675 8.35681C18.2106 13.0563 14.2669 18.9271 13.6463 19.9615C12.5247 21.835 9.60613 21.8732 9.60613 19.0651ZM23.5194 25.3483C23.5194 23.3686 21.9135 21.7628 19.9338 21.7628C17.9498 21.7628 16.344 23.3686 16.3482 25.3483C16.3482 27.328 17.9541 28.9339 19.9338 28.9339C21.9135 28.9339 23.5194 27.328 23.5194 25.3483ZM24.8703 25.3441C24.8703 22.6167 22.6612 20.4075 19.9338 20.4075C17.2064 20.4075 14.9972 22.6167 14.9972 25.3441C14.9972 28.0715 17.2064 30.2806 19.9338 30.2806C22.6612 30.2806 24.8703 28.0715 24.8703 25.3441ZM23.9739 10.9848C23.9739 10.9848 23.2645 7.99396 22.6272 9.18773C22.538 9.35767 22.3298 9.69753 22.0452 10.1479L23.103 12.5269C23.6213 11.6008 23.9739 10.9848 23.9739 10.9848ZM21.3655 15.5857C21.6756 15.0377 21.9857 14.4939 22.2746 13.9841L21.1743 11.5073C20.8344 12.0341 20.4521 12.6161 20.0527 13.2279L21.3655 15.5857Z" fill="#36485C"/>
</svg>
