<svg width="32" height="32" viewBox="0 0 32 32" fill="none" xmlns="http://www.w3.org/2000/svg">
<path fill-rule="evenodd" clip-rule="evenodd" d="M4 4.5C4 4.22386 4.22386 4 4.5 4H27.5C27.7761 4 28 4.22386 28 4.5V6.68629C28 9.07324 27.0518 11.3624 25.364 13.0503L20 18.4142V27.5C20 27.7761 19.7761 28 19.5 28H12.5C12.2239 28 12 27.7761 12 27.5V18.4142L6.63604 13.0503C4.94821 11.3624 4 9.07324 4 6.68629V4.5ZM6 6V6.68629C6 8.54281 6.7375 10.3233 8.05025 11.636L14 17.5858V26H18V17.5858L23.9498 11.636C25.2625 10.3233 26 8.54281 26 6.68629V6H6Z" fill="#36485C"/>
</svg>
