<svg width="24" height="24" viewBox="0 0 24 24" fill="none" xmlns="http://www.w3.org/2000/svg">
<path d="M9.75 11H9.25C9.11193 11 9 11.1119 9 11.25V15.75C9 15.8881 9.11193 16 9.25 16H9.75C9.88807 16 10 15.8881 10 15.75V11.25C10 11.1119 9.88807 11 9.75 11Z" fill="#36485C"/>
<path d="M14.25 13H14.75C14.8881 13 15 13.1119 15 13.25V15.75C15 15.8881 14.8881 16 14.75 16H14.25C14.1119 16 14 15.8881 14 15.75V13.25C14 13.1119 14.1119 13 14.25 13Z" fill="#36485C"/>
<path d="M11.75 14H12.25C12.3881 14 12.5 14.1119 12.5 14.25V15.75C12.5 15.8881 12.3881 16 12.25 16H11.75C11.6119 16 11.5 15.8881 11.5 15.75V14.25C11.5 14.1119 11.6119 14 11.75 14Z" fill="#36485C"/>
<path fill-rule="evenodd" clip-rule="evenodd" d="M10.5 5C9.67157 5 9 5.67157 9 6.5H6.75C6.61193 6.5 6.5 6.61193 6.5 6.75V18.75C6.5 18.8881 6.61193 19 6.75 19H17.25C17.3881 19 17.5 18.8881 17.5 18.75V6.75C17.5 6.61193 17.3881 6.5 17.25 6.5H15C15 5.67157 14.3284 5 13.5 5H10.5ZM13.5 6H10.5C10.2239 6 10 6.22386 10 6.5V8H14V6.5C14 6.22386 13.7761 6 13.5 6ZM7.5 7.5H9V8.75C9 8.88807 9.11193 9 9.25 9H14.75C14.8881 9 15 8.88807 15 8.75V7.5H16.5V18H7.5V7.5Z" fill="#36485C"/>
</svg>
