<svg width="32" height="32" viewBox="0 0 32 32" fill="none" xmlns="http://www.w3.org/2000/svg">
<path d="M11.17 6L15.0236 9.85355C15.1173 9.94732 15.2445 10 15.3771 10H28V26H4V6H11.17ZM11.17 4L2.5 4C2.22386 4 2 4.22111 2 4.49725C2 7.52671 2 23.5038 2 27.5102C2 27.7863 2.22386 28 2.5 28H29.5C29.7761 28 30 27.7761 30 27.5V8.5C30 8.22386 29.7814 8 29.5052 8C27.517 8 20.0238 8 16 8L12.59 4.59C12.4039 4.40283 12.1827 4.25434 11.939 4.15308C11.6953 4.05182 11.4339 3.99979 11.17 4Z" fill="#36485C"/>
</svg>
