<svg width="32" height="32" viewBox="0 0 32 32" fill="none" xmlns="http://www.w3.org/2000/svg">
<path fill-rule="evenodd" clip-rule="evenodd" d="M9.23726 8.72025C15.9125 2.96419 24.3893 3.60557 26.8364 4.8107C28.9117 7.62542 28.6257 16.8703 22.5346 22.7979C13.6248 31.4667 4.78029 28.1087 3.76307 27.4918C0.609288 16.7273 8.18327 9.45559 9.23726 8.72025ZM25.6639 5.98316C26.0234 6.74301 26.2726 7.72755 26.3788 8.85098C26.3339 9.04707 26.2849 9.24316 26.2318 9.43925C25.5495 8.28722 24.757 6.33858 21.8034 5.44391C23.417 5.44391 24.7488 5.6972 25.6639 5.98316ZM10.8019 9.50053C13.6861 7.21281 16.5375 6.11797 19.0254 5.68086C21.689 6.66948 24.2259 8.75702 25.6231 11.2939C23.0249 17.9733 16.8153 22.1974 11.8763 24.5586C10.1932 21.0086 6.81473 19.3296 5.06217 18.68C5.84653 15.4609 7.58275 12.0538 10.8019 9.50053ZM4.64139 21.0821C6.69626 22.1279 8.97581 23.8274 9.72749 25.5064C8.26906 26.0988 7.02716 26.4991 6.17743 26.7279C5.73623 26.6094 5.31954 26.4746 4.93144 26.3194C4.57195 24.9876 4.42079 23.137 4.64139 21.0821ZM21.3622 21.6254C16.3864 26.062 11.8886 27.2835 8.44064 27.0833C19.5075 23.5087 24.4424 17.0132 26.2808 12.2907C25.8273 15.4486 24.3526 18.9537 21.3622 21.6254ZM9.13896 15.7273C9.28348 15.8039 9.42799 15.8843 9.57485 15.9687C9.44283 16.1702 9.34284 16.3288 9.28269 16.4265C8.98195 16.9116 9.73265 17.0951 9.93575 16.7858C10.0318 16.6569 10.131 16.5327 10.2287 16.4054C10.3185 16.4749 10.4084 16.5436 10.5029 16.6256C11.0309 17.0873 11.3575 16.3718 11.0466 16.132C10.9489 16.0562 10.8216 15.9515 10.6763 15.8367C10.9247 15.5289 11.1762 15.2289 11.4293 14.9352C11.5574 15.0305 11.6731 15.1219 11.7941 15.2235C12.1363 15.5086 13.0659 15.1016 12.4511 14.6399C12.3003 14.5267 12.1441 14.4118 11.9894 14.3001C12.2636 13.997 12.5378 13.7017 12.812 13.4174C13.0214 13.5611 13.194 13.6853 13.3119 13.7697C13.6158 13.9861 14.5017 13.6978 13.8697 13.1893C13.7158 13.0651 13.5533 12.9448 13.3893 12.83C13.7416 12.48 14.0884 12.1488 14.4282 11.8363C14.711 12.0183 14.95 12.1785 15.086 12.2738C15.4219 12.5066 16.0601 12.0004 15.4734 11.5957C15.3414 11.5051 15.1867 11.4036 15.025 11.2997C15.2899 11.0669 15.5492 10.845 15.7976 10.6404C16.0015 10.7513 16.1929 10.8567 16.3429 10.9395C16.8389 11.2106 17.3037 10.7489 16.9022 10.3709C16.7889 10.2646 16.6569 10.1662 16.5147 10.0725C16.7905 9.86232 17.0529 9.66937 17.292 9.50533C17.4287 9.60766 17.5568 9.71156 17.6638 9.81154C18.013 10.1396 18.4919 9.83342 18.1599 9.50689C18.0599 9.40924 17.9372 9.29285 17.8013 9.17568C17.9997 9.0546 18.1825 8.9507 18.3348 8.87805C19.034 8.54449 18.4872 8.20859 18.1411 8.28202C17.7935 8.40467 17.4529 8.54996 17.1178 8.71166C16.9834 8.64917 16.8467 8.60543 16.7124 8.59215C16.5303 8.58746 15.9695 8.82181 16.2452 8.91945C16.3311 8.94992 16.4163 8.9921 16.5022 9.03116C16.1765 9.21317 15.8585 9.41003 15.5484 9.62016C15.4187 9.57641 15.2891 9.53267 15.1477 9.49517C14.5743 9.34519 13.9916 9.89904 14.4564 10.0201C14.5563 10.0467 14.6798 10.0935 14.8133 10.1506C14.5665 10.3404 14.3251 10.5365 14.0908 10.7372C13.858 10.6083 13.6588 10.5083 13.5471 10.4732C13.226 10.374 12.5831 10.7653 13.062 11.02C13.2026 11.095 13.351 11.1794 13.5002 11.2661C13.1495 11.5934 12.8151 11.9269 12.4995 12.2605C12.3253 12.1574 12.1683 12.0691 12.0457 12.0027C11.634 11.7785 11.1083 12.4152 11.5942 12.6722C11.7145 12.7354 11.8309 12.8011 11.9449 12.8675C11.677 13.1706 11.4262 13.469 11.1926 13.7572C11.0419 13.6619 10.9099 13.5854 10.8161 13.544C10.5013 13.4033 9.89982 13.9361 10.4591 14.2884C10.5349 14.3361 10.6036 14.3798 10.6708 14.4228C10.4115 14.7634 10.1842 15.0782 9.98965 15.3563C9.83576 15.2664 9.67562 15.1852 9.51236 15.125C9.14521 14.9891 8.81321 15.5539 9.13896 15.7273Z" fill="#36485C"/>
</svg>
