<svg width="32" height="32" viewBox="0 0 32 32" fill="none" xmlns="http://www.w3.org/2000/svg">
<path d="M4.3245 13.2358C4.14319 13.4337 4.15039 13.7394 4.34081 13.9284L5.05216 14.6348C5.25311 14.8343 5.5795 14.8273 5.77169 14.6193L9.72641 10.3393C9.90343 10.1477 9.90343 9.85223 9.72641 9.66065L5.77169 5.38065C5.57951 5.17266 5.25311 5.16564 5.05216 5.36517L4.34081 6.0715C4.15039 6.26059 4.14319 6.56628 4.3245 6.76412L7.28994 9.99997L4.3245 13.2358Z" fill="#36485C"/>
<path d="M22.4999 5.99997H14.4999C14.2238 5.99997 13.9999 6.22383 13.9999 6.49997V7.49997C13.9999 7.77611 14.2238 7.99997 14.4999 7.99997H22.4999C22.7761 7.99997 22.9999 7.77611 22.9999 7.49997V6.49997C22.9999 6.22383 22.7761 5.99997 22.4999 5.99997Z" fill="#36485C"/>
<path d="M27.4999 12H14.4999C14.2238 12 13.9999 12.2238 13.9999 12.5V13.5C13.9999 13.7761 14.2238 14 14.4999 14H27.4999C27.7761 14 27.9999 13.7761 27.9999 13.5V12.5C27.9999 12.2238 27.7761 12 27.4999 12Z" fill="#36485C"/>
<path d="M7.49994 18H27.4999C27.7761 18 27.9999 18.2238 27.9999 18.5V19.5C27.9999 19.7761 27.7761 20 27.4999 20H7.49994C7.2238 20 6.99994 19.7761 6.99994 19.5V18.5C6.99994 18.2238 7.2238 18 7.49994 18Z" fill="#36485C"/>
<path d="M22.4999 24H7.49994C7.2238 24 6.99994 24.2238 6.99994 24.5V25.5C6.99994 25.7761 7.2238 26 7.49994 26H22.4999C22.7761 26 22.9999 25.7761 22.9999 25.5V24.5C22.9999 24.2238 22.7761 24 22.4999 24Z" fill="#36485C"/>
</svg>
