<svg width="32" height="32" viewBox="0 0 32 32" fill="none" xmlns="http://www.w3.org/2000/svg">
<path d="M25.9975 18.4999C26.0113 18.2241 26.2339 18 26.51 18H27.51C27.7862 18 28.0111 18.224 27.9996 18.4999C27.908 20.6981 27.2135 22.8323 25.9876 24.6669C24.6691 26.6403 22.7949 28.1783 20.6022 29.0866C18.4095 29.9948 15.9967 30.2325 13.6689 29.7695C11.3412 29.3064 9.20296 28.1636 7.52473 26.4853C5.8465 24.8071 4.70361 22.6689 4.24059 20.3411C3.77757 18.0134 4.01521 15.6006 4.92346 13.4078C5.83171 11.2151 7.36978 9.34098 9.34317 8.0224C11.3166 6.70383 13.6366 6.00004 16.01 6.00004H24.1951L20.9599 2.76613C20.7652 2.57145 20.7645 2.25595 20.9584 2.06042L21.6565 1.35654C21.8515 1.15989 22.1692 1.15923 22.365 1.35506L27.6565 6.64649C27.8517 6.84175 27.8517 7.15833 27.6565 7.35359L22.3651 12.6449C22.1692 12.8408 21.8515 12.8401 21.6565 12.6434L20.9581 11.9389C20.7643 11.7434 20.765 11.4281 20.9596 11.2334L24.1921 8.00004H16.01C14.0322 8.00004 12.0988 8.58653 10.4543 9.68534C8.80982 10.7842 7.5281 12.3459 6.77122 14.1732C6.01434 16.0005 5.81631 18.0111 6.20216 19.9509C6.58801 21.8908 7.54042 23.6726 8.93895 25.0711C10.3375 26.4696 12.1193 27.422 14.0591 27.8079C15.9989 28.1937 18.0096 27.9957 19.8368 27.2388C21.6641 26.482 23.2259 25.2002 24.3247 23.5557C25.3308 22.0501 25.9073 20.3022 25.9975 18.4999Z" fill="#36485C"/>
<path d="M13.8788 23.084C14.5081 23.4894 15.2335 23.692 16.0548 23.692C16.8655 23.692 17.5801 23.484 18.1988 23.068C18.8281 22.6414 19.2655 22.0707 19.5108 21.356C19.6815 20.876 19.7668 20.3534 19.7668 19.788C19.7668 19.1587 19.6868 18.5774 19.5268 18.044C19.3348 17.372 18.9721 16.8494 18.4388 16.476C17.9161 16.092 17.2441 15.9 16.4228 15.9C15.7615 15.9 15.2175 16.076 14.7908 16.428C14.7375 16.46 14.7108 16.444 14.7108 16.38L14.8548 14.284C14.8548 14.2307 14.8815 14.204 14.9348 14.204H18.9348C18.9881 14.204 19.0308 14.188 19.0628 14.156C19.1055 14.1134 19.1268 14.0654 19.1268 14.012V12.46C19.1268 12.4067 19.1055 12.364 19.0628 12.332C19.0308 12.2894 18.9881 12.268 18.9348 12.268H13.0148C12.9508 12.268 12.8975 12.284 12.8548 12.316C12.8228 12.348 12.8068 12.396 12.8068 12.46L12.4228 18.652C12.4228 18.78 12.4815 18.844 12.5988 18.844H14.5828C14.6895 18.844 14.7588 18.7907 14.7908 18.684C14.8975 18.428 15.0628 18.2254 15.2868 18.076C15.5108 17.9267 15.7775 17.852 16.0868 17.852C16.3748 17.852 16.6308 17.9374 16.8548 18.108C17.0788 18.268 17.2388 18.524 17.3348 18.876C17.4201 19.164 17.4628 19.468 17.4628 19.788C17.4628 19.9267 17.4468 20.092 17.4148 20.284C17.3828 20.476 17.3401 20.6414 17.2868 20.78C17.2015 21.0787 17.0468 21.3187 16.8228 21.5C16.6095 21.6707 16.3481 21.756 16.0388 21.756C15.4735 21.756 15.0735 21.4787 14.8388 20.924L14.7428 20.7C14.7215 20.6574 14.7001 20.572 14.6788 20.444C14.6468 20.3267 14.5775 20.268 14.4708 20.268H12.5348C12.4068 20.268 12.3428 20.3267 12.3428 20.444V20.476C12.3961 20.796 12.4708 21.1054 12.5668 21.404C12.8228 22.1187 13.2601 22.6787 13.8788 23.084Z" fill="#36485C"/>
</svg>
