<svg width="32" height="32" viewBox="0 0 32 32" fill="none" xmlns="http://www.w3.org/2000/svg">
<path fill-rule="evenodd" clip-rule="evenodd" d="M9.36068 7.89109C9.67647 9.70678 8.87879 11.9798 7.35806 14.5144C6.34518 16.2026 6.062 17.6951 6.18621 18.7637C6.31134 19.8403 6.81435 20.3838 7.31669 20.5513C7.73116 20.6894 8.47964 20.6936 9.27219 20.0119C10.0857 19.3122 11.0168 17.8202 11.5142 14.8356C12.0342 11.7152 13.3914 9.37906 15.3992 8.62613C17.5404 7.82318 19.7187 9.02815 21.3286 11.4392C21.9611 12.3602 22.4472 13.2838 22.8065 14.1977C24.6361 13.9931 26.5828 14.3776 27.781 15.8753C28.7806 17.1248 29.0513 18.6796 29.0376 20.0103C29.0263 21.0988 28.8248 22.1227 28.596 22.8774C28.5159 23.1416 28.2268 23.2725 27.9683 23.1755L27.0319 22.8244C26.7734 22.7274 26.6429 22.4393 26.7183 22.1737C26.8824 21.5954 27.0292 20.8126 27.0377 19.9896C27.0489 18.9037 26.8196 17.8751 26.2192 17.1247C25.6708 16.4391 24.6688 16.0819 23.393 16.1532C23.9473 18.8041 23.5104 21.2908 22.5975 23.2903C21.8825 24.8564 20.8655 26.1478 19.7777 26.9928C18.7377 27.8007 17.411 28.3577 16.1839 27.9486C15.1323 27.5981 14.4433 26.8673 14.1011 25.9399C13.7751 25.0567 13.7794 24.0478 13.9533 23.0741C14.3013 21.1258 15.3902 18.9701 16.7318 17.3598C17.7624 16.123 19.2594 15.1816 20.8288 14.6469C20.5361 13.9599 20.1562 13.2642 19.6765 12.5665L19.6725 12.5606L19.6685 12.5547C18.2784 10.4698 16.9585 10.1774 16.1015 10.4988C15.1093 10.8708 13.9669 12.2847 13.487 15.1643C12.9477 18.4 11.8788 20.4079 10.5764 21.5282C9.25303 22.6664 7.76976 22.8105 6.68423 22.4486C5.23082 21.9641 4.38493 20.5893 4.19958 18.9946C4.01332 17.3921 4.45806 15.4605 5.64306 13.4855C7.12223 11.0201 7.5745 9.2931 7.39026 8.23379C7.30655 7.75245 7.09132 7.40108 6.73717 7.13055C6.43495 6.89968 5.99328 6.69997 5.36998 6.57253C5.09943 6.51721 4.90419 6.27009 4.93845 5.99608L5.06248 5.0038C5.09673 4.72979 5.34709 4.53361 5.61867 4.58361C6.52208 4.74993 7.31622 5.05611 7.95125 5.54121C8.72211 6.13005 9.19439 6.93493 9.36068 7.89109ZM21.4329 16.5538C20.1871 16.9856 19.0276 17.7289 18.2684 18.6401C17.1104 20.0298 16.1993 21.8741 15.9222 23.4258C15.7835 24.2021 15.819 24.8183 15.9774 25.2475C16.1195 25.6327 16.368 25.9018 16.8163 26.0513C17.0892 26.1422 17.7 26.0742 18.5508 25.4134C19.3537 24.7897 20.1806 23.7685 20.7782 22.4596C21.5259 20.822 21.8993 18.7711 21.4329 16.5538Z" fill="#36485C"/>
</svg>
