<svg width="32" height="32" viewBox="0 0 32 32" fill="none" xmlns="http://www.w3.org/2000/svg">
<path fill-rule="evenodd" clip-rule="evenodd" d="M19 23.4402C17.8526 23.7253 16.016 23.8768 15.5 23.8768C14.984 23.8768 13.1474 23.7253 12 23.4402C10.8526 23.1552 10.8814 24.1077 11.2242 24.317C11.567 24.5263 14.8216 26.2077 14.8216 27.817C14.8216 29.4263 14.8216 30.5773 14.8216 30.5773H16.6077C16.6077 30.5773 16.6077 29.4263 16.6077 27.817C16.6077 26.2077 19.6495 24.5227 19.9923 24.317C20.3351 24.1077 20.1474 23.1552 19 23.4402ZM8.71649 14.6902C9.32031 14.6902 9.80979 14.2007 9.80979 13.5969C9.80979 12.9931 9.32031 12.5036 8.71649 12.5036C8.11268 12.5036 7.6232 12.9931 7.6232 13.5969C7.6232 14.2007 8.11268 14.6902 8.71649 14.6902ZM10.9067 17.3134C11.5105 17.3134 12 16.8239 12 16.2201C12 15.6163 11.5105 15.1268 10.9067 15.1268C10.3029 15.1268 9.8134 15.6163 9.8134 16.2201C9.8134 16.8239 10.3029 17.3134 10.9067 17.3134ZM13.5299 19.0634C14.1337 19.0634 14.6232 18.5739 14.6232 17.9701C14.6232 17.3663 14.1337 16.8768 13.5299 16.8768C12.9261 16.8768 12.4366 17.3663 12.4366 17.9701C12.4366 18.5739 12.9261 19.0634 13.5299 19.0634ZM16.5933 19.9402C17.1971 19.9402 17.6866 19.4507 17.6866 18.8469C17.6866 18.2431 17.1971 17.7536 16.5933 17.7536C15.9895 17.7536 15.5 18.2431 15.5 18.8469C15.5 19.4507 15.9895 19.9402 16.5933 19.9402ZM11.5634 14.2536C12.0476 14.2536 12.4402 13.861 12.4402 13.3768C12.4402 12.8926 12.0476 12.5 11.5634 12.5C11.0792 12.5 10.6866 12.8926 10.6866 13.3768C10.6866 13.861 11.0792 14.2536 11.5634 14.2536ZM13.75 16.0036C14.2342 16.0036 14.6268 15.611 14.6268 15.1268C14.6268 14.6426 14.2342 14.25 13.75 14.25C13.2658 14.25 12.8732 14.6426 12.8732 15.1268C12.8732 15.611 13.2658 16.0036 13.75 16.0036ZM9.3732 11.6268C9.85744 11.6268 10.25 11.2342 10.25 10.75C10.25 10.2658 9.85744 9.8732 9.3732 9.8732C8.88895 9.8732 8.49639 10.2658 8.49639 10.75C8.49639 11.2342 8.88895 11.6268 9.3732 11.6268ZM16.3768 16.8804C16.861 16.8804 17.2536 16.4879 17.2536 16.0036C17.2536 15.5194 16.861 15.1268 16.3768 15.1268C15.8926 15.1268 15.5 15.5194 15.5 16.0036C15.5 16.4879 15.8926 16.8804 16.3768 16.8804ZM19.4366 18.6304C19.9208 18.6304 20.3134 18.2379 20.3134 17.7536C20.3134 17.2694 19.9208 16.8768 19.4366 16.8768C18.9524 16.8768 18.5598 17.2694 18.5598 17.7536C18.5598 18.2379 18.9524 18.6304 19.4366 18.6304ZM15.5 2C9.70155 2 5 6.70155 5 12.5C5 18.2985 9.70155 23 15.5 23C21.2985 23 26 18.2985 26 12.5C26 6.70155 21.2985 2 15.5 2ZM22.0418 18.2985C21.9191 18.2299 21.7784 18.1902 21.6268 18.1902C21.1433 18.1902 20.75 18.5835 20.75 19.067C20.75 19.1969 20.7789 19.3196 20.833 19.4314C20.5082 19.6804 20.1655 19.9113 19.8082 20.117C19.6387 20.0088 19.4366 19.9438 19.2201 19.9438C18.6825 19.9438 18.2351 20.3335 18.1448 20.8459C17.6974 20.9866 17.2356 21.084 16.7593 21.1526C16.6222 20.7052 16.2108 20.3768 15.7201 20.3768C15.2077 20.3768 14.7784 20.7304 14.6593 21.2103C14.1758 21.1634 13.7067 21.0696 13.2485 20.9505C13.2881 20.8387 13.3134 20.7232 13.3134 20.5969C13.3134 19.9943 12.8227 19.5036 12.2201 19.5036C11.7799 19.5036 11.4046 19.7634 11.2314 20.1387C10.9392 19.9763 10.6613 19.7923 10.3907 19.5974C10.5747 19.4026 10.6902 19.1392 10.6902 18.8505C10.6902 18.2479 10.1995 17.7572 9.59691 17.7572C9.27577 17.7572 8.99072 17.8979 8.79227 18.118C8.52526 17.7969 8.28711 17.4541 8.0634 17.0969C8.3268 16.8985 8.50361 16.5845 8.50361 16.2237C8.50361 15.6211 8.01289 15.1304 7.41031 15.1304C7.32732 15.1304 7.24433 15.1412 7.16495 15.1593C6.89794 14.3222 6.75361 13.4309 6.75361 12.5036C7.23711 12.5036 7.63041 12.1103 7.63041 11.6268C7.63041 11.201 7.32732 10.851 6.9268 10.768C7.02062 10.3062 7.15773 9.85876 7.3201 9.42577C7.74227 9.36443 8.06701 9.00361 8.06701 8.5634C8.06701 8.40103 8.0201 8.24588 7.94072 8.11598C9.45619 5.50722 12.2742 3.75 15.5072 3.75C20.3387 3.75 24.2572 7.66856 24.2572 12.5C24.25 14.7299 23.4129 16.7541 22.0418 18.2985Z" fill="#36485C"/>
</svg>
