<svg width="32" height="32" viewBox="0 0 32 32" fill="none" xmlns="http://www.w3.org/2000/svg">
<path fill-rule="evenodd" clip-rule="evenodd" d="M15.4859 15.9278C15.6899 16.2634 15.9065 16.6075 16.1402 16.8964C17.3595 15.7833 18.1327 14.1732 18.1327 12.4229C18.1327 12.0618 18.0987 11.7049 18.035 11.3608C17.5294 11.6072 17.1895 11.8451 16.9431 12.0575C16.9601 12.2105 16.9686 12.3676 16.9686 12.5248C16.9644 13.8673 16.3951 15.0739 15.4859 15.9278ZM12.8095 17.1641C12.6395 17.181 12.4696 17.1938 12.2912 17.1938C9.71242 17.1938 7.61797 15.1036 7.61797 12.5206C7.61797 9.93758 9.70817 7.84739 12.2912 7.84739C13.6889 7.84739 14.9379 8.4634 15.7961 9.43627C16.1827 9.17288 16.5183 8.9732 16.8667 8.79477C16.0722 7.79641 15.0144 6.82778 13.3448 6.59837C13.298 6.20752 13.3958 6.00359 12.5291 5.89314V3H11.6667V5.92712C10.8 6.03758 11.1908 6.36046 11.1908 6.58562C11.1908 6.57712 11.1908 6.59412 11.1908 6.58562C8.42091 7.07843 6.3817 9.66994 6.3817 12.4186C6.3817 15.6431 9.03268 18.4088 12.2572 18.4088C12.6268 18.4088 13.0049 18.3663 13.3533 18.2984C13.1578 17.8948 12.9837 17.5167 12.8095 17.1641ZM27.5768 16.8667H25.8775C25.6863 17.7333 25.2105 18.6 24.8706 18.6H26.5614C27.0118 18.6 27.2667 19.2075 27.2667 19.6578V21.2807C27.2667 21.731 27.0118 22.9333 26.5614 22.9333H5.43856C4.98824 22.9333 4.73333 21.731 4.73333 21.2807V19.6578C4.73333 19.2075 4.98824 18.6 5.43856 18.6H9.56797C8.42941 18.6 8.20425 17.7333 7.1634 16.8667H4.8268C3.93039 16.8667 3 17.9585 3 18.8549V22.1049C3 23.0013 3.93039 23.8 4.8268 23.8H6.23725L4.8268 29H8.0768L9.48301 23.8H22.9163L24.3268 29H27.5768L26.1706 23.8H27.5768C28.4732 23.8 29 23.0056 29 22.1049V18.8549C29 17.9585 28.4775 16.8667 27.5768 16.8667ZM20.7412 9.44052C20.7497 9.41078 20.8941 9.38529 20.8941 9.35556C20.8941 9.09216 21.2 8.73954 20.3333 8.52712V3H18.6V8.5781C18.6 8.79477 17.9203 9.10915 17.9203 9.35131C17.9203 9.38105 17.8905 9.40654 17.8948 9.43203C15.3585 10.1245 13.5614 12.3719 13.5614 15.0441C13.5614 18.2686 16.1232 20.8856 19.3477 20.8856C22.5722 20.8856 25.0788 18.2729 25.0788 15.0441C25.083 12.3761 23.2435 10.133 20.7412 9.44052ZM19.301 19.7216C16.7222 19.7216 14.6278 17.6314 14.6278 15.0484C14.6278 12.4696 16.718 10.3752 19.301 10.3752C21.884 10.3752 23.9742 12.4654 23.9742 15.0484C23.9742 17.6271 21.8797 19.7216 19.301 19.7216Z" fill="#36485C"/>
</svg>
