<svg width="32" height="32" viewBox="0 0 32 32" fill="none" xmlns="http://www.w3.org/2000/svg">
<path d="M14.919 19.061C14.919 19.201 14.989 19.271 15.129 19.271H16.746C16.886 19.271 16.956 19.201 16.956 19.061V18.116C16.956 17.738 17.068 17.416 17.292 17.15C17.53 16.884 17.894 16.569 18.384 16.205C18.846 15.869 19.224 15.561 19.518 15.281C19.812 14.987 20.064 14.616 20.274 14.168C20.484 13.72 20.589 13.188 20.589 12.572C20.589 11.424 20.204 10.5 19.434 9.8C18.664 9.1 17.642 8.75 16.368 8.75C15.514 8.75 14.751 8.918 14.079 9.254C13.421 9.576 12.91 10.038 12.546 10.64C12.182 11.228 12 11.907 12 12.677V13.139C12 13.279 12.07 13.349 12.21 13.349L13.806 13.433C13.946 13.433 14.016 13.363 14.016 13.223V12.677C14.016 12.047 14.226 11.543 14.646 11.165C15.066 10.773 15.619 10.577 16.305 10.577C16.977 10.577 17.516 10.766 17.922 11.144C18.342 11.508 18.552 12.005 18.552 12.635C18.552 13.181 18.405 13.629 18.111 13.979C17.817 14.329 17.383 14.721 16.809 15.155C16.193 15.617 15.724 16.051 15.402 16.457C15.08 16.863 14.919 17.381 14.919 18.011V19.061Z" fill="#36485C"/>
<path d="M14.919 23.24C15.171 23.492 15.493 23.618 15.885 23.618C16.277 23.618 16.599 23.492 16.851 23.24C17.103 22.988 17.229 22.666 17.229 22.274C17.229 21.882 17.103 21.56 16.851 21.308C16.599 21.056 16.277 20.93 15.885 20.93C15.493 20.93 15.171 21.056 14.919 21.308C14.667 21.56 14.541 21.882 14.541 22.274C14.541 22.666 14.667 22.988 14.919 23.24Z" fill="#36485C"/>
<path fill-rule="evenodd" clip-rule="evenodd" d="M29 16C29 23.1797 23.1797 29 16 29C8.8203 29 3 23.1797 3 16C3 8.8203 8.8203 3 16 3C23.1797 3 29 8.8203 29 16ZM27 16C27 22.0751 22.0751 27 16 27C9.92487 27 5 22.0751 5 16C5 9.92487 9.92487 5 16 5C22.0751 5 27 9.92487 27 16Z" fill="#36485C"/>
</svg>
