<svg width="32" height="32" viewBox="0 0 32 32" fill="none" xmlns="http://www.w3.org/2000/svg">
<path d="M21.1692 7.16709C21.3013 7.23021 21.4549 7.2376 21.5858 7.17204C22.015 6.95698 22.3946 6.65727 22.7026 6.29489C22.8858 6.0794 22.8054 5.75944 22.5556 5.62682C20.5998 4.58854 18.3682 4 16 4C8.26801 4 2 10.268 2 18C2 21.7903 3.50741 25.23 5.95306 27.7498C6.14539 27.948 6.4626 27.9409 6.6538 27.7416L7.3462 27.0201C7.5374 26.8209 7.53006 26.505 7.3389 26.3058C5.26985 24.1489 4 21.2235 4 18C4 11.3726 9.37258 6 16 6C17.8513 6 19.6039 6.41876 21.1692 7.16709Z" fill="#36485C"/>
<path d="M20 9C20 8.74896 20.2041 8.54784 20.4539 8.52307C22.6019 8.31011 24.3101 6.60188 24.5231 4.45391C24.5478 4.2041 24.7489 4 25 4C25.251 4 25.4521 4.2041 25.4769 4.45391C25.6899 6.60189 27.3981 8.31012 29.5461 8.52308C29.7959 8.54784 30 8.74896 30 8.99999C30 9.25103 29.7959 9.45216 29.5461 9.47693C27.3981 9.68989 25.6899 11.3981 25.4769 13.5461C25.4521 13.7959 25.251 14 25 14C24.7489 14 24.5478 13.7959 24.5231 13.5461C24.3101 11.3981 22.6019 9.68989 20.4539 9.47693C20.2041 9.45216 20 9.25104 20 9Z" fill="#36485C"/>
<path fill-rule="evenodd" clip-rule="evenodd" d="M11.9083 28.0201C11.5215 28.2707 11.0304 27.9089 11.1551 27.4652L12.8658 21.3787L7.75175 17.0469C7.39643 16.7459 7.60926 16.1653 8.07491 16.1653H14.84L16.933 9.83069C17.0841 9.37317 17.7313 9.37317 17.8825 9.83069L19.9754 16.1653H26.7405C27.2062 16.1653 27.419 16.7459 27.0637 17.0469L21.9496 21.3787L23.6603 27.4652C23.785 27.9089 23.294 28.2707 22.9071 28.0201L17.4077 24.458L11.9083 28.0201ZM17.4077 22.0751L20.6599 24.1817L19.6766 20.683L22.6489 18.1653H18.5299L17.4077 14.769L16.2856 18.1653H12.1666L15.1389 20.683L14.1555 24.1817L17.4077 22.0751Z" fill="#36485C"/>
</svg>
