<svg width="32" height="32" viewBox="0 0 32 32" fill="none" xmlns="http://www.w3.org/2000/svg">
<path d="M10.5712 3.10136C12.2889 2.37478 14.1349 2.00026 15.9999 2C18.7689 2 21.4756 2.82109 23.7779 4.35943C26.0802 5.89777 27.8746 8.08427 28.9342 10.6424C29.9939 13.2006 30.2711 16.0155 29.7309 18.7313C29.1907 21.447 27.8574 23.9416 25.8994 25.8995C23.9415 27.8574 21.4469 29.1908 18.7312 29.731C16.0155 30.2712 13.2005 29.9939 10.6424 28.9343C8.0842 27.8747 5.8977 26.0803 4.35936 23.778C2.91374 21.6145 2.10151 19.0938 2.00886 16.4999C1.999 16.2239 2.22379 16 2.49993 16H3.4988C3.77539 16 3.99834 16.2247 4.00926 16.501C4.113 19.1269 5.07654 21.6516 6.75893 23.6824C8.54808 25.8422 11.0372 27.307 13.7939 27.8226C16.5507 28.3381 19.4009 27.8719 21.8497 26.5047C24.2984 25.1375 26.191 22.9559 27.1986 20.3386C28.2063 17.7213 28.2654 14.8338 27.3657 12.1775C26.466 9.52115 24.6643 7.26386 22.2735 5.79764C19.8828 4.33142 17.054 3.74888 14.2785 4.1512C11.5029 4.55353 8.95596 5.91529 7.07993 8H11.4999C11.7761 8 11.9999 8.22386 11.9999 8.5V9.5C11.9999 9.77614 11.7761 10 11.4999 10H4.49993C4.22379 10 3.99993 9.77614 3.99993 9.5V2.5C3.99993 2.22386 4.22379 2 4.49993 2H5.49993C5.77607 2 5.99993 2.22386 5.99993 2.5V6.23C7.29904 4.89183 8.85347 3.82795 10.5712 3.10136Z" fill="#36485C"/>
<path d="M20.2364 21.6464C20.4316 21.8417 20.7482 21.8417 20.9435 21.6464L21.6467 20.9432C21.8419 20.7481 21.842 20.4318 21.6471 20.2364L16.9999 15.58V7.5C16.9999 7.22386 16.7761 7 16.4999 7H15.4999C15.2238 7 14.9999 7.22386 14.9999 7.5V16.2029C14.9999 16.3355 15.0526 16.4627 15.1464 16.5564L20.2364 21.6464Z" fill="#36485C"/>
</svg>
