<svg width="32" height="32" viewBox="0 0 32 32" fill="none" xmlns="http://www.w3.org/2000/svg">
<path d="M16.6123 2.21387C16.4348 2.07535 16.2161 2.00012 15.9909 2.00012C15.7658 2.00012 15.5471 2.07535 15.3696 2.21387L1.3969 13.1099C1.1781 13.2805 1.14007 13.5967 1.31215 13.8143L1.93464 14.6016C2.10509 14.8172 2.41757 14.8548 2.6343 14.6858L3.99995 13.621V27.5001C3.99995 27.7762 4.22381 28.0001 4.49995 28.0001C12.1665 27.9999 19.8331 27.9951 27.4996 27.9997C27.7759 27.9999 28 27.776 28 27.4997V13.6301L29.3656 14.6947C29.5823 14.8637 29.8948 14.8261 30.0652 14.6105L30.6877 13.8232C30.8598 13.6055 30.8217 13.2893 30.6029 13.1188L16.6123 2.21387ZM18 26.0001H14V18.0001H18V26.0001ZM20 26.0001V16.5001C20 16.2239 19.7761 16.0001 19.5 16.0001H12.5C12.2238 16.0001 12 16.2239 12 16.5001V26.0001H5.99995V12.0616L16 4.27157L26 12.0721V26.0001H20Z" fill="#36485C"/>
</svg>
