<svg width="32" height="32" viewBox="0 0 32 32" fill="none" xmlns="http://www.w3.org/2000/svg">
<path d="M20.3843 12.5533C21.8713 9.70669 24.6542 4.35338 25.1385 3.36769C25.7206 2.18656 28.2698 4.17068 27.9766 4.83772C27.8544 5.11728 26.9779 7.05148 25.9954 9.21972C24.7231 12.0273 23.273 15.2273 23.0524 15.7355C23.0253 15.8034 22.8717 16.0289 22.6845 16.3036C22.5786 16.4591 22.4619 16.6303 22.3514 16.7977C21.9945 17.3871 21.6337 17.9491 21.2633 18.526C20.8621 19.1509 20.4497 19.7932 20.0189 20.5068H18.3109C18.8074 19.6774 19.4018 18.8208 19.9562 18.0219C20.6399 17.0365 21.2627 16.1391 21.5654 15.4891C21.5274 15.4711 21.4849 15.4479 21.4392 15.423C21.1729 15.278 20.7991 15.0745 20.5924 15.4806C19.3518 17.469 17.4994 19.878 16.2163 20.0097C14.5593 20.1796 9.38447 17.6432 7.35786 16.6278C5.34235 15.6179 4.5623 17.7219 4.31978 18.376L4.31582 18.3867C3.19842 20.7532 3.60204 21.8664 3.97593 22.0703C6.3594 23.4588 8.75299 24.2038 10.9587 24.8903C11.23 24.9748 11.4985 25.0583 11.7637 25.1421V26.9945C7.99817 26.1123 5.2762 24.5779 4.0082 23.8631C3.86555 23.7827 3.7413 23.7126 3.63603 23.655C1.29884 22.3686 1.90981 20.4457 2.75538 17.7846C2.77828 17.7125 2.80135 17.6399 2.82454 17.5667C3.89945 14.1678 6.39766 14.6054 7.31113 14.9793C7.74697 15.1581 8.42945 15.478 9.2282 15.8524C11.4661 16.9014 14.6166 18.3782 15.8127 18.3782C17.3562 18.3782 19.6336 13.9439 20.2002 12.8407C20.2294 12.7838 20.254 12.7358 20.2738 12.6977C20.3078 12.6298 20.346 12.5873 20.3843 12.5533Z" fill="#36485C"/>
<path fill-rule="evenodd" clip-rule="evenodd" d="M12.9661 26.4974C12.9661 27.6148 15.4176 28.524 18.4426 28.524C21.4677 28.524 23.9234 27.6148 23.9191 26.4974V23.6593C23.9191 22.5419 21.4677 21.6327 18.4426 21.6327C15.4176 21.6327 12.9661 22.5376 12.9661 23.6593V26.4974ZM22.2962 24.0587C22.2962 23.3874 20.5712 22.8436 18.4426 22.8436C16.314 22.8436 14.5891 23.3916 14.5891 24.0629C14.5891 24.7342 16.314 25.278 18.4426 25.278C20.5754 25.278 22.2962 24.73 22.2962 24.0587Z" fill="#36485C"/>
</svg>
