<svg width="32" height="32" viewBox="0 0 32 32" fill="none" xmlns="http://www.w3.org/2000/svg">
<path d="M13.8972 18.7988C13.9399 18.8749 14.0067 18.9346 14.0871 18.9686C14.1358 18.9884 14.1878 18.999 14.2403 19C14.302 18.9976 14.3622 18.9807 14.4162 18.9507C14.4701 18.9206 14.5162 18.8783 14.5507 18.8271L19.6578 12.1487C19.699 12.0928 19.7248 12.0271 19.7324 11.9581C19.74 11.8891 19.7291 11.8193 19.701 11.7558C19.6686 11.6897 19.6183 11.634 19.5557 11.5951C19.4932 11.5562 19.421 11.5357 19.3474 11.5358H17.4814L18.161 8.47942C18.174 8.42144 18.1737 8.36127 18.1601 8.30343C18.1465 8.24559 18.1199 8.19159 18.0824 8.1455C18.0454 8.09992 17.9987 8.0632 17.9457 8.03805C17.8927 8.01289 17.8347 7.99994 17.776 8.00014H13.8475C13.7572 7.99773 13.6689 8.02649 13.5973 8.08158C13.5257 8.13668 13.4754 8.21474 13.4546 8.30264L12.2761 13.4097C12.2622 13.4683 12.262 13.5292 12.2754 13.5879C12.2888 13.6466 12.3156 13.7013 12.3535 13.748C12.3915 13.7947 12.4397 13.8321 12.4944 13.8572C12.549 13.8823 12.6088 13.8945 12.6689 13.8929H14.5664L13.8514 18.5482C13.8384 18.6345 13.8546 18.7227 13.8972 18.7988Z" fill="#36485C"/>
<path fill-rule="evenodd" clip-rule="evenodd" d="M8.9291 4.92893C10.8045 3.05357 13.348 2 16.0002 2C17.3134 2 18.6137 2.25866 19.827 2.7612C21.0403 3.26375 22.1427 4.00035 23.0712 4.92893C23.9998 5.85752 24.7364 6.95991 25.239 8.17317C25.7415 9.38642 26.0002 10.6868 26.0002 12C26.067 13.4518 25.7882 14.8987 25.1867 16.2217C24.5851 17.5447 23.6781 18.706 22.5402 19.61C21.5302 20.55 21.0002 21.08 21.0002 22L21.0001 25.5C21.0001 25.7761 20.7763 26 20.5001 26H11.5001C11.224 26 11.0001 25.7761 11.0001 25.5V24.5L11.0001 24.4972L11.0002 22C11.0002 21.08 10.4602 20.55 9.46017 19.62C8.32144 18.7144 7.41399 17.5514 6.81246 16.2267C6.21094 14.902 5.93254 13.4533 6.00017 12C6.00017 9.34784 7.05374 6.8043 8.9291 4.92893ZM13.0001 24H19.0001L19.0002 22C19.0002 20.1759 20.0677 19.179 21.1181 18.198L21.1802 18.14C22.1166 17.4253 22.8635 16.4918 23.3551 15.4213C23.8468 14.3508 24.0683 13.176 24.0002 12C24.0002 9.87827 23.1573 7.84344 21.657 6.34315C20.1567 4.84285 18.1219 4 16.0002 4C13.8784 4 11.8436 4.84285 10.3433 6.34315C8.84302 7.84344 8.00017 9.87827 8.00017 12C7.93091 13.1752 8.15086 14.3494 8.64075 15.4198C9.13064 16.4903 9.87553 17.4243 10.8102 18.14C11.8902 19.13 13.0002 20.16 13.0002 22L13.0001 24Z" fill="#36485C"/>
<path d="M18.5001 28H13.5001C13.224 28 13.0001 28.2239 13.0001 28.5V29.5C13.0001 29.7761 13.224 30 13.5001 30H18.5001C18.7763 30 19.0001 29.7761 19.0001 29.5V28.5C19.0001 28.2239 18.7763 28 18.5001 28Z" fill="#36485C"/>
</svg>
