<svg width="32" height="32" viewBox="0 0 32 32" fill="none" xmlns="http://www.w3.org/2000/svg">
<path fill-rule="evenodd" clip-rule="evenodd" d="M20.6667 13.4944C20.1734 13.8241 19.5933 14 19 14C18.2044 14 17.4413 13.6839 16.8787 13.1213C16.3161 12.5587 16 11.7957 16 11C16 10.4067 16.1759 9.82664 16.5056 9.33329C16.8352 8.83994 17.3038 8.45543 17.8519 8.22836C18.4001 8.0013 19.0033 7.94189 19.5853 8.05765C20.1672 8.1734 20.7018 8.45912 21.1213 8.87868C21.5409 9.29824 21.8266 9.83279 21.9424 10.4147C22.0581 10.9967 21.9987 11.5999 21.7716 12.1481C21.5446 12.6962 21.1601 13.1648 20.6667 13.4944ZM19.5556 10.1685C19.3911 10.0587 19.1978 10 19 10C18.7348 10 18.4804 10.1054 18.2929 10.2929C18.1054 10.4804 18 10.7348 18 11C18 11.1978 18.0586 11.3911 18.1685 11.5556C18.2784 11.72 18.4346 11.8482 18.6173 11.9239C18.8 11.9996 19.0011 12.0194 19.1951 11.9808C19.3891 11.9422 19.5673 11.847 19.7071 11.7071C19.847 11.5673 19.9422 11.3891 19.9808 11.1951C20.0194 11.0011 19.9996 10.8 19.9239 10.6173C19.8482 10.4346 19.72 10.2784 19.5556 10.1685Z" fill="#36485C"/>
<path fill-rule="evenodd" clip-rule="evenodd" d="M4 4.5C4 4.22386 4.22386 4 4.5 4H27.5C27.7761 4 28 4.22386 28 4.5V27.5C28 27.7761 27.7761 28 27.5 28H4.5C4.22386 28 4 27.7761 4 27.5V4.5ZM6 20V26H26V24L21 19C20.6616 19.3384 20.3231 19.6767 19.9846 20.0149C19.4409 20.5582 18.8972 21.1015 18.354 21.6453C18.1586 21.841 17.8414 21.841 17.646 21.6453C16.2151 20.212 14.7825 18.7804 13.3498 17.3487C12.5665 16.5659 11.7831 15.7831 11 15L6 20ZM24.6748 19.8458C25.1166 20.2871 25.5584 20.7284 26 21.17V6H6V17.17C6.31684 16.8532 6.63351 16.5362 6.95019 16.2192C8.18021 14.9879 9.41022 13.7566 10.6499 12.535C10.8441 12.3436 11.1559 12.3436 11.3502 12.5349C12.9908 14.1508 14.6173 15.781 16.2438 17.4112C16.829 17.9977 17.4142 18.5842 18 19.17C18.1763 18.9937 18.3527 18.8173 18.5291 18.641C19.235 17.9353 19.941 17.2296 20.645 16.522C20.8407 16.3252 21.1593 16.3252 21.355 16.522C22.4591 17.6324 23.567 18.7391 24.6748 19.8458Z" fill="#36485C"/>
</svg>
