<svg width="32" height="32" viewBox="0 0 32 32" fill="none" xmlns="http://www.w3.org/2000/svg">
<path d="M20.5 20C20.7761 20 21 20.2239 21 20.5V21.5C21 21.7761 20.7761 22 20.5 22H10.5C10.2239 22 10 21.7761 10 21.5V20.5C10 20.2239 10.2239 20 10.5 20H20.5Z" fill="#36485C"/>
<path d="M7.5 12H6.5C6.22386 12 6 12.2239 6 12.5V13.5C6 13.7761 6.22386 14 6.5 14H7.5C7.77614 14 8 13.7761 8 13.5V12.5C8 12.2239 7.77614 12 7.5 12Z" fill="#36485C"/>
<path d="M10.5 12H11.5C11.7761 12 12 12.2239 12 12.5V13.5C12 13.7761 11.7761 14 11.5 14H10.5C10.2239 14 10 13.7761 10 13.5V12.5C10 12.2239 10.2239 12 10.5 12Z" fill="#36485C"/>
<path d="M15.5 12H14.5C14.2239 12 14 12.2239 14 12.5V13.5C14 13.7761 14.2239 14 14.5 14H15.5C15.7761 14 16 13.7761 16 13.5V12.5C16 12.2239 15.7761 12 15.5 12Z" fill="#36485C"/>
<path d="M18.5 12H19.5C19.7761 12 20 12.2239 20 12.5V13.5C20 13.7761 19.7761 14 19.5 14H18.5C18.2239 14 18 13.7761 18 13.5V12.5C18 12.2239 18.2239 12 18.5 12Z" fill="#36485C"/>
<path d="M7.5 20H6.5C6.22386 20 6 20.2239 6 20.5V21.5C6 21.7761 6.22386 22 6.5 22H7.5C7.77614 22 8 21.7761 8 21.5V20.5C8 20.2239 7.77614 20 7.5 20Z" fill="#36485C"/>
<path d="M6.5 16H7.5C7.77614 16 8 16.2239 8 16.5V17.5C8 17.7761 7.77614 18 7.5 18H6.5C6.22386 18 6 17.7761 6 17.5V16.5C6 16.2239 6.22386 16 6.5 16Z" fill="#36485C"/>
<path d="M11.5 16H10.5C10.2239 16 10 16.2239 10 16.5V17.5C10 17.7761 10.2239 18 10.5 18H11.5C11.7761 18 12 17.7761 12 17.5V16.5C12 16.2239 11.7761 16 11.5 16Z" fill="#36485C"/>
<path d="M14.5 16H15.5C15.7761 16 16 16.2239 16 16.5V17.5C16 17.7761 15.7761 18 15.5 18H14.5C14.2239 18 14 17.7761 14 17.5V16.5C14 16.2239 14.2239 16 14.5 16Z" fill="#36485C"/>
<path d="M25.5 12H22.5C22.2239 12 22 12.2239 22 12.5V13.5C22 13.7761 22.2239 14 22.5 14H25.5C25.7761 14 26 13.7761 26 13.5V12.5C26 12.2239 25.7761 12 25.5 12Z" fill="#36485C"/>
<path d="M22.5 16H25.5C25.7761 16 26 16.2239 26 16.5V17.5C26 17.7761 25.7761 18 25.5 18H22.5C22.2239 18 22 17.7761 22 17.5V16.5C22 16.2239 22.2239 16 22.5 16Z" fill="#36485C"/>
<path d="M19.5 16H18.5C18.2239 16 18 16.2239 18 16.5V17.5C18 17.7761 18.2239 18 18.5 18H19.5C19.7761 18 20 17.7761 20 17.5V16.5C20 16.2239 19.7761 16 19.5 16Z" fill="#36485C"/>
<path d="M23.5 20H25.5C25.7761 20 26 20.2239 26 20.5V21.5C26 21.7761 25.7761 22 25.5 22H23.5C23.2239 22 23 21.7761 23 21.5V20.5C23 20.2239 23.2239 20 23.5 20Z" fill="#36485C"/>
<path fill-rule="evenodd" clip-rule="evenodd" d="M29.5 26C29.7761 26 30 25.7761 30 25.5V8.5C30 8.22386 29.7761 8 29.5 8H2.5C2.22386 8 2 8.22386 2 8.5V25.5C2 25.7761 2.22386 26 2.5 26H29.5ZM4 24V10H28V24H4Z" fill="#36485C"/>
</svg>
