<svg width="32" height="32" viewBox="0 0 32 32" fill="none" xmlns="http://www.w3.org/2000/svg">
<path fill-rule="evenodd" clip-rule="evenodd" d="M20.5796 26.506L21.6927 28.8511C21.9349 29.3609 21.7182 29.9685 21.2084 30.2191C20.6986 30.4613 20.0911 30.2446 19.8489 29.7348L18.7358 27.3897C18.328 27.3387 17.9626 27.1348 17.7587 26.7057C13.3531 24.7344 12.7073 24.1651 12.121 22.9331C11.539 21.701 10.0096 18.4807 9.62297 17.6693C3.74316 14.8313 3.23335 12.8941 3.05067 11.9934C2.49838 6.1051 6.6066 3.77697 8.28047 2.98252C9.95435 2.18806 14.3897 0.611899 18.5616 4.61816C19.1437 5.33189 20.3247 6.94629 18.808 13.2977C19.1904 14.1091 20.7198 17.3294 21.3061 18.5615C21.8924 19.7935 21.9264 20.6559 20.6689 25.3164C20.8728 25.7498 20.8006 26.1619 20.5796 26.506ZM4.75429 10.5235C4.74579 11.0035 4.77553 11.5133 4.8605 12.0571C4.89873 12.2441 4.97521 12.4437 5.1324 12.6732L5.68044 11.2117L4.75429 10.5235ZM9.14715 13.799L6.42816 11.7725L5.81214 13.4124C6.36444 13.8882 7.23111 14.483 8.59486 15.2519L9.14715 13.799ZM7.96609 7.66427L6.75529 10.8973L9.47853 12.9281L10.6723 9.77998L7.96609 7.66427ZM9.39993 4.02975C9.37232 4.04143 9.3447 4.05312 9.31709 4.06586L8.29747 6.78485L11.0037 8.90056L12.1125 5.97765L9.48278 3.99364C9.45516 4.00638 9.42755 4.01807 9.39993 4.02975ZM6.87425 5.66751L7.55824 6.20282L8.12328 4.69038C7.72818 4.94104 7.29484 5.26392 6.87425 5.66751ZM16.8793 8.45023L17.9456 9.25318C18.1495 7.44335 17.9881 6.6574 17.7162 6.19857L16.8793 8.45023ZM16.5521 9.32965L15.4263 12.3588L17.1469 13.7055C17.4528 12.3248 17.6652 11.199 17.8054 10.277L16.5521 9.32965ZM13.1874 5.66751L16.1315 7.88519L17.0237 5.48483C15.9446 4.52894 14.9038 3.9724 13.9394 3.68775L13.1874 5.66751ZM14.6871 11.7767L15.8044 8.76461L12.856 6.54269L11.7429 9.47834L14.6871 11.7767ZM14.36 12.6604L11.4116 10.3578L10.222 13.4846L13.2214 15.7193L14.36 12.6604ZM17.6652 15.2434L15.0992 13.2382L13.9691 16.2801L16.5819 18.2258L17.6652 15.2434ZM18.6363 16.9196C18.5234 16.6819 18.4035 16.4297 18.2812 16.1738L17.3338 18.7866L19.1522 20.1419C19.4028 19.3772 19.3773 18.4765 18.9143 17.5036C18.8289 17.325 18.7353 17.1279 18.6363 16.9196ZM12.4439 5.10248L13.0557 3.49233C12.0998 3.35213 11.2374 3.45834 10.5109 3.64527L12.4439 5.10248ZM7.22687 7.08649L6.26672 6.33452C5.60822 7.13747 5.06017 8.16983 4.84775 9.4741L6.00757 10.3408L7.22687 7.08649ZM9.89487 14.3598L9.38931 15.6895C9.91187 15.9742 10.4981 16.2758 11.1524 16.6072C11.2117 16.7321 11.2862 16.889 11.3716 17.0689C11.5796 17.5072 11.8524 18.0821 12.1295 18.6634L12.8985 16.5987L9.89487 14.3598ZM12.6648 19.7935C12.7583 19.9889 12.8475 20.1759 12.9282 20.3458C13.455 21.4546 14.2495 22.0707 15.0992 22.3086L16.2632 19.1053L13.6462 17.1552L12.6648 19.7935ZM17.011 19.666L16.0083 22.4233C17.0832 22.402 18.1241 21.8455 18.7401 20.9576L17.011 19.666ZM29 12.1166C29 10.0136 27.2964 8.30578 25.1892 8.30578C23.082 8.30578 21.3741 10.0094 21.3783 12.1166C21.3783 14.2196 23.082 15.9274 25.1892 15.9274C27.2921 15.9274 29 14.2238 29 12.1166ZM25.1892 9.65253C26.5487 9.65253 27.6533 10.7571 27.6533 12.1166C27.6533 13.4761 26.5487 14.5807 25.1892 14.5807C23.8297 14.5807 22.7251 13.4761 22.7251 12.1166C22.7251 10.7571 23.8254 9.65253 25.1892 9.65253Z" fill="#36485C"/>
</svg>
