<svg width="32" height="32" viewBox="0 0 32 32" fill="none" xmlns="http://www.w3.org/2000/svg">
<path d="M27.3009 5.45408C28.0302 5.75691 28.6925 6.20073 29.25 6.76009C30.3762 7.88244 31.0109 9.40595 31.0147 10.996C31.0184 12.586 30.3909 14.1124 29.27 15.2401L21.27 23.2401C20.7098 23.801 20.044 24.2453 19.3111 24.5474C18.5782 24.8495 17.7927 25.0034 17 25.0001C15.41 25.0093 13.8815 24.3871 12.75 23.2701C12.1906 22.7127 11.7468 22.0503 11.4439 21.321C11.1411 20.5917 10.9852 19.8098 10.9852 19.0201C10.9852 18.2304 11.1411 17.4485 11.4439 16.7192C11.7468 15.9899 12.1906 15.3275 12.75 14.7701L13.8152 13.7049C14.0109 13.5091 14.3285 13.5097 14.5235 13.7062L15.2301 14.4178C15.4237 14.6128 15.4237 14.9274 15.2301 15.1224L14.17 16.1901C13.4194 16.942 12.9983 17.9612 12.9992 19.0236C13.0001 20.086 13.4231 21.1045 14.175 21.8551C14.9268 22.6057 15.9461 23.0268 17.0085 23.0259C18.0709 23.0249 19.0894 22.602 19.84 21.8501L27.84 13.8501C28.2123 13.4778 28.5076 13.0358 28.7091 12.5494C28.9106 12.063 29.0143 11.5416 29.0143 11.0151C29.0143 10.4886 28.9106 9.96723 28.7091 9.4808C28.5076 8.99437 28.2123 8.55239 27.84 8.18009C27.4677 7.80779 27.0257 7.51247 26.5393 7.31099C26.0528 7.1095 25.5315 7.0058 25.005 7.0058C24.4785 7.0058 23.9571 7.1095 23.4707 7.31099C23.1386 7.44854 22.8272 7.62982 22.5446 7.84947C22.3266 8.01893 22.0117 8.0218 21.8164 7.82654L21.1029 7.11303C20.9079 6.91801 20.9063 6.6001 21.1166 6.42159C21.59 6.01966 22.1237 5.69299 22.6991 5.45408C23.4284 5.15125 24.2103 4.99536 25 4.99536C25.7896 4.99536 26.5716 5.15125 27.3009 5.45408Z" fill="#36485C"/>
<path d="M3.31807 23.5201C3.52026 24.0066 3.81656 24.4484 4.18997 24.8201C4.56164 25.1935 5.00342 25.4898 5.48994 25.692C5.97645 25.8941 6.49812 25.9982 7.02497 25.9982C7.55182 25.9982 8.07349 25.8941 8.56 25.692C8.89187 25.554 9.20293 25.3723 9.48512 25.1522C9.70321 24.9821 10.0188 24.9789 10.2143 25.1744L10.9249 25.885C11.1208 26.0809 11.1213 26.4004 10.9092 26.5785C9.81843 27.4946 8.43504 28.0014 6.99997 28.0001C5.41087 28.0199 3.87879 27.4085 2.73997 26.3001C2.17911 25.7425 1.73401 25.0795 1.43029 24.3493C1.12657 23.619 0.970215 22.8359 0.970215 22.0451C0.970215 21.2542 1.12657 20.4711 1.43029 19.7409C1.73401 19.0107 2.17911 18.3477 2.73997 17.7901L10.74 9.79007C11.8685 8.66157 13.399 8.02759 14.995 8.02759C16.5909 8.02759 18.1215 8.66157 19.25 9.79007C20.3785 10.9186 21.0124 12.4491 21.0124 14.0451C21.0124 15.641 20.3785 17.1716 19.25 18.3001L17.4835 20.0665C17.2883 20.2618 16.9717 20.2618 16.7764 20.0665L16.061 19.3511C15.8668 19.1569 15.8657 18.8422 16.0586 18.6465L17.83 16.8501C18.2037 16.4759 18.4995 16.0314 18.7004 15.5422C18.9012 15.053 19.003 14.5289 19 14.0001C19.0103 13.4729 18.9147 12.949 18.7189 12.4595C18.5231 11.9699 18.231 11.5247 17.86 11.1501C17.4883 10.7767 17.0465 10.4804 16.56 10.2782C16.0735 10.076 15.5518 9.9719 15.025 9.9719C14.4981 9.9719 13.9765 10.076 13.4899 10.2782C13.0034 10.4804 12.5616 10.7767 12.19 11.1501L4.18997 19.1501C3.81656 19.5217 3.52026 19.9635 3.31807 20.45C3.11589 20.9366 3.01181 21.4582 3.01181 21.9851C3.01181 22.5119 3.11589 23.0336 3.31807 23.5201Z" fill="#36485C"/>
</svg>
