<svg width="32" height="32" viewBox="0 0 32 32" fill="none" xmlns="http://www.w3.org/2000/svg">
<path d="M11 9.5C11 9.77614 11.2239 10 11.5 10H20.5C20.7761 10 21 9.77614 21 9.5V8.5C21 8.22386 20.7761 8 20.5 8H11.5C11.2239 8 11 8.22386 11 8.5V9.5Z" fill="#3A4D5F"/>
<path d="M21 13.5C21 13.7761 20.7761 14 20.5 14H11.5C11.2239 14 11 13.7761 11 13.5V12.5C11 12.2239 11.2239 12 11.5 12H20.5C20.7761 12 21 12.2239 21 12.5V13.5Z" fill="#3A4D5F"/>
<path d="M19.5 18C19.2239 18 19 18.2239 19 18.5V21.5C19 21.7761 19.2239 22 19.5 22H20.5C20.7761 22 21 21.7761 21 21.5V18.5C21 18.2239 20.7761 18 20.5 18H19.5Z" fill="#3A4D5F"/>
<path fill-rule="evenodd" clip-rule="evenodd" d="M6 2.5C6 2.22386 6.22386 2 6.5 2H25.5C25.7761 2 26 2.22016 26 2.4963C26 5.45776 26 20.9563 26 29.5064C26 29.7826 25.7761 30 25.5 30H6.5C6.22386 30 6 29.7761 6 29.5V2.5ZM8 4H24V28H8V4Z" fill="#3A4D5F"/>
</svg>
