<svg width="32" height="32" viewBox="0 0 32 32" fill="none" xmlns="http://www.w3.org/2000/svg">
<path d="M20.9999 29.4996C20.9999 29.7759 20.7759 30 20.4996 29.9998C15.4999 29.9979 10.5002 29.9979 5.50045 29.9998C5.22415 30 5.00013 29.7759 5.00024 29.4996C5.00384 20.4999 5.00384 11.5002 5.00024 2.50046C5.00013 2.22415 5.22415 2.00014 5.50045 2.00024C10.5002 2.00219 15.4999 2.00219 20.4996 2.00024C20.7759 2.00014 20.9999 2.22415 20.9999 2.50046C20.9994 3.8903 20.9996 5.28014 20.9998 6.66998C20.9999 7.28 21 7.89002 21 8.50004C21 8.77619 20.7762 9.00004 20.5 9.00004H19.5C19.2239 9.00004 19 8.77619 19 8.50004V4.00004H7.00004V28H19V23.5C19 23.2239 19.2239 23 19.5 23H20.5C20.7762 23 21 23.2239 21 23.5C21 24.1101 20.9999 24.7201 20.9998 25.3301C20.9996 26.7199 20.9994 28.1098 20.9999 29.4996Z" fill="#36485C"/>
<path d="M21.9396 20.2325C21.7443 20.4278 21.7443 20.7443 21.9396 20.9396L22.6465 21.6465C22.8417 21.8418 23.1583 21.8418 23.3536 21.6465L28.6465 16.3536C28.8417 16.1583 28.8417 15.8418 28.6465 15.6465L23.3536 10.3536C23.1583 10.1583 22.8417 10.1583 22.6465 10.3536L21.9396 11.0605C21.7443 11.2558 21.7443 11.5723 21.9396 11.7676L25.172 15H11.5C11.2239 15 11 15.2239 11 15.5V16.5C11 16.7762 11.2239 17 11.5 17H25.172L21.9396 20.2325Z" fill="#36485C"/>
</svg>
