<svg width="32" height="32" viewBox="0 0 32 32" fill="none" xmlns="http://www.w3.org/2000/svg">
<path d="M13.176 9.99997L9.76683 13.4091C9.6692 13.5067 9.6692 13.665 9.76683 13.7626L10.8274 14.8232C10.925 14.9208 11.0833 14.9208 11.1809 14.8232L16.8274 9.17674C16.925 9.07911 16.925 8.92082 16.8274 8.82319L11.1809 3.17674C11.0833 3.07911 10.925 3.07911 10.8274 3.17674L9.76683 4.23728C9.6692 4.33492 9.6692 4.49321 9.76683 4.59084L13.176 7.99996L9 7.99997C4.58172 7.99997 1 11.5817 1 16C1 20.4182 4.58172 24 9 24H11.5C11.7761 24 12 23.7761 12 23.5V22.5C12 22.2238 11.7761 22 11.5 22H9C5.68629 22 3 19.3137 3 16C3 12.6863 5.68629 9.99997 9 9.99997H13.176Z" fill="#36485C"/>
<path d="M22.0605 27.9394C22.2557 27.7442 22.2557 27.4276 22.0605 27.2323L18.828 24L23 24C27.4183 24 31 20.4182 31 16C31 11.5817 27.4183 7.99997 23 7.99997H20.5C20.2239 7.99997 20 8.22383 20 8.49997V9.49997C20 9.77611 20.2239 9.99997 20.5 9.99997H23C26.3137 9.99997 29 12.6863 29 16C29 19.3137 26.3137 22 23 22L18.828 22L22.0605 18.7676C22.2557 18.5724 22.2557 18.2558 22.0605 18.0605L21.3535 17.3535C21.1582 17.1583 20.8416 17.1583 20.6464 17.3535L15.3535 22.6464C15.1582 22.8417 15.1582 23.1583 15.3535 23.3535L20.6464 28.6464C20.8416 28.8417 21.1582 28.8417 21.3535 28.6464L22.0605 27.9394Z" fill="#36485C"/>
</svg>
