<svg width="32" height="32" viewBox="0 0 32 32" fill="none" xmlns="http://www.w3.org/2000/svg">
<path fill-rule="evenodd" clip-rule="evenodd" d="M30 8C30 11.3137 27.3137 14 24 14C20.6863 14 18 11.3137 18 8C18 4.68629 20.6863 2 24 2C27.3137 2 30 4.68629 30 8ZM23.6256 4.53C23.6589 4.51 23.7089 4.5 23.7756 4.5H24.9856C25.0189 4.5 25.0456 4.51333 25.0656 4.54C25.0923 4.56 25.1056 4.58667 25.1056 4.62V11.38C25.1056 11.4133 25.0923 11.4433 25.0656 11.47C25.0456 11.49 25.0189 11.5 24.9856 11.5H23.8156C23.7823 11.5 23.7523 11.49 23.7256 11.47C23.7056 11.4433 23.6956 11.4133 23.6956 11.38V5.95C23.6956 5.93667 23.6889 5.92667 23.6756 5.92C23.6623 5.90667 23.6489 5.90333 23.6356 5.91L22.6556 6.28C22.6423 6.28 22.6256 6.28333 22.6056 6.29C22.5789 6.29 22.5556 6.28 22.5356 6.26C22.5223 6.24 22.5156 6.21333 22.5156 6.18L22.4856 5.16C22.4856 5.09333 22.5156 5.04667 22.5756 5.02L23.6256 4.53Z" fill="#36485C"/>
<path d="M13.176 10L9.76683 13.4091C9.6692 13.5067 9.6692 13.665 9.76683 13.7627L10.8274 14.8232C10.925 14.9208 11.0833 14.9208 11.1809 14.8232L16.8274 9.17677C16.925 9.07914 16.925 8.92085 16.8274 8.82322L11.1809 3.17677C11.0833 3.07914 10.925 3.07914 10.8274 3.17677L9.76683 4.23731C9.6692 4.33495 9.6692 4.49324 9.76683 4.59087L13.176 7.99999L9 8C4.58172 8 1 11.5817 1 16C1 20.4183 4.58172 24 9 24H11.5C11.7761 24 12 23.7761 12 23.5V22.5C12 22.2239 11.7761 22 11.5 22H9C5.68629 22 3 19.3137 3 16C3 12.6863 5.68629 10 9 10H13.176Z" fill="#36485C"/>
<path d="M29.3726 12.4874C29.6079 12.206 30.0608 12.2178 30.2193 12.5486C30.7197 13.5936 31 14.7641 31 16C31 20.4183 27.4183 24 23 24L18.828 24L22.0605 27.2323C22.2557 27.4276 22.2557 27.7442 22.0605 27.9395L21.3535 28.6464C21.1582 28.8417 20.8416 28.8417 20.6464 28.6464L15.3535 23.3535C15.1582 23.1583 15.1582 22.8417 15.3535 22.6464L20.6464 17.3535C20.8416 17.1583 21.1582 17.1583 21.3535 17.3535L22.0605 18.0605C22.2557 18.2558 22.2557 18.5724 22.0605 18.7676L18.828 22L23 22C26.3137 22 29 19.3137 29 16C29 15.2182 28.8505 14.4713 28.5784 13.7863C28.4934 13.5723 28.5486 13.3259 28.7186 13.1706C28.9516 12.9579 29.1702 12.7296 29.3726 12.4874Z" fill="#36485C"/>
</svg>
