<svg width="32" height="32" viewBox="0 0 32 32" fill="none" xmlns="http://www.w3.org/2000/svg">
<path d="M9 7.99996C4.58172 7.99996 1 11.5817 1 16C1 19.9461 3.85713 23.2249 7.61557 23.8806C7.81479 23.9154 8.01186 23.817 8.11297 23.6418L8.8444 22.375C8.94062 22.2083 8.81986 21.9982 8.6279 21.9844C5.5292 21.7618 3 19.1715 3 16C3 12.6863 5.68629 9.99996 9 9.99996H13.1761L9.76687 13.4091C9.66924 13.5067 9.66924 13.665 9.76687 13.7626L10.8274 14.8232C10.925 14.9208 11.0833 14.9208 11.181 14.8232L16.8274 9.17674C16.925 9.07911 16.925 8.92082 16.8274 8.82319L11.181 3.17674C11.0833 3.07911 10.925 3.07911 10.8274 3.17674L9.76687 4.23728C9.66924 4.33492 9.66924 4.49321 9.76687 4.59084L13.1761 7.99996H9Z" fill="#36485C"/>
<path d="M18.8281 24L22.0605 27.2323C22.2558 27.4276 22.2558 27.7442 22.0605 27.9394L21.3535 28.6464C21.1583 28.8417 20.8417 28.8417 20.6464 28.6464L15.3535 23.3535C15.1583 23.1583 15.1583 22.8417 15.3535 22.6464L20.6464 17.3535C20.8417 17.1583 21.1583 17.1583 21.3535 17.3535L22.0605 18.0605C22.2558 18.2558 22.2558 18.5724 22.0605 18.7676L18.8281 22H23C26.3137 22 29 19.3137 29 16C29 12.8117 26.4575 10.2361 23.3503 10.0153C23.1583 10.0017 23.0376 9.79163 23.1338 9.62496L23.8672 8.35466C23.9681 8.17993 24.1645 8.08153 24.3634 8.11567C28.1322 8.76278 31 12.0465 31 16C31 20.4182 27.4183 24 23 24H18.8281Z" fill="#36485C"/>
<path d="M22.0901 3.43298C22.2282 3.19383 22.534 3.11189 22.7731 3.24996L23.6391 3.74996C23.8783 3.88803 23.9602 4.19383 23.8221 4.43297L9.88714 28.5691C9.74907 28.8083 9.44327 28.8902 9.20413 28.7521L8.3381 28.2521C8.09895 28.114 8.01702 27.8083 8.15509 27.5691L22.0901 3.43298Z" fill="#36485C"/>
</svg>
