<svg width="24" height="24" viewBox="0 0 24 24" fill="none" xmlns="http://www.w3.org/2000/svg">
<path fill-rule="evenodd" clip-rule="evenodd" d="M12 6.5C12.6495 6.5 13.2778 6.71104 13.7478 7.16046C14.2231 7.61496 14.5042 8.28279 14.5042 9.125C14.5042 9.92957 14.3163 10.7567 13.9118 11.395C13.4999 12.045 12.8589 12.5 12 12.5C11.1411 12.5 10.5001 12.045 10.0882 11.395C9.68373 10.7567 9.49576 9.92957 9.49576 9.125C9.49576 8.28279 9.77694 7.61496 10.2522 7.16046C10.7222 6.71104 11.3505 6.5 12 6.5ZM12 7.5C12.4359 7.5 12.8012 7.64006 13.0549 7.88261C13.304 8.12082 13.5025 8.51271 13.5025 9.125C13.5025 9.79272 13.3436 10.4212 13.0653 10.8604C12.798 11.2822 12.4484 11.5 12 11.5C11.5516 11.5 11.202 11.2822 10.9347 10.8604C10.6564 10.4212 10.4975 9.79272 10.4975 9.125C10.4975 8.51271 10.696 8.12082 10.9451 7.88261C11.1988 7.64006 11.5641 7.5 12 7.5Z" fill="#36485C"/>
<path fill-rule="evenodd" clip-rule="evenodd" d="M17.9815 8.99535C17.6525 8.65828 17.2127 8.5 16.7581 8.5C16.3034 8.5 15.8636 8.65828 15.5346 8.99535C15.2019 9.33622 15.0051 9.83709 15.0051 10.4688C15.0051 11.0722 15.1367 11.6925 15.4198 12.1712C15.7081 12.6588 16.1568 13 16.7581 13C17.3593 13 17.808 12.6588 18.0963 12.1712C18.3795 11.6925 18.511 11.0722 18.511 10.4688C18.511 9.83709 18.3142 9.33622 17.9815 8.99535ZM16.7581 9.5C16.9786 9.5 17.1474 9.57366 17.2641 9.69321C17.3815 9.81357 17.5093 10.0465 17.5093 10.4688C17.5093 10.9465 17.4021 11.3782 17.2338 11.6628C17.0748 11.9317 16.9152 12 16.7581 12C16.601 12 16.4414 11.9317 16.2824 11.6628C16.114 11.3782 16.0068 10.9465 16.0068 10.4688C16.0068 10.0465 16.1346 9.81357 16.2521 9.69321C16.3688 9.57366 16.5375 9.5 16.7581 9.5Z" fill="#36485C"/>
<path fill-rule="evenodd" clip-rule="evenodd" d="M7.24194 8.5C6.78726 8.5 6.34747 8.65828 6.01849 8.99535C5.68579 9.33622 5.48897 9.83709 5.48897 10.4688C5.48897 11.0722 5.62055 11.6925 5.90366 12.1712C6.19199 12.6588 6.64068 13 7.24194 13C7.84319 13 8.29189 12.6588 8.58022 12.1712C8.86333 11.6925 8.99491 11.0722 8.99491 10.4688C8.99491 9.83709 8.79808 9.33622 8.46539 8.99535C8.1364 8.65828 7.69662 8.5 7.24194 8.5ZM6.73593 9.69321C6.85262 9.57366 7.0214 9.5 7.24194 9.5C7.46248 9.5 7.63125 9.57366 7.74794 9.69321C7.86541 9.81357 7.99321 10.0465 7.99321 10.4688C7.99321 10.9465 7.88596 11.3782 7.71764 11.6628C7.55863 11.9317 7.39904 12 7.24194 12C7.08484 12 6.92525 11.9317 6.76623 11.6628C6.59791 11.3782 6.49066 10.9465 6.49066 10.4688C6.49066 10.0465 6.61847 9.81357 6.73593 9.69321Z" fill="#36485C"/>
<path d="M12 14C11.041 14 10.131 14.1978 9.48231 14.6076C8.93207 14.9552 8.57625 15.4466 8.49406 16.1408V16.25C8.49406 16.3881 8.38194 16.5 8.24364 16.5H7.74279C7.60448 16.5 7.49236 16.3881 7.49236 16.25V16.0869C7.59808 15.0297 8.1533 14.2638 8.94664 13.7626C9.81029 13.2169 10.9286 13 12 13C13.0714 13 14.1897 13.2169 15.0534 13.7626C15.8467 14.2638 16.4019 15.0297 16.5076 16.0869V16.25C16.5076 16.3881 16.3955 16.5 16.2572 16.5H15.7564C15.6181 16.5 15.5059 16.3881 15.5059 16.25V16.1408C15.4237 15.4466 15.0679 14.9552 14.5177 14.6076C13.869 14.1978 12.959 14 12 14Z" fill="#36485C"/>
<path d="M7.58247 14.3826C7.53061 14.4586 7.44373 14.5038 7.35173 14.501C6.74882 14.4824 6.10307 14.5777 5.60086 14.9194C5.31815 15.1118 5.09291 15.4146 5.01632 15.7521C4.98576 15.8868 4.87619 16 4.73812 16H4.23642C4.09835 16 3.98494 15.8876 4.00164 15.7506C4.08291 15.0833 4.48297 14.4699 5.03673 14.0931C5.66048 13.6687 6.46817 13.5 7.24194 13.5C7.42287 13.5 7.60566 13.5092 7.78752 13.5288C7.99538 13.5511 8.06149 13.8113 7.91855 13.9638C7.79642 14.0942 7.68396 14.2338 7.58247 14.3826Z" fill="#36485C"/>
<path d="M16.4175 14.3826C16.4694 14.4586 16.5563 14.5038 16.6483 14.501C17.2512 14.4824 17.8969 14.5777 18.3991 14.9194C18.6819 15.1118 18.9071 15.4146 18.9837 15.7521C19.0142 15.8868 19.1238 16 19.2619 16H19.7636C19.9017 16 20.0151 15.8876 19.9984 15.7506C19.9171 15.0833 19.517 14.4699 18.9633 14.0931C18.3395 13.6687 17.5318 13.5 16.7581 13.5C16.5771 13.5 16.3943 13.5092 16.2125 13.5288C16.0046 13.5511 15.9385 13.8113 16.0815 13.9638C16.2036 14.0942 16.316 14.2338 16.4175 14.3826Z" fill="#36485C"/>
</svg>
