<svg width="32" height="32" viewBox="0 0 32 32" fill="none" xmlns="http://www.w3.org/2000/svg">
<path d="M4.5 6C4.22386 6 4 6.22386 4 6.5V7.5C4 7.77614 4.22386 8 4.5 8H27.5C27.7761 8 28 7.77614 28 7.5V6.5C28 6.22386 27.7761 6 27.5 6H4.5Z" fill="#36485C"/>
<path d="M4.5 24C4.22386 24 4 24.2239 4 24.5V25.5C4 25.7761 4.22386 26 4.5 26H27.5C27.7761 26 28 25.7761 28 25.5V24.5C28 24.2239 27.7761 24 27.5 24H4.5Z" fill="#36485C"/>
<path d="M4 12.5C4 12.2239 4.22386 12 4.5 12H27.5C27.7761 12 28 12.2239 28 12.5V13.5C28 13.7761 27.7761 14 27.5 14H4.5C4.22386 14 4 13.7761 4 13.5V12.5Z" fill="#36485C"/>
<path d="M4.5 18C4.22386 18 4 18.2239 4 18.5V19.5C4 19.7761 4.22386 20 4.5 20H27.5C27.7761 20 28 19.7761 28 19.5V18.5C28 18.2239 27.7761 18 27.5 18H4.5Z" fill="#36485C"/>
</svg>
