<svg width="32" height="32" viewBox="0 0 32 32" fill="none" xmlns="http://www.w3.org/2000/svg">
<path fill-rule="evenodd" clip-rule="evenodd" d="M23.6963 24.8854C24.0253 25.137 24.5 24.9024 24.5 24.4882V19H26C28.2091 19 30 17.2091 30 15V7C30 4.79086 28.2091 3 26 3H10C7.79086 3 6 4.79086 6 7V15C3.79086 15 2 16.7909 2 19V22.561C2 24.4917 3.36794 26.103 5.1875 26.4784V28.9306C5.1875 30.2033 6.67268 30.8977 7.6493 30.0817L11.8628 26.561H16C18.2091 26.561 20 24.7701 20 22.561V22.0588L23.6963 24.8854ZM26 17H22.5V21.4528L16.6771 17H10C8.89543 17 8 16.1046 8 15V7C8 5.89543 8.89543 5 10 5H26C27.1046 5 28 5.89543 28 7V15C28 16.1046 27.1046 17 26 17ZM18 20.5294L16 19H10C8.51944 19 7.22675 18.1956 6.53513 17H6C4.89543 17 4 17.8954 4 19V22.561C4 23.6655 4.89543 24.561 6 24.561H7.1875V27.8613L11.1372 24.561H16C17.1046 24.561 18 23.6655 18 22.561V20.5294Z" fill="#36485C"/>
</svg>
