<svg width="32" height="32" viewBox="0 0 32 32" fill="none" xmlns="http://www.w3.org/2000/svg">
<path d="M4 21H16V19H4V21ZM18 22.5L17.9902 22.6006C17.9503 22.7961 17.7961 22.9503 17.6006 22.9902L17.5 23H2.5L2.39941 22.9902C2.20392 22.9503 2.04966 22.7961 2.00977 22.6006L2 22.5V17.5C2 17.2583 2.17145 17.0563 2.39941 17.0098L2.5 17H17.5C17.7761 17 18 17.2239 18 17.5V22.5Z" fill="#36485C"/>
<path d="M16 13H28V11H16V13ZM30 14.5L29.9902 14.6006C29.9503 14.7961 29.7961 14.9503 29.6006 14.9902L29.5 15H14.5L14.3994 14.9902C14.2039 14.9503 14.0497 14.7961 14.0098 14.6006L14 14.5V9.5C14 9.25829 14.1714 9.05629 14.3994 9.00977L14.5 9H29.5C29.7761 9 30 9.22386 30 9.5V14.5Z" fill="#36485C"/>
<path d="M22 21H26V19H22V21ZM28 22.5L27.9902 22.6006C27.9503 22.7961 27.7961 22.9503 27.6006 22.9902L27.5 23H20.5L20.3994 22.9902C20.2039 22.9503 20.0497 22.7961 20.0098 22.6006L20 22.5V17.5C20 17.2583 20.1714 17.0563 20.3994 17.0098L20.5 17H27.5L27.6006 17.0098C27.8286 17.0563 28 17.2583 28 17.5V22.5Z" fill="#36485C"/>
<path d="M8 13H10V11H8V13ZM12 14.5L11.9902 14.6006C11.9503 14.7961 11.7961 14.9503 11.6006 14.9902L11.5 15H6.5L6.39941 14.9902C6.20392 14.9503 6.04966 14.7961 6.00977 14.6006L6 14.5V9.5C6 9.25829 6.17145 9.05629 6.39941 9.00977L6.5 9H11.5L11.6006 9.00977C11.8286 9.05629 12 9.25829 12 9.5V14.5Z" fill="#36485C"/>
</svg>
