<svg width="32" height="32" viewBox="0 0 32 32" fill="none" xmlns="http://www.w3.org/2000/svg">
<path fill-rule="evenodd" clip-rule="evenodd" d="M27.6006 6.00977C27.8286 6.05629 28 6.25829 28 6.5V25.5L27.9902 25.6006C27.9503 25.7961 27.7961 25.9503 27.6006 25.9902L27.5 26H4.5L4.39941 25.9902C4.20392 25.9503 4.04966 25.7961 4.00977 25.6006L4 25.5V6.5C4 6.25829 4.17145 6.05629 4.39941 6.00977L4.5 6H27.5L27.6006 6.00977ZM6 20V24H15V20H6ZM17 20V24H26V20H17ZM6 18H15V14H6V18ZM17 18H26V14H17V18ZM6 12H15V8H6V12ZM17 12H26V8H17V12Z" fill="#36485C"/>
</svg>
