<svg width="32" height="32" viewBox="0 0 32 32" fill="none" xmlns="http://www.w3.org/2000/svg">
<path d="M7 25H25V23H7V25ZM7 17H25V15H7V17ZM7 9H25V7H7V9ZM27 26.5C27 26.7761 26.7761 27 26.5 27H5.5L5.39941 26.9902C5.17145 26.9437 5 26.7417 5 26.5V21.5C5 21.2239 5.22386 21 5.5 21H26.5C26.7761 21 27 21.2239 27 21.5V26.5ZM27 18.5C27 18.7761 26.7761 19 26.5 19H5.5L5.39941 18.9902C5.17145 18.9437 5 18.7417 5 18.5V13.5C5 13.2239 5.22386 13 5.5 13H26.5C26.7761 13 27 13.2239 27 13.5V18.5ZM27 10.5C27 10.7761 26.7761 11 26.5 11H5.5L5.39941 10.9902C5.17145 10.9437 5 10.7417 5 10.5V5.5C5 5.22386 5.22386 5 5.5 5H26.5C26.7761 5 27 5.22386 27 5.5V10.5Z" fill="#36485C"/>
</svg>
