<svg width="32" height="32" viewBox="0 0 32 32" fill="none" xmlns="http://www.w3.org/2000/svg">
<path d="M11.9004 9.7002C11.9004 7.71301 12.4589 5.8579 13.4248 4.28027C8.0353 5.45909 4 10.2568 4 16C4 22.6274 9.37258 28 16 28V30C8.26801 30 2 23.732 2 16C2 8.26801 8.26801 2 16 2C16.8461 2 17.6747 2.07492 18.4795 2.21875C15.7613 3.60966 13.9004 6.43709 13.9004 9.7002C13.9005 14.3392 17.6608 18.0995 22.2998 18.0996C25.5631 18.0996 28.3894 16.2379 29.7803 13.5195C29.9242 14.3246 30 15.1535 30 16C30 23.732 23.732 30 16 30V28C21.7435 28 26.5413 23.9642 27.7197 18.5742C26.1423 19.5405 24.2874 20.0996 22.2998 20.0996C16.5562 20.0995 11.9005 15.4438 11.9004 9.7002Z" fill="#36485C"/>
</svg>
