<svg width="32" height="32" viewBox="0 0 32 32" fill="none" xmlns="http://www.w3.org/2000/svg">
<g opacity="0.5">
<path d="M8.93691 8.01562C9.08557 7.9072 9.28271 7.8892 9.44863 7.96875L14.4818 10.3828C14.7307 10.5023 14.8357 10.8009 14.7162 11.0498L14.2836 11.9512C14.164 12.1998 13.8654 12.3048 13.6166 12.1855L11.3344 11.0908L12.3393 13.2998C12.4261 13.4908 12.4507 13.7044 12.4096 13.9102L11.6557 17.6768L14.183 20.2676C14.3755 20.465 14.3722 20.7817 14.1752 20.9746L13.4594 21.6748C13.2618 21.8683 12.9445 21.8649 12.7514 21.667L9.85585 18.6992C9.62555 18.4632 9.52579 18.1291 9.59023 17.8057L10.0883 15.3164L7.15273 16.9482L6.23769 20.9727C6.17551 21.2451 5.90169 21.4136 5.63027 21.3467L4.66152 21.1084C4.39643 21.043 4.23322 20.7768 4.29433 20.5107L5.31874 16.0566C5.38228 15.7806 5.56043 15.5448 5.808 15.4072L8.83632 13.7246L7.72109 11.3828L5.49355 13.0117C5.27055 13.1749 4.95729 13.1265 4.79433 12.9033L4.20449 12.0957C4.04196 11.8728 4.09119 11.5603 4.31386 11.3975L8.93691 8.01562Z" fill="#36485C"/>
<path d="M6.87538 5.0625C7.84172 5.06269 8.62538 5.84612 8.62538 6.8125C8.62538 7.77888 7.84172 8.56231 6.87538 8.5625C5.90889 8.5625 5.12538 7.779 5.12538 6.8125C5.12538 5.846 5.90889 5.0625 6.87538 5.0625Z" fill="#36485C"/>
</g>
<path d="M21.0373 11.0273C21.1842 10.9101 21.3847 10.8852 21.5559 10.9629L26.8811 13.3828C27.1323 13.4972 27.2433 13.7936 27.1291 14.0449L26.7151 14.9551C26.6008 15.2063 26.3042 15.3172 26.0529 15.2031L23.4358 14.0137L24.8986 17.2334C24.942 17.3288 24.9544 17.4353 24.9338 17.5381L24.007 22.1709L26.7756 24.9395C26.9707 25.1347 26.9707 25.4513 26.7756 25.6465L26.0686 26.3535C25.8734 26.5486 25.5568 26.5486 25.3615 26.3535L22.2151 23.208C21.9787 22.9717 21.8762 22.6325 21.9416 22.3047L22.592 19.0488L18.8205 21.1436L17.9953 25.6865C17.946 25.9581 17.6849 26.1381 17.4133 26.0889L16.4309 25.9111C16.1592 25.8618 15.9792 25.6008 16.0285 25.3291L16.9387 20.3213C16.9922 20.0266 17.175 19.7715 17.4367 19.626L21.1154 17.5811L19.716 14.6445L17.4377 16.4688C17.2221 16.6413 16.9071 16.6062 16.7346 16.3906L16.1096 15.6094C15.9371 15.3937 15.972 15.0787 16.1877 14.9062L21.0373 11.0273Z" fill="#36485C"/>
<path d="M18.4221 8C19.5265 8.00015 20.4221 8.89552 20.4221 10C20.4221 11.1045 19.5265 11.9998 18.4221 12C17.3176 11.9999 16.4221 11.1045 16.4221 10C16.4221 8.8955 17.3176 8.00011 18.4221 8Z" fill="#36485C"/>
</svg>
