<svg width="32" height="32" viewBox="0 0 32 32" fill="none" xmlns="http://www.w3.org/2000/svg">
<path fill-rule="evenodd" clip-rule="evenodd" d="M27.2564 9.50109C23.6672 3.2843 15.7179 1.1543 9.50109 4.74356C3.2843 8.33283 1.1543 16.2821 4.74356 22.4989C8.33283 28.7157 16.2821 30.8457 22.4989 27.2564C28.7157 23.6672 30.8457 15.7179 27.2564 9.50109ZM25.8512 10.3124L25.8746 10.3529C25.8738 10.4024 25.8714 10.4577 25.8705 10.5072C24.7745 9.52637 20.1287 5.99917 13.2049 4.97417C18.0129 3.7531 23.2453 5.79878 25.8512 10.3124ZM11.1965 5.69227C13.8379 5.97713 21.4385 7.52861 25.762 11.8059C25.6003 13.0126 25.2338 14.3572 24.5332 15.6838C23.2913 14.5861 17.5266 9.91954 6.59179 9.60154C7.5256 8.22859 8.77475 7.03654 10.3124 6.14878C10.603 5.981 10.9005 5.83373 11.1965 5.69227ZM6.02902 10.5297C8.69622 10.579 17.9424 11.3618 24.1055 16.4212C23.2935 17.6993 22.1299 18.9205 20.4953 19.9378C14.4327 15.7915 7.03707 15.1811 4.65378 15.2328C4.76448 13.5896 5.23307 11.98 6.02902 10.5297ZM13.0184 26.9767C11.5229 26.5698 10.1062 25.8575 8.87627 24.8656C8.87881 24.8445 8.88503 24.8213 8.88544 24.7965C8.51919 22.0553 9.59751 18.588 10.2553 16.9918C11.7108 17.3041 13.0477 17.6996 14.2392 18.1153C13.5506 20.4992 12.8755 25.0728 13.0184 26.9767ZM4.6298 16.3552C6.17778 16.3688 7.66949 16.5229 9.06938 16.7643C8.14795 18.7873 7.66768 21.9142 7.65042 23.7193C7.08872 23.1117 6.58359 22.4322 6.15246 21.6855C5.17607 20.0028 4.68741 18.171 4.6298 16.3552ZM14.1232 27.2168C13.9345 25.1824 14.9379 20.2771 15.3368 18.5214C17.4627 19.3491 18.9606 20.1764 19.5501 20.5178C19.5982 21.5102 19.4911 25.0201 19.0161 26.9669C17.397 27.4161 15.7266 27.4879 14.1232 27.2168ZM20.5487 24.2138C20.6618 23.051 20.7499 21.7952 20.6815 21.0418C21.5839 20.6679 26.3182 18.2828 26.5979 11.8775C27.3885 13.8978 27.5612 16.0483 27.1803 18.0876C26.5791 19.3534 25.4596 21.2009 23.6557 22.4048C21.9375 23.5515 21.0184 24.0214 20.5487 24.2138ZM20.4364 25.2856C20.3803 25.7907 20.3284 26.2289 20.2955 26.5323C20.7672 26.3385 21.2315 26.1146 21.6876 25.8512C23.5007 24.8044 24.9161 23.3339 25.8814 21.6373C25.3425 22.2146 24.6854 22.8036 23.909 23.3061C22.3416 24.3206 21.0266 24.9969 20.4364 25.2856Z" fill="#36485C"/>
</svg>
