<svg width="32" height="32" viewBox="0 0 32 32" fill="none" xmlns="http://www.w3.org/2000/svg">
<path d="M26.2754 17L22.8661 20.4091C22.7685 20.5067 22.7685 20.665 22.8661 20.7626L23.9267 21.8232C24.0243 21.9208 24.1826 21.9208 24.2802 21.8232L29.9267 16.1767C30.0243 16.0791 30.0243 15.9208 29.9267 15.8232L24.2802 10.1767C24.1826 10.0791 24.0243 10.0791 23.9267 10.1767L22.8661 11.2373C22.7685 11.3349 22.7685 11.4932 22.8661 11.5908L26.2754 15L2.5 15C2.22386 15 2 15.2238 2 15.5V16.5C2 16.7761 2.22386 17 2.5 17H26.2754Z" fill="#36485C"/>
</svg>
