<svg width="32" height="32" viewBox="0 0 32 32" fill="none" xmlns="http://www.w3.org/2000/svg">
<path fill-rule="evenodd" clip-rule="evenodd" d="M15 2.5C15 2.22386 15.2239 2 15.5 2H16.5C16.7761 2 17 2.22386 17 2.5V4.04938C22.0533 4.5511 26 8.81465 26 14V17C26 17.575 26.1409 17.9398 26.3008 18.1797C26.4649 18.4258 26.6908 18.6024 26.9472 18.7306C27.2075 18.8607 27.4799 18.9308 27.6956 18.9667C27.8012 18.9843 27.8869 18.9927 27.9423 18.9967C27.9699 18.9986 27.9894 18.9995 27.9996 18.9998L28.0061 19H28.5C28.7761 19 29 19.2239 29 19.5V24.5C29 24.7761 28.7761 25 28.5 25H21C20.9992 25.6986 20.8522 26.3892 20.5685 27.0276C20.2847 27.6659 19.8705 28.2378 19.3525 28.7064C18.8344 29.175 18.224 29.5301 17.5605 29.7486C16.8971 29.9672 16.1952 30.0445 15.5 29.9755C14.2414 29.8151 13.0863 29.196 12.2559 28.2367C11.4255 27.2774 10.9783 26.2686 11 25H3.5C3.22386 25 3 24.7761 3 24.5V19.5C3 19.2239 3.22386 19 3.5 19H3.99388L4.00038 18.9998C4.01056 18.9995 4.03011 18.9986 4.05766 18.9967C4.11311 18.9927 4.19884 18.9843 4.30435 18.9667C4.52011 18.9308 4.7925 18.8607 5.05279 18.7306C5.30916 18.6024 5.53511 18.4258 5.6992 18.1797C5.85912 17.9398 6 17.575 6 17V14C6 8.81465 9.94668 4.5511 15 4.04938V2.5ZM13 25C13 25.7956 13.3161 26.5587 13.8787 27.1213C14.4413 27.6839 15.2044 28 16 28C16.7957 28 17.5587 27.6839 18.1213 27.1213C18.684 26.5587 19 25.7956 19 25H13ZM16 6C11.5817 6 8 9.58172 8 14V16.9993C8 17.9243 7.76588 18.6852 7.3633 19.2891C6.96489 19.8867 6.44084 20.2726 5.94721 20.5194C5.6133 20.6864 5.28501 20.7941 5 20.8641V23H27V20.8641C26.715 20.7941 26.3867 20.6864 26.0528 20.5194C25.5592 20.2726 25.0351 19.8867 24.6367 19.2891C24.2341 18.6852 24 17.925 24 17V14.0004C24 9.58209 20.4183 6 16 6Z" fill="#36485C"/>
</svg>
