<svg width="32" height="32" viewBox="0 0 32 32" fill="none" xmlns="http://www.w3.org/2000/svg">
<path d="M15.5 2C15.2239 2 15 2.22386 15 2.5V4.04938C9.94668 4.5511 6 8.81465 6 14V17C6 17.575 5.85912 17.9398 5.6992 18.1797C5.53511 18.4258 5.30916 18.6024 5.05279 18.7306C4.7925 18.8607 4.52011 18.9308 4.30435 18.9667C4.19884 18.9843 4.11311 18.9927 4.05766 18.9967C4.03011 18.9986 4.01056 18.9995 4.00038 18.9998L3.99388 19H3.5C3.22386 19 3 19.2239 3 19.5V24.5C3 24.7761 3.22386 25 3.5 25H28.5C28.7761 25 29 24.7761 29 24.5V19.5C29 19.2239 28.7761 19 28.5 19H28.0061L27.9996 18.9998C27.9894 18.9995 27.9699 18.9986 27.9423 18.9967C27.8869 18.9927 27.8012 18.9843 27.6956 18.9667C27.4799 18.9308 27.2075 18.8607 26.9472 18.7306C26.6908 18.6024 26.4649 18.4258 26.3008 18.1797C26.1409 17.9398 26 17.575 26 17V14C26 8.81465 22.0533 4.5511 17 4.04938V2.5C17 2.22386 16.7761 2 16.5 2H15.5Z" fill="#36485C"/>
<path d="M20.2222 27.6742C20.4152 27.3697 20.1768 27 19.8163 27H12.2196C11.8515 27 11.6164 27.3822 11.8259 27.6849C11.9551 27.8715 12.0986 28.055 12.2559 28.2367C13.0863 29.196 14.2414 29.8151 15.5 29.9755C16.1952 30.0445 16.8971 29.9672 17.5605 29.7486C18.224 29.5301 18.8344 29.175 19.3525 28.7064C19.6884 28.4025 19.9808 28.055 20.2222 27.6742Z" fill="#36485C"/>
</svg>
