<svg width="32" height="32" viewBox="0 0 32 32" fill="none" xmlns="http://www.w3.org/2000/svg">
<path d="M15.4999 2H16.4999C16.7761 2 16.9999 2.22386 16.9999 2.5V4.04938C19.0508 4.253 20.9194 5.07625 22.4159 6.32928L21.0201 7.771C19.6474 6.66326 17.9011 6 15.9999 6C11.5816 6 7.99992 9.58172 7.99992 14V16.9993C7.99992 17.9243 7.76581 18.6852 7.36322 19.2891C6.96482 19.8867 6.44077 20.2726 5.94714 20.5194C5.61322 20.6864 5.28493 20.7941 4.99992 20.8641C4.73557 20.9 4.13578 20.9644 3.49982 20.9896C3.22389 21.0005 2.99992 20.7761 2.99992 20.5V19.5C2.99992 19.2239 3.22378 19 3.49992 19H3.9938L4.0003 18.9998C4.01048 18.9995 4.03003 18.9986 4.05758 18.9967C4.11303 18.9927 4.19877 18.9843 4.30428 18.9667C4.52003 18.9308 4.79243 18.8607 5.05271 18.7306C5.30908 18.6024 5.53503 18.4258 5.69912 18.1797C5.85904 17.9398 5.99992 17.575 5.99992 17V14C5.99992 8.81465 9.9466 4.5511 14.9999 4.04938V2.5C14.9999 2.22386 15.2238 2 15.4999 2Z" fill="#36485C"/>
<path fill-rule="evenodd" clip-rule="evenodd" d="M25.9999 14V17C25.9999 17.575 26.1408 17.9398 26.3007 18.1797C26.4648 18.4258 26.6908 18.6024 26.9471 18.7306C27.2074 18.8607 27.4798 18.9308 27.6956 18.9667C27.8011 18.9843 27.8868 18.9927 27.9423 18.9967C27.9698 18.9986 27.9894 18.9995 27.9995 18.9998L28.006 19H28.4999C28.7761 19 28.9999 19.2239 28.9999 19.5V24.5C28.9999 24.7761 28.7761 25 28.4999 25H20.9999C20.9991 25.6986 20.8521 26.3892 20.5684 27.0276C20.2846 27.6659 19.8704 28.2378 19.3524 28.7064C18.8343 29.175 18.2239 29.5301 17.5605 29.7486C16.897 29.9672 16.1951 30.0445 15.4999 29.9755C14.2414 29.8151 13.0862 29.196 12.2558 28.2367C11.4255 27.2774 10.9783 26.2686 10.9999 25H9.41402L3.76758 30.6464C3.57232 30.8417 3.25573 30.8417 3.06047 30.6464L2.35348 29.9395C2.15822 29.7442 2.15822 29.4276 2.35348 29.2323L28.2323 3.35355C28.4275 3.15829 28.7441 3.15829 28.9394 3.35355L29.6464 4.06055C29.8416 4.25581 29.8416 4.57239 29.6464 4.76765L24.9264 9.48764C25.613 10.8433 25.9999 12.3765 25.9999 14ZM23.4171 10.997C23.7929 11.9243 23.9999 12.9382 23.9999 14.0004V17C23.9999 17.925 24.234 18.6852 24.6366 19.2891C25.035 19.8867 25.5591 20.2726 26.0527 20.5194C26.3866 20.6864 26.7149 20.7941 26.9999 20.8641V23H11.414L23.4171 10.997ZM12.9999 25C12.9999 25.7956 13.316 26.5587 13.8786 27.1213C14.4412 27.6839 15.2043 28 15.9999 28C16.7956 28 17.5586 27.6839 18.1212 27.1213C18.6839 26.5587 18.9999 25.7956 18.9999 25H12.9999Z" fill="#36485C"/>
</svg>
