<svg width="32" height="32" viewBox="0 0 32 32" fill="none" xmlns="http://www.w3.org/2000/svg">
<path d="M10.5 20C10.7761 20 11 20.2239 11 20.5V23.5C11 23.7761 10.7761 24 10.5 24H9.5C9.22386 24 9 23.7761 9 23.5V20.5C9 20.2239 9.22386 20 9.5 20H10.5Z" fill="#36485C"/>
<path d="M16.5 20C16.7761 20 17 20.2239 17 20.5V23.5C17 23.7761 16.7761 24 16.5 24H15.5C15.2239 24 15 23.7761 15 23.5V20.5C15 20.2239 15.2239 20 15.5 20H16.5Z" fill="#36485C"/>
<path d="M10.5 14C10.7761 14 11 14.2239 11 14.5V17.5C11 17.7761 10.7761 18 10.5 18H9.5C9.22386 18 9 17.7761 9 17.5V14.5C9 14.2239 9.22386 14 9.5 14H10.5Z" fill="#36485C"/>
<path d="M16.5 14C16.7761 14 17 14.2239 17 14.5V17.5C17 17.7761 16.7761 18 16.5 18H15.5C15.2239 18 15 17.7761 15 17.5V14.5C15 14.2239 15.2239 14 15.5 14H16.5Z" fill="#36485C"/>
<path d="M10.5 8C10.7761 8 11 8.22386 11 8.5V11.5C11 11.7761 10.7761 12 10.5 12H9.5C9.22386 12 9 11.7761 9 11.5V8.5C9 8.22386 9.22386 8 9.5 8H10.5Z" fill="#36485C"/>
<path d="M16.5 8C16.7761 8 17 8.22386 17 8.5V11.5C17 11.7761 16.7761 12 16.5 12H15.5C15.2239 12 15 11.7761 15 11.5V8.5C15 8.22386 15.2239 8 15.5 8H16.5Z" fill="#36485C"/>
<path fill-rule="evenodd" clip-rule="evenodd" d="M21.5 3C21.776 3 21.9998 3.22112 22 3.49707V12H27.5C27.7758 12.0002 27.9999 12.2241 28 12.5V29H4V3.5C4 3.22386 4.22386 3 4.5 3H21.5ZM6 5V27H20V5H6ZM22 14V27H26V14H22Z" fill="#36485C"/>
</svg>
