<svg width="32" height="32" viewBox="0 0 32 32" fill="none" xmlns="http://www.w3.org/2000/svg">
<path fill-rule="evenodd" clip-rule="evenodd" d="M1.70525 6.06C1.70525 5.474 2.17925 5 2.76525 5C2.88325 5 3.00125 5.02 3.11225 5.059L31.2873 14.821C31.8403 15.013 32.1333 15.617 31.9412 16.17C31.8352 16.477 31.5942 16.718 31.2873 16.824L3.11225 26.587C2.55925 26.778 1.95525 26.485 1.76325 25.931C1.72425 25.82 1.70525 25.703 1.70525 25.585V24.258L1.07125 24.892C0.96725 24.995 0.79925 24.995 0.69625 24.892L0.07725 24.274C-0.02575 24.17 -0.02575 24.002 0.07725 23.898L1.15125 22.825L0.07725 21.751C-0.02575 21.647 -0.02575 21.479 0.07725 21.376L0.69625 20.757C0.79925 20.654 0.96725 20.654 1.07125 20.757L1.70525 21.391V10.002L1.07125 10.636C0.96725 10.739 0.79925 10.739 0.69625 10.636L0.07725 10.018C-0.02575 9.914 -0.02575 9.747 0.07725 9.643L1.15125 8.569L0.07725 7.495C-0.02575 7.391 -0.02575 7.224 0.07725 7.121L0.69625 6.502C0.79925 6.399 0.96725 6.399 1.07125 6.502L1.70525 7.136V6.06ZM3.41825 24.275C3.49525 24.495 3.70025 24.633 3.91925 24.633C3.97725 24.633 4.03525 24.624 4.09225 24.604L28.6402 16.127C28.7172 16.1 28.7773 16.039 28.8043 15.963C28.8523 15.824 28.7782 15.673 28.6402 15.625L4.09225 7.148C4.03625 7.13 3.97925 7.12 3.91925 7.12C3.62725 7.12 3.38925 7.357 3.38925 7.65V24.103C3.38925 24.161 3.39925 24.22 3.41825 24.275ZM4.17025 9.349C4.17025 9.056 4.40725 8.819 4.70025 8.819C4.99225 8.819 5.23025 9.056 5.23025 9.349V22.294C5.23025 22.588 4.99225 22.825 4.70025 22.825C4.40725 22.825 4.17025 22.588 4.17025 22.294V9.349ZM10.5972 12.14C10.6753 11.981 10.8352 11.889 11.0013 11.889C11.0673 11.889 11.1362 11.904 11.2002 11.936C11.2882 11.98 11.3603 12.052 11.4043 12.14L12.2172 13.79C12.2832 13.923 12.4102 14.015 12.5573 14.036L14.3783 14.301C14.6233 14.337 14.7943 14.565 14.7583 14.811C14.7443 14.909 14.6983 14.999 14.6273 15.068L13.3092 16.353C13.2032 16.456 13.1543 16.605 13.1803 16.751L13.4913 18.565C13.5332 18.81 13.3693 19.042 13.1243 19.084C13.0263 19.1 12.9263 19.085 12.8383 19.039L11.2102 18.182C11.0782 18.114 10.9213 18.114 10.7913 18.182L9.16225 19.039C8.94225 19.154 8.67025 19.07 8.55525 18.85C8.50925 18.762 8.49225 18.662 8.50925 18.565L8.82025 16.751C8.84525 16.605 8.79725 16.456 8.69025 16.353L7.37325 15.068C7.19525 14.895 7.19225 14.61 7.36525 14.432C7.43425 14.361 7.52525 14.315 7.62325 14.301L9.44425 14.036C9.58925 14.015 9.71625 13.923 9.78225 13.79L10.5972 12.14Z" fill="#36485C"/>
</svg>
