<svg width="32" height="32" viewBox="0 0 32 32" fill="none" xmlns="http://www.w3.org/2000/svg">
<path d="M15.9473 9.84863C16.0382 9.84863 16.1272 9.87683 16.2012 9.92969C16.275 9.98247 16.3309 10.0568 16.3604 10.1426L17.4531 13.3984C17.4821 13.4843 17.537 13.5591 17.6104 13.6123C17.6838 13.6655 17.7725 13.6946 17.8633 13.6953L21.2949 13.7285C21.3869 13.7286 21.4764 13.7575 21.5508 13.8115C21.6252 13.8655 21.6805 13.9419 21.709 14.0293C21.7374 14.1166 21.7381 14.2105 21.71 14.2979C21.6817 14.3853 21.626 14.4614 21.5518 14.5156L18.7939 16.5596C18.7213 16.6134 18.6676 16.6894 18.6396 16.7754C18.6117 16.8613 18.6106 16.9538 18.6377 17.04L19.665 20.3164C19.6925 20.4032 19.6924 20.4965 19.6641 20.583C19.6356 20.6697 19.5806 20.7461 19.5068 20.7998C19.4331 20.8535 19.3441 20.8823 19.2529 20.8828C19.1617 20.8833 19.0724 20.8547 18.998 20.8018L16.2002 18.8115C16.1264 18.7591 16.0378 18.7305 15.9473 18.7305C15.8569 18.7305 15.769 18.7592 15.6953 18.8115L12.8975 20.8018C12.8231 20.8551 12.7331 20.8841 12.6416 20.8838C12.5504 20.8834 12.4615 20.8544 12.3877 20.8008C12.3137 20.747 12.2579 20.671 12.2295 20.584C12.2011 20.4971 12.2016 20.4035 12.2295 20.3164L13.2568 17.04C13.2839 16.9538 13.2837 16.8613 13.2559 16.7754C13.2279 16.6894 13.1733 16.6134 13.1006 16.5596L10.3428 14.5156C10.2687 14.4614 10.2137 14.3852 10.1855 14.2979C10.1574 14.2105 10.1572 14.1166 10.1855 14.0293C10.214 13.942 10.2695 13.8655 10.3438 13.8115C10.418 13.7576 10.5078 13.7287 10.5996 13.7285L14.0322 13.6953C14.1228 13.6946 14.2108 13.6654 14.2842 13.6123C14.3576 13.5591 14.4134 13.4844 14.4424 13.3984L15.5352 10.1426C15.5646 10.0568 15.6205 9.98245 15.6943 9.92969C15.7682 9.87694 15.8565 9.84869 15.9473 9.84863Z" fill="#36485C"/>
<path fill-rule="evenodd" clip-rule="evenodd" d="M29.5 5C29.7761 5 30 5.22386 30 5.5V11.7422C30 11.9815 29.829 12.1835 29.6006 12.2549C28.9131 12.4695 28.3287 12.8796 27.8477 13.4844C27.276 14.2031 26.9902 15.0417 26.9902 16C26.9902 16.9583 27.276 17.7912 27.8477 18.498C28.3317 19.0963 28.9202 19.5101 29.6133 19.7393C29.8358 19.8128 30 20.0117 30 20.2461V26.5C30 26.7761 29.7761 27 29.5 27H2.5C2.22386 27 2 26.7761 2 26.5V20.2461C2 20.0117 2.16419 19.8128 2.38672 19.7393C3.07978 19.5101 3.66833 19.0963 4.15234 18.498C4.72401 17.7912 5.00977 16.9583 5.00977 16C5.00977 15.0417 4.72401 14.2031 4.15234 13.4844C3.67131 12.8796 3.08695 12.4695 2.39941 12.2549C2.17103 12.1835 2 11.9815 2 11.7422V5.5C2 5.22386 2.22386 5 2.5 5H29.5ZM4 10.7734C4.66158 11.1373 5.23603 11.6336 5.71777 12.2393C6.58387 13.3282 7.00977 14.6108 7.00977 16C7.00977 17.3893 6.583 18.6728 5.70703 19.7559C5.22452 20.3522 4.6536 20.8418 4 21.2061V25H28V21.2061C27.3463 20.8417 26.7746 20.3524 26.292 19.7559C25.416 18.6728 24.9902 17.3893 24.9902 16C24.9902 14.6108 25.4161 13.3282 26.2822 12.2393C26.764 11.6336 27.3384 11.1373 28 10.7734V7H4V10.7734Z" fill="#36485C"/>
</svg>
