<svg width="32" height="32" viewBox="0 0 32 32" fill="none" xmlns="http://www.w3.org/2000/svg">
<path d="M22.4953 5.02388C22.7703 5.0227 22.9926 4.7958 22.9926 4.5163V3.50759C22.9926 3.22626 22.7675 2.99859 22.4907 3.00001L9.45586 3.06658C9.17316 3.06803 8.94801 3.30749 8.95939 3.5946L8.99694 4.54178C9.00773 4.81394 9.22794 5.02893 9.49592 5.02893L10.683 5.02893L9.43293 18.2239L7.50493 18.2297C7.23109 18.2305 7.00898 18.4553 7.00702 18.7336L7.00001 19.7308C6.99804 20.0122 7.22165 20.2415 7.4985 20.242L15.0051 20.2554L14.9983 29.4885C14.9982 29.7683 15.2207 29.9954 15.4959 29.9964L16.4955 30C16.772 30.001 16.9967 29.7734 16.9967 29.4924V20.2554L24.5015 20.242C24.779 20.2415 25.0029 20.0111 25 19.729L24.9894 18.7261C24.9865 18.4479 24.7638 18.2239 24.4901 18.2239H22.5689L21.3188 5.02893L22.4953 5.02388ZM20.5632 18.2239L11.4386 18.2239L12.6745 5.01457L19.3272 5.01457L20.5632 18.2239Z" fill="#36485C"/>
</svg>
