<svg width="32" height="32" viewBox="0 0 32 32" fill="none" xmlns="http://www.w3.org/2000/svg">
<path d="M24.0304 14.7949L20.2091 14.7949L25 19.5858C25.1953 19.781 25.1953 20.0976 25 20.2929L24.2929 21C24.0976 21.1953 23.781 21.1953 23.5858 21L18.7949 16.2091L18.7949 20.0304C18.7949 20.1685 18.683 20.2804 18.5449 20.2804H17.0451C16.907 20.2804 16.7951 20.1685 16.7951 20.0304L16.7951 13.0451C16.7951 12.907 16.907 12.7951 17.0451 12.7951L24.0304 12.7951C24.1685 12.7951 24.2804 12.907 24.2804 13.0451V14.5449C24.2804 14.683 24.1685 14.795 24.0304 14.7949Z" fill="#36485C"/>
<path d="M2.49316 26C2.21722 25.9998 2 25.778 2 25.502V16.499C2.00017 16.223 2.22396 16 2.5 16H3.5C3.77614 16 4 16.2239 4 16.5V24H28V8H16.5C16.2239 8 16 7.77614 16 7.5V6.5C16 6.22386 16.2239 6 16.5 6H29.5C29.7761 6 30 6.22386 30 6.5V25.5C30 25.7761 29.7799 25.9999 29.5039 26H2.49316Z" fill="#36485C"/>
<path d="M2.5 13C2.22386 13 2 12.7761 2 12.5V6.5C2 6.22386 2.22386 6 2.5 6H12.5C12.7761 6 13 6.22386 13 6.5V12.5C13 12.7761 12.7761 13 12.5 13H2.5Z" fill="#36485C"/>
</svg>
