<svg width="32" height="32" viewBox="0 0 32 32" fill="none" xmlns="http://www.w3.org/2000/svg">
<path d="M29.4999 5.99999C29.776 5.99999 29.9999 6.22385 29.9999 6.49999V15.5C29.9999 15.7761 29.776 16 29.4999 16H28.4999C28.2237 16 27.9999 15.7761 27.9999 15.5V7.99999H13.4999C13.2237 7.99999 12.9999 7.77613 12.9999 7.49999V6.49999C12.9999 6.22385 13.2237 5.99999 13.4999 5.99999H29.4999Z" fill="#36485C"/>
<path d="M3.49989 16C3.77603 16 3.99989 16.2238 3.99989 16.5V24H15.4999C15.776 24 15.9999 24.2238 15.9999 24.5V25.5C15.9999 25.7761 15.776 26 15.4999 26H2.49989C2.25818 26 2.05618 25.8285 2.00965 25.6006C2.00303 25.5681 1.99989 25.5344 1.99989 25.5V16.5C1.99989 16.2238 2.22375 16 2.49989 16H3.49989Z" fill="#36485C"/>
<path d="M7.87445 6.13901L7.87451 9.9603L3.08361 5.1694C2.88835 4.97413 2.57176 4.97413 2.3765 5.1694L1.6694 5.8765C1.47413 6.07177 1.47413 6.38835 1.6694 6.58361L6.4603 11.3745L2.639 11.3745C2.50093 11.3745 2.389 11.4864 2.389 11.6245V13.1243C2.389 13.2624 2.50093 13.3743 2.639 13.3743L9.62428 13.3743C9.76235 13.3743 9.87428 13.2624 9.87428 13.1243L9.87428 6.13901C9.87428 6.00094 9.76235 5.88901 9.62428 5.88901H8.12445C7.98637 5.88901 7.87444 6.00094 7.87445 6.13901Z" fill="#36485C"/>
<path d="M29.4999 19C29.776 19 29.9999 19.2238 29.9999 19.5V25.5C29.9999 25.7761 29.776 26 29.4999 26H19.4999C19.2237 26 18.9999 25.7761 18.9999 25.5V19.5C18.9999 19.2238 19.2237 19 19.4999 19H29.4999Z" fill="#36485C"/>
</svg>
