<svg width="24" height="24" viewBox="0 0 24 24" fill="none" xmlns="http://www.w3.org/2000/svg">
<path fill-rule="evenodd" clip-rule="evenodd" d="M5 12C5 8.134 8.134 5 12 5C15.866 5 19 8.134 19 12C19 15.866 15.866 19 12 19C8.134 19 5 15.866 5 12ZM10.9601 17.9102C11.2978 17.9692 11.6453 18 12 18C12.0977 18 12.1948 17.9977 12.2913 17.9931L17.9931 12.2913C17.9977 12.1948 18 12.0977 18 12C18 11.6453 17.9692 11.2978 17.9102 10.9601L10.9601 17.9102ZM9.85199 17.6041L17.6041 9.85199C17.4768 9.52017 17.3209 9.20254 17.1394 8.9021L8.9021 17.1394C9.20254 17.3209 9.52017 17.4768 9.85199 17.6041ZM8.08256 16.5448L16.5448 8.08255C16.3267 7.82982 16.0879 7.59547 15.8311 7.38214L7.38214 15.8311C7.59547 16.0879 7.82982 16.3267 8.08256 16.5448ZM6.80134 14.9977L14.9977 6.80134C14.6918 6.62461 14.369 6.4741 14.0321 6.35286L6.35286 14.0321C6.4741 14.369 6.62461 14.6918 6.80134 14.9977ZM6.06754 12.9032L12.9032 6.06754C12.6086 6.02306 12.307 6 12 6C11.8448 6 11.6909 6.00589 11.5387 6.01747L6.01747 11.5387C6.00589 11.6909 6 11.8448 6 12C6 12.307 6.02306 12.6086 6.06754 12.9032ZM9.67476 6.4672L6.4672 9.67476C7.07472 8.23093 8.23093 7.07472 9.67476 6.4672ZM17.6361 14.0624L14.0624 17.6361C15.717 17.0305 17.0305 15.717 17.6361 14.0624Z" fill="#36485C"/>
</svg>
