<svg width="32" height="32" viewBox="0 0 32 32" fill="none" xmlns="http://www.w3.org/2000/svg">
<path fill-rule="evenodd" clip-rule="evenodd" d="M20.5369 6.97524C19.4259 8.45421 17.9766 10.5345 16.7439 12.6266C16.0277 13.842 15.3958 15.0428 14.9457 16.12C14.4856 17.2212 14.2573 18.097 14.2573 18.6939C14.2573 19.4479 14.6377 20.1941 15.3685 20.9268C15.8506 21.4102 16.4508 21.8512 17.0985 22.2396C17.8304 21.299 18.9732 20.6939 20.2573 20.6939C22.4665 20.6939 24.2573 22.4848 24.2573 24.6939C24.2573 26.903 22.4665 28.6939 20.2573 28.6939C18.0482 28.6939 16.2573 26.903 16.2573 24.6939C16.2573 24.4891 16.2727 24.2879 16.3024 24.0914C15.4652 23.6101 14.6376 23.0262 13.9524 22.3392C13.0097 21.3939 12.2573 20.1695 12.2573 18.6939C12.2573 17.6908 12.6124 16.5166 13.1003 15.349C13.5981 14.1575 14.2786 12.8708 15.0208 11.6113C16.2365 9.54806 17.6472 7.50778 18.77 5.99859L15.7527 6.80706C15.486 6.87853 15.2118 6.72024 15.1404 6.4535L14.8868 5.50699C14.8153 5.24026 14.9736 4.96609 15.2403 4.89462L21.1045 3.32331C21.3712 3.25184 21.6454 3.41013 21.7169 3.67687L23.2882 9.54107C23.3597 9.8078 23.2014 10.082 22.9346 10.1534L21.9881 10.4071C21.7214 10.4785 21.4472 10.3202 21.3757 10.0535L20.5369 6.97524ZM22.2573 24.6939C22.2573 25.7985 21.3619 26.6939 20.2573 26.6939C19.1528 26.6939 18.2573 25.7985 18.2573 24.6939C18.2573 23.5893 19.1528 22.6939 20.2573 22.6939C21.3619 22.6939 22.2573 23.5893 22.2573 24.6939Z" fill="#36485C"/>
<path d="M9.02511 7.87589C8.82985 7.68063 8.82984 7.36405 9.02511 7.16878L9.73222 6.46168C9.92749 6.26641 10.2441 6.26642 10.4393 6.46168L11.5 7.52234L12.5606 6.46168C12.7559 6.26641 13.0725 6.26642 13.2677 6.46168L13.9749 7.16878C14.1701 7.36404 14.1701 7.68062 13.9749 7.87589L12.9142 8.93655L13.9749 9.99721C14.1701 10.1925 14.1701 10.509 13.9749 10.7043L13.2677 11.4114C13.0725 11.6067 12.7559 11.6067 12.5606 11.4114L11.5 10.3508L10.4393 11.4114C10.2441 11.6067 9.92747 11.6067 9.73222 11.4114L9.02511 10.7043C8.82985 10.5091 8.82984 10.1925 9.02511 9.99721L10.0858 8.93655L9.02511 7.87589Z" fill="#36485C"/>
<path d="M24.0251 7.87589L25.0858 8.93655L24.0251 9.99721C23.8298 10.1925 23.8298 10.5091 24.0251 10.7043L24.7322 11.4114C24.9275 11.6067 25.2441 11.6067 25.4393 11.4114L26.5 10.3508L27.5606 11.4114C27.7559 11.6067 28.0725 11.6067 28.2677 11.4114L28.9749 10.7043C29.1701 10.5091 29.1701 10.1925 28.9749 9.99721L27.9142 8.93655L28.9749 7.87589C29.1701 7.68063 29.1701 7.36404 28.9749 7.16878L28.2677 6.46168C28.0725 6.26641 27.7559 6.26641 27.5606 6.46168L26.5 7.52234L25.4393 6.46168C25.2441 6.26641 24.9275 6.26641 24.7322 6.46168L24.0251 7.16878C23.8298 7.36404 23.8298 7.68063 24.0251 7.87589Z" fill="#36485C"/>
<path d="M18.0251 14.8759C17.8298 14.6806 17.8298 14.364 18.0251 14.1688L18.7322 13.4617C18.9275 13.2664 19.2441 13.2664 19.4393 13.4617L20.5 14.5223L21.5606 13.4617C21.7559 13.2664 22.0725 13.2664 22.2677 13.4617L22.9749 14.1688C23.1701 14.364 23.1701 14.6806 22.9749 14.8759L21.9142 15.9365L22.9749 16.9972C23.1701 17.1925 23.1701 17.5091 22.9749 17.7043L22.2677 18.4114C22.0725 18.6067 21.7559 18.6067 21.5606 18.4114L20.5 17.3508L19.4393 18.4114C19.2441 18.6067 18.9275 18.6067 18.7322 18.4114L18.0251 17.7043C17.8298 17.5091 17.8298 17.1925 18.0251 16.9972L19.0858 15.9365L18.0251 14.8759Z" fill="#36485C"/>
<path d="M3.02511 7.16878C2.82985 7.36404 2.82985 7.68063 3.02511 7.87589L4.08577 8.93655L3.02511 9.99721C2.82985 10.1925 2.82985 10.5091 3.02511 10.7043L3.73222 11.4114C3.92748 11.6067 4.24406 11.6067 4.43932 11.4114L5.49998 10.3508L6.56064 11.4114C6.7559 11.6067 7.07249 11.6067 7.26775 11.4114L7.97486 10.7043C8.17012 10.5091 8.17012 10.1925 7.97486 9.99721L6.9142 8.93655L7.97486 7.87589C8.17012 7.68063 8.17012 7.36404 7.97486 7.16878L7.26775 6.46168C7.07249 6.26641 6.7559 6.26641 6.56064 6.46168L5.49998 7.52234L4.43932 6.46168C4.24406 6.26641 3.92748 6.26641 3.73222 6.46168L3.02511 7.16878Z" fill="#36485C"/>
</svg>
