<svg width="32" height="32" viewBox="0 0 32 32" fill="none" xmlns="http://www.w3.org/2000/svg">
<path d="M25.5 19C25.7761 19 26 19.2239 26 19.5V23H29.5C29.7761 23 30 23.2239 30 23.5V24.5C30 24.7761 29.7761 25 29.5 25H26V28.5C26 28.7761 25.7761 29 25.5 29H24.5C24.2239 29 24 28.7761 24 28.5V25H20.5C20.2239 25 20 24.7761 20 24.5V23.5C20 23.2239 20.2239 23 20.5 23H24V19.5C24 19.2239 24.2239 19 24.5 19H25.5Z" fill="#36485C"/>
<path d="M17.5 23C17.7761 23 17.9999 23.2239 18 23.5V24.5C18 24.7761 17.7761 25 17.5 25H4.5C4.22386 25 4 24.7761 4 24.5V23.5C4.00006 23.2239 4.22389 23 4.5 23H17.5Z" fill="#36485C"/>
<path d="M27.5 15C27.7761 15 27.9999 15.2239 28 15.5V16.5C28 16.7761 27.7761 17 27.5 17H4.5C4.22386 17 4 16.7761 4 16.5V15.5C4.00006 15.2239 4.22389 15 4.5 15H27.5Z" fill="#36485C"/>
<path d="M4 3.55371C4.00005 3.10486 4.48513 2.84271 4.83398 3.10352L10.7793 7.55078C11.0734 7.7709 11.0733 8.22907 10.7793 8.44922L4.83398 12.8965C4.48523 13.1573 4.00033 12.8959 4 12.4473V3.55371Z" fill="#36485C"/>
<path d="M27.5 7C27.7761 7 27.9999 7.22391 28 7.5V8.5C28 8.77614 27.7761 9 27.5 9H14.5C14.2239 9 14 8.77614 14 8.5V7.5C14.0001 7.22391 14.2239 7 14.5 7H27.5Z" fill="#36485C"/>
</svg>
