<svg width="32" height="32" viewBox="0 0 32 32" fill="none" xmlns="http://www.w3.org/2000/svg">
<path d="M27.5 23C27.7761 23 28 23.2239 28 23.5V24.5C28 24.7762 27.7761 25 27.5 25H4.5C4.22386 25 4 24.7762 4 24.5V23.5C4.00003 23.2239 4.22387 23 4.5 23H27.5Z" fill="#36485C"/>
<path d="M27.5 15C27.7761 15 28 15.2239 28 15.5V16.5C28 16.7762 27.7761 17 27.5 17H4.5C4.22386 17 4 16.7762 4 16.5V15.5C4.00003 15.2239 4.22387 15 4.5 15H27.5Z" fill="#36485C"/>
<path d="M4 3.55374C4 3.10484 4.48511 2.84269 4.83398 3.10355L10.7793 7.55081C11.0734 7.77093 11.0734 8.22911 10.7793 8.44925L4.83398 12.8965C4.48523 13.1573 4.00033 12.8959 4 12.4473V3.55374Z" fill="#36485C"/>
<path d="M27.5 7.00003C27.7761 7.00003 28 7.22391 28 7.50003V8.50003C28 8.77618 27.7761 9.00003 27.5 9.00003H14.5C14.2239 9.00003 14 8.77618 14 8.50003V7.50003C14 7.22391 14.2239 7.00003 14.5 7.00003H27.5Z" fill="#36485C"/>
</svg>
