<svg width="32" height="32" viewBox="0 0 32 32" fill="none" xmlns="http://www.w3.org/2000/svg">
<path fill-rule="evenodd" clip-rule="evenodd" d="M3.24807 8.28073C3.09446 8.37033 3 8.53478 3 8.71262V23.2874C3 23.4652 3.09446 23.6296 3.24807 23.7192L15.7481 31.0107C15.9037 31.1015 16.0963 31.1015 16.2519 31.0107L28.7519 23.7192C28.9055 23.6296 29 23.4652 29 23.2874V8.71262C29 8.53478 28.9055 8.37033 28.7519 8.28073L16.2519 0.98925C16.0963 0.89844 15.9037 0.89844 15.7481 0.98925L3.24807 8.28073ZM15.8272 28.7415L27 17.5687V14.7405L14.041 27.6995L15.8272 28.7415ZM12.2546 26.6575L27 11.9121V9.57419L26.6898 9.39324L10.4678 25.6152L12.2546 26.6575ZM8.6814 24.5732L24.9034 8.35121L23.1172 7.30926L6.89516 23.5313L8.6814 24.5732ZM5.10877 22.4892L21.3308 6.26722L19.5446 5.22532L5 19.7699V22.4258L5.10877 22.4892ZM5 16.9415L17.7582 4.18329L16 3.15769L15.8912 3.22117L5 14.1123V16.9415ZM5 11.2839L9.10319 7.18072L5 9.57419V11.2839ZM27 20.3971V22.4258L22.1313 25.2658L27 20.3971Z" fill="#36485C"/>
</svg>
