<svg width="32" height="32" viewBox="0 0 32 32" fill="none" xmlns="http://www.w3.org/2000/svg">
<path fill-rule="evenodd" clip-rule="evenodd" d="M3 8.71262C3 8.53478 3.09446 8.37033 3.24807 8.28073L15.7481 0.98925C15.9037 0.89844 16.0963 0.89844 16.2519 0.98925L28.7519 8.28073C28.9055 8.37033 29 8.53478 29 8.71262V23.2874C29 23.4652 28.9055 23.6296 28.7519 23.7192L16.2519 31.0107C16.0963 31.1015 15.9037 31.1015 15.7481 31.0107L3.24807 23.7192C3.09446 23.6296 3 23.4652 3 23.2874V8.71262ZM16 28.8423L5 22.4258V9.57419L16 3.15769L27 9.57419V22.4258L16 28.8423Z" fill="#36485C"/>
</svg>
