<svg width="24" height="24" viewBox="0 0 24 24" fill="none" xmlns="http://www.w3.org/2000/svg">
<path d="M9.25 14C9.38807 14 9.5 14.1119 9.5 14.25V15.75C9.5 15.8881 9.38807 16 9.25 16H8.75C8.61193 16 8.5 15.8881 8.5 15.75V14.25C8.5 14.1119 8.61193 14 8.75 14H9.25Z" fill="#36485C"/>
<path d="M12.25 14C12.3881 14 12.5 14.1119 12.5 14.25V15.75C12.5 15.8881 12.3881 16 12.25 16H11.75C11.6119 16 11.5 15.8881 11.5 15.75V14.25C11.5 14.1119 11.6119 14 11.75 14H12.25Z" fill="#36485C"/>
<path d="M9.25 11C9.38807 11 9.5 11.1119 9.5 11.25V12.75C9.5 12.8881 9.38807 13 9.25 13H8.75C8.61193 13 8.5 12.8881 8.5 12.75V11.25C8.5 11.1119 8.61193 11 8.75 11H9.25Z" fill="#36485C"/>
<path d="M12.25 11C12.3881 11 12.5 11.1119 12.5 11.25V12.75C12.5 12.8881 12.3881 13 12.25 13H11.75C11.6119 13 11.5 12.8881 11.5 12.75V11.25C11.5 11.1119 11.6119 11 11.75 11H12.25Z" fill="#36485C"/>
<path d="M9.25 8C9.38807 8 9.5 8.11193 9.5 8.25V9.75C9.5 9.88807 9.38807 10 9.25 10H8.75C8.61193 10 8.5 9.88807 8.5 9.75V8.25C8.5 8.11193 8.61193 8 8.75 8H9.25Z" fill="#36485C"/>
<path d="M12.25 8C12.3881 8 12.5 8.11193 12.5 8.25V9.75C12.5 9.88807 12.3881 10 12.25 10H11.75C11.6119 10 11.5 9.88807 11.5 9.75V8.25C11.5 8.11193 11.6119 8 11.75 8H12.25Z" fill="#36485C"/>
<path fill-rule="evenodd" clip-rule="evenodd" d="M14.75 5.5C14.888 5.5 14.9999 5.61056 15 5.74854V10H17.75C17.8879 10.0001 17.9999 10.1121 18 10.25V18.5H6V5.75C6 5.61193 6.11193 5.5 6.25 5.5H14.75ZM7 6.5V17.5H14V6.5H7ZM15 11V17.5H17V11H15Z" fill="#36485C"/>
</svg>
