<svg width="32" height="32" viewBox="0 0 32 32" fill="none" xmlns="http://www.w3.org/2000/svg">
<path d="M19.1893 12.5221C19.2742 12.839 19.6362 12.9896 19.9208 12.8265L22.7369 11.2129C22.9743 11.0769 23.0583 10.7755 22.9255 10.5364L22.4369 9.65615C22.3029 9.41472 21.9985 9.32765 21.7571 9.46168L19.1492 10.9094C18.9486 11.0207 18.8496 11.2543 18.909 11.4759L19.1893 12.5221Z" fill="#36485C"/>
<path d="M20.5929 15.8288C20.3262 15.9003 20.052 15.742 19.9806 15.4753L19.7218 14.5093C19.6503 14.2426 19.8086 13.9684 20.0753 13.897L23.939 12.8617C24.2057 12.7902 24.4799 12.9485 24.5514 13.2152L24.8102 14.1812C24.8817 14.4479 24.7234 14.7221 24.4566 14.7935L20.5929 15.8288Z" fill="#36485C"/>
<path d="M21.2847 18.8792C21.0553 18.883 20.8527 18.7303 20.7934 18.5086L20.5196 17.4868C20.435 17.1712 20.6709 16.8606 20.9976 16.8574L24.2368 16.8257C24.5116 16.823 24.737 17.0426 24.7417 17.3173L24.7585 18.3207C24.7632 18.5968 24.5431 18.8243 24.267 18.829L21.2847 18.8792Z" fill="#36485C"/>
<path d="M16.1422 10.8097C15.8755 10.8812 15.7172 11.1554 15.7887 11.4221L15.9181 11.905L8.70831 15.9075L8.5789 15.4245C8.50743 15.1578 8.23326 14.9995 7.96653 15.0709L7.0006 15.3298C6.73387 15.4012 6.57558 15.6754 6.64705 15.9421L7.94114 20.7718C8.01261 21.0385 8.28678 21.1968 8.55352 21.1253L9.51944 20.8665C9.78617 20.795 9.94447 20.5209 9.87299 20.2541L9.74359 19.7712L11.5729 19.7404C11.6693 20.8548 11.9429 22.1311 12.5235 23.4236C12.6367 23.6755 12.9388 23.7744 13.1852 23.6499L14.0778 23.199C14.3243 23.0745 14.4218 22.7741 14.3112 22.5211C13.878 21.5301 13.6648 20.5564 13.5785 19.7066L17.9886 19.6325L18.118 20.1154C18.1895 20.3822 18.4637 20.5404 18.7304 20.469L19.6963 20.2102C19.9631 20.1387 20.1214 19.8645 20.0499 19.5978L17.7205 10.9044C17.649 10.6377 17.3749 10.4794 17.1081 10.5509L16.1422 10.8097Z" fill="#36485C"/>
<path fill-rule="evenodd" clip-rule="evenodd" d="M29 16C29 23.1797 23.1797 29 16 29C8.8203 29 3 23.1797 3 16C3 8.8203 8.8203 3 16 3C23.1797 3 29 8.8203 29 16ZM27 16C27 22.0751 22.0751 27 16 27C9.92487 27 5 22.0751 5 16C5 9.92487 9.92487 5 16 5C22.0751 5 27 9.92487 27 16Z" fill="#36485C"/>
</svg>
