<svg width="32" height="32" viewBox="0 0 32 32" fill="none" xmlns="http://www.w3.org/2000/svg">
<path fill-rule="evenodd" clip-rule="evenodd" d="M22.5 6C22.7761 6 23 6.22386 23 6.5V10.9375L29.2549 7.41914C29.5882 7.23165 30 7.47251 30 7.85492V24.1451C30 24.5275 29.5882 24.7683 29.2549 24.5809L23 21.0625V25.5C23 25.7761 22.7761 26 22.5 26H2.5C2.22386 26 2 25.7761 2 25.5V6.5C2 6.22386 2.22386 6 2.5 6H22.5ZM21.7451 13.9381L28 10.4197V21.5803L21.7451 18.0619C21.4118 17.8745 21 18.1153 21 18.4977V24H4V8H21V13.5023C21 13.8847 21.4118 14.1255 21.7451 13.9381Z" fill="#36485C"/>
</svg>
