<svg width="16" height="16" viewBox="0 0 16 16" fill="none" xmlns="http://www.w3.org/2000/svg">
<path d="M12.4985 1.50574C12.5961 1.40812 12.7543 1.40812 12.852 1.50574L13.2055 1.85926C13.3031 1.95689 13.3031 2.11515 13.2055 2.21277L11.4999 3.91834V5.46913L14.6274 3.70985C14.7939 3.61621 14.9997 3.73658 14.9999 3.92762V12.0731C14.9997 12.2641 14.7939 12.3845 14.6274 12.2909L11.4999 10.5316V12.7504C11.4998 12.8884 11.3879 13.0004 11.2499 13.0004H2.4179L1.38177 14.0365C1.28414 14.1341 1.12587 14.1341 1.02825 14.0365L0.674736 13.683C0.577123 13.5854 0.577159 13.4271 0.674736 13.3295L12.4985 1.50574ZM3.4179 12.0004H10.4999V9.2494C10.4999 9.05823 10.7058 8.9375 10.8725 9.03114L13.9999 10.7904V5.21034L10.8725 6.96962C10.7059 7.06318 10.5 6.94242 10.4999 6.75135V4.91834L3.4179 12.0004ZM8.81877 4.00037H1.99993V10.8192L0.999931 11.8192V3.25037C0.999944 3.11232 1.11188 3.00038 1.24993 3.00037H9.81877L8.81877 4.00037Z" fill="#36485C"/>
</svg>
