<svg width="32" height="32" viewBox="0 0 32 32" fill="none" xmlns="http://www.w3.org/2000/svg">
<path fill-rule="evenodd" clip-rule="evenodd" d="M4 27.5C4 27.7761 4.22386 28 4.5 28H27.5C27.7761 28 28 27.7761 28 27.5V4.5C28 4.22386 27.7761 4 27.5 4H4.5C4.22386 4 4 4.22386 4 4.5V27.5ZM7.25462 26H6V24.4264L24.4264 6H26V7.25461L7.25462 26ZM10.083 26H12.9121L26 12.9121V10.083L10.083 26ZM26 15.7405L15.7405 26H18.5687L26 18.5687V15.7405ZM26 21.3971L21.3971 26H24.2252L26 24.2252V21.3971ZM21.598 6L6 21.598V18.7699L18.7699 6H21.598ZM15.9415 6L6 15.9415V13.1123L13.1123 6H15.9415ZM10.2839 6L6 10.2839V7.45584L7.45584 6H10.2839Z" fill="#36485C"/>
</svg>
