<svg width="32" height="32" viewBox="0 0 32 32" fill="none" xmlns="http://www.w3.org/2000/svg">
<path d="M17.414 16L23.6463 9.76766C23.8416 9.5724 23.8416 9.25581 23.6463 9.06055L22.9394 8.35356C22.7441 8.1583 22.4275 8.1583 22.2322 8.35356L15.9999 14.5859L9.76773 8.35354C9.57248 8.15829 9.25591 8.15827 9.06064 8.35351L8.3535 9.06055C8.15822 9.25581 8.15821 9.57241 8.35348 9.76768L14.5858 16L8.35348 22.2323C8.15821 22.4276 8.15822 22.7442 8.3535 22.9395L9.06064 23.6465C9.25591 23.8417 9.57248 23.8417 9.76773 23.6465L15.9999 17.4141L22.2322 23.6465C22.4275 23.8417 22.7441 23.8417 22.9394 23.6465L23.6463 22.9395C23.8416 22.7442 23.8416 22.4276 23.6463 22.2324L17.414 16Z" fill="#36485C"/>
</svg>
