<svg width="32" height="32" viewBox="0 0 32 32" fill="none" xmlns="http://www.w3.org/2000/svg">
<path d="M5.50002 17.9999C5.77616 17.9999 5.99871 18.2239 6.01251 18.4997C6.1027 20.3021 6.67927 22.05 7.68532 23.5556C8.78414 25.2001 10.3459 26.4818 12.1732 27.2387C14.0004 27.9956 16.0111 28.1936 17.9509 27.8078C19.8907 27.4219 21.6726 26.4695 23.0711 25.071C24.4696 23.6725 25.422 21.8906 25.8079 19.9508C26.1937 18.011 25.9957 16.0003 25.2388 14.1731C24.4819 12.3458 23.2002 10.784 21.5557 9.68522C19.9112 8.58641 17.9778 7.99992 16 7.99992H9.81792L13.0504 11.2333C13.245 11.428 13.2457 11.7433 13.0519 11.9388L12.3536 12.6433C12.1586 12.84 11.8408 12.8407 11.6449 12.6448L6.35357 7.35347C6.15831 7.15821 6.15831 6.84163 6.35357 6.64636L11.645 1.35494C11.8408 1.15911 12.1585 1.15977 12.3536 1.35641L13.0516 2.0603C13.2455 2.25582 13.2448 2.57133 13.0501 2.76601L9.81492 5.99992H16C18.3734 5.99992 20.6935 6.70371 22.6669 8.02228C24.6403 9.34086 26.1783 11.215 27.0866 13.4077C27.9948 15.6004 28.2325 18.0132 27.7694 20.341C27.3064 22.6688 26.1635 24.807 24.4853 26.4852C22.8071 28.1634 20.6689 29.3063 18.3411 29.7693C16.0133 30.2324 13.6005 29.9947 11.4078 29.0865C9.2151 28.1782 7.34096 26.6402 6.02238 24.6668C4.79655 22.8322 4.10206 20.6979 4.01043 18.4998C3.99893 18.2239 4.22388 17.9999 4.50002 17.9999H5.50002Z" fill="#36485C"/>
</svg>
