<svg width="32" height="32" viewBox="0 0 32 32" fill="none" xmlns="http://www.w3.org/2000/svg">
<path d="M11.5 14H10.5C10.2239 14 10 14.2239 10 14.5V23.5C10 23.7761 10.2239 24 10.5 24H11.5C11.7761 24 12 23.7761 12 23.5V14.5C12 14.2239 11.7761 14 11.5 14Z" fill="#36485C"/>
<path d="M20.5 18H21.5C21.7761 18 22 18.2239 22 18.5V23.5C22 23.7761 21.7761 24 21.5 24H20.5C20.2239 24 20 23.7761 20 23.5V18.5C20 18.2239 20.2239 18 20.5 18Z" fill="#36485C"/>
<path d="M15.5 20H16.5C16.7761 20 17 20.2239 17 20.5V23.5C17 23.7761 16.7761 24 16.5 24H15.5C15.2239 24 15 23.7761 15 23.5V20.5C15 20.2239 15.2239 20 15.5 20Z" fill="#36485C"/>
<path fill-rule="evenodd" clip-rule="evenodd" d="M13 2C11.3431 2 10 3.34315 10 5H5.5C5.22386 5 5 5.22386 5 5.5V29.5C5 29.7761 5.22386 30 5.5 30H26.5C26.7761 30 27 29.7761 27 29.5V5.5C27 5.22386 26.7761 5 26.5 5H22C22 3.34315 20.6569 2 19 2H13ZM19 4H13C12.4477 4 12 4.44772 12 5V8H20V5C20 4.44772 19.5523 4 19 4ZM7 7H10V9.5C10 9.77614 10.2239 10 10.5 10H21.5C21.7761 10 22 9.77614 22 9.5V7H25V28H7V7Z" fill="#36485C"/>
</svg>
