<svg width="32" height="32" viewBox="0 0 32 32" fill="none" xmlns="http://www.w3.org/2000/svg">
<path d="M18.9233 18.304C18.9233 18.344 18.9434 18.364 18.9834 18.364H20.0154C20.2874 18.364 20.5114 18.26 20.6874 18.052C20.8634 17.8359 20.9553 17.556 20.9634 17.212V14.98C20.9634 14.636 20.8754 14.36 20.6993 14.152C20.5233 13.936 20.2914 13.828 20.0034 13.828H18.9834C18.9434 13.828 18.9233 13.848 18.9233 13.8879V18.304Z" fill="#36485C"/>
<path fill-rule="evenodd" clip-rule="evenodd" d="M4 10C4 8.89539 4.89551 8 6 8H26C27.1045 8 28 8.89539 28 10V22C28 23.1046 27.1045 24 26 24H6C4.89551 24 4 23.1046 4 22V10ZM12.1287 20.3921C11.4567 20.3921 10.8687 20.2841 10.3646 20.068C9.8606 19.844 9.46863 19.5281 9.1886 19.12C8.91663 18.712 8.78064 18.24 8.78064 17.7041V17.536C8.78064 17.4801 8.79663 17.436 8.82861 17.4041C8.85291 17.3798 8.88416 17.3647 8.92224 17.3589C8.93433 17.3571 8.94714 17.3561 8.96069 17.3561H10.8207C10.8525 17.3561 10.8806 17.3613 10.9047 17.3717C10.9229 17.3795 10.9388 17.3903 10.9526 17.4041C10.9846 17.436 11.0006 17.4801 11.0006 17.536V17.608C11.0006 17.832 11.1167 18.0321 11.3486 18.208C11.5886 18.3761 11.9047 18.4601 12.2966 18.4601C12.5927 18.4601 12.8047 18.4 12.9326 18.28C13.0607 18.1521 13.1246 18.0121 13.1246 17.8601C13.1246 17.7606 13.0991 17.6753 13.048 17.6039C13.0087 17.549 12.9542 17.5023 12.8846 17.464C12.7246 17.3761 12.4326 17.2681 12.0087 17.14L11.6606 17.0441C10.8687 16.8041 10.2046 16.484 9.66858 16.0841C9.13269 15.6841 8.86462 15.104 8.86462 14.344C8.86462 13.8401 9.00061 13.396 9.27258 13.0121C9.54468 12.62 9.91663 12.3201 10.3887 12.1121C10.8687 11.9041 11.4047 11.8 11.9966 11.8C12.6206 11.8 13.1847 11.916 13.6886 12.1481C14.2007 12.38 14.6006 12.708 14.8887 13.1321C15.1847 13.556 15.3326 14.04 15.3326 14.5841V14.692C15.3326 14.7186 15.3291 14.7426 15.3219 14.7638C15.3138 14.7871 15.3014 14.8073 15.2847 14.8241C15.2653 14.8435 15.2412 14.8571 15.2128 14.8647C15.1946 14.8696 15.1746 14.8721 15.1526 14.8721H13.2926C13.2367 14.8721 13.1926 14.8561 13.1606 14.8241C13.1287 14.792 13.1127 14.748 13.1127 14.692V14.6801C13.1127 14.4401 13.0046 14.224 12.7887 14.0321C12.5726 13.832 12.2806 13.7321 11.9126 13.7321C11.6566 13.7321 11.4526 13.7841 11.3007 13.8881C11.1566 13.9921 11.0846 14.1361 11.0846 14.3201C11.0846 14.464 11.1366 14.588 11.2406 14.692C11.3527 14.7881 11.5206 14.884 11.7446 14.9801C11.9686 15.068 12.3126 15.1841 12.7766 15.328C12.8407 15.3521 13.1206 15.4401 13.6167 15.592C14.1206 15.7361 14.5406 16.004 14.8766 16.396C15.2126 16.78 15.3806 17.248 15.3806 17.8C15.3806 18.3361 15.2446 18.8 14.9727 19.192C14.7007 19.576 14.3207 19.8721 13.8326 20.0801C13.3446 20.2881 12.7766 20.3921 12.1287 20.3921ZM16.7952 20.2906C16.7632 20.2834 16.7366 20.2693 16.7153 20.248C16.6833 20.2159 16.6674 20.172 16.6674 20.116V12.076C16.6674 12.02 16.6833 11.976 16.7153 11.944C16.7473 11.912 16.7914 11.896 16.8474 11.896H19.9314C20.5793 11.896 21.1514 12.0081 21.6473 12.2321C22.1514 12.4561 22.5393 12.772 22.8114 13.1801C23.0834 13.588 23.2194 14.0599 23.2194 14.5959V17.5959C23.2194 18.132 23.0834 18.604 22.8114 19.012C22.5393 19.42 22.1514 19.736 21.6473 19.96C21.1514 20.184 20.5793 20.296 19.9314 20.296H16.8474C16.8286 20.296 16.8112 20.2942 16.7952 20.2906Z" fill="#36485C"/>
</svg>
