<svg width="32" height="32" viewBox="0 0 32 32" fill="none" xmlns="http://www.w3.org/2000/svg">
<path d="M18.8979 18.208C18.8979 18.248 18.918 18.2681 18.958 18.2681H19.99C20.262 18.2681 20.486 18.1641 20.662 17.9561C20.7521 17.8455 20.8201 17.7183 20.8662 17.5742C20.9102 17.4368 20.9341 17.2841 20.938 17.1161V14.884C20.938 14.54 20.85 14.264 20.674 14.056C20.4979 13.8401 20.266 13.7321 19.978 13.7321H18.958C18.918 13.7321 18.8979 13.7521 18.8979 13.792V18.208Z" fill="#36485C"/>
<path fill-rule="evenodd" clip-rule="evenodd" d="M4 10C4 8.89539 4.89551 8 6 8H26C27.1045 8 28 8.89539 28 10V22C28 23.1046 27.1045 24 26 24H6C4.89551 24 4 23.1046 4 22V10ZM13.0659 11.9053C13.074 11.8832 13.0861 11.864 13.1021 11.848C13.134 11.816 13.178 11.8 13.234 11.8H15.13C15.186 11.8 15.23 11.816 15.2621 11.848C15.2941 11.88 15.3101 11.9241 15.3101 11.9801V20.02C15.3101 20.076 15.2941 20.12 15.2621 20.1521C15.23 20.1841 15.186 20.2001 15.13 20.2001H13.234C13.178 20.2001 13.134 20.1841 13.1021 20.1521C13.0823 20.1322 13.0686 20.1079 13.061 20.079C13.0564 20.061 13.0541 20.0414 13.0541 20.02V16.972C13.0541 16.9421 13.0428 16.9235 13.0205 16.9159C13.0129 16.9133 13.0042 16.9121 12.994 16.9121H11.1221C11.0947 16.9121 11.0767 16.9214 11.068 16.9401C11.064 16.9487 11.062 16.9594 11.062 16.972V20.02C11.062 20.076 11.046 20.12 11.014 20.1521C10.9956 20.1705 10.9733 20.1836 10.947 20.1914C10.9275 20.1971 10.9059 20.2001 10.8821 20.2001H8.98608C8.93005 20.2001 8.88599 20.1841 8.854 20.1521C8.82202 20.12 8.80603 20.076 8.80603 20.02V11.9801C8.80603 11.9241 8.82202 11.88 8.854 11.848C8.88599 11.816 8.93005 11.8 8.98608 11.8H10.8821C10.938 11.8 10.9821 11.816 11.014 11.848C11.0342 11.8682 11.048 11.8931 11.0554 11.9227C11.0598 11.9402 11.062 11.9594 11.062 11.9801V14.92C11.062 14.9601 11.082 14.9801 11.1221 14.9801H12.994C13.0341 14.9801 13.0541 14.9601 13.0541 14.92V11.9801C13.0541 11.9521 13.058 11.9272 13.0659 11.9053ZM16.822 20.2001C16.766 20.2001 16.7219 20.1841 16.6899 20.1521C16.658 20.12 16.642 20.076 16.642 20.02V11.9801C16.642 11.9241 16.658 11.88 16.6899 11.848C16.7219 11.816 16.766 11.8 16.822 11.8H19.906C20.554 11.8 21.126 11.9121 21.6219 12.1361C22.126 12.3601 22.5139 12.676 22.786 13.0841C23.058 13.4921 23.194 13.964 23.194 14.5V17.5C23.194 18.036 23.058 18.5081 22.786 18.916C22.5139 19.3241 22.126 19.64 21.6219 19.864C21.126 20.088 20.554 20.2001 19.906 20.2001H16.822Z" fill="#36485C"/>
</svg>
