<svg width="32" height="32" viewBox="0 0 32 32" fill="none" xmlns="http://www.w3.org/2000/svg">
<path d="M18.6753 18.208C18.6753 18.248 18.6953 18.2681 18.7354 18.2681H19.7673C19.9205 18.2681 20.0585 18.2351 20.1812 18.1691C20.2764 18.1179 20.3624 18.0469 20.4393 17.9561C20.6154 17.74 20.7073 17.4601 20.7153 17.1161V14.884C20.7153 14.54 20.6273 14.264 20.4513 14.056C20.3209 13.896 20.1598 13.7953 19.9679 13.7538C19.9008 13.7393 19.83 13.7321 19.7554 13.7321H18.7354C18.6953 13.7321 18.6753 13.7521 18.6753 13.792V18.208Z" fill="#36485C"/>
<path fill-rule="evenodd" clip-rule="evenodd" d="M4 10C4 8.89539 4.89551 8 6 8H26C27.1045 8 28 8.89539 28 10V22C28 23.1046 27.1045 24 26 24H6C4.89551 24 4 23.1046 4 22V10ZM9.20874 20.2001C9.15271 20.2001 9.10864 20.1841 9.07666 20.1521C9.04468 20.12 9.02869 20.076 9.02869 20.02V11.9801C9.02869 11.9241 9.04468 11.88 9.07666 11.848C9.10864 11.816 9.15271 11.8 9.20874 11.8H11.1047C11.1606 11.8 11.2047 11.816 11.2367 11.848C11.2687 11.88 11.2847 11.9241 11.2847 11.9801V18.208C11.2847 18.2294 11.2903 18.245 11.3016 18.2549C11.3116 18.2637 11.326 18.2681 11.3447 18.2681H15.0527C15.0918 18.2681 15.1251 18.2759 15.1525 18.2915C15.1643 18.2982 15.175 18.3064 15.1847 18.316C15.2167 18.348 15.2327 18.3921 15.2327 18.448V20.02C15.2327 20.076 15.2167 20.12 15.1847 20.1521C15.1696 20.1672 15.1517 20.1788 15.1311 20.1868C15.1083 20.1957 15.0822 20.2001 15.0527 20.2001H9.20874ZM16.5994 20.2001C16.5433 20.2001 16.4993 20.1841 16.4673 20.1521C16.4353 20.12 16.4193 20.076 16.4193 20.02V11.9801C16.4193 11.9493 16.4241 11.9222 16.4337 11.8988C16.4417 11.8794 16.4529 11.8624 16.4673 11.848C16.4993 11.816 16.5433 11.8 16.5994 11.8H19.6833C20.3313 11.8 20.9033 11.9121 21.3993 12.1361C21.9033 12.3601 22.2913 12.676 22.5634 13.0841C22.8353 13.4921 22.9713 13.964 22.9713 14.5V17.5C22.9713 18.036 22.8353 18.5081 22.5634 18.916C22.2913 19.3241 21.9033 19.64 21.3993 19.864C20.9033 20.088 20.3313 20.2001 19.6833 20.2001H16.5994Z" fill="#36485C"/>
</svg>
