<svg width="32" height="32" viewBox="0 0 32 32" fill="none" xmlns="http://www.w3.org/2000/svg">
<path fill-rule="evenodd" clip-rule="evenodd" d="M6 8C4.89545 8 4 8.89539 4 10V22C4 23.1046 4.89545 24 6 24H26C27.1046 24 28 23.1046 28 22V10C28 8.89539 27.1046 8 26 8H6ZM15.05 16.156C15.106 16.156 15.15 16.172 15.182 16.2041C15.214 16.2361 15.23 16.28 15.23 16.3361V17.968C15.23 18.024 15.214 18.068 15.182 18.1001C15.15 18.1321 15.106 18.1481 15.05 18.1481H14.606C14.566 18.1481 14.546 18.1681 14.546 18.208V20.02C14.546 20.076 14.53 20.12 14.498 20.1521C14.466 20.1841 14.422 20.2001 14.366 20.2001H12.554C12.498 20.2001 12.454 20.1841 12.422 20.1521C12.39 20.12 12.374 20.076 12.374 20.02V18.208C12.374 18.183 12.3661 18.1658 12.3503 18.1564C12.341 18.1509 12.3289 18.1481 12.314 18.1481H8.83398C8.77802 18.1481 8.73401 18.1321 8.70197 18.1001C8.66998 18.068 8.65399 18.024 8.65399 17.968V16.696C8.65399 16.6625 8.65973 16.6218 8.6712 16.574C8.67889 16.5419 8.68915 16.5066 8.70197 16.468L10.49 11.9441C10.53 11.848 10.602 11.8 10.706 11.8H12.638C12.702 11.8 12.746 11.8201 12.77 11.8601C12.7816 11.8716 12.7894 11.8853 12.7937 11.901C12.8012 11.9288 12.7973 11.9631 12.782 12.004L11.174 16.0841C11.166 16.1001 11.166 16.1161 11.174 16.1321C11.19 16.1481 11.206 16.156 11.222 16.156H12.314C12.3409 16.156 12.3587 16.1471 12.3675 16.129C12.3718 16.1202 12.374 16.1093 12.374 16.0961V14.9081C12.374 14.8521 12.39 14.8081 12.422 14.776C12.454 14.744 12.498 14.728 12.554 14.728H14.366C14.422 14.728 14.466 14.744 14.498 14.776C14.53 14.8081 14.546 14.8521 14.546 14.9081V16.0961C14.546 16.1361 14.566 16.156 14.606 16.156H15.05ZM16.506 20.2001C16.45 20.2001 16.406 20.1841 16.374 20.1521C16.3568 20.1349 16.3442 20.1143 16.3362 20.0901C16.3294 20.0693 16.326 20.0459 16.326 20.02V11.9801C16.326 11.9241 16.342 11.88 16.374 11.848C16.406 11.816 16.45 11.8 16.506 11.8H18.402C18.458 11.8 18.502 11.816 18.534 11.848C18.566 11.88 18.582 11.9241 18.582 11.9801V14.848C18.582 14.8721 18.59 14.8881 18.606 14.896C18.622 14.9041 18.638 14.896 18.654 14.8721L20.742 11.9081C20.79 11.8361 20.866 11.8 20.97 11.8H23.118C23.1821 11.8 23.2249 11.8162 23.2461 11.8483C23.2567 11.8643 23.262 11.8842 23.262 11.9081C23.262 11.9401 23.25 11.9761 23.226 12.016L20.73 15.484C20.714 15.5081 20.714 15.536 20.73 15.568L23.31 19.984C23.334 20.016 23.346 20.052 23.346 20.092C23.346 20.1641 23.294 20.2001 23.19 20.2001H21.066C20.962 20.2001 20.89 20.16 20.85 20.0801L19.194 17.1281C19.186 17.104 19.174 17.092 19.158 17.092C19.142 17.092 19.126 17.104 19.11 17.1281L18.606 17.896C18.59 17.9281 18.582 17.952 18.582 17.968V20.02C18.582 20.076 18.566 20.12 18.534 20.1521C18.502 20.1841 18.458 20.2001 18.402 20.2001H16.506Z" fill="#36485C"/>
</svg>
