<svg width="32" height="32" viewBox="0 0 32 32" fill="none" xmlns="http://www.w3.org/2000/svg">
<path d="M22.14 18.2681C22.092 18.2681 22.0679 18.244 22.0679 18.196V13.8041C22.0679 13.7749 22.0768 13.7546 22.0945 13.7432C22.106 13.7357 22.1211 13.7321 22.14 13.7321H22.7159C22.9319 13.7321 23.1039 13.812 23.2319 13.972C23.3679 14.1321 23.436 14.344 23.436 14.608V17.38C23.428 17.644 23.356 17.8561 23.22 18.016C23.092 18.176 22.928 18.2561 22.728 18.2561L22.14 18.2681Z" fill="#36485C"/>
<path fill-rule="evenodd" clip-rule="evenodd" d="M6 8C4.89545 8 4 8.89539 4 10V22C4 23.1046 4.89545 24 6 24H26C27.1046 24 28 23.1046 28 22V10C28 8.89539 27.1046 8 26 8H6ZM11.744 13.552C11.744 13.608 11.728 13.6521 11.696 13.6841C11.6641 13.7161 11.6201 13.7321 11.564 13.7321H8.63605C8.58807 13.7321 8.56403 13.7561 8.56403 13.8041V14.932C8.56403 14.9801 8.58807 15.004 8.63605 15.004H10.3281C10.3604 15.004 10.3887 15.0094 10.413 15.02C10.4308 15.0278 10.4465 15.0385 10.46 15.052C10.4921 15.0841 10.5081 15.1281 10.5081 15.1841V16.744C10.5081 16.8 10.4921 16.844 10.46 16.8761C10.428 16.9081 10.384 16.9241 10.3281 16.9241H8.63605C8.58807 16.9241 8.56403 16.948 8.56403 16.9961V20.02C8.56403 20.076 8.54803 20.12 8.51605 20.1521C8.48407 20.1841 8.44006 20.2001 8.38403 20.2001H6.48804C6.43207 20.2001 6.38806 20.1841 6.35602 20.1521C6.32404 20.12 6.30804 20.076 6.30804 20.02V11.9801C6.30804 11.9614 6.30981 11.944 6.31342 11.9279C6.32056 11.8959 6.33472 11.8693 6.35602 11.848C6.38806 11.816 6.43207 11.8 6.48804 11.8H11.564C11.6201 11.8 11.6641 11.816 11.696 11.848C11.728 11.88 11.744 11.9241 11.744 11.9801V13.552ZM16.374 11.848C16.342 11.88 16.326 11.9241 16.326 11.9801V14.932C16.326 14.9801 16.302 15.004 16.254 15.004H15.054C15.006 15.004 14.982 14.9801 14.982 14.932V11.9801C14.982 11.9241 14.966 11.88 14.934 11.848C14.9194 11.8335 14.9023 11.8221 14.8828 11.8142C14.8594 11.8048 14.8325 11.8 14.802 11.8H12.906C12.85 11.8 12.806 11.816 12.774 11.848C12.742 11.88 12.726 11.9241 12.726 11.9801V20.02C12.726 20.076 12.742 20.12 12.774 20.1521C12.7902 20.1683 12.8095 20.1804 12.8319 20.1884C12.8537 20.1962 12.8784 20.2001 12.906 20.2001H14.802C14.858 20.2001 14.902 20.1841 14.934 20.1521C14.966 20.12 14.982 20.076 14.982 20.02V17.0081C14.982 16.9601 15.006 16.936 15.054 16.936H16.254C16.302 16.936 16.326 16.9601 16.326 17.0081V20.02C16.326 20.076 16.342 20.12 16.374 20.1521C16.406 20.1841 16.45 20.2001 16.506 20.2001H18.402C18.458 20.2001 18.502 20.1841 18.534 20.1521C18.566 20.12 18.582 20.076 18.582 20.02V11.9801C18.582 11.9241 18.566 11.88 18.534 11.848C18.502 11.816 18.458 11.8 18.402 11.8H16.506C16.45 11.8 16.406 11.816 16.374 11.848ZM19.8599 20.1521C19.892 20.1841 19.936 20.2001 19.9919 20.2001H22.7159C23.3079 20.2001 23.8279 20.0961 24.2759 19.8881C24.7239 19.672 25.072 19.3721 25.3199 18.988C25.5679 18.5961 25.692 18.1481 25.692 17.644V14.344C25.692 13.8401 25.5679 13.396 25.3199 13.0121C25.072 12.6281 24.7239 12.332 24.2759 12.124C23.8279 11.9081 23.3079 11.8 22.7159 11.8H19.9919C19.936 11.8 19.892 11.816 19.8599 11.848C19.8279 11.88 19.812 11.9241 19.812 11.9801V20.02C19.812 20.076 19.8279 20.12 19.8599 20.1521Z" fill="#36485C"/>
</svg>
