<svg width="32" height="32" viewBox="0 0 32 32" fill="none" xmlns="http://www.w3.org/2000/svg">
<path d="M22 14V8C22 6.4087 21.3679 4.88258 20.2426 3.75736C19.1174 2.63214 17.5913 2 16 2C14.4087 2 12.8826 2.63214 11.7573 3.75736C10.6321 4.88258 9.99999 6.4087 9.99999 8V14C9.02457 14 7.3355 14 6.49914 14C6.223 14 6.00028 14.2239 6.00027 14.5L6 29.5C5.99999 29.7761 6.22385 30 6.5 30H25.5C25.7761 30 26 29.7766 26 29.5004C26 24.7566 26 16.5856 26 14.4973C26 14.2212 25.7773 14 25.5011 14C24.6647 14 22.9755 14 22 14ZM12 8C12 6.93913 12.4214 5.92172 13.1716 5.17157C13.9217 4.42143 14.9391 4 16 4C17.0609 4 18.0783 4.42143 18.8284 5.17157C19.5786 5.92172 20 6.93913 20 8V14H12V8ZM24 28H7.99999V16H24V28Z" fill="#36485C"/>
</svg>
