<svg width="32" height="32" viewBox="0 0 32 32" fill="none" xmlns="http://www.w3.org/2000/svg">
<path d="M16.5005 2.00031C20.0318 2.12659 23.3926 3.58576 25.8999 6.09459C28.5253 8.72166 30.0005 12.2848 30.0005 16C30.0005 19.7152 28.5253 23.2783 25.8999 25.9054C23.3926 28.4142 20.0318 29.8734 16.5005 29.9997C16.2246 30.0095 16.0005 29.7845 16.0005 29.5082V28.5076C16.0005 28.2314 16.2238 28.0082 16.4996 27.9965C19.5003 27.8714 22.3526 26.624 24.4849 24.4905C26.7353 22.2387 28.0005 19.1845 28.0005 16C28.0005 12.8155 26.7353 9.76131 24.4849 7.50951C22.3526 5.37604 19.5003 4.12857 16.4996 4.00348C16.2238 3.99177 16.0005 3.7686 16.0005 3.49243V2.49182C16.0005 2.21551 16.2246 1.99045 16.5005 2.00031Z" fill="#36485C"/>
<path d="M7.91948 25.5419C8.09564 25.3244 8.41479 25.2947 8.63627 25.4657C9.4826 26.1197 10.4131 26.6578 11.4019 27.0653C11.6579 27.1709 11.7916 27.4581 11.6958 27.718L11.3531 28.6493C11.2576 28.9082 10.9697 29.042 10.7144 28.9375C9.51607 28.4472 8.39279 27.79 7.37749 26.9861C7.16477 26.8177 7.13663 26.5083 7.30717 26.2973L7.91948 25.5419Z" fill="#36485C"/>
<path d="M3.68217 18.1058C3.95965 18.049 4.22742 18.2339 4.28569 18.5113C4.50871 19.5728 4.86959 20.6008 5.35893 21.5688C5.48214 21.8125 5.39995 22.1132 5.16362 22.2499L4.2935 22.7541C4.05437 22.8924 3.74728 22.8105 3.61772 22.5665C3.00421 21.409 2.5548 20.1711 2.28276 18.8894C2.22651 18.6244 2.40128 18.3683 2.66655 18.3139L3.68217 18.1058Z" fill="#36485C"/>
<path d="M20.2369 12.3513C20.4321 12.1562 20.7487 12.156 20.9439 12.3513L21.646 13.0549C21.8413 13.2502 21.8413 13.5669 21.646 13.7623L14.354 21.0597C14.1588 21.2551 13.8413 21.2551 13.646 21.0597L10.354 17.7647C10.1588 17.5694 10.1588 17.2527 10.354 17.0573L11.0562 16.3537C11.2514 16.1584 11.5679 16.1585 11.7632 16.3537L14.0005 18.5914L20.2369 12.3513Z" fill="#36485C"/>
<path d="M3.61967 9.44036C3.74771 9.19332 4.05658 9.10971 4.29741 9.24884L5.16362 9.75012C5.40009 9.8869 5.48209 10.1873 5.35893 10.4312C4.87887 11.3813 4.5272 12.3914 4.31206 13.434C4.25582 13.7056 3.99752 13.8909 3.72416 13.8444L2.71538 13.6724C2.44231 13.626 2.25787 13.3661 2.31499 13.0949C2.58279 11.8234 3.02178 10.594 3.61967 9.44036Z" fill="#36485C"/>
<path d="M10.6626 3.06736C10.9184 2.96058 11.2083 3.09352 11.3042 3.35367L11.648 4.2849C11.7433 4.54345 11.6108 4.82967 11.357 4.93666C10.3843 5.34612 9.46979 5.88263 8.63725 6.53138C8.4158 6.70395 8.09426 6.67433 7.91752 6.45614L7.3062 5.70177C7.1357 5.49128 7.16289 5.18184 7.37456 5.01288C8.37489 4.21471 9.4819 3.56031 10.6626 3.06736Z" fill="#36485C"/>
</svg>
