<svg width="32" height="32" viewBox="0 0 32 32" fill="none" xmlns="http://www.w3.org/2000/svg">
<path d="M6.01251 18.4999C5.99871 18.2241 5.77616 18 5.50002 18H4.50002C4.22388 18 3.99893 18.224 4.01043 18.4999C4.10206 20.6981 4.79655 22.8323 6.02238 24.6669C7.34096 26.6403 9.2151 28.1783 11.4078 29.0866C13.6005 29.9948 16.0133 30.2325 18.3411 29.7695C20.6689 29.3064 22.8071 28.1636 24.4853 26.4853C26.1635 24.8071 27.3064 22.6689 27.7694 20.3411C28.2325 18.0134 27.9948 15.6006 27.0866 13.4078C26.1783 11.2151 24.6403 9.34098 22.6669 8.0224C20.6935 6.70383 18.3734 6.00004 16 6.00004H7.81492L11.0501 2.76613C11.2448 2.57145 11.2455 2.25595 11.0516 2.06042L10.3536 1.35654C10.1585 1.15989 9.84083 1.15923 9.64499 1.35506L4.35357 6.64649C4.15831 6.84175 4.15831 7.15833 4.35357 7.35359L9.64492 12.6449C9.84078 12.8408 10.1586 12.8401 10.3536 12.6434L11.0519 11.9389C11.2457 11.7434 11.245 11.4281 11.0504 11.2334L7.81792 8.00004H16C17.9778 8.00004 19.9112 8.58653 21.5557 9.68534C23.2002 10.7842 24.4819 12.3459 25.2388 14.1732C25.9957 16.0005 26.1937 18.0111 25.8079 19.9509C25.422 21.8908 24.4696 23.6726 23.0711 25.0711C21.6726 26.4696 19.8907 27.422 17.9509 27.8079C16.0111 28.1937 14.0004 27.9957 12.1732 27.2388C10.3459 26.482 8.78414 25.2002 7.68532 23.5557C6.67927 22.0501 6.1027 20.3022 6.01251 18.4999Z" fill="#36485C"/>
<path d="M13.8788 23.084C14.5081 23.4894 15.2334 23.692 16.0548 23.692C16.8654 23.692 17.5801 23.484 18.1988 23.068C18.8281 22.6414 19.2654 22.0707 19.5108 21.356C19.6814 20.876 19.7668 20.3534 19.7668 19.788C19.7668 19.1587 19.6868 18.5774 19.5268 18.044C19.3348 17.372 18.9721 16.8494 18.4388 16.476C17.9161 16.092 17.2441 15.9 16.4228 15.9C15.7614 15.9 15.2174 16.076 14.7908 16.428C14.7374 16.46 14.7108 16.444 14.7108 16.38L14.8548 14.284C14.8548 14.2307 14.8814 14.204 14.9348 14.204H18.9348C18.9881 14.204 19.0308 14.188 19.0628 14.156C19.1054 14.1134 19.1268 14.0654 19.1268 14.012V12.46C19.1268 12.4067 19.1054 12.364 19.0628 12.332C19.0308 12.2894 18.9881 12.268 18.9348 12.268H13.0148C12.9508 12.268 12.8974 12.284 12.8548 12.316C12.8228 12.348 12.8068 12.396 12.8068 12.46L12.4228 18.652C12.4228 18.78 12.4814 18.844 12.5988 18.844H14.5828C14.6894 18.844 14.7588 18.7907 14.7908 18.684C14.8974 18.428 15.0628 18.2254 15.2868 18.076C15.5108 17.9267 15.7774 17.852 16.0868 17.852C16.3748 17.852 16.6308 17.9374 16.8548 18.108C17.0788 18.268 17.2388 18.524 17.3348 18.876C17.4201 19.164 17.4628 19.468 17.4628 19.788C17.4628 19.9267 17.4468 20.092 17.4148 20.284C17.3828 20.476 17.3401 20.6414 17.2868 20.78C17.2014 21.0787 17.0468 21.3187 16.8228 21.5C16.6094 21.6707 16.3481 21.756 16.0388 21.756C15.4734 21.756 15.0734 21.4787 14.8388 20.924L14.7428 20.7C14.7214 20.6574 14.7001 20.572 14.6788 20.444C14.6468 20.3267 14.5774 20.268 14.4708 20.268H12.5348C12.4068 20.268 12.3428 20.3267 12.3428 20.444V20.476C12.3961 20.796 12.4708 21.1054 12.5668 21.404C12.8228 22.1187 13.2601 22.6787 13.8788 23.084Z" fill="#36485C"/>
</svg>
