<svg width="32" height="32" viewBox="0 0 32 32" fill="none" xmlns="http://www.w3.org/2000/svg">
<path fill-rule="evenodd" clip-rule="evenodd" d="M27.0717 5.61744C26.8634 5.24164 26.6265 4.91077 26.3528 4.63301C23.5507 1.75732 14.4661 2.46808 8.46965 8.46453C2.47728 14.461 1.74611 23.664 4.64222 26.3436C4.92407 26.605 5.25493 26.8379 5.62256 27.038C7.48114 28.0592 10.3487 28.288 13.4327 27.5813C16.5085 26.8746 19.8008 25.2366 22.5254 22.5121C25.1151 19.9223 26.7204 16.7934 27.4802 13.8319C28.3135 10.5764 28.1215 7.52095 27.0717 5.61744ZM5.16915 23.9581C3.7885 20.7883 5.18958 14.3017 9.75228 9.73898C14.3313 5.15995 20.773 3.428 24.0531 5.19262C21.88 5.45405 19.1922 6.63863 16.4554 8.55848C15.2708 8.03154 12.8649 9.02823 10.99 10.8827C9.20492 12.6473 8.55135 14.7592 8.9394 15.8907C6.78673 18.7868 5.45509 21.6625 5.16915 23.9581ZM10.9164 12.9905C12.2685 11.2218 13.5184 9.97181 15.0788 9.65729C16.7985 10.0208 13.0487 11.9488 11.329 14.653C10.9695 15.2289 9.56438 14.7592 10.9164 12.9905ZM6.54572 25.4368C5.95343 23.4352 7.31775 20.1347 9.92384 16.7076C11.1084 16.8914 13.1467 16.0541 14.797 14.4242C16.3819 12.8557 17.2315 10.8827 17.1416 9.66137C20.291 7.41066 23.3954 6.14029 25.4337 6.53652C26.0832 9.30191 23.326 14.3139 18.8205 18.8154C14.5641 23.0717 9.49085 25.931 6.54572 25.4368ZM23.9714 17.7533C23.232 18.9747 22.3211 20.1593 21.2428 21.2376C20.0092 22.4712 18.6081 23.4883 17.1661 24.2808C14.6172 25.6819 11.9254 26.3763 9.72777 26.3518C12.7628 25.4082 16.4145 23.084 19.7518 19.7467C23.0972 16.4013 25.4215 12.7413 26.361 9.69813C26.4386 12.0673 25.638 15.0043 23.9714 17.7533Z" fill="#36485C"/>
</svg>
