<svg width="32" height="32" viewBox="0 0 32 32" fill="none" xmlns="http://www.w3.org/2000/svg">
<path d="M29.2678 28.5607C29.463 28.3654 29.463 28.0488 29.2678 27.8536L22.0692 20.655C23.8839 18.4764 24.7889 15.682 24.5958 12.8531C24.4026 10.0243 23.1264 7.37879 21.0324 5.46698C18.9384 3.55517 16.188 2.52425 13.3533 2.58866C10.5186 2.65308 7.8179 3.80788 5.81295 5.81283C3.808 7.81778 2.6532 10.5185 2.58878 13.3532C2.52437 16.1879 3.55529 18.9383 5.4671 21.0323C7.37891 23.1262 10.0244 24.4025 12.8532 24.5956C15.6821 24.7887 18.4765 23.8838 20.6551 22.0691L27.8537 29.2677C28.0489 29.4629 28.3655 29.4629 28.5608 29.2677L29.2678 28.5607ZM4.62133 13.6212C4.62133 11.8412 5.14917 10.1011 6.1381 8.62108C7.12704 7.14103 8.53264 5.98748 10.1772 5.30629C11.8217 4.6251 13.6313 4.44687 15.3771 4.79414C17.123 5.14141 18.7266 5.99857 19.9853 7.25725C21.244 8.51592 22.1011 10.1196 22.4484 11.8654C22.7957 13.6112 22.6174 15.4208 21.9362 17.0654C21.2551 18.7099 20.1015 20.1155 18.6215 21.1044C17.1414 22.0934 15.4014 22.6212 13.6213 22.6212C11.2352 22.6186 8.94755 21.6695 7.26029 19.9822C5.57304 18.295 4.62398 16.0073 4.62133 13.6212Z" fill="#36485C"/>
</svg>
