<svg width="32" height="32" viewBox="0 0 32 32" fill="none" xmlns="http://www.w3.org/2000/svg">
<path fill-rule="evenodd" clip-rule="evenodd" d="M12.6667 20.9888C13.6533 21.6481 14.8134 22 16.0001 22C16.7902 22.008 17.5741 21.8583 18.3056 21.5596C19.0372 21.2609 19.7018 20.8193 20.2606 20.2605C20.8194 19.7018 21.261 19.0371 21.5597 18.3055C21.8584 17.574 22.0081 16.7901 22.0001 16C22.0001 14.8133 21.6482 13.6533 20.9889 12.6666C20.3296 11.6799 19.3925 10.9108 18.2962 10.4567C17.1998 10.0026 15.9934 9.88377 14.8295 10.1153C13.6656 10.3468 12.5965 10.9182 11.7574 11.7573C10.9183 12.5965 10.3469 13.6656 10.1154 14.8294C9.88385 15.9933 10.0027 17.1997 10.4568 18.2961C10.9109 19.3924 11.68 20.3295 12.6667 20.9888ZM14.4549 12.2794C14.9458 12.0827 15.4714 11.9877 16.0001 12C16.5287 11.9877 17.0544 12.0827 17.5453 12.2794C18.0361 12.476 18.482 12.7702 18.8559 13.1441C19.2298 13.5181 19.524 13.9639 19.7207 14.4548C19.9173 14.9457 20.0124 15.4713 20.0001 16C20.0124 16.5286 19.9173 17.0543 19.7207 17.5452C19.524 18.036 19.2298 18.4819 18.8559 18.8558C18.482 19.2298 18.0361 19.5239 17.5453 19.7206C17.0544 19.9173 16.5287 20.0123 16.0001 20C15.4714 20.0123 14.9458 19.9173 14.4549 19.7206C13.964 19.5239 13.5181 19.2298 13.1442 18.8558C12.7703 18.4819 12.4761 18.036 12.2795 17.5452C12.0828 17.0543 11.9878 16.5286 12.0001 16C11.9878 15.4713 12.0828 14.9457 12.2795 14.4548C12.4761 13.9639 12.7703 13.5181 13.1442 13.1441C13.5181 12.7702 13.964 12.476 14.4549 12.2794Z" fill="#36485C"/>
<path fill-rule="evenodd" clip-rule="evenodd" d="M27.0001 16.76C27.9356 17.6163 28.8732 18.4683 29.8228 19.3085C30.0025 19.4675 30.0447 19.7315 29.9235 19.9386C29.4146 20.8085 28.9152 21.6839 28.4158 22.5594C27.7483 23.7296 27.0807 24.8998 26.3904 26.0567C26.2717 26.2557 26.0314 26.3461 25.8109 26.2749C24.662 25.9041 23.5189 25.5167 22.3754 25.1292L22.2301 25.08C21.8071 25.3588 21.3662 25.6094 20.9101 25.83C20.8387 26.1826 20.7675 26.5353 20.6963 26.888C20.5162 27.7801 20.3361 28.6722 20.1534 29.5638C20.106 29.7949 19.9034 29.9613 19.6676 29.9629C17.2505 29.9791 14.8321 29.9792 12.415 29.9629C12.1797 29.9613 11.9774 29.7956 11.9296 29.5652C11.7309 28.607 11.5372 27.6477 11.3435 26.6884C11.2858 26.4022 11.228 26.1161 11.1701 25.83C10.7173 25.6093 10.2796 25.3588 9.86011 25.08C8.65923 25.4852 7.45831 25.8896 6.254 26.2843C6.02855 26.3582 5.7824 26.263 5.6647 26.057C4.48504 23.9924 3.28609 21.9361 2.02978 19.9171C1.89703 19.7037 1.94226 19.4251 2.13502 19.2639C3.10682 18.4513 4.05287 17.612 5.00011 16.77V15.24L2.14802 12.651C1.9684 12.4879 1.93183 12.2195 2.06044 12.0139C3.32331 9.99424 4.52828 7.93808 5.7044 5.86666C5.8251 5.65408 6.08162 5.55951 6.31126 5.64331L9.81011 6.91999C10.2331 6.64114 10.674 6.39059 11.1301 6.16999C11.1719 5.96365 11.2135 5.75729 11.2551 5.55093C11.4653 4.50804 11.6755 3.4653 11.9056 2.42659C11.9558 2.19998 12.1564 2.03869 12.3885 2.03733C13.4311 2.03121 14.4738 2.03192 15.5164 2.03262C16.871 2.03354 18.2256 2.03446 19.5802 2.02041C19.8212 2.01791 20.0302 2.18725 20.0772 2.42372C20.3254 3.67303 20.5774 4.92155 20.8301 6.16999C21.2829 6.39065 21.7206 6.6412 22.1401 6.91999C23.3383 6.51566 24.5368 6.11261 25.7378 5.71681C25.9621 5.64289 26.2074 5.73636 26.3262 5.94046C27.514 7.98111 28.7206 10.0105 29.9272 12.04L29.9648 12.1032C30.0893 12.3126 30.0447 12.5812 29.8597 12.7397C29.0758 13.412 28.299 14.0924 27.5221 14.7729C27.3481 14.9253 27.1742 15.0777 27.0001 15.23V16.76ZM21.7801 22.84L25.2101 24L27.5701 20L24.8501 17.53C25.035 16.4949 25.035 15.4351 24.8501 14.4L27.5701 12L25.2101 7.99999L21.7701 9.11999C20.9644 8.44914 20.0517 7.91842 19.0701 7.54999L18.3601 3.99999H13.6401L12.9301 7.58999C11.9407 7.94825 11.023 8.47989 10.2201 9.15999L6.79011 7.99999L4.43011 12L7.15011 14.47C6.9652 15.5051 6.9652 16.5649 7.15011 17.6L4.43011 20L6.79011 24L10.2301 22.88C11.0358 23.5508 11.9485 24.0816 12.9301 24.45L13.6401 28H18.3601L19.0701 24.41C20.0595 24.0517 20.9772 23.5201 21.7801 22.84Z" fill="#36485C"/>
</svg>
