<svg width="32" height="32" viewBox="0 0 32 32" fill="none" xmlns="http://www.w3.org/2000/svg">
<path d="M25.1715 15L19.9393 20.2322C19.744 20.4275 19.744 20.7441 19.9393 20.9393L20.6464 21.6464C20.8416 21.8417 21.1582 21.8417 21.3535 21.6464L28.6464 14.3535C28.8416 14.1583 28.8416 13.8417 28.6464 13.6464L21.3535 6.35354C21.1582 6.15828 20.8416 6.15828 20.6464 6.35354L19.9393 7.06063C19.744 7.25589 19.744 7.57247 19.9393 7.76773L25.1715 13H16.9999C9.98786 13 4.27246 18.5517 4.00938 25.4993C3.99893 25.7753 4.22378 26 4.49992 26H5.49992C5.77606 26 5.99874 25.7756 6.01109 25.4998C6.27259 19.6568 11.0924 15 16.9999 15H25.1715Z" fill="#36485C"/>
</svg>
