<svg width="32" height="32" viewBox="0 0 32 32" fill="none" xmlns="http://www.w3.org/2000/svg">
<path d="M3.5 4H2.5C2.22386 4 2 4.22386 2 4.5V27.5C2 27.7761 2.22386 28 2.5 28H3.5C3.77614 28 4 27.7761 4 27.5V4.5C4 4.22386 3.77614 4 3.5 4Z" fill="#36485C"/>
<path d="M20 27.5254V20.2953L29.5278 27.9421C29.7409 28.1132 30 27.8845 30 27.5254V4.47455C30 4.11545 29.7409 3.88683 29.5278 4.05787L20 11.7049V4.47455C20 4.11545 19.7409 3.88683 19.5278 4.05787L5.1675 15.5835C4.94417 15.7627 4.94417 16.2376 5.1675 16.4169L19.5278 27.9421C19.7409 28.1132 20 27.8845 20 27.5254Z" fill="#36485C"/>
</svg>
