<svg width="32" height="32" viewBox="0 0 32 32" fill="none" xmlns="http://www.w3.org/2000/svg">
<path d="M28.5 4H29.5C29.7761 4 30 4.22386 30 4.5V27.5C30 27.7761 29.7761 28 29.5 28H28.5C28.2239 28 28 27.7761 28 27.5V4.5C28 4.22386 28.2239 4 28.5 4Z" fill="#36485C"/>
<path d="M12 27.5254V20.2953L2.47215 27.9421C2.25905 28.1132 2 27.8845 2 27.5254V4.47455C2 4.11545 2.25906 3.88683 2.47216 4.05787L12 11.7049V4.47455C12 4.11545 12.2591 3.88683 12.4722 4.05787L26.8325 15.5835C27.0558 15.7627 27.0558 16.2376 26.8325 16.4169L12.4722 27.9421C12.2591 28.1132 12 27.8845 12 27.5254Z" fill="#36485C"/>
</svg>
