<svg width="32" height="32" viewBox="0 0 32 32" fill="none" xmlns="http://www.w3.org/2000/svg">
<path d="M15.6738 11.0043C17.1651 10.9576 18.6453 11.246 20.0059 11.8442C20.3145 11.98 20.3762 12.382 20.1377 12.6205L19.3613 13.3969C19.2171 13.5411 18.9995 13.581 18.8086 13.5092C17.9117 13.1717 16.9602 12.9985 16 12.9994C13.879 13.0019 11.8455 13.8463 10.3457 15.3461C8.96427 16.7277 8.13989 18.5619 8.0166 20.5004C7.99911 20.7756 7.77671 20.9992 7.50098 20.9994H6.49902C6.22329 20.9993 5.99831 20.7758 6.01172 20.5004C6.08701 18.9544 6.52133 17.4444 7.28223 16.0912C8.12486 14.5929 9.33951 13.3368 10.8096 12.4457C12.2798 11.5546 13.9555 11.0581 15.6738 11.0043Z" fill="#36485C"/>
<path d="M24.3809 16.8617C24.6192 16.6237 25.0203 16.6853 25.1562 16.9936C25.6447 18.1014 25.9264 19.2902 25.9873 20.5004C26.001 20.776 25.776 20.9994 25.5 20.9994H24.501C24.2246 20.9994 24.0015 20.7752 23.9844 20.4994C23.9354 19.71 23.7691 18.9316 23.4902 18.1908C23.4185 18 23.4594 17.7833 23.6035 17.6391L24.3809 16.8617Z" fill="#36485C"/>
<path fill-rule="evenodd" clip-rule="evenodd" d="M13.2686 7.26896C15.9843 6.72877 18.7993 7.00622 21.3574 8.06583C23.9156 9.12545 26.1023 10.9198 27.6406 13.2221C29.1788 15.5242 29.9999 18.2308 30 20.9994V23.4994C30 23.7756 29.7761 23.9994 29.5 23.9994H2.5C2.22386 23.9994 2 23.7756 2 23.4994V20.9994H2.00195C2.00198 20.0871 2.08889 19.1724 2.26855 18.269C2.80875 15.5533 4.1427 13.0579 6.10059 11.1C8.05843 9.14226 10.553 7.80916 13.2686 7.26896ZM16 8.99942C13.6267 8.99943 11.3064 9.70334 9.33301 11.0219C7.35966 12.3404 5.82133 14.215 4.91309 16.4076C4.30723 17.8704 4.00203 19.4314 4.00195 20.9994H4V21.9994H13.1719C13.1243 21.8648 13.0857 21.7265 13.0576 21.5854C12.9419 21.0034 13.0015 20.4001 13.2285 19.852C13.4556 19.3038 13.8397 18.8349 14.333 18.5053C14.8264 18.1756 15.4067 17.9994 16 17.9994C16.4455 18.0018 16.8848 18.1048 17.2852 18.3002L21.6465 13.9389C21.8417 13.7439 22.1583 13.7439 22.3535 13.9389L23.0605 14.6459C23.2557 14.8411 23.2556 15.1577 23.0605 15.3529L18.6992 19.7143C18.8946 20.1145 18.9976 20.554 19 20.9994C19 21.342 18.9392 21.6798 18.8262 21.9994H28V20.9994C27.9963 17.8183 26.7308 14.7685 24.4814 12.519C22.2318 10.2693 19.1815 9.00305 16 8.99942ZM15.8047 20.019C15.6109 20.0575 15.4327 20.1527 15.293 20.2924C15.1531 20.4322 15.0581 20.6111 15.0195 20.8051C14.981 20.9989 15.0006 21.1997 15.0762 21.3822C15.1519 21.565 15.2799 21.7216 15.4443 21.8315C15.6088 21.9413 15.8022 21.9994 16 21.9994C16.2651 21.9991 16.5196 21.8939 16.707 21.7065C16.8944 21.519 16.9997 21.2644 17 20.9994C16.9999 20.8018 16.9408 20.609 16.8311 20.4447C16.7212 20.2803 16.5655 20.1513 16.3828 20.0756C16.2001 19.9999 15.9987 19.9804 15.8047 20.019Z" fill="#36485C"/>
</svg>
