<svg width="32" height="32" viewBox="0 0 32 32" fill="none" xmlns="http://www.w3.org/2000/svg">
<path fill-rule="evenodd" clip-rule="evenodd" d="M16 3C8.82026 3 3 8.82026 3 16C3 23.1797 8.82026 29 16 29C23.1797 29 29 23.1797 29 16C29 8.82026 23.1797 3 16 3ZM15.7281 4.63137C15.7621 4.70359 15.8258 4.79706 15.9278 4.92026C15.9958 5.00098 16.068 5.06895 16.1444 5.14118C16.0722 5.39183 15.9788 5.65948 15.8683 5.94412C15.8046 5.88464 15.7621 5.82516 15.7536 5.77418C15.6771 5.21765 14.734 5.47255 15.1291 6.18627C15.1843 6.40294 15.299 6.61961 15.4775 6.80654C15.3118 7.13791 15.1248 7.48627 14.9124 7.83889C14.768 7.44804 14.7085 7.16765 14.6448 6.98922C14.4791 6.5134 14.0415 6.98072 13.9863 7.26536C14.067 7.89837 14.2114 8.33595 14.4069 8.64608C14.169 9.00294 13.9098 9.36405 13.6294 9.73366C13.5572 9.25784 13.5062 8.76928 13.4255 8.53987C13.2598 8.06405 12.7925 8.3232 12.733 8.61209C12.6735 9.48726 12.7712 10.1075 12.9794 10.5408C12.6905 10.885 12.3846 11.2291 12.0575 11.5732C12.0405 11.5307 12.032 11.4967 12.0235 11.4627C11.9725 10.9444 11.9598 10.3794 11.8876 10.1203C11.7559 9.63595 11.2716 9.86536 11.1908 10.1458C11.0591 11.1356 11.1101 11.8281 11.3056 12.3209C11.0209 12.5971 10.7235 12.8732 10.4134 13.1451C10.4049 13.1154 10.3964 13.0856 10.3964 13.0644C10.3794 12.5461 10.3964 11.9768 10.3454 11.7176C10.2435 11.2248 9.74641 11.4245 9.64869 11.7007C9.44477 12.7245 9.43628 13.3788 9.58497 13.8376C9.31732 14.05 9.04542 14.2624 8.76503 14.4706C8.75654 14.016 8.76503 13.5657 8.7183 13.3448C8.61634 12.852 8.11928 13.0516 8.02157 13.3278C7.86863 14.1052 7.83889 14.6575 7.91111 15.0696C7.61373 15.2693 7.31209 15.4647 7.00196 15.6559C7.05294 15.2056 7.13791 14.6618 7.11667 14.4663C7.06144 14.0075 6.5134 14.4451 6.40294 14.6915C6.28824 15.2863 6.22876 15.7408 6.22876 16.1062C5.94837 16.2634 5.65948 16.4163 5.36634 16.565C5.40033 16.1699 5.4598 15.8046 5.43431 15.6007C5.37909 15.1418 4.97124 15.333 4.86078 15.5794C4.77157 15.8088 4.69085 16.017 4.62288 16.2167C4.62288 16.1402 4.61863 16.068 4.61863 15.9958C4.62288 9.81013 9.57222 4.77582 15.7281 4.63137ZM15.8003 25.0873C15.5369 25.0065 15.2268 24.9641 14.8572 24.9768C14.1987 25.0065 14.1647 25.631 14.785 25.6905C14.8699 25.699 15.1546 25.8052 15.4562 25.9497C15.3627 26.2173 14.9974 26.4892 14.9252 26.7654C14.2879 26.5062 13.1833 26.5784 13.1833 27.1392V27.1435C8.48889 26.2386 5.40882 22.6572 4.55065 18.1327C4.5549 18.1327 4.69935 18.1284 4.70359 18.1284C4.88203 18.3536 5.19216 18.583 5.52778 18.8379C6.00784 19.2075 6.46667 18.6425 5.91438 18.1157C5.77843 17.9882 5.68922 17.8565 5.6085 17.7248C5.87614 17.5804 6.19477 17.402 6.53889 17.2023C6.74706 17.4572 7.06144 17.6526 7.47778 17.8778C8.01307 18.1624 8.55686 17.4105 7.95359 17.1768C7.65196 17.0578 7.44379 16.9049 7.29935 16.7392C7.65196 16.5183 8.02582 16.2719 8.41667 16.0042C8.67582 16.2337 9.01144 16.4036 9.38529 16.616C9.95882 16.9474 10.2477 16.0977 9.70817 15.7833C9.5 15.6601 9.33856 15.5454 9.21536 15.4392C9.55523 15.1928 9.89935 14.9294 10.2477 14.6575C10.4729 14.8062 10.7448 14.9379 11.0592 15.0824C11.7729 15.4137 12.3804 14.5938 11.5987 14.3176C11.382 14.2412 11.1993 14.1307 11.0422 14.0075C11.365 13.7356 11.6837 13.4552 12.0023 13.1621C12.2827 13.3405 12.6183 13.451 12.9964 13.5359C13.6422 13.6761 13.9863 12.9199 13.298 12.6438C13.1154 12.5716 12.9539 12.4824 12.8095 12.3846C13.1493 12.0448 13.4807 11.6879 13.7993 11.3225C14.135 11.4585 14.5301 11.4925 14.9422 11.4755C15.6007 11.4458 15.7408 10.6513 15.1206 10.5876C14.8954 10.5663 14.6915 10.5196 14.5088 10.4644C14.802 10.0905 15.0781 9.70392 15.3373 9.30882C15.7069 9.39804 16.1317 9.40229 16.5863 9.42353C17.1003 9.44902 16.9389 8.59085 16.616 8.60359C16.2889 8.62059 16 8.62484 15.7621 8.61209C16.0127 8.18301 16.2337 7.74543 16.4333 7.2951C16.65 7.34183 16.8964 7.36732 17.1768 7.35458C17.8353 7.32484 17.8693 6.70033 17.249 6.64085C17.1853 6.63235 16.9899 6.56438 16.7647 6.46667C16.8624 6.19052 16.9431 5.91438 17.0154 5.62974C17.5931 5.80392 18.1454 5.69771 18.2941 5.19216C18.3281 5.0732 18.3281 4.96275 18.2984 4.86078C22.9248 5.81242 26.5232 9.57222 27.2412 14.2794C27.0585 14.0373 26.7993 13.7824 26.434 13.502C25.9539 13.1324 25.5333 13.6974 26.0856 14.2242C26.2471 14.3771 26.3575 14.5301 26.4425 14.6788C26.1748 14.8232 25.869 14.9931 25.5291 15.1928C25.3252 14.9082 24.998 14.7 24.5477 14.4621C24.0124 14.1775 23.4729 14.9294 24.0719 15.1631C24.4075 15.2948 24.6284 15.4732 24.7729 15.6559C24.4245 15.8768 24.0507 16.119 23.6641 16.3866C23.4007 16.1317 23.0438 15.9533 22.6402 15.7239C22.0667 15.3967 21.7778 16.2422 22.3173 16.5565C22.5637 16.701 22.7379 16.8327 22.8696 16.9516C22.534 17.198 22.1941 17.4572 21.85 17.7333C21.6078 17.5634 21.3147 17.419 20.9663 17.2575C20.2526 16.9261 19.6451 17.7461 20.4268 18.0222C20.6775 18.1114 20.8856 18.2474 21.0556 18.3918C20.7412 18.6637 20.4268 18.9441 20.1167 19.2373C19.8193 19.0248 19.4497 18.8931 19.0248 18.7997C18.3791 18.6595 18.035 19.4157 18.7232 19.6918C18.9484 19.781 19.1438 19.9 19.3137 20.0232C18.9866 20.3588 18.668 20.7114 18.3621 21.0725C17.9967 20.8814 17.5507 20.8389 17.0791 20.8559C16.4206 20.8856 16.2804 21.6801 16.9007 21.7438C17.1938 21.7735 17.4529 21.8373 17.6739 21.9222C17.3892 22.2961 17.1216 22.6827 16.8667 23.0778C16.4546 22.9333 15.966 22.9333 15.435 22.9078C14.9209 22.8824 15.0824 23.7405 15.4052 23.7278C15.8386 23.7065 16.2082 23.7023 16.4716 23.7363C16.2294 24.1781 16 24.6284 15.8003 25.0873ZM16.0637 27.3729C16.0467 27.3559 16.0297 27.3346 16.0127 27.3176C16.0807 27.0797 16.1657 26.8206 16.2719 26.5487C16.2719 26.5529 16.2761 26.5572 16.2761 26.5572C16.3526 27.1137 17.2958 26.8588 16.9007 26.1451C16.8582 25.9794 16.7817 25.8137 16.667 25.6608C16.8199 25.3507 16.9941 25.0278 17.1853 24.6964C17.2788 24.9768 17.3297 25.1935 17.3807 25.3379C17.5464 25.8137 17.984 25.3464 18.0392 25.0618C17.9712 24.535 17.8608 24.1441 17.7121 23.851C17.933 23.5196 18.1752 23.1797 18.4301 22.8356C18.4853 23.2265 18.532 23.6003 18.5958 23.7915C18.7614 24.2673 19.2288 24.0082 19.2882 23.7193C19.3392 22.9546 19.2712 22.3853 19.1183 21.9647C19.3987 21.6291 19.6918 21.2935 20.0062 20.9578C20.0487 21.4507 20.0657 21.969 20.1337 22.2111C20.2654 22.6954 20.7497 22.466 20.8304 22.1856C20.9493 21.302 20.9196 20.652 20.7709 20.1719C21.0471 19.9 21.3317 19.6324 21.6291 19.369C21.6418 19.8575 21.6291 20.3716 21.6801 20.6137C21.782 21.1065 22.2791 20.9069 22.3768 20.6307C22.5595 19.7131 22.585 19.0886 22.483 18.6425C22.7379 18.4343 22.9971 18.2304 23.2605 18.0265C23.2647 18.4216 23.2647 18.7954 23.3072 18.9909C23.4092 19.4837 23.9062 19.284 24.0039 19.0078C24.1399 18.3111 24.1739 17.7971 24.1314 17.402C24.416 17.2023 24.7092 17.0111 25.0108 16.8242C24.9598 17.2405 24.8918 17.6951 24.9131 17.8693C24.9683 18.3281 25.5163 17.8905 25.6268 17.6441C25.7288 17.1131 25.7882 16.6925 25.801 16.3441C26.0814 16.1827 26.366 16.0297 26.6549 15.8768C26.6209 16.2294 26.5742 16.5438 26.5954 16.735C26.6507 17.1938 27.0585 17.0026 27.169 16.7562C27.2454 16.5608 27.3134 16.3824 27.3729 16.2124C27.2624 22.3725 22.2493 27.3389 16.0637 27.3729Z" fill="#36485C"/>
</svg>
