<svg width="32" height="32" viewBox="0 0 32 32" fill="none" xmlns="http://www.w3.org/2000/svg">
<path d="M15.6464 10.3535C15.8416 10.1582 15.8416 9.84163 15.6464 9.64637L10.3535 4.35348C10.1582 4.15822 9.84163 4.15822 9.64637 4.35348L4.35348 9.64637C4.15822 9.84163 4.15822 10.1582 4.35348 10.3535L5.06037 11.0604C5.25563 11.2556 5.57222 11.2556 5.76748 11.0604L8.99992 7.82792L8.99993 25.4999C8.99993 25.7761 9.22378 25.9999 9.49993 25.9999H10.4999C10.7761 25.9999 10.9999 25.7761 10.9999 25.4999L10.9999 7.82792L14.2324 11.0604C14.4276 11.2556 14.7442 11.2556 14.9395 11.0604L15.6464 10.3535Z" fill="#36485C"/>
<path d="M16.3535 21.6464C16.1582 21.8416 16.1582 22.1582 16.3535 22.3535L21.6464 27.6464C21.8416 27.8416 22.1582 27.8416 22.3535 27.6464L27.6464 22.3535C27.8416 22.1582 27.8416 21.8416 27.6464 21.6464L26.9395 20.9395C26.7442 20.7442 26.4276 20.7442 26.2324 20.9395L22.9999 24.1719V6.49992C22.9999 6.22378 22.7761 5.99992 22.4999 5.99992L21.4999 5.99992C21.2238 5.99992 20.9999 6.22378 20.9999 6.49992V24.1719L17.7675 20.9395C17.5722 20.7442 17.2556 20.7442 17.0604 20.9395L16.3535 21.6464Z" fill="#36485C"/>
</svg>
