<svg width="32" height="32" viewBox="0 0 32 32" fill="none" xmlns="http://www.w3.org/2000/svg">
<path d="M16 4C17.0927 4 18.1505 4.14837 19.1562 4.4228C19.4735 4.50938 19.6025 4.88112 19.4215 5.15572L18.8321 6.05007C18.7132 6.23053 18.4921 6.31292 18.2817 6.26366C17.5488 6.0921 16.7852 6 16 6C10.4772 6 6 10.4772 6 16C6 21.5228 10.4772 26 16 26C21.5228 26 26 21.5228 26 16C26 15.2207 25.9095 14.4626 25.7405 13.7347C25.6917 13.5244 25.7742 13.3036 25.9546 13.1849L26.8494 12.596C27.1243 12.4152 27.4961 12.5446 27.5822 12.8622C27.8534 13.8624 28 14.914 28 16C28 22.6274 22.6274 28 16 28C9.37258 28 4 22.6274 4 16C4 9.37258 9.37258 4 16 4Z" fill="#36485C"/>
<path d="M21.043 4.51465C21.2173 4.25023 21.5907 4.21251 21.8145 4.43652L27.5674 10.208C27.7908 10.4321 27.7526 10.8046 27.4883 10.9785L11.8408 21.2754C11.6426 21.4058 11.3796 21.3797 11.2119 21.2119L10.791 20.79C10.6236 20.6223 10.5972 20.3601 10.7275 20.1621L21.043 4.51465Z" fill="#36485C"/>
</svg>
