<svg width="32" height="32" viewBox="0 0 32 32" fill="none" xmlns="http://www.w3.org/2000/svg">
<path d="M25.333 27C25.0218 27 24.7867 26.7188 24.8304 26.4106C24.9422 25.6232 25 24.8183 25 24C25 14.6112 17.3888 7 8 7C7.18166 7 6.37682 7.05782 5.58936 7.1696C5.28124 7.21334 5 6.97819 5 6.66698V5.66245C5 5.41654 5.17871 5.20642 5.42238 5.17337C6.26528 5.05905 7.12574 5 8 5C18.4934 5 27 13.5066 27 24C27 24.8743 26.941 25.7347 26.8266 26.5776C26.7936 26.8213 26.5835 27 26.3376 27H25.333Z" fill="#36485C"/>
<path d="M21.2752 27C21.5103 27 21.7145 26.8365 21.758 26.6055C21.9169 25.7613 22 24.8903 22 24C22 16.268 15.732 10 8 10C7.10965 10 6.23872 10.0831 5.39453 10.242C5.16354 10.2855 5 10.4897 5 10.7248V11.7331C5 12.0598 5.30832 12.2985 5.62867 12.2343C6.39524 12.0806 7.18821 12 8 12C14.6274 12 20 17.3726 20 24C20 24.8118 19.9194 25.6048 19.7657 26.3713C19.7015 26.6917 19.9402 27 20.2669 27H21.2752Z" fill="#36485C"/>
<path d="M16.1343 27C16.3462 27 16.5364 26.8668 16.5991 26.6644C16.8597 25.8224 17 24.9276 17 24C17 19.0294 12.9706 15 8 15C7.07241 15 6.17759 15.1403 5.33561 15.4009C5.13318 15.4636 5 15.6538 5 15.8657V16.8826C5 17.2499 5.38476 17.4944 5.73227 17.3755C6.44347 17.1321 7.20631 17 8 17C11.866 17 15 20.134 15 24C15 24.7937 14.8679 25.5565 14.6245 26.2677C14.5056 26.6152 14.7501 27 15.1174 27H16.1343Z" fill="#36485C"/>
<path d="M8 27C6.34315 27 5 25.6569 5 24C5 22.3431 6.34315 21 8 21C9.65685 21 11 22.3431 11 24C11 25.6569 9.65685 27 8 27Z" fill="#36485C"/>
</svg>
