<svg width="32" height="32" viewBox="0 0 32 32" fill="none" xmlns="http://www.w3.org/2000/svg">
<rect width="32" height="32" fill="white"/>
<path d="M16.5 26C16.7761 26 17 26.2239 17 26.5V29.5C17 29.7761 16.7761 30 16.5 30H15.5C15.2239 30 15 29.7761 15 29.5V26.5C15 26.2239 15.2239 26 15.5 26H16.5Z" fill="#36485C"/>
<path d="M7.86816 22.7178C8.0634 22.5225 8.37993 22.5226 8.5752 22.7178L9.2832 23.4248C9.47808 23.62 9.47818 23.9367 9.2832 24.1318L7.16113 26.2529C6.96586 26.4481 6.64934 26.4482 6.4541 26.2529L5.74707 25.5459C5.55192 25.3507 5.55192 25.0341 5.74707 24.8389L7.86816 22.7178Z" fill="#36485C"/>
<path d="M23.4248 22.7178C23.6201 22.5225 23.9366 22.5225 24.1318 22.7178L26.2529 24.8389C26.4482 25.0341 26.4482 25.3506 26.2529 25.5459L25.5459 26.2529C25.3506 26.4482 25.0341 26.4482 24.8389 26.2529L22.7178 24.1318C22.5225 23.9366 22.5225 23.6201 22.7178 23.4248L23.4248 22.7178Z" fill="#36485C"/>
<path fill-rule="evenodd" clip-rule="evenodd" d="M16 8C20.4181 8.00016 23.9998 11.5819 24 16C24 20.4182 20.4182 23.9998 16 24C11.5817 24 8 20.4183 8 16C8.00016 11.5818 11.5818 8 16 8ZM16 10C12.7899 10 10.1686 12.5211 10.0078 15.6914L10 16C10 19.3138 12.6862 22 16 22C19.3137 21.9998 22 19.3136 22 16C21.9998 12.79 19.4787 10.1686 16.3086 10.0078L16 10Z" fill="#36485C"/>
<path d="M5.5 15C5.77614 15 6 15.2239 6 15.5V16.5C6 16.7761 5.77614 17 5.5 17H2.5C2.22386 17 2 16.7761 2 16.5V15.5C2 15.2239 2.22386 15 2.5 15H5.5Z" fill="#36485C"/>
<path d="M29.5 15C29.7761 15 30 15.2239 30 15.5V16.5C30 16.7761 29.7761 17 29.5 17H26.5C26.2239 17 26 16.7761 26 16.5V15.5C26 15.2239 26.2239 15 26.5 15H29.5Z" fill="#36485C"/>
<path d="M6.4541 5.74707C6.64936 5.55181 6.96587 5.55181 7.16113 5.74707L9.28223 7.86816C9.47749 8.06343 9.47749 8.37993 9.28223 8.5752L8.5752 9.28223C8.37993 9.47749 8.06343 9.47749 7.86816 9.28223L5.74707 7.16113C5.55181 6.96587 5.55181 6.64936 5.74707 6.4541L6.4541 5.74707Z" fill="#36485C"/>
<path d="M24.8389 5.74707C25.0341 5.55184 25.3506 5.55189 25.5459 5.74707L26.2529 6.4541C26.4482 6.64936 26.4482 6.96587 26.2529 7.16113L24.1318 9.28223C23.9366 9.47749 23.6201 9.47749 23.4248 9.28223L22.7178 8.5752C22.5226 8.37993 22.5225 8.0634 22.7178 7.86816L24.8389 5.74707Z" fill="#36485C"/>
<path d="M16.5 2C16.7761 2 17 2.22386 17 2.5V5.5C17 5.77614 16.7761 6 16.5 6H15.5C15.2239 6 15 5.77614 15 5.5V2.5C15 2.22386 15.2239 2 15.5 2H16.5Z" fill="#36485C"/>
</svg>
