<svg width="32" height="32" viewBox="0 0 32 32" fill="none" xmlns="http://www.w3.org/2000/svg">
<path d="M29 9.83265C29 7.71662 27.2834 6 25.1631 6C23.0428 6 21.3262 7.71662 21.3262 9.83265C21.3262 11.9487 23.0428 13.6653 25.1631 13.6653C27.2834 13.6653 29 11.9487 29 9.83265Z" fill="#36485C"/>
<path d="M10.277 10.7742C9.08568 11.3685 6.48712 12.6649 4.84409 13.5081C2.91502 14.4981 2.66857 12.0209 3.36542 11.5238C3.66489 11.3114 4.84043 10.5866 6.21978 9.73614C8.06958 8.59559 10.286 7.22899 11.2474 6.56937C12.6923 5.57691 13.2599 6.13541 13.5744 6.44487C13.6262 6.49579 13.6711 6.53996 13.7119 6.56937C15.0617 7.44737 23.986 15.0085 26.2245 16.9051L26.4378 17.0858C26.8075 17.4002 27.0369 17.7741 27.1729 18.1693C26.5568 18.3818 26.0809 18.7004 25.7367 18.9809C25.2481 19.3803 24.9209 19.6437 24.1773 19.6437C23.4337 19.6437 23.1066 19.3803 22.6179 18.9809C22.0485 18.5177 21.3347 17.9399 19.9835 17.9399C18.6384 17.9399 17.9291 18.5126 17.3568 18.9746L17.3491 18.9809C16.8604 19.3803 16.5375 19.6437 15.7897 19.6437C15.0461 19.6437 14.7189 19.3803 14.2303 18.9809C13.6609 18.5177 12.9471 17.9399 11.5958 17.9399C10.2507 17.9399 9.54143 18.5126 8.96916 18.9746L8.96143 18.9809C8.77023 19.1338 8.60026 19.2698 8.42605 19.376C7.9714 19.2656 7.45726 19.1976 6.8454 19.2146C7.05733 19.0466 8.06153 18.1792 9.2893 17.1186C11.3846 15.3086 14.1313 12.936 14.7019 12.5181C14.49 12.3614 14.2993 12.2229 14.1201 12.0927C13.638 11.7425 13.2383 11.4521 12.7303 11.0309C12.0335 10.453 11.4981 10.1598 10.7588 10.5337L10.277 10.7742Z" fill="#36485C"/>
<path d="M24.1816 23.0472C22.8304 23.0472 22.1165 22.4694 21.5471 22.0062C21.0585 21.6068 20.7313 21.3434 19.9877 21.3434C19.2399 21.3434 18.917 21.6068 18.4283 22.0062L18.4206 22.0124C17.8483 22.4745 17.1391 23.0472 15.7939 23.0472C14.4488 23.0472 13.7395 22.4745 13.1672 22.0124L13.1595 22.0062C12.6709 21.6068 12.3437 21.3434 11.6001 21.3434C10.8523 21.3434 10.5293 21.6068 10.0407 22.0062L10.033 22.0124C9.46069 22.4745 8.75142 23.0472 7.40628 23.0472C6.06113 23.0472 5.35186 22.4745 4.77958 22.0124L4.77186 22.0062C4.28322 21.6068 3.74359 21.3434 3 21.3434V19.6395C4.3512 19.6395 5.27325 20.2174 5.84687 20.6805C6.33551 21.0799 6.65844 21.3434 7.40628 21.3434C8.15411 21.3434 8.47704 21.0799 8.96568 20.6805L8.97341 20.6743C9.54568 20.2122 10.255 19.6395 11.6001 19.6395C12.9513 19.6395 13.6651 20.2174 14.2345 20.6805C14.7232 21.0799 15.0503 21.3434 15.7939 21.3434C16.5418 21.3434 16.8647 21.0799 17.3533 20.6805L17.3611 20.6743C17.9333 20.2122 18.6426 19.6395 19.9877 19.6395C21.3389 19.6395 22.0528 20.2174 22.6222 20.6805C23.1108 21.0799 23.438 21.3434 24.1816 21.3434C24.9252 21.3434 25.2523 21.0799 25.741 20.6805C26.3146 20.2174 27.2366 19.6395 28.5878 19.6395V21.3434C27.84 21.3434 27.3046 21.6068 26.8117 22.0062C26.2466 22.4694 25.5328 23.0472 24.1816 23.0472Z" fill="#36485C"/>
<path d="M21.5471 25.8389C22.1165 26.302 22.8304 26.8799 24.1816 26.8799C25.5328 26.8799 26.2466 26.302 26.8117 25.8389C27.3046 25.4395 27.84 25.176 28.5878 25.176V23.4721C27.2366 23.4721 26.3146 24.05 25.741 24.5132C25.2523 24.9126 24.9252 25.176 24.1816 25.176C23.438 25.176 23.1108 24.9126 22.6222 24.5132C22.0528 24.05 21.3389 23.4721 19.9877 23.4721C18.6426 23.4721 17.9333 24.0448 17.361 24.5069L17.3533 24.5132C16.8647 24.9126 16.5418 25.176 15.7939 25.176C15.0503 25.176 14.7232 24.9126 14.2345 24.5132C13.6651 24.05 12.9513 23.4721 11.6001 23.4721C10.255 23.4721 9.54568 24.0448 8.9734 24.5069L8.96568 24.5132C8.47704 24.9126 8.15411 25.176 7.40628 25.176C6.65844 25.176 6.33551 24.9126 5.84687 24.5132C5.27325 24.05 4.3512 23.4721 3 23.4721V25.176C3.74359 25.176 4.28322 25.4395 4.77186 25.8389L4.77958 25.8451C5.35186 26.3072 6.06113 26.8799 7.40628 26.8799C8.75142 26.8799 9.46069 26.3072 10.033 25.8451L10.0407 25.8389C10.5293 25.4395 10.8523 25.176 11.6001 25.176C12.3437 25.176 12.6709 25.4395 13.1595 25.8389L13.1672 25.8451C13.7395 26.3072 14.4488 26.8799 15.7939 26.8799C17.1391 26.8799 17.8483 26.3072 18.4206 25.8451L18.4283 25.8389C18.917 25.4395 19.2399 25.176 19.9877 25.176C20.7313 25.176 21.0585 25.4395 21.5471 25.8389Z" fill="#36485C"/>
</svg>
