<svg width="32" height="32" viewBox="0 0 32 32" fill="none" xmlns="http://www.w3.org/2000/svg">
<path d="M16 26.5C16 26.2239 15.7759 26.0013 15.5001 25.9877C10.2095 25.7272 6 21.3552 6 16C6 11.8994 8.46819 8.3752 12 6.83209V9.5C12 9.77614 12.2239 10 12.5 10L13.5 10C13.7761 10 14 9.77614 14 9.5V4.5C14 4.22386 13.7761 4 13.5 4H7.5C7.22386 4 7 4.22386 7 4.5L7 5.5C7 5.77614 7.22386 6 7.5 6L9.36441 6C6.13102 8.14984 4 11.8261 4 16C4 22.4598 9.10422 27.7274 15.4996 27.9898C15.7755 28.0011 16 27.7761 16 27.5V26.5Z" fill="#36485C"/>
<path d="M16 5.5C16 5.77614 16.2241 5.9987 16.4999 6.01228C21.7905 6.27276 26 10.6448 26 16C26 20.1006 23.5318 23.6248 20 25.1679V22.5C20 22.2239 19.7761 22 19.5 22H18.5C18.2239 22 18 22.2239 18 22.5V27.5C18 27.7761 18.2239 28 18.5 28H24.5C24.7761 28 25 27.7761 25 27.5V26.5C25 26.2239 24.7761 26 24.5 26H22.6356C25.869 23.8502 28 20.1739 28 16C28 9.54022 22.8958 4.2726 16.5004 4.01025C16.2245 3.99893 16 4.22386 16 4.5V5.5Z" fill="#36485C"/>
</svg>
