<svg width="32" height="32" viewBox="0 0 32 32" fill="none" xmlns="http://www.w3.org/2000/svg">
<path d="M20.5178 8.65685C21.2988 7.87581 22.5651 7.87581 23.3462 8.65685C24.1272 9.4379 24.1272 10.7042 23.3462 11.4853C22.5651 12.2663 21.2988 12.2663 20.5178 11.4853C19.7367 10.7042 19.7367 9.4379 20.5178 8.65685Z" fill="#36485C"/>
<path fill-rule="evenodd" clip-rule="evenodd" d="M17.3965 3.29279C17.5841 3.10532 17.8385 3 18.1037 3H22.9319C23.197 3 23.4514 3.10532 23.639 3.29279L28.7103 8.36407C28.8977 8.55159 29.003 8.80601 29.003 9.07117V13.8994C29.003 14.1646 28.8977 14.419 28.7103 14.6065L13.8002 29.5165C13.605 29.7118 13.2884 29.7118 13.0931 29.5165L2.48653 18.9099C2.29127 18.7146 2.29127 18.3981 2.48653 18.2028L17.3965 3.29279ZM13.4467 27.0416L27.0033 13.4851V9.4855L22.5175 4.99979H18.518L4.96141 18.5563L13.4467 27.0416Z" fill="#36485C"/>
</svg>
