<svg width="61" height="32" viewBox="0 0 61 32" fill="none" xmlns="http://www.w3.org/2000/svg">
<path d="M45 0C53.8366 0 61 7.16344 61 16C61 24.8366 53.8366 32 45 32H16C7.16344 32 0 24.8366 0 16C0 7.16344 7.16344 0 16 0H45ZM29.25 7.35547C29.2498 7.0864 29.0552 6.91476 28.8955 7.04297L21.75 12.7783V7.35547C21.7498 7.0864 21.5552 6.91476 21.3955 7.04297L10.626 15.6875C10.4585 15.8219 10.4585 16.1781 10.626 16.3125L21.3955 24.957C21.5552 25.0852 21.7498 24.9136 21.75 24.6445V19.2217L28.8955 24.957C29.0552 25.0852 29.2498 24.9136 29.25 24.6445V7.35547ZM47.5 17.3203L44.8047 21.5703H47.2109L48.8125 18.7266H48.9531L50.5625 21.5703H53.0859L50.3594 17.2266L53.0703 12.9688H50.5859L49.0625 15.8281H48.9219L47.3984 12.9688H44.7812L47.5 17.3203ZM39.1875 10C36.7188 10 35 11.5156 35 13.7109H37.1875C37.1875 12.6094 37.9062 11.8359 39.0547 11.8359C40.1562 11.8359 40.7969 12.5703 40.7969 13.4922C40.7969 14.2734 40.4922 14.7891 39.0859 16.1562L35.1328 19.9766V21.5625H43.2656V19.6641H38.3125V19.5234L40.6562 17.2891C42.5312 15.5078 43.1094 14.6016 43.1094 13.2812C43.1094 11.3828 41.5781 10 39.1875 10Z" fill="#36485C"/>
</svg>
