<svg width="61" height="32" viewBox="0 0 61 32" fill="none" xmlns="http://www.w3.org/2000/svg">
<path fill-rule="evenodd" clip-rule="evenodd" d="M0 16C0 7.16344 7.16344 0 16 0H45C53.8366 0 61 7.16344 61 16C61 24.8366 53.8366 32 45 32H16C7.16344 32 0 24.8366 0 16ZM9 13.7109C9 11.5156 10.7188 10 13.1875 10C15.5781 10 17.1094 11.3828 17.1094 13.2812C17.1094 14.6016 16.5312 15.5078 14.6562 17.2891L12.3125 19.5234V19.6641H17.2656V21.5625H9.13281V19.9766L13.0859 16.1562C14.4922 14.7891 14.7969 14.2734 14.7969 13.4922C14.7969 12.5703 14.1562 11.8359 13.0547 11.8359C11.9062 11.8359 11.1875 12.6094 11.1875 13.7109H9ZM22.9531 18.7266H22.8125L21.2109 21.5703H18.8047L21.5 17.3203L18.7812 12.9688H21.3984L22.9219 15.8281H23.0625L24.5859 12.9688H27.0703L24.3594 17.2266L27.0859 21.5703H24.5625L22.9531 18.7266ZM32 8.75C32 8.60225 32.0443 8.4575 32.126 8.3345C32.2707 8.117 32.5085 8 32.7508 8C32.8932 8 33.038 8.0405 33.1655 8.126L40.9895 13.3422V8.75C40.9895 8.60225 41.0338 8.4575 41.1155 8.3345C41.2603 8.11775 41.498 8 41.7402 8C41.8835 8 42.0275 8.0405 42.155 8.126L52.6647 15.1325C52.7472 15.1873 52.8185 15.2585 52.8732 15.3403C53.1035 15.6852 53.0098 16.151 52.6647 16.3805L42.155 23.387C42.0327 23.4688 41.8872 23.513 41.7395 23.513C41.3255 23.513 40.9895 23.1777 40.9895 22.763V18.1715L33.1655 23.387C33.0433 23.4688 32.8978 23.513 32.75 23.513C32.3353 23.513 32 23.1777 32 22.763V8.75Z" fill="#36485C"/>
</svg>
