<svg width="24" height="24" viewBox="0 0 24 24" fill="none" xmlns="http://www.w3.org/2000/svg">
<path fill-rule="evenodd" clip-rule="evenodd" d="M4.85263 7.03C4.85263 6.737 5.08962 6.5 5.38262 6.5C5.44162 6.5 5.50063 6.51 5.55613 6.5295L19.6436 11.4105C19.9201 11.5065 20.0666 11.8085 19.9706 12.085C19.9176 12.2385 19.7971 12.359 19.6436 12.412L5.55613 17.2935C5.27963 17.389 4.97762 17.2425 4.88162 16.9655C4.86212 16.91 4.85263 16.8515 4.85263 16.7925V16.129L4.53562 16.446C4.48362 16.4975 4.39963 16.4975 4.34813 16.446L4.03863 16.137C3.98713 16.085 3.98713 16.001 4.03863 15.949L4.57563 15.4125L4.03863 14.8755C3.98713 14.8235 3.98713 14.7395 4.03863 14.688L4.34813 14.3785C4.39963 14.327 4.48362 14.327 4.53562 14.3785L4.85263 14.6955V9.001L4.53562 9.318C4.48362 9.3695 4.39963 9.3695 4.34813 9.318L4.03863 9.009C3.98713 8.957 3.98713 8.8735 4.03863 8.8215L4.57563 8.2845L4.03863 7.7475C3.98713 7.6955 3.98713 7.612 4.03863 7.5605L4.34813 7.251C4.39963 7.1995 4.48362 7.1995 4.53562 7.251L4.85263 7.568V7.03ZM5.70913 16.1375C5.74763 16.2475 5.85013 16.3165 5.95963 16.3165C5.98863 16.3165 6.01762 16.312 6.04612 16.302L18.3201 12.0635C18.3586 12.05 18.3886 12.0195 18.4021 11.9815C18.4261 11.912 18.3891 11.8365 18.3201 11.8125L6.04612 7.574C6.01812 7.565 5.98963 7.56 5.95963 7.56C5.81363 7.56 5.69463 7.6785 5.69463 7.825V16.0515C5.69463 16.0805 5.69963 16.11 5.70913 16.1375ZM6.08512 8.6745C6.08512 8.528 6.20363 8.4095 6.35013 8.4095C6.49613 8.4095 6.61512 8.528 6.61512 8.6745V15.147C6.61512 15.294 6.49613 15.4125 6.35013 15.4125C6.20363 15.4125 6.08512 15.294 6.08512 15.147V8.6745ZM9.29862 10.07C9.33762 9.9905 9.41763 9.9445 9.50063 9.9445C9.53363 9.9445 9.56812 9.952 9.60012 9.968C9.64412 9.99 9.68013 10.026 9.70213 10.07L10.1086 10.895C10.1416 10.9615 10.2051 11.0075 10.2786 11.018L11.1891 11.1505C11.3116 11.1685 11.3971 11.2825 11.3791 11.4055C11.3721 11.4545 11.3491 11.4995 11.3136 11.534L10.6546 12.1765C10.6016 12.228 10.5771 12.3025 10.5901 12.3755L10.7456 13.2825C10.7666 13.405 10.6846 13.521 10.5621 13.542C10.5131 13.55 10.4631 13.5425 10.4191 13.5195L9.60512 13.091C9.53912 13.057 9.46063 13.057 9.39563 13.091L8.58113 13.5195C8.47113 13.577 8.33513 13.535 8.27763 13.425C8.25463 13.381 8.24612 13.331 8.25462 13.2825L8.41013 12.3755C8.42263 12.3025 8.39863 12.228 8.34513 12.1765L7.68663 11.534C7.59763 11.4475 7.59613 11.305 7.68263 11.216C7.71713 11.1805 7.76263 11.1575 7.81163 11.1505L8.72213 11.018C8.79463 11.0075 8.85813 10.9615 8.89113 10.895L9.29862 10.07Z" fill="#36485C"/>
</svg>
