<svg width="32" height="32" viewBox="0 0 32 32" fill="none" xmlns="http://www.w3.org/2000/svg">
<path fill-rule="evenodd" clip-rule="evenodd" d="M15.5435 19.2425L16.1785 18.4712C16.4256 19.332 16.8433 20.1204 17.3973 20.798C16.6515 20.8875 15.9057 20.8875 15.177 20.7895C13.515 21.923 11.201 23.9004 9.12134 26.632L6.9096 29.5342C6.45362 30.135 5.59278 30.2501 4.99191 29.7941L3.53872 28.6904C2.93784 28.2344 2.82278 27.3735 3.27876 26.7727L5.47772 23.8706C7.45082 21.2795 8.70797 18.6715 9.38982 16.7836C7.80026 13.7238 8.22216 9.57733 10.7791 6.27889C14.1628 1.91506 19.9883 0.687737 23.7939 3.53445C26.2741 5.38822 27.2755 8.52046 26.7428 11.6825C26.2741 11.2862 25.7414 10.9538 25.1703 10.6981C25.1874 10.5191 25.2002 10.3401 25.2044 10.1612L24.5695 9.63273L24.0112 10.3103C23.6873 10.2336 23.3507 10.1782 23.0055 10.1526L23.8961 9.0702L21.7483 7.28035L20.0309 9.42817L21.0494 10.2933C20.7085 10.37 20.3761 10.4722 20.0565 10.6001L19.4854 10.1143L18.1729 11.755C17.572 12.2791 17.0691 12.9013 16.6899 13.6087L15.3432 15.2878L15.9782 15.8248C15.9441 16.1018 15.9185 16.383 15.9185 16.6728C15.9185 16.7318 15.9222 16.789 15.926 16.8468C15.9279 16.8766 15.9298 16.9066 15.9313 16.937L14.7935 15.9739L12.9354 18.2965C13.7238 18.8206 14.6102 19.1317 15.5435 19.2425ZM10.6385 15.2409C10.9538 16.204 11.495 17.0649 12.2451 17.7552L14.1287 15.4029L11.9638 13.5704L10.6385 15.2409ZM12.505 12.8843L14.6741 14.7168L16.4938 12.4411L14.3204 10.5916L12.505 12.8843ZM14.8659 9.9012L17.0436 11.755L18.8164 9.53897L16.6302 7.67667L14.8659 9.9012ZM22.8307 4.94076C21.9145 4.25039 20.8406 3.87964 19.7156 3.78588L19.4045 4.18221L21.629 6.03172L22.6091 4.80439L23.2995 5.34561L22.3023 6.59424L24.4587 8.39262L24.8805 7.87697C24.5055 6.71357 23.8279 5.68653 22.8307 4.94076ZM19.3618 8.85712L21.075 6.71783L18.859 4.87258L17.1757 6.99483L19.3618 8.85712ZM18.1814 4.31005L17.7126 3.91799C16.7538 4.10976 15.7949 4.4933 14.8915 5.0473L16.5066 6.42378L18.1814 4.31005ZM14.1414 5.55869C13.4639 6.07433 12.8289 6.69226 12.2749 7.41246C12.2515 7.44229 12.2312 7.47212 12.211 7.50195C12.1907 7.53178 12.1705 7.56161 12.147 7.59144L14.1968 9.33442L15.9611 7.10989L14.1414 5.55869ZM13.6514 10.0248L11.657 8.32443C11.0944 9.24066 10.7024 10.208 10.485 11.1797L11.8317 12.3175L13.6514 10.0248ZM11.2862 13.0036L10.3274 12.1897C10.2592 12.863 10.2762 13.5235 10.3742 14.1542L11.2862 13.0036ZM8.87418 21.8591L10.1569 22.8393C11.0902 21.9827 12.2152 21.0324 13.2508 20.2823C12.6584 20.0437 12.0916 19.7326 11.5632 19.3363C11.1541 19.0294 10.7961 18.6843 10.468 18.3178C10.0248 19.4812 9.43244 20.7681 8.87418 21.8591ZM17.0223 16.7112C17.0223 13.6812 19.4812 11.2223 22.5111 11.2223C25.5411 11.2223 27.9957 13.6769 28 16.7112C28 19.7411 25.5411 22.2 22.5111 22.2C19.4812 22.2 17.0223 19.7411 17.0223 16.7112ZM22.5111 12.5391C24.4501 12.5391 26.0738 13.8644 26.5426 15.6543C25.9161 16.7452 24.5993 18.1132 23.014 17.0308C21.1389 15.7523 19.1189 15.7864 18.3561 16.9711C18.3519 16.8859 18.3433 16.7964 18.3433 16.7112C18.3391 14.4057 20.2056 12.5391 22.5111 12.5391ZM22.5111 20.8789C20.6403 20.8789 19.0593 19.6516 18.5308 17.9555C18.8888 17.2098 19.7795 16.1358 22.4259 17.6657C24.578 18.9059 25.9374 17.93 26.6661 17.0009C26.5127 19.1658 24.7143 20.8789 22.5111 20.8789Z" fill="#36485C"/>
</svg>
