<svg width="32" height="32" viewBox="0 0 32 32" fill="none" xmlns="http://www.w3.org/2000/svg">
<path fill-rule="evenodd" clip-rule="evenodd" d="M4 8.98481C4 6.66651 5.98783 5 8.16667 5H23.8333C26.0122 5 28 6.66651 28 8.98481V19.2839C28 21.6022 26.0122 23 23.8333 23H20.7357L15.6924 27.9826C14.8894 28.7761 13.7898 28.8789 12.9466 28.5697C12.0985 28.2587 11.2764 27.4299 11.2764 26.2173V23H7.91071C5.73188 23 4 21.6022 4 19.2839V8.98481ZM7.91071 21C6.59575 21 5.78571 20.5028 5.78571 19.2839V8.98481C5.78571 7.76594 6.8517 7 8.16667 7H23.8333C25.1483 7 26 7.76594 26 8.98481V19.2839C26 20.5028 25.1483 21 23.8333 21H20L14.4346 26.7207C13.9424 27.2069 13.0621 26.8841 13.0621 26.2173V21H7.91071Z" fill="#3A4D5F"/>
<path d="M8 9.44446C8 9.19899 8.19987 9 8.44643 9H23.5695C23.816 9 24.0159 9.19899 24.0159 9.44446V10.5555C24.0159 10.801 23.816 11 23.5695 11H8.44643C8.19987 11 8 10.801 8 10.5555V9.44446Z" fill="#3A4D5F"/>
<path d="M8 13.4448C8 13.1994 8.19987 13.0004 8.44643 13.0004H23.5695C23.816 13.0004 24.0159 13.1994 24.0159 13.4448V14.5555C24.0159 14.801 23.816 15 23.5695 15H8.44643C8.19987 15 8 14.801 8 14.5555V13.4448Z" fill="#3A4D5F"/>
<path d="M8 17.4445C8 17.199 8.19987 17 8.44643 17H15.5893C15.8358 17 16.0357 17.199 16.0357 17.4445V18.5555C16.0357 18.801 15.8358 19 15.5893 19H8.44643C8.19987 19 8 18.801 8 18.5555V17.4445Z" fill="#3A4D5F"/>
</svg>
