<svg width="32" height="32" viewBox="0 0 32 32" fill="none" xmlns="http://www.w3.org/2000/svg">
<path d="M6.5 6H25.5C25.7761 6 26 6.22386 26 6.5V7.5C26 7.77614 25.7761 8 25.5 8H6.5C6.22386 8 6 7.77614 6 7.5V6.5C6 6.22386 6.22386 6 6.5 6Z" fill="#36485C"/>
<path d="M10.5 12H21.5C21.7761 12 22 12.2239 22 12.5V13.5C22 13.7761 21.7761 14 21.5 14H10.5C10.2239 14 10 13.7761 10 13.5V12.5C10 12.2239 10.2239 12 10.5 12Z" fill="#36485C"/>
<path d="M25.5 18H6.5C6.22386 18 6 18.2239 6 18.5V19.5C6 19.7761 6.22386 20 6.5 20H25.5C25.7761 20 26 19.7761 26 19.5V18.5C26 18.2239 25.7761 18 25.5 18Z" fill="#36485C"/>
<path d="M10.5 24H21.5C21.7761 24 22 24.2239 22 24.5V25.5C22 25.7761 21.7761 26 21.5 26H10.5C10.2239 26 10 25.7761 10 25.5V24.5C10 24.2239 10.2239 24 10.5 24Z" fill="#36485C"/>
</svg>
