<svg width="32" height="32" viewBox="0 0 32 32" fill="none" xmlns="http://www.w3.org/2000/svg">
<path d="M22.179 24C21.0823 24 20.1659 23.7145 19.4297 23.1437C18.6936 22.5577 18.3255 21.6939 18.3255 20.5521C18.3255 19.4103 18.7386 18.5164 19.5649 17.8704C20.3912 17.2094 21.5405 16.8789 23.0128 16.8789H25.5142C25.5743 16.8789 25.6044 16.8488 25.6044 16.7887V16.1127C25.6044 15.4366 25.4015 14.9033 24.9959 14.5127C24.6053 14.1221 24.0194 13.9268 23.2382 13.9268C22.6072 13.9268 22.0889 14.0545 21.6832 14.3099C21.2776 14.5653 21.0222 14.9183 20.917 15.369C20.872 15.5192 20.7818 15.5868 20.6466 15.5718L18.9114 15.3239C18.7612 15.2939 18.6936 15.2113 18.7086 15.0761C18.8438 14.2047 19.3321 13.4911 20.1734 12.9352C21.0297 12.3643 22.0513 12.0789 23.2382 12.0789C24.1546 12.0789 24.9508 12.2441 25.6269 12.5746C26.318 12.9052 26.8438 13.3634 27.2044 13.9493C27.5799 14.5352 27.7677 15.2037 27.7677 15.9549V23.5493C27.7677 23.6995 27.6926 23.7746 27.5424 23.7746H25.8297C25.6795 23.7746 25.6044 23.6995 25.6044 23.5493V22.738C25.6044 22.708 25.5968 22.6854 25.5818 22.6704C25.5668 22.6554 25.5443 22.6629 25.5142 22.693C25.1386 23.1286 24.6579 23.4591 24.072 23.6845C23.5011 23.8948 22.8701 24 22.179 24ZM20.4889 20.462C20.4889 21.0178 20.6917 21.446 21.0973 21.7465C21.5029 22.0319 22.0213 22.1746 22.6522 22.1746C23.4335 22.1746 24.117 21.9643 24.7029 21.5437C25.3039 21.108 25.6044 20.5596 25.6044 19.8986V18.6366C25.6044 18.5765 25.5743 18.5465 25.5142 18.5465H23.4184C22.5321 18.5465 21.8184 18.7117 21.2776 19.0422C20.7518 19.3728 20.4889 19.846 20.4889 20.462Z" fill="#36485C"/>
<path d="M4.19477 23.7746C4.02951 23.7746 3.96942 23.692 4.01449 23.5268L8.9497 8.18028C8.99477 8.06009 9.08491 8 9.22012 8H11.4962C11.6314 8 11.7215 8.06009 11.7666 8.18028L16.7243 23.5268L16.7469 23.6169C16.7469 23.7221 16.6793 23.7746 16.5441 23.7746H14.7187C14.5835 23.7746 14.4934 23.7146 14.4483 23.5944L13.637 20.9577C13.622 20.9127 13.592 20.8901 13.5469 20.8901H7.19195C7.14688 20.8901 7.11683 20.9127 7.10181 20.9577L6.29054 23.5944C6.24547 23.7146 6.15533 23.7746 6.02012 23.7746H4.19477ZM7.68773 19.0648C7.6727 19.0948 7.6727 19.1249 7.68773 19.1549C7.71777 19.17 7.74782 19.1775 7.77787 19.1775H12.961C12.991 19.1775 13.0135 19.17 13.0286 19.1549C13.0586 19.1249 13.0661 19.0948 13.0511 19.0648L10.4145 10.7268C10.3995 10.6967 10.3769 10.6817 10.3469 10.6817C10.3168 10.6817 10.2943 10.6967 10.2793 10.7268L7.68773 19.0648Z" fill="#36485C"/>
</svg>
