<svg width="32" height="32" viewBox="0 0 32 32" fill="none" xmlns="http://www.w3.org/2000/svg">
<path d="M24.5 4H25.5C25.7761 4 26 4.22386 26 4.5V27.5C26 27.7761 25.7761 28 25.5 28H24.5C24.2239 28 24 27.7761 24 27.5V4.5C24 4.22386 24.2239 4 24.5 4Z" fill="#36485C"/>
<path d="M19.5 6H6.5C6.22386 6 6 6.22386 6 6.5V7.5C6 7.77614 6.22386 8 6.5 8H19.5C19.7761 8 20 7.77614 20 7.5V6.5C20 6.22386 19.7761 6 19.5 6Z" fill="#36485C"/>
<path d="M19.5 12H10.5C10.2239 12 10 12.2239 10 12.5V13.5C10 13.7761 10.2239 14 10.5 14H19.5C19.7761 14 20 13.7761 20 13.5V12.5C20 12.2239 19.7761 12 19.5 12Z" fill="#36485C"/>
<path d="M6.5 18H19.5C19.7761 18 20 18.2239 20 18.5V19.5C20 19.7761 19.7761 20 19.5 20H6.5C6.22386 20 6 19.7761 6 19.5V18.5C6 18.2239 6.22386 18 6.5 18Z" fill="#36485C"/>
<path d="M19.5 24H10.5C10.2239 24 10 24.2239 10 24.5V25.5C10 25.7761 10.2239 26 10.5 26H19.5C19.7761 26 20 25.7761 20 25.5V24.5C20 24.2239 19.7761 24 19.5 24Z" fill="#36485C"/>
</svg>
