<svg width="32" height="32" viewBox="0 0 32 32" fill="none" xmlns="http://www.w3.org/2000/svg">
<path d="M6.5 4H7.5C7.77614 4 8 4.22386 8 4.5V27.5C8 27.7761 7.77614 28 7.5 28H6.5C6.22386 28 6 27.7761 6 27.5V4.5C6 4.22386 6.22386 4 6.5 4Z" fill="#36485C"/>
<path d="M25.5 6H12.5C12.2239 6 12 6.22386 12 6.5V7.5C12 7.77614 12.2239 8 12.5 8H25.5C25.7761 8 26 7.77614 26 7.5V6.5C26 6.22386 25.7761 6 25.5 6Z" fill="#36485C"/>
<path d="M21.5 12H12.5C12.2239 12 12 12.2239 12 12.5V13.5C12 13.7761 12.2239 14 12.5 14H21.5C21.7761 14 22 13.7761 22 13.5V12.5C22 12.2239 21.7761 12 21.5 12Z" fill="#36485C"/>
<path d="M12.5 18H25.5C25.7761 18 26 18.2239 26 18.5V19.5C26 19.7761 25.7761 20 25.5 20H12.5C12.2239 20 12 19.7761 12 19.5V18.5C12 18.2239 12.2239 18 12.5 18Z" fill="#36485C"/>
<path d="M21.5 24H12.5C12.2239 24 12 24.2239 12 24.5V25.5C12 25.7761 12.2239 26 12.5 26H21.5C21.7761 26 22 25.7761 22 25.5V24.5C22 24.2239 21.7761 24 21.5 24Z" fill="#36485C"/>
</svg>
