<svg width="32" height="32" viewBox="0 0 32 32" fill="none" xmlns="http://www.w3.org/2000/svg">
<path d="M10.2791 24C10.2016 24 10.1318 23.9771 10.0698 23.9314C10.0233 23.8705 10 23.8019 10 23.7257V8.27429C10 8.1981 10.0233 8.13714 10.0698 8.09143C10.1318 8.03048 10.2016 8 10.2791 8H16.2093C19.8527 8 21.6744 9.46286 21.6744 12.3886C21.6744 13.8819 21.0465 14.9714 19.7907 15.6571C19.7132 15.7029 19.7209 15.7486 19.814 15.7943C20.5271 16.16 21.0698 16.6629 21.4419 17.3029C21.814 17.9276 22 18.6667 22 19.52C22 20.9981 21.4884 22.1181 20.4651 22.88C19.4419 23.6267 18.1008 24 16.4419 24H10.2791ZM16.2326 14.56C16.9457 14.56 17.4961 14.3924 17.8837 14.0571C18.2868 13.7219 18.4884 13.2648 18.4884 12.6857C18.4884 12.0914 18.2868 11.6267 17.8837 11.2914C17.4806 10.941 16.9225 10.7657 16.2093 10.7657H13.3953C13.3178 10.7657 13.2791 10.8038 13.2791 10.88V14.4457C13.2791 14.5219 13.3178 14.56 13.3953 14.56H16.2326ZM13.2791 21.0971C13.2791 21.1733 13.3178 21.2114 13.3953 21.2114H16.4419C17.155 21.2114 17.7132 21.0362 18.1163 20.6857C18.5194 20.32 18.7209 19.8248 18.7209 19.2C18.7209 18.5752 18.5116 18.0876 18.093 17.7371C17.6899 17.3714 17.124 17.1886 16.3953 17.1886H13.3953C13.3178 17.1886 13.2791 17.2267 13.2791 17.3029V21.0971Z" fill="#36485C"/>
</svg>
