<svg width="32" height="32" viewBox="0 0 32 32" fill="none" xmlns="http://www.w3.org/2000/svg">
<path d="M16.0234 10.627C16.1802 10.5941 16.3129 10.6286 16.4238 10.7295C16.4837 10.7835 16.5398 10.8891 16.5938 11.0459C16.7977 11.6489 17.1336 12.649 17.6016 14.0459C17.6046 14.0559 17.6111 14.0643 17.6191 14.0693C17.6281 14.0752 17.6385 14.0791 17.6484 14.0791C18.8652 14.0781 19.958 14.0791 20.9248 14.0801C21.1308 14.0801 21.2763 14.1072 21.3633 14.1602C21.645 14.3332 21.659 14.6942 21.3633 14.9102C20.4053 15.6142 19.4686 16.2905 18.5566 16.9365C18.5454 16.9443 18.5365 16.9557 18.5322 16.9688C18.528 16.9818 18.5287 16.9958 18.5332 17.0088C18.6842 17.4448 19.0481 18.5019 19.624 20.1797C19.677 20.3336 19.6339 20.4849 19.4971 20.6338C19.3941 20.7468 19.2765 20.7972 19.1445 20.7842C19.0656 20.776 18.9599 20.7247 18.8281 20.6309C17.9572 20.0109 17.0644 19.3737 16.1484 18.7178C16.1391 18.7113 16.1276 18.7081 16.1162 18.708C16.1048 18.708 16.0933 18.7113 16.084 18.7178C14.609 19.7678 13.6855 20.4245 13.3135 20.6865C13.1237 20.8211 12.9376 20.8157 12.7588 20.6719C12.528 20.4849 12.5633 20.2778 12.6562 20.0049L13.6807 17.0283C13.6957 16.9853 13.6845 16.9499 13.6465 16.9229C12.3067 15.981 11.3567 15.3129 10.8008 14.9199C10.66 14.8199 10.6132 14.6631 10.6602 14.4473C10.7132 14.2023 10.8802 14.0791 11.1602 14.0791C12.985 14.0791 14.1223 14.0782 14.5713 14.0742C14.5827 14.0744 14.5941 14.071 14.6035 14.0645C14.613 14.0578 14.6192 14.0481 14.623 14.0371C15.149 12.4841 15.4923 11.4608 15.6533 10.9668C15.6764 10.881 15.7236 10.8033 15.7891 10.7432C15.8545 10.6831 15.936 10.6427 16.0234 10.627Z" fill="#36485C"/>
<path fill-rule="evenodd" clip-rule="evenodd" d="M11.7422 2C11.9815 2 12.1835 2.17103 12.2549 2.39941C12.4695 3.08695 12.8796 3.67131 13.4844 4.15234C14.2031 4.72401 15.0417 5.00977 16 5.00977C16.9583 5.00977 17.7912 4.72401 18.498 4.15234C19.0963 3.66833 19.5101 3.07978 19.7393 2.38672C19.8128 2.16419 20.0117 2 20.2461 2H26.5C26.7761 2 27 2.22386 27 2.5V29.5C27 29.7761 26.7761 30 26.5 30H20.2461C20.0117 30 19.8128 29.8358 19.7393 29.6133C19.5101 28.9202 19.0963 28.3317 18.498 27.8477C17.7912 27.276 16.9583 26.9902 16 26.9902C15.0417 26.9902 14.2031 27.276 13.4844 27.8477C12.8796 28.3287 12.4695 28.9131 12.2549 29.6006C12.1835 29.829 11.9815 30 11.7422 30H5.5C5.22386 30 5 29.7761 5 29.5V2.5C5 2.22386 5.22386 2 5.5 2H11.7422ZM7 28H10.7734C11.1373 27.3384 11.6336 26.764 12.2393 26.2822C13.3282 25.4161 14.6108 24.9902 16 24.9902C17.3893 24.9902 18.6728 25.417 19.7559 26.293C20.3522 26.7755 20.8418 27.3464 21.2061 28H25V4H21.2061C20.8417 4.65373 20.3524 5.22543 19.7559 5.70801C18.6728 6.58398 17.3893 7.00977 16 7.00977C14.6108 7.00977 13.3282 6.58388 12.2393 5.71777C11.6336 5.23603 11.1373 4.66158 10.7734 4H7V28Z" fill="#36485C"/>
</svg>
