<svg width="32" height="32" viewBox="0 0 32 32" fill="none" xmlns="http://www.w3.org/2000/svg">
<path d="M17 10C17 10.5523 16.5523 11 16 11C15.4477 11 15 10.5523 15 10C15 9.44772 15.4477 9 16 9C16.5523 9 17 9.44772 17 10Z" fill="#36485C"/>
<path d="M17 14C17 14.5523 16.5523 15 16 15C15.4477 15 15 14.5523 15 14C15 13.4477 15.4477 13 16 13C16.5523 13 17 13.4477 17 14Z" fill="#36485C"/>
<path d="M16 19C16.5523 19 17 18.5523 17 18C17 17.4477 16.5523 17 16 17C15.4477 17 15 17.4477 15 18C15 18.5523 15.4477 19 16 19Z" fill="#36485C"/>
<path d="M17 22C17 22.5523 16.5523 23 16 23C15.4477 23 15 22.5523 15 22C15 21.4477 15.4477 21 16 21C16.5523 21 17 21.4477 17 22Z" fill="#36485C"/>
<path fill-rule="evenodd" clip-rule="evenodd" d="M26.99 16C26.99 16.9583 27.2758 17.7909 27.8475 18.4977C28.3316 19.0961 28.9202 19.5099 29.6133 19.739C29.8359 19.8126 30 20.0116 30 20.246V26.5C30 26.7762 29.7761 27 29.5 27H2.5C2.22386 27 2 26.7762 2 26.5V20.246C2 20.0116 2.16413 19.8126 2.38667 19.739C3.07983 19.5099 3.66844 19.0961 4.1525 18.4977C4.72417 17.7909 5.01 16.9583 5.01 16C5.01 15.0417 4.72417 14.2031 4.1525 13.4844C3.67145 12.8795 3.08715 12.4698 2.39958 12.2552C2.17107 12.1839 2 11.9819 2 11.7425V5.5C2 5.22386 2.22386 5 2.5 5H29.5C29.7761 5 30 5.22386 30 5.5V11.7425C30 11.9819 29.8289 12.1839 29.6004 12.2552C28.9129 12.4698 28.3285 12.8795 27.8475 13.4844C27.2758 14.2031 26.99 15.0417 26.99 16ZM24.99 16C24.99 14.6108 25.4161 13.3284 26.2822 12.2395C26.764 11.6337 27.3383 11.1371 28 10.7732V7H4V10.7732C4.66168 11.1371 5.23602 11.6337 5.71781 12.2395C6.58391 13.3284 7.01 14.6108 7.01 16C7.01 17.3893 6.58342 18.6725 5.70744 19.7555C5.22486 20.3521 4.65374 20.8415 4 21.2058V25H28V21.2058C27.3463 20.8415 26.7751 20.352 26.2925 19.7554C25.4165 18.6724 24.99 17.3893 24.99 16Z" fill="#36485C"/>
</svg>
