<svg width="32" height="32" viewBox="0 0 32 32" fill="none" xmlns="http://www.w3.org/2000/svg">
<path fill-rule="evenodd" clip-rule="evenodd" d="M29.5028 2C27.8089 2.43379 26.2684 2.91857 24.8082 3.37808C21.8943 4.2951 19.3001 5.11149 16.444 5.22122C12.8933 5.35391 9.51656 14.0338 11.1226 14.4228C17.4873 16.4314 22.6256 13.7867 22.7309 11.6637C23.9022 11.5813 25.5357 9.94781 25.4854 8.75358C25.705 8.63004 25.9384 8.46075 26.1534 8.26399C29.306 7.1933 30.8709 2.63143 29.5028 2ZM19.4776 12.9174C17.3957 14.2901 12.4083 13.9515 12.5776 12.5788C12.7332 11.2976 14.7007 7.175 16.929 6.59848C21.7014 6.18667 24.1081 5.35391 27.9654 3.83024C28.4367 3.71127 27.7869 5.44085 26.158 6.74947C25.7834 6.8781 25.441 7.00083 25.1156 7.11741C23.3347 7.75562 22.0679 8.2096 18.8645 8.43787C19.6035 8.73535 20.9254 8.72424 22.1453 8.71398C22.7079 8.70926 23.2489 8.70471 23.7009 8.73071C23.6643 9.39874 23.3669 9.79224 23.042 10.0164C21.7105 10.4054 20.832 10.5976 19.3495 10.7394C18.9286 10.7806 17.318 11.11 17.8991 11.2015C18.8142 11.229 20.0862 11.3525 20.8046 11.6957C20.6398 12.1441 20.1182 12.4964 19.4776 12.9174ZM3.40356 27.9665C4.92266 28.2731 9.84143 29.0464 12.6188 26.6716C14.4778 25.0798 15.684 23.6504 16.3675 22.8404C16.5033 22.6795 16.6184 22.543 16.714 22.4346C17.2905 21.7803 18.8004 21.1992 20.379 20.856C21.4268 20.6273 21.9393 20.4397 22.7675 19.3186C23.4904 18.3395 24.131 19.6755 23.3074 20.6273C22.4884 21.5836 21.5458 22.1143 20.6078 22.247C20.5632 22.2533 20.5176 22.2596 20.4711 22.2659C19.5411 22.3929 18.2421 22.5703 16.5081 24.544L16.3296 24.7468C14.5765 26.7394 12.9432 28.596 11.1729 29.0784C8.70668 29.7556 5.27955 29.6503 4.14938 29.4307C3.39898 29.2889 1.88446 27.6645 3.40356 27.9665ZM9.94666 16.468C10.0565 16.1249 10.1754 15.8366 10.299 15.585C12.2024 16.3125 17.0343 17.4106 21.802 14.5875C22.676 15.7176 22.8682 16.9668 22.2138 17.9917C21.7471 18.7238 20.7405 19.6252 19.7384 19.5978C17.6717 19.5428 15.7156 21.7239 14.0598 23.5702C13.5088 24.1846 12.9911 24.7619 12.5136 25.2074C10.6925 26.9004 6.13519 28.1862 3.40356 26.8409C0.594141 25.4591 2.75382 23.3269 3.44931 23.2216C7.75038 22.3889 9.4159 18.129 9.94666 16.468ZM10.8023 22.5307C10.0565 22.0732 9.2649 21.8123 8.77531 21.6156C8.28572 21.4188 8.80277 20.7691 9.53029 20.9247C10.3036 21.0894 11.3239 21.5332 11.5847 21.7849C11.8547 22.0365 11.5481 22.9883 10.8023 22.5307ZM12.1247 20.8286C11.452 20.4305 11.0997 20.2795 10.1709 20.1285C9.24202 19.9775 9.77279 19.1493 10.5735 19.2454C11.2233 19.3232 12.1979 19.4468 12.8018 19.918C13.447 20.4305 12.7973 21.2312 12.1247 20.8286ZM13.4378 19.2271C12.9117 18.916 12.2711 18.5225 11.4017 18.3761C10.5323 18.2296 10.45 17.1818 11.3102 17.1773C12.175 17.1681 13.4424 17.5982 14.2111 18.2846C14.8014 18.8107 13.964 19.5428 13.4378 19.2271Z" fill="#36485C"/>
</svg>
