<svg width="32" height="32" viewBox="0 0 32 32" fill="none" xmlns="http://www.w3.org/2000/svg">
<path d="M23.6084 24C23.8845 24 24.1084 24.2239 24.1084 24.5V25.5C24.1084 25.7761 23.8845 26 23.6084 26H7.79492C7.51878 26 7.29492 25.7761 7.29492 25.5V24.5C7.29492 24.2239 7.51878 24 7.79492 24H23.6084Z" fill="#36485C"/>
<path d="M6 20H26V8H6V20ZM28 21.5C28 21.7417 27.8286 21.9437 27.6006 21.9902L27.5 22H4.5L4.39941 21.9902C4.20392 21.9503 4.04966 21.7961 4.00977 21.6006L4 21.5V6.5C4 6.22386 4.22386 6 4.5 6H27.5C27.7761 6 28 6.22386 28 6.5V21.5Z" fill="#36485C"/>
</svg>
