<svg width="32" height="32" viewBox="0 0 32 32" fill="none" xmlns="http://www.w3.org/2000/svg">
<path d="M21.2289 10.0496L16 4.83005L10.7635 10.0571C10.5682 10.2521 10.2519 10.2519 10.0567 10.0568L9.35354 9.3536C9.15827 9.15834 9.15827 8.84176 9.35353 8.64649L15.6464 2.3536C15.8417 2.15834 16.1583 2.15834 16.3535 2.3536L22.6439 8.64398C22.8402 8.84022 22.839 9.15874 22.6414 9.35358L21.9332 10.0518C21.7377 10.2446 21.4233 10.2436 21.2289 10.0496Z" fill="#36485C"/>
<path fill-rule="evenodd" clip-rule="evenodd" d="M12 16C12 16.7912 12.2346 17.5645 12.6741 18.2223C13.1136 18.8801 13.7383 19.3928 14.4692 19.6956C15.2002 19.9983 16.0044 20.0775 16.7803 19.9232C17.5563 19.7688 18.269 19.3879 18.8284 18.8285C19.3878 18.2691 19.7688 17.5563 19.9231 16.7804C20.0775 16.0045 19.9983 15.2002 19.6955 14.4693C19.3928 13.7384 18.8801 13.1137 18.2223 12.6742C17.5645 12.2346 16.7911 12 16 12C14.9391 12 13.9217 12.4215 13.1716 13.1716C12.4214 13.9218 12 14.9392 12 16ZM18 16C18 16.3956 17.8827 16.7823 17.6629 17.1112C17.4432 17.4401 17.1308 17.6964 16.7653 17.8478C16.3999 17.9992 15.9978 18.0388 15.6098 17.9616C15.2218 17.8844 14.8655 17.694 14.5858 17.4143C14.3061 17.1346 14.1156 16.7782 14.0384 16.3902C13.9612 16.0023 14.0008 15.6001 14.1522 15.2347C14.3036 14.8692 14.5599 14.5569 14.8888 14.3371C15.2177 14.1173 15.6044 14 16 14C16.5304 14 17.0391 14.2108 17.4142 14.5858C17.7893 14.9609 18 15.4696 18 16Z" fill="#36485C"/>
<path d="M16 27.17L10.7561 21.9354C10.5598 21.7395 10.2415 21.7408 10.0468 21.9383L9.34854 22.6465C9.15564 22.8421 9.15675 23.1568 9.35104 23.3511L15.6464 29.6465C15.8417 29.8417 16.1583 29.8417 16.3535 29.6465L22.6464 23.3536C22.8417 23.1583 22.8417 22.8417 22.6464 22.6465L21.9432 21.9432C21.7481 21.7481 21.4317 21.748 21.2364 21.9429L16 27.17Z" fill="#36485C"/>
</svg>
