<svg width="32" height="32" viewBox="0 0 32 32" fill="none" xmlns="http://www.w3.org/2000/svg">
<path d="M17.207 15.9999L23.4393 9.7676C23.6346 9.57233 23.6346 9.25575 23.4393 9.06049L22.7323 8.3535C22.5371 8.15824 22.2205 8.15824 22.0252 8.3535L15.7929 14.5858L9.5607 8.35348C9.36545 8.15823 9.04888 8.15821 8.85361 8.35345L8.14647 9.06049C7.95119 9.25575 7.95117 9.57235 8.14645 9.76762L14.3788 15.9999L8.14645 22.2323C7.95117 22.4275 7.95119 22.7441 8.14647 22.9394L8.85361 23.6464C9.04888 23.8417 9.36545 23.8417 9.5607 23.6464L15.7929 17.414L22.0252 23.6464C22.2205 23.8417 22.5371 23.8417 22.7323 23.6464L23.4393 22.9394C23.6346 22.7441 23.6346 22.4276 23.4393 22.2323L17.207 15.9999Z" fill="#36485C"/>
</svg>
