<svg width="16" height="16" viewBox="0 0 16 16" fill="none" xmlns="http://www.w3.org/2000/svg">
<path d="M11.889 3.40388C11.6938 3.20863 11.3772 3.20863 11.1819 3.40388L7.99995 6.58586L4.81797 3.40388C4.62273 3.20863 4.30612 3.20863 4.11087 3.40388L3.40376 4.11099C3.20851 4.30624 3.20851 4.62285 3.40376 4.8181L6.58574 8.00008L3.40376 11.1821C3.20851 11.3773 3.20851 11.6939 3.40376 11.8892L4.11087 12.5963C4.30612 12.7915 4.62273 12.7915 4.81797 12.5963L7.99995 9.41429L11.1819 12.5963C11.3772 12.7915 11.6938 12.7915 11.889 12.5963L12.5961 11.8892C12.7914 11.6939 12.7914 11.3773 12.5961 11.1821L9.41417 8.00008L12.5961 4.8181C12.7914 4.62285 12.7914 4.30624 12.5961 4.11099L11.889 3.40388Z" fill="#36485C"/>
</svg>
