<svg width="24" height="24" viewBox="0 0 24 24" fill="none" xmlns="http://www.w3.org/2000/svg">
<path fill-rule="evenodd" clip-rule="evenodd" d="M18.6735 6.74095C18.8932 6.52128 18.8932 6.16513 18.6735 5.94546L18.0548 5.32674C17.8351 5.10707 17.479 5.10707 17.2593 5.32674L12.0002 10.5858L6.74108 5.32674C6.52141 5.10707 6.16525 5.10707 5.94558 5.32674L5.32686 5.94546C5.10719 6.16513 5.10719 6.52128 5.32686 6.74095L10.586 12.0001L5.32686 17.2592C5.10719 17.4788 5.10719 17.835 5.32686 18.0547L5.94558 18.6734C6.16525 18.8931 6.52141 18.8931 6.74108 18.6734L12.0002 13.4143L17.2593 18.6734C17.479 18.8931 17.8351 18.8931 18.0548 18.6734L18.6735 18.0547C18.8932 17.835 18.8932 17.4788 18.6735 17.2592L13.4144 12.0001L18.6735 6.74095Z" fill="#36485C"/>
</svg>
