<svg width="32" height="32" viewBox="0 0 32 32" fill="none" xmlns="http://www.w3.org/2000/svg">
<path d="M26.5 5C26.7761 5 27 5.22386 27 5.5V14.5C27 14.7761 26.7761 15 26.5 15H25.5C25.2239 15 25 14.7761 25 14.5V7L17.5 7C17.2239 7 17 6.77614 17 6.5V5.5C17 5.22386 17.2239 5 17.5 5L26.5 5Z" fill="#36485C"/>
<path d="M5.5 27C5.22386 27 5 26.7761 5 26.5L5 17.5C5 17.2239 5.22386 17 5.5 17H6.5C6.77614 17 7 17.2239 7 17.5L7 25H14.5C14.7761 25 15 25.2239 15 25.5V26.5C15 26.7761 14.7761 27 14.5 27H5.5Z" fill="#36485C"/>
</svg>
