<svg width="32" height="32" viewBox="0 0 32 32" fill="none" xmlns="http://www.w3.org/2000/svg">
<path fill-rule="evenodd" clip-rule="evenodd" d="M25.2001 8.22005C27.7981 10.0871 29.7934 12.6733 30.9401 15.66C31.0195 15.8798 31.0195 16.1203 30.9401 16.34C29.7639 19.3824 27.722 22.0134 25.0669 23.908C22.4117 25.8025 19.2595 26.8775 16.0001 27C13.3641 26.9575 10.7839 26.2341 8.51006 24.9L3.76361 29.6465C3.56835 29.8418 3.25177 29.8418 3.05651 29.6465L2.35361 28.9436C2.15835 28.7483 2.15835 28.4318 2.35361 28.2365L28.2365 2.3536C28.4318 2.15834 28.7484 2.15834 28.9436 2.3536L29.6469 3.05686C29.842 3.25198 29.8422 3.56828 29.6472 3.7636L25.2001 8.22005ZM19.4552 17.9916C19.808 17.3869 19.9958 16.7001 20.0001 16C19.9927 15.2957 19.7996 14.6058 19.4401 14L14.0001 19.44C14.6064 19.7901 15.2939 19.9749 15.9941 19.976C16.6942 19.977 17.3823 19.7943 17.9897 19.4461C18.597 19.0979 19.1024 18.5963 19.4552 17.9916ZM10.0001 23.42C11.844 24.4214 13.9021 24.9634 16.0001 25C21.3001 25 26.9001 21.07 28.9301 16C27.849 13.4355 26.0547 11.235 23.7601 9.66005L20.8901 12.53C21.6917 13.6854 22.0621 15.0856 21.9365 16.4862C21.811 17.8868 21.1975 19.1988 20.2031 20.1931C19.2088 21.1875 17.8968 21.801 16.4962 21.9265C15.0956 22.0521 13.6954 21.6817 12.5401 20.88L10.0001 23.42Z" fill="#36485C"/>
<path d="M4.89328 22.1836C5.08473 22.3693 5.38877 22.3624 5.57801 22.1745L6.29435 21.4631C6.49828 21.2606 6.48929 20.9289 6.28282 20.729C4.9007 19.3906 3.80654 17.7815 3.07006 16C5.10006 10.93 10.7001 7.00005 16.0001 7.00005C17.2581 7.01665 18.5056 7.22491 19.6997 7.6171C19.8838 7.67758 20.0873 7.63227 20.2239 7.4948L21.0285 6.68497C21.2781 6.43376 21.1942 6.01052 20.8615 5.88924C19.3044 5.32159 17.6608 5.02037 16.0001 5.00005C12.7406 5.12262 9.58845 6.1976 6.93326 8.09213C4.27808 9.98666 2.23622 12.6177 1.06006 15.66C0.98063 15.8798 0.98063 16.1203 1.06006 16.34C1.89228 18.5484 3.20197 20.5434 4.89328 22.1836Z" fill="#36485C"/>
<path d="M11.8675 15.8619C11.953 15.7768 12.0036 15.6636 12.0179 15.5439C12.1243 14.6555 12.5259 13.8263 13.1611 13.1911C13.7964 12.5559 14.6255 12.1543 15.514 12.0479C15.6337 12.0336 15.7469 11.9829 15.8319 11.8974L16.8983 10.8252C17.1699 10.552 17.0408 10.0938 16.658 10.0504C15.9095 9.96559 15.149 10.0222 14.4168 10.2201C13.4043 10.4937 12.4813 11.028 11.7397 11.7696C10.998 12.5112 10.4638 13.4343 10.1901 14.4468C9.99223 15.179 9.93563 15.9395 10.0205 16.688C10.0639 17.0708 10.5221 17.1999 10.7952 16.9282L11.8675 15.8619Z" fill="#36485C"/>
</svg>
