<svg width="32" height="32" viewBox="0 0 32 32" fill="none" xmlns="http://www.w3.org/2000/svg">
<path d="M16.5 6C16.2239 6 16 6.22386 16 6.5V15.5C16 15.7761 16.2239 16 16.5 16H29.5C29.7761 16 30 15.7761 30 15.5V6.5C30 6.22386 29.7761 6 29.5 6H16.5Z" fill="#36485C"/>
<path d="M13 6.5C13 6.22386 12.7761 6 12.5 6L2.5 6C2.22386 6 2 6.22386 2 6.5L2 25.5C2 25.7761 2.22016 26 2.49631 26L29.5064 26C29.7826 26 30 25.7783 30 25.5022V19.4993C30 19.2232 29.7761 19 29.5 19H28.5C28.2239 19 28 19.2239 28 19.5V24L4 24L4 8L12.5 8C12.7761 8 13 7.77615 13 7.5V6.5Z" fill="#36485C"/>
</svg>
