<svg width="32" height="32" viewBox="0 0 32 32" fill="none" xmlns="http://www.w3.org/2000/svg">
<path d="M20.5 10C20.2239 10 20 10.2239 20 10.5V21.5C20 21.7761 20.2239 22 20.5 22H25.5C25.7761 22 26 21.7761 26 21.5V10.5C26 10.2239 25.7761 10 25.5 10H20.5Z" fill="#36485C"/>
<path fill-rule="evenodd" clip-rule="evenodd" d="M2 6.5C2 6.22388 2.22388 6 2.5 6H29.5C29.7761 6 30 6.22388 30 6.5V25.5C30 25.7761 29.7761 26 29.5 26H2.5C2.22388 26 2 25.7761 2 25.5V6.5ZM4 24V8H28V24H4Z" fill="#36485C"/>
</svg>
