<svg width="32" height="32" viewBox="0 0 32 32" fill="none" xmlns="http://www.w3.org/2000/svg">
<path d="M6 16C6 14.8954 6.89543 14 8 14C9.10457 14 10 14.8954 10 16C10 17.1046 9.10457 18 8 18C6.89543 18 6 17.1046 6 16Z" fill="#36485C"/>
<path d="M16 14C14.8954 14 14 14.8954 14 16C14 17.1046 14.8954 18 16 18C17.1046 18 18 17.1046 18 16C18 14.8954 17.1046 14 16 14Z" fill="#36485C"/>
<path d="M24 14C22.8954 14 22 14.8954 22 16C22 17.1046 22.8954 18 24 18C25.1046 18 26 17.1046 26 16C26 14.8954 25.1046 14 24 14Z" fill="#36485C"/>
</svg>
