<svg width="32" height="32" viewBox="0 0 32 32" fill="none" xmlns="http://www.w3.org/2000/svg">
<path d="M18.3536 25.6464C18.1583 25.8416 17.8417 25.8416 17.6464 25.6464L16.9433 24.9432C16.7481 24.7481 16.748 24.4317 16.9431 24.2364L24.17 16.9999H4.5C4.22386 16.9999 4 16.7761 4 16.4999V15.4999C4 15.2238 4.22386 14.9999 4.5 14.9999H24.17L16.9431 7.76348C16.748 7.56818 16.7481 7.25178 16.9433 7.0566L17.6464 6.35348C17.8417 6.15822 18.1583 6.15822 18.3536 6.35348L27.6464 15.6464C27.8417 15.8416 27.8417 16.1582 27.6464 16.3535L18.3536 25.6464Z" fill="#36485C"/>
</svg>
