<svg width="32" height="32" viewBox="0 0 32 32" fill="none" xmlns="http://www.w3.org/2000/svg">
<path d="M13.6464 25.6464C13.8416 25.8416 14.1582 25.8416 14.3535 25.6464L15.0566 24.9432C15.2518 24.7481 15.2519 24.4317 15.0568 24.2364L7.82992 16.9999H27.4999C27.7761 16.9999 27.9999 16.7761 27.9999 16.4999V15.4999C27.9999 15.2238 27.7761 14.9999 27.4999 14.9999H7.82992L15.0568 7.76348C15.2519 7.56818 15.2518 7.25178 15.0566 7.0566L14.3535 6.35348C14.1582 6.15822 13.8416 6.15822 13.6464 6.35348L4.35348 15.6464C4.15822 15.8416 4.15822 16.1582 4.35348 16.3535L13.6464 25.6464Z" fill="#36485C"/>
</svg>
