<svg width="32" height="32" viewBox="0 0 32 32" fill="none" xmlns="http://www.w3.org/2000/svg">
<path d="M16.5 10H20.4852L12.6966 17.7886C12.5014 17.9838 12.5014 18.3004 12.6966 18.4957L13.4037 19.2028C13.599 19.3981 13.9156 19.3981 14.1108 19.2028L22 11.3137V15.5C22 15.7761 22.2238 16 22.5 16H23.5C23.7761 16 24 15.7761 24 15.5V8.5C24 8.22386 23.7761 8 23.5 8H16.5C16.2238 8 16 8.22386 16 8.5V9.5C16 9.77614 16.2238 10 16.5 10Z" fill="#36485C"/>
<path d="M14.4497 12C14.8951 12 15.1182 12.5386 14.8032 12.8536L13.8032 13.8536C13.7095 13.9473 13.5823 14 13.4497 14H10V22H18V18.3492C18 18.2166 18.0527 18.0894 18.1464 17.9956L19.1464 16.9956C19.4614 16.6806 20 16.9037 20 17.3492V23.5C20 23.7761 19.7761 24 19.5 24H8.5C8.22386 24 8 23.7761 8 23.5V12.5C8 12.2239 8.22386 12 8.5 12H14.4497Z" fill="#36485C"/>
</svg>
