<svg width="32" height="32" viewBox="0 0 32 32" fill="none" xmlns="http://www.w3.org/2000/svg">
<path fill-rule="evenodd" clip-rule="evenodd" d="M12 5C13.1046 5 14 5.89543 14 7C14 8.10457 13.1046 9 12 9C10.8954 9 10 8.10457 10 7C10 5.89543 10.8954 5 12 5ZM20 5C21.1046 5 22 5.89543 22 7C22 8.10457 21.1046 9 20 9C18.8954 9 18 8.10457 18 7C18 5.89543 18.8954 5 20 5ZM12 11C13.1046 11 14 11.8954 14 13C14 14.1046 13.1046 15 12 15C10.8954 15 10 14.1046 10 13C10 11.8954 10.8954 11 12 11ZM20 11C21.1046 11 22 11.8954 22 13C22 14.1046 21.1046 15 20 15C18.8954 15 18 14.1046 18 13C18 11.8954 18.8954 11 20 11ZM12 17C13.1046 17 14 17.8954 14 19C14 20.1046 13.1046 21 12 21C10.8954 21 10 20.1046 10 19C10 17.8954 10.8954 17 12 17ZM20 17C21.1046 17 22 17.8954 22 19C22 20.1046 21.1046 21 20 21C18.8954 21 18 20.1046 18 19C18 17.8954 18.8954 17 20 17ZM12 23C13.1046 23 14 23.8954 14 25C14 26.1046 13.1046 27 12 27C10.8954 27 10 26.1046 10 25C10 23.8954 10.8954 23 12 23ZM20 23C21.1046 23 22 23.8954 22 25C22 26.1046 21.1046 27 20 27C18.8954 27 18 26.1046 18 25C18 23.8954 18.8954 23 20 23Z" fill="#36485C"/>
</svg>
