<svg width="32" height="32" viewBox="0 0 32 32" fill="none" xmlns="http://www.w3.org/2000/svg">
<path fill-rule="evenodd" clip-rule="evenodd" d="M9.00015 13.9999C8.5882 13.9999 8.35274 13.5297 8.59976 13.2001L15.5998 3.86612C15.7998 3.59971 16.2006 3.59957 16.4005 3.86612L23.4005 13.2001C23.6475 13.5297 23.412 13.9998 23.0002 13.9999L9.00015 13.9999ZM16.0002 6.66592L11.9992 11.9999L20.0011 11.9999L16.0002 6.66592Z" fill="#36485C"/>
<path d="M16.4005 28.1337C16.2005 28.4004 15.7998 28.4004 15.5998 28.1337L8.59976 18.7997C8.35309 18.4701 8.58832 17.9999 9.00015 17.9999L23.0002 17.9999C23.4118 18.0001 23.6469 18.4702 23.4005 18.7997L16.4005 28.1337Z" fill="#36485C"/>
</svg>
