<svg width="32" height="32" viewBox="0 0 32 32" fill="none" xmlns="http://www.w3.org/2000/svg">
<path fill-rule="evenodd" clip-rule="evenodd" d="M12.6666 11.0112C13.6533 10.3519 14.8134 10 16.0001 10C17.5914 10 19.1175 10.6321 20.2427 11.7574C21.3679 12.8826 22.0001 14.4087 22.0001 16C22.0001 17.1867 21.6482 18.3467 20.9889 19.3334C20.3296 20.3201 19.3925 21.0892 18.2962 21.5433C17.1998 21.9974 15.9934 22.1162 14.8295 21.8847C13.6656 21.6532 12.5965 21.0818 11.7574 20.2426C10.9183 19.4035 10.3469 18.3344 10.1154 17.1705C9.88384 16.0067 10.0027 14.8003 10.4568 13.7039C10.9109 12.6075 11.6799 11.6705 12.6666 11.0112ZM13.7778 19.3259C14.4356 19.7654 15.2089 20 16.0001 20C17.0609 20 18.0783 19.5786 18.8285 18.8284C19.5786 18.0783 20.0001 17.0609 20.0001 16C20.0001 15.2089 19.7655 14.4355 19.3259 13.7777C18.8864 13.1199 18.2617 12.6072 17.5308 12.3045C16.7999 12.0017 15.9956 11.9225 15.2197 12.0769C14.4438 12.2312 13.731 12.6122 13.1716 13.1716C12.6122 13.731 12.2313 14.4437 12.0769 15.2196C11.9226 15.9956 12.0018 16.7998 12.3045 17.5307C12.6073 18.2616 13.12 18.8864 13.7778 19.3259Z" fill="#36485C"/>
<path fill-rule="evenodd" clip-rule="evenodd" d="M25.0669 8.09209C27.722 9.98662 29.7639 12.6176 30.9401 15.66C31.0195 15.8797 31.0195 16.1203 30.9401 16.34C29.7639 19.3824 27.722 22.0134 25.0669 23.9079C22.4117 25.8024 19.2595 26.8774 16.0001 27C12.7406 26.8774 9.58845 25.8024 6.93326 23.9079C4.27808 22.0134 2.23622 19.3824 1.06006 16.34C0.98063 16.1203 0.98063 15.8797 1.06006 15.66C2.23622 12.6176 4.27808 9.98662 6.93326 8.09209C9.58845 6.19756 12.7406 5.12257 16.0001 5C19.2595 5.12257 22.4117 6.19756 25.0669 8.09209ZM3.07006 16C5.10006 21.07 10.7001 25 16.0001 25C21.3001 25 26.9001 21.07 28.9301 16C26.9001 10.93 21.3001 7 16.0001 7C10.7001 7 5.10006 10.93 3.07006 16Z" fill="#36485C"/>
</svg>
