<svg width="32" height="32" viewBox="0 0 32 32" fill="none" xmlns="http://www.w3.org/2000/svg">
<path d="M23 6.5C23 6.22386 23.2239 6 23.5 6H24.5C24.7761 6 25 6.22386 25 6.5V25.5C25 25.7761 24.7761 26 24.5 26H23.5C23.2239 26 23 25.7761 23 25.5V18L17.3536 23.6464C17.1583 23.8417 16.8417 23.8417 16.6464 23.6464L15.9393 22.9393C15.7441 22.7441 15.7441 22.4275 15.9393 22.2322L18.1716 20H5.5C5.22386 20 5 19.7761 5 19.5V18.5C5 18.2239 5.22386 18 5.5 18H20.1716L21.1716 17H5.5C5.22386 17 5 16.7761 5 16.5V15.5C5 15.2239 5.22386 15 5.5 15L21.1716 15L20.1716 14L5.5 14C5.22386 14 5 13.7761 5 13.5V12.5C5 12.2239 5.22386 12 5.5 12L18.1716 12L15.9394 9.76775C15.7441 9.57248 15.7441 9.2559 15.9394 9.06064L16.6464 8.35355C16.8417 8.15829 17.1583 8.15829 17.3536 8.35355L23 14V6.5Z" fill="#36485C"/>
</svg>
