<svg width="32" height="32" viewBox="0 0 32 32" fill="none" xmlns="http://www.w3.org/2000/svg">
<path d="M9 6.5C9 6.22386 8.77614 6 8.5 6H7.5C7.22386 6 7 6.22386 7 6.5V25.5C7 25.7761 7.22386 26 7.5 26H8.5C8.77614 26 9 25.7761 9 25.5V18L14.6464 23.6464C14.8417 23.8417 15.1583 23.8417 15.3536 23.6464L16.0607 22.9393C16.2559 22.7441 16.2559 22.4275 16.0607 22.2322L13.8284 20H26.5C26.7761 20 27 19.7761 27 19.5V18.5C27 18.2239 26.7761 18 26.5 18H11.8284L10.8284 17H26.5C26.7761 17 27 16.7761 27 16.5V15.5C27 15.2239 26.7761 15 26.5 15L10.8284 15L11.8284 14L26.5 14C26.7761 14 27 13.7761 27 13.5V12.5C27 12.2239 26.7761 12 26.5 12L13.8284 12L16.0606 9.76775C16.2559 9.57248 16.2559 9.2559 16.0606 9.06064L15.3536 8.35355C15.1583 8.15829 14.8417 8.15829 14.6464 8.35355L9 14V6.5Z" fill="#36485C"/>
</svg>
