<svg width="32" height="32" viewBox="0 0 32 32" fill="none" xmlns="http://www.w3.org/2000/svg">
<path d="M7 11C8.10457 11 9 10.1046 9 9C9 7.89543 8.10457 7 7 7C5.89543 7 5 7.89543 5 9C5 10.1046 5.89543 11 7 11Z" fill="#36485C"/>
<path d="M11.5 8C11.2239 8 11 8.22386 11 8.5V9.5C11 9.77614 11.2239 10 11.5 10H26.5C26.7761 10 27 9.77614 27 9.5V8.5C27 8.22386 26.7761 8 26.5 8H11.5Z" fill="#36485C"/>
<path d="M11.5 15C11.2239 15 11 15.2239 11 15.5V16.5C11 16.7761 11.2239 17 11.5 17H26.5C26.7761 17 27 16.7761 27 16.5V15.5C27 15.2239 26.7761 15 26.5 15H11.5Z" fill="#36485C"/>
<path d="M11 22.5C11 22.2239 11.2239 22 11.5 22H26.5C26.7761 22 27 22.2239 27 22.5V23.5C27 23.7761 26.7761 24 26.5 24H11.5C11.2239 24 11 23.7761 11 23.5V22.5Z" fill="#36485C"/>
<path d="M9 16C9 17.1046 8.10457 18 7 18C5.89543 18 5 17.1046 5 16C5 14.8954 5.89543 14 7 14C8.10457 14 9 14.8954 9 16Z" fill="#36485C"/>
<path d="M7 25C8.10457 25 9 24.1046 9 23C9 21.8954 8.10457 21 7 21C5.89543 21 5 21.8954 5 23C5 24.1046 5.89543 25 7 25Z" fill="#36485C"/>
</svg>
