<svg width="32" height="32" viewBox="0 0 32 32" fill="none" xmlns="http://www.w3.org/2000/svg">
<path d="M12.5 2H11.5C11.2239 2 11 2.22386 11 2.5V5.5C11 5.77614 11.2239 6 11.5 6H12.5C12.7761 6 13 5.77614 13 5.5V2.5C13 2.22386 12.7761 2 12.5 2Z" fill="#36485C"/>
<path d="M3.93735 4.64834L4.64434 3.94111C4.83957 3.74581 5.15615 3.74576 5.35144 3.94098L8.06014 6.64873C8.25543 6.84396 8.25549 7.16054 8.06026 7.35584L7.35328 8.06307C7.15805 8.25836 6.84147 8.25842 6.64617 8.06319L3.93748 5.35544C3.74218 5.16022 3.74213 4.84363 3.93735 4.64834Z" fill="#36485C"/>
<path d="M23.935 24.6385L24.6423 23.9315C24.8376 23.7362 25.1541 23.7363 25.3494 23.9316L28.0571 26.6403C28.2523 26.8356 28.2523 27.1522 28.057 27.3474L27.3498 28.0544C27.1545 28.2496 26.8379 28.2495 26.6427 28.0543L23.9349 25.3456C23.7397 25.1503 23.7397 24.8337 23.935 24.6385Z" fill="#36485C"/>
<path d="M2.5 11H5.5C5.77614 11 6 11.2239 6 11.5V12.5C6 12.7761 5.77614 13 5.5 13H2.5C2.22386 13 2 12.7761 2 12.5V11.5C2 11.2239 2.22386 11 2.5 11Z" fill="#36485C"/>
<path d="M29.5 19H26.5C26.2239 19 26 19.2239 26 19.5V20.5C26 20.7761 26.2239 21 26.5 21H29.5C29.7761 21 30 20.7761 30 20.5V19.5C30 19.2239 29.7761 19 29.5 19Z" fill="#36485C"/>
<path d="M19.5 26H20.5C20.7761 26 21 26.2239 21 26.5V29.5C21 29.7761 20.7761 30 20.5 30H19.5C19.2239 30 19 29.7761 19 29.5V26.5C19 26.2239 19.2239 26 19.5 26Z" fill="#36485C"/>
<path d="M16.934 21.424C16.7386 21.2286 16.4216 21.2288 16.2264 21.4245L12.87 24.79C12.4983 25.1616 12.0571 25.4564 11.5716 25.6576C11.086 25.8587 10.5655 25.9622 10.04 25.9622C9.51439 25.9622 8.99396 25.8587 8.50839 25.6576C8.02281 25.4564 7.58161 25.1616 7.20997 24.79C6.45941 24.0394 6.03775 23.0215 6.03775 21.96C6.03775 20.8985 6.45941 19.8806 7.20997 19.13L10.5752 15.7648C10.7709 15.5691 10.7704 15.2515 10.5739 15.0565L9.864 14.3515C9.66835 14.1573 9.35236 14.158 9.15767 14.3533L5.79997 17.72C5.23064 18.2741 4.77703 18.9358 4.46547 19.6667C4.1539 20.3975 3.99059 21.183 3.98501 21.9775C3.97943 22.7719 4.13169 23.5596 4.43295 24.2948C4.73421 25.0299 5.17848 25.6979 5.73997 26.26C6.30061 26.8161 6.96551 27.256 7.69653 27.5546C8.42756 27.8532 9.21033 28.0046 9.99997 28C10.8033 28.0008 11.5989 27.8421 12.3404 27.5331C13.082 27.2241 13.7548 26.771 14.32 26.2L17.6493 22.8435C17.8432 22.6481 17.8426 22.3326 17.6479 22.1379L16.934 21.424Z" fill="#36485C"/>
<path d="M15.7648 10.5753C15.5691 10.771 15.2515 10.7705 15.0565 10.574L14.3496 9.86222C14.1561 9.66732 14.156 9.3528 14.3495 9.1578L17.68 5.8001C18.2451 5.22912 18.918 4.77601 19.6595 4.46702C20.4011 4.15804 21.1966 3.99933 22 4.0001C22.7896 3.99553 23.5724 4.14689 24.3034 4.44547C25.0345 4.74406 25.6994 5.18401 26.26 5.7401C26.8215 6.30219 27.2658 6.97019 27.567 7.70535C27.8683 8.4405 28.0205 9.22817 28.015 10.0226C28.0094 10.8171 27.8461 11.6026 27.5345 12.3334C27.2229 13.0643 26.7693 13.726 26.2 14.2801L22.8423 17.6468C22.6476 17.8421 22.3316 17.8428 22.136 17.6486L21.4261 16.9436C21.2296 16.7486 21.2291 16.431 21.4248 16.2353L24.79 12.8701C25.1616 12.4985 25.4564 12.0573 25.6576 11.5717C25.8587 11.0861 25.9622 10.5657 25.9622 10.0401C25.9622 9.51452 25.8587 8.99409 25.6576 8.50852C25.4564 8.02294 25.1616 7.58174 24.79 7.2101C24.4184 6.83846 23.9772 6.54366 23.4916 6.34253C23.006 6.1414 22.4856 6.03788 21.96 6.03788C21.4344 6.03788 20.914 6.1414 20.4284 6.34253C19.9428 6.54366 19.5016 6.83846 19.13 7.2101L15.7648 10.5753Z" fill="#36485C"/>
</svg>
