<svg width="32" height="32" viewBox="0 0 32 32" fill="none" xmlns="http://www.w3.org/2000/svg">
<path d="M28.2365 12.9594C28.4319 13.1533 28.7474 13.1526 28.9421 12.9579L29.6447 12.2553C29.8406 12.0594 29.8398 11.7414 29.6429 11.5465L20.3681 2.3644C20.1669 2.16526 19.8407 2.17265 19.6488 2.38069L19.0156 3.06702C18.8337 3.26423 18.8399 3.56988 19.0296 3.7596L19.87 4.60001L8.38 14.32L7.01103 12.959C6.81659 12.7657 6.50275 12.765 6.30749 12.9575L5.60799 13.6471C5.41059 13.8417 5.40917 14.1597 5.60483 14.3561L10.91 19.68L2.3527 28.2277C2.15774 28.4224 2.15709 28.7382 2.35125 28.9338L3.05645 29.644C3.25151 29.8404 3.56905 29.841 3.7648 29.6452L12.32 21.09L17.6427 26.3939C17.8395 26.5901 18.1585 26.5881 18.3529 26.3895L19.044 25.6835C19.2357 25.4877 19.234 25.174 19.0402 24.9802L17.68 23.62L27.4 12.13L28.2365 12.9594ZM16.26 22.2L9.8 15.74L21.29 6.00001L26 10.71L16.26 22.2Z" fill="#36485C"/>
</svg>
