<svg width="32" height="32" viewBox="0 0 32 32" fill="none" xmlns="http://www.w3.org/2000/svg">
<path d="M12 14V8C12 6.93913 12.4214 5.92172 13.1716 5.17157C13.9217 4.42143 14.9391 4 16 4C17.0609 4 18.0783 4.42143 18.8284 5.17157C19.46 5.80319 19.8586 6.6243 19.9688 7.50128C20.0032 7.77527 20.2239 8 20.5 8H21.5C21.7761 8 22.0022 7.77572 21.9792 7.50053C21.8616 6.09216 21.2495 4.76425 20.2426 3.75736C19.1174 2.63214 17.5913 2 16 2C14.4087 2 12.8826 2.63214 11.7574 3.75736C10.6321 4.88258 10 6.4087 10 8V14H6.5C6.22386 14 6 14.2239 6 14.5V29.5C6 29.7761 6.22386 30 6.5 30H25.5C25.7761 30 26 29.7761 26 29.5V14.5C26 14.2239 25.7761 14 25.5 14H12ZM24 28H8V16H24V28Z" fill="#36485C"/>
</svg>
