<svg width="32" height="32" viewBox="0 0 32 32" fill="none" xmlns="http://www.w3.org/2000/svg">
<path d="M16 5C20.3 5 23.9 8 24.8 12.1C27.8 12.7 30 15.4 30 18.6C30 22.2 27.1 25.1 23.5 25.1H20.5C20.2239 25.1 20 24.8761 20 24.6V23.6C20 23.3239 20.2239 23.1 20.5 23.1H23.4C25.9 23.1 27.9 21.1 27.9 18.6C27.9 16.3 26.1 14.3 23.8 14.1L23.3914 14.0489C23.1619 14.0202 22.982 13.8379 22.9564 13.608L22.9 13.1C22.5 9.6 19.5 7 16 7C12.5 7 9.5 9.6 9.1 13.2L9.05475 13.562C9.02347 13.8122 8.81077 14 8.55861 14H8.1C5.8 14.2 4 16.2 4 18.5C4 21 6 23 8.5 23H11.5C11.7761 23 12 23.2239 12 23.5V24.5C12 24.7761 11.7761 25 11.5 25H8.5C4.9 25 2 22.1 2 18.5C2 15.4 4.2 12.7 7.2 12.1C8.1 8 11.7 5 16 5Z" fill="#36485C"/>
<path d="M15 27.5V17.8L12.7536 20.0464C12.5583 20.2417 12.2417 20.2417 12.0464 20.0464L11.3536 19.3536C11.1583 19.1583 11.1583 18.8417 11.3536 18.6464L15.6464 14.3536C15.8417 14.1583 16.1583 14.1583 16.3536 14.3536L20.6464 18.6464C20.8417 18.8417 20.8417 19.1583 20.6464 19.3536L19.9536 20.0464C19.7583 20.2417 19.4417 20.2417 19.2464 20.0464L17 17.8V27.5C17 27.7761 16.7761 28 16.5 28H15.5C15.2239 28 15 27.7761 15 27.5Z" fill="#36485C"/>
</svg>
