<svg width="32" height="32" viewBox="0 0 32 32" fill="none" xmlns="http://www.w3.org/2000/svg">
<path fill-rule="evenodd" clip-rule="evenodd" d="M17.8855 4.76123C16.5718 3.56277 14.8156 3 13 3C11.1844 3 9.42821 3.56277 8.1145 4.76123C6.78596 5.97323 6 7.75411 6 10C6 12.1455 6.52543 14.3512 7.65595 16.0533C8.80732 17.7867 10.5991 19 13 19C15.4009 19 17.1927 17.7867 18.344 16.0533C19.4746 14.3512 20 12.1455 20 10C20 7.75411 19.214 5.97323 17.8855 4.76123ZM9.46242 6.23877C10.341 5.43723 11.5849 5 13 5C14.4151 5 15.659 5.43723 16.5376 6.23877C17.4013 7.02677 18 8.24589 18 10C18 11.8545 17.5402 13.6488 16.6781 14.9467C15.8368 16.2133 14.6285 17 13 17C11.3715 17 10.1632 16.2133 9.32194 14.9467C8.45983 13.6488 8 11.8545 8 10C8 8.24589 8.59865 7.02677 9.46242 6.23877Z" fill="#36485C"/>
<path d="M5.56402 21.9826C7.66305 20.564 10.3811 20 12.985 20C15.5888 20 18.3069 20.564 20.4059 21.9826C22.3341 23.2858 23.6835 25.2773 23.9404 28.0259C23.98 28.4494 23.9998 28.6611 23.8659 28.821C23.8575 28.8311 23.8471 28.8425 23.8379 28.8518C23.6912 29 23.4641 29 23.01 29H22.96C22.526 29 22.309 29 22.1704 28.8855C22.1603 28.8771 22.1527 28.8704 22.1432 28.8613C22.0133 28.7371 21.9854 28.5003 21.9297 28.0267C21.6893 25.9855 20.6844 24.5848 19.286 23.6397C17.6257 22.5176 15.3437 22 12.985 22C10.6262 22 8.34424 22.5176 6.68394 23.6397C5.28557 24.5848 4.28064 25.9855 4.04028 28.0267C3.98452 28.5003 3.95664 28.7371 3.82669 28.8613C3.81723 28.8704 3.80963 28.8771 3.79954 28.8855C3.66091 29 3.44393 29 3.00997 29H2.95997C2.50584 29 2.27877 29 2.13203 28.8518C2.12282 28.8425 2.11243 28.8311 2.10402 28.821C1.9701 28.6611 1.9899 28.4494 2.02949 28.0259C2.28644 25.2773 3.63586 23.2858 5.56402 21.9826Z" fill="#36485C"/>
<path d="M30.8891 18.182C31.0843 17.9867 31.0843 17.6702 30.8891 17.4749L28.4142 15L30.8891 12.5251C31.0843 12.3299 31.0843 12.0133 30.8891 11.818L30.182 11.1109C29.9867 10.9157 29.6701 10.9157 29.4749 11.1109L27 13.5858L24.5251 11.1109C24.3299 10.9157 24.0133 10.9157 23.818 11.1109L23.1109 11.818C22.9157 12.0133 22.9157 12.3299 23.1109 12.5251L25.5858 15L23.1109 17.4749C22.9157 17.6702 22.9157 17.9867 23.1109 18.182L23.818 18.8891C24.0133 19.0844 24.3299 19.0844 24.5251 18.8891L27 16.4142L29.4749 18.8891C29.6701 19.0844 29.9867 19.0844 30.182 18.8891L30.8891 18.182Z" fill="#36485C"/>
</svg>
