<svg width="32" height="32" viewBox="0 0 32 32" fill="none" xmlns="http://www.w3.org/2000/svg">
<path fill-rule="evenodd" clip-rule="evenodd" d="M13 3C14.8156 3 16.5718 3.56277 17.8855 4.76123C19.214 5.97323 20 7.75411 20 10C20 12.1455 19.4746 14.3512 18.344 16.0533C17.1927 17.7867 15.4009 19 13 19C10.5991 19 8.80732 17.7867 7.65595 16.0533C6.52543 14.3512 6 12.1455 6 10C6 7.75411 6.78596 5.97323 8.1145 4.76123C9.42821 3.56277 11.1844 3 13 3ZM13 5C11.5849 5 10.341 5.43723 9.46242 6.23877C8.59865 7.02677 8 8.24589 8 10C8 11.8545 8.45983 13.6488 9.32194 14.9467C10.1632 16.2133 11.3715 17 13 17C14.6285 17 15.8368 16.2133 16.6781 14.9467C17.5402 13.6488 18 11.8545 18 10C18 8.24589 17.4013 7.02677 16.5376 6.23877C15.659 5.43723 14.4151 5 13 5Z" fill="#36485C"/>
<path d="M12.985 20C10.3811 20 7.66305 20.564 5.56402 21.9826C3.63586 23.2858 2.28644 25.2773 2.02949 28.0259C1.9899 28.4494 1.9701 28.6611 2.10402 28.821C2.11243 28.8311 2.12282 28.8425 2.13203 28.8518C2.27877 29 2.50584 29 2.95997 29H3.00997C3.44393 29 3.66091 29 3.79954 28.8855C3.80963 28.8771 3.81723 28.8704 3.82669 28.8613C3.95664 28.7371 3.98452 28.5003 4.04028 28.0267C4.28064 25.9855 5.28557 24.5848 6.68394 23.6397C8.34424 22.5176 10.6262 22 12.985 22C15.3437 22 17.6257 22.5176 19.286 23.6397C20.6844 24.5848 21.6893 25.9855 21.9297 28.0267C21.9854 28.5003 22.0133 28.7371 22.1432 28.8613C22.1527 28.8704 22.1603 28.8771 22.1704 28.8855C22.309 29 22.526 29 22.96 29H23.01C23.4641 29 23.6912 29 23.8379 28.8518C23.8471 28.8425 23.8575 28.8311 23.8659 28.821C23.9998 28.6611 23.98 28.4494 23.9404 28.0259C23.6835 25.2773 22.3341 23.2858 20.4059 21.9826C18.3069 20.564 15.5888 20 12.985 20Z" fill="#36485C"/>
<path d="M31.5 14C31.7761 14 32 14.2239 32 14.5V15.5C32 15.7761 31.7761 16 31.5 16C26.609 16 27.935 16 22.5 16C22.2239 16 22 15.7761 22 15.5V14.5C22 14.2239 22.2239 14 22.5 14C27.935 14 26.609 14 31.5 14Z" fill="#36485C"/>
</svg>
