<svg width="32" height="32" viewBox="0 0 32 32" fill="none" xmlns="http://www.w3.org/2000/svg">
<path fill-rule="evenodd" clip-rule="evenodd" d="M16 5C17.2991 5 18.5556 5.42207 19.4956 6.32093C20.4461 7.22993 21.0085 8.56559 21.0085 10.25C21.0085 11.8591 20.6325 13.5134 19.8237 14.79C18.9999 16.09 17.7179 17 16 17C14.2821 17 13.0002 16.09 12.1763 14.79C11.3675 13.5134 10.9915 11.8591 10.9915 10.25C10.9915 8.56559 11.5539 7.22993 12.5044 6.32093C13.4444 5.42207 14.7009 5 16 5ZM16 7C16.8718 7 17.6025 7.28012 18.1097 7.76522C18.608 8.24165 19.0051 9.02541 19.0051 10.25C19.0051 11.5854 18.6871 12.8425 18.1306 13.7208C17.5961 14.5643 16.8969 15 16 15C15.1031 15 14.404 14.5643 13.8694 13.7208C13.3129 12.8425 12.9949 11.5854 12.9949 10.25C12.9949 9.02541 13.3921 8.24165 13.8903 7.76522C14.3976 7.28012 15.1282 7 16 7Z" fill="#36485C"/>
<path fill-rule="evenodd" clip-rule="evenodd" d="M27.963 9.99069C27.3051 9.31656 26.4255 9 25.5161 9C24.6068 9 23.7272 9.31656 23.0692 9.99069C22.4038 10.6724 22.0102 11.6742 22.0102 12.9375C22.0102 14.1444 22.2734 15.3851 22.8396 16.3425C23.4162 17.3175 24.3136 18 25.5161 18C26.7186 18 27.616 17.3175 28.1927 16.3425C28.7589 15.3851 29.0221 14.1444 29.0221 12.9375C29.0221 11.6742 28.6284 10.6724 27.963 9.99069ZM25.5161 11C25.9572 11 26.2948 11.1473 26.5281 11.3864C26.7631 11.6271 27.0187 12.093 27.0187 12.9375C27.0187 13.8929 26.8042 14.7564 26.4675 15.3257C26.1495 15.8634 25.8303 16 25.5161 16C25.2019 16 24.8828 15.8634 24.5647 15.3257C24.2281 14.7564 24.0136 13.8929 24.0136 12.9375C24.0136 12.093 24.2692 11.6271 24.5041 11.3864C24.7375 11.1473 25.0751 11 25.5161 11Z" fill="#36485C"/>
<path fill-rule="evenodd" clip-rule="evenodd" d="M6.48388 9C5.57452 9 4.69495 9.31656 4.03698 9.99069C3.37158 10.6724 2.97793 11.6742 2.97793 12.9375C2.97793 14.1444 3.2411 15.3851 3.80732 16.3425C4.38398 17.3175 5.28136 18 6.48388 18C7.68639 18 8.58377 17.3175 9.16044 16.3425C9.72666 15.3851 9.98982 14.1444 9.98982 12.9375C9.98982 11.6742 9.59617 10.6724 8.93077 9.99069C8.2728 9.31656 7.39323 9 6.48388 9ZM5.47187 11.3864C5.70525 11.1473 6.0428 11 6.48388 11C6.92495 11 7.2625 11.1473 7.49588 11.3864C7.73082 11.6271 7.98642 12.093 7.98642 12.9375C7.98642 13.8929 7.77193 14.7564 7.43528 15.3257C7.11725 15.8634 6.79808 16 6.48388 16C6.16967 16 5.8505 15.8634 5.53247 15.3257C5.19582 14.7564 4.98133 13.8929 4.98133 12.9375C4.98133 12.093 5.23693 11.6271 5.47187 11.3864Z" fill="#36485C"/>
<path d="M16 20C14.0819 20 12.2619 20.3955 10.9646 21.2151C9.86413 21.9104 9.15251 22.8933 8.98812 24.2816V24.5C8.98812 24.7761 8.76388 25 8.48727 25H7.48557C7.20896 25 6.98472 24.7761 6.98472 24.5V24.1737C7.19617 22.0595 8.3066 20.5275 9.89329 19.5251C11.6206 18.4338 13.8573 18 16 18C18.1427 18 20.3794 18.4338 22.1067 19.5251C23.6934 20.5275 24.8038 22.0595 25.0153 24.1737V24.5C25.0153 24.7761 24.791 25 24.5144 25H23.5127C23.2361 25 23.0119 24.7761 23.0119 24.5V24.2816C22.8475 22.8933 22.1359 21.9104 21.0354 21.2151C19.7381 20.3955 17.9181 20 16 20Z" fill="#36485C"/>
<path d="M7.16495 20.7651C7.06122 20.9172 6.88747 21.0076 6.70346 21.0019C5.49764 20.9648 4.20614 21.1555 3.20173 21.8389C2.6363 22.2236 2.18583 22.8293 2.03264 23.5042C1.97152 23.7735 1.75238 24 1.47624 24H0.47284C0.196698 24 -0.0301166 23.7753 0.00327108 23.5012C0.165824 22.1666 0.965939 20.9397 2.07347 20.1862C3.32096 19.3374 4.93635 19 6.48388 19C6.84575 19 7.21133 19.0185 7.57504 19.0576C7.99077 19.1023 8.12297 19.6226 7.83709 19.9277C7.59284 20.1884 7.36792 20.4675 7.16495 20.7651Z" fill="#36485C"/>
<path d="M24.8351 20.7651C24.9388 20.9172 25.1125 21.0076 25.2965 21.0019C26.5024 20.9648 27.7939 21.1555 28.7983 21.8389C29.3637 22.2236 29.8142 22.8293 29.9674 23.5042C30.0285 23.7735 30.2476 24 30.5238 24H31.5272C31.8033 24 32.0301 23.7753 31.9967 23.5012C31.8342 22.1666 31.0341 20.9397 29.9265 20.1862C28.679 19.3374 27.0637 19 25.5161 19C25.1543 19 24.7887 19.0185 24.425 19.0576C24.0092 19.1023 23.877 19.6226 24.1629 19.9277C24.4072 20.1884 24.6321 20.4675 24.8351 20.7651Z" fill="#36485C"/>
</svg>
