<svg width="32" height="32" viewBox="0 0 32 32" fill="none" xmlns="http://www.w3.org/2000/svg">
<path fill-rule="evenodd" clip-rule="evenodd" d="M19.4896 8.32093C18.5513 7.42207 17.2969 7 16 7C14.7031 7 13.4487 7.42207 12.5104 8.32093C11.5614 9.22993 11 10.5656 11 12.25C11 13.8591 11.3753 15.5134 12.1828 16.79C13.0052 18.09 14.285 19 16 19C17.715 19 18.9948 18.09 19.8172 16.79C20.6247 15.5134 21 13.8591 21 12.25C21 10.5656 20.4386 9.22993 19.4896 8.32093ZM18.1062 9.76522C17.5997 9.28012 16.8703 9 16 9C15.1297 9 14.4003 9.28012 13.8938 9.76522C13.3965 10.2416 13 11.0254 13 12.25C13 13.5854 13.3174 14.8425 13.873 15.7208C14.4067 16.5643 15.1046 17 16 17C16.8954 17 17.5933 16.5643 18.127 15.7208C18.6826 14.8425 19 13.5854 19 12.25C19 11.0254 18.6035 10.2416 18.1062 9.76522Z" fill="#36485C"/>
<path fill-rule="evenodd" clip-rule="evenodd" d="M16 30C23.732 30 30 23.732 30 16C30 8.26801 23.732 2 16 2C8.26801 2 2 8.26801 2 16C2 23.732 8.26801 30 16 30ZM24.5384 24.4318C26.6787 22.2646 28 19.2866 28 16C28 9.37258 22.6274 4 16 4C9.37258 4 4 9.37258 4 16C4 19.2866 5.32126 22.2646 7.46159 24.4318C7.96125 23.2006 8.82716 22.2432 9.91998 21.5421C11.6397 20.4387 13.8666 20 16 20C18.1333 20 20.3602 20.4387 22.08 21.5421C23.1728 22.2432 24.0387 23.2006 24.5384 24.4318ZM22.8869 25.8283C22.6231 24.6778 21.955 23.8381 21 23.2254C19.7116 22.3988 17.9049 22 16 22C14.095 22 12.2883 22.3988 11 23.2254C10.045 23.8381 9.37686 24.6778 9.11304 25.8282C11.0624 27.1967 13.4374 28 16 28C18.5626 28 20.9376 27.1967 22.8869 25.8283Z" fill="#36485C"/>
</svg>
