<svg width="32" height="32" viewBox="0 0 32 32" fill="none" xmlns="http://www.w3.org/2000/svg">
<path fill-rule="evenodd" clip-rule="evenodd" d="M20.8856 4.76123C19.5719 3.56277 17.8157 3 16.0001 3C14.1845 3 12.4283 3.56277 11.1146 4.76123C9.78607 5.97323 9.00011 7.75411 9.00011 10C9.00011 12.1455 9.52554 14.3512 10.6561 16.0533C11.8074 17.7867 13.5992 19 16.0001 19C18.4011 19 20.1928 17.7867 21.3442 16.0533C22.4747 14.3512 23.0001 12.1455 23.0001 10C23.0001 7.75411 22.2141 5.97323 20.8856 4.76123ZM12.4625 6.23877C13.3411 5.43723 14.585 5 16.0001 5C17.4152 5 18.6591 5.43723 19.5377 6.23877C20.4015 7.02677 21.0001 8.24589 21.0001 10C21.0001 11.8545 20.5403 13.6488 19.6782 14.9467C18.8369 16.2133 17.6286 17 16.0001 17C14.3716 17 13.1633 16.2133 12.322 14.9467C11.4599 13.6488 11.0001 11.8545 11.0001 10C11.0001 8.24589 11.5988 7.02677 12.4625 6.23877Z" fill="#36485C"/>
<path d="M8.57915 21.9826C10.6782 20.564 13.3962 20 16.0001 20C18.604 20 21.322 20.564 23.4211 21.9826C25.3492 23.2858 26.6986 25.2773 26.9556 28.0259C26.9952 28.4494 27.015 28.6611 26.8811 28.821C26.8726 28.8311 26.8623 28.8425 26.853 28.8518C26.7063 29 26.4792 29 26.0251 29H25.9751C25.5411 29 25.3242 29 25.1855 28.8855C25.1754 28.8771 25.1678 28.8704 25.1584 28.8613C25.0284 28.7371 25.0006 28.5003 24.9448 28.0267C24.7044 25.9855 23.6995 24.5848 22.3011 23.6397C20.6408 22.5176 18.3589 22 16.0001 22C13.6413 22 11.3594 22.5176 9.69907 23.6397C8.30071 24.5848 7.29578 25.9855 7.05542 28.0267C6.99966 28.5003 6.97178 28.7371 6.84183 28.8613C6.83237 28.8704 6.82477 28.8771 6.81468 28.8855C6.67605 29 6.45907 29 6.02511 29H5.97511C5.52098 29 5.29391 29 5.14717 28.8518C5.13795 28.8425 5.12757 28.8311 5.11916 28.821C4.98524 28.6611 5.00504 28.4494 5.04463 28.0259C5.30158 25.2773 6.65099 23.2858 8.57915 21.9826Z" fill="#36485C"/>
</svg>
