<svg width="32" height="32" viewBox="0 0 32 32" fill="none" xmlns="http://www.w3.org/2000/svg">
<path d="M11.251 21.7488C11.4118 21.9096 11.6298 21.9999 11.8571 21.9999C11.9902 21.9999 12.1215 21.9689 12.2405 21.9095L22.5261 16.7666C22.6685 16.6955 22.7882 16.586 22.872 16.4506C22.9557 16.3152 23 16.1591 23 15.9999C23 15.8407 22.9557 15.6847 22.872 15.5492C22.7882 15.4138 22.6685 15.3044 22.5261 15.2332L12.2405 10.0904C12.1098 10.025 11.9646 9.99418 11.8186 10.0007C11.6727 10.0073 11.5308 10.0511 11.4065 10.1279C11.2822 10.2047 11.1796 10.312 11.1085 10.4397C11.0373 10.5673 11 10.711 11 10.8571V21.1427C11 21.3701 11.0903 21.5881 11.251 21.7488Z" fill="#36485C"/>
<path fill-rule="evenodd" clip-rule="evenodd" d="M8.22202 4.35943C10.5243 2.82109 13.2311 2 16 2C19.713 2 23.274 3.475 25.8995 6.1005C28.525 8.72601 30 12.287 30 16C30 18.7689 29.1789 21.4757 27.6406 23.778C26.1022 26.0803 23.9157 27.8747 21.3576 28.9343C18.7994 29.9939 15.9845 30.2712 13.2687 29.731C10.553 29.1908 8.05845 27.8574 6.10051 25.8995C4.14258 23.9416 2.80921 21.447 2.26901 18.7313C1.72882 16.0155 2.00607 13.2006 3.06569 10.6424C4.12532 8.08427 5.91973 5.89777 8.22202 4.35943ZM22.6668 6.02236C20.6935 4.70379 18.3734 4 16 4C12.8174 4 9.76516 5.26428 7.51472 7.51472C5.26429 9.76515 4.00001 12.8174 4.00001 16C4.00001 18.3734 4.70379 20.6935 6.02237 22.6668C7.34095 24.6402 9.21509 26.1783 11.4078 27.0866C13.6005 27.9948 16.0133 28.2324 18.3411 27.7694C20.6689 27.3064 22.8071 26.1635 24.4853 24.4853C26.1635 22.8071 27.3064 20.6689 27.7694 18.3411C28.2325 16.0133 27.9948 13.6005 27.0866 11.4078C26.1783 9.21509 24.6402 7.34094 22.6668 6.02236Z" fill="#36485C"/>
</svg>
