<svg width="32" height="32" viewBox="0 0 32 32" fill="none" xmlns="http://www.w3.org/2000/svg">
<path d="M2.49805 23.042C3.10892 23.1448 3.67729 23.4351 4.12109 23.8789C4.5649 24.3227 4.85515 24.8911 4.95801 25.502C5.00382 25.7743 4.77614 26 4.5 26H2.5C2.22386 26 2 25.7761 2 25.5V23.5C2 23.2239 2.22573 22.9962 2.49805 23.042Z" fill="#36485C"/>
<path d="M2.5 19.0186C4.17298 19.1401 5.75335 19.8588 6.94727 21.0527C8.14118 22.2466 8.85993 23.827 8.98145 25.5C9.00139 25.7756 8.77534 26 8.49902 26H7.49902C7.22329 25.9998 7.00238 25.7754 6.97461 25.501C6.85889 24.3587 6.35317 23.2848 5.53418 22.4658C4.71519 21.6468 3.64128 21.1411 2.49902 21.0254C2.22464 20.9976 2.00022 20.7767 2 20.501V19.501C2 19.2247 2.22443 18.9986 2.5 19.0186Z" fill="#36485C"/>
<path d="M2.5 15.0117C5.2342 15.1391 7.83049 16.2817 9.77441 18.2256C11.7183 20.1695 12.8609 22.7658 12.9883 25.5C13.0009 25.7759 12.7752 26 12.499 26H11.499C11.2234 25.9998 11.001 25.7762 10.9854 25.501C10.8607 23.2969 9.93053 21.2079 8.36133 19.6387C6.79213 18.0695 4.70311 17.1393 2.49902 17.0146C2.22377 16.999 2.00023 16.7766 2 16.501V15.501C2 15.2248 2.22414 14.9991 2.5 15.0117Z" fill="#36485C"/>
<path d="M29.5039 6C29.7799 6.00011 30 6.22393 30 6.5V25.5C30 25.7761 29.7761 26 29.5 26H15.5C15.2239 26 15 25.7761 15 25.5V24.5C15 24.2239 15.2239 24 15.5 24H28V8H4V12.5C4 12.7761 3.77614 13 3.5 13H2.5C2.22396 13 2.00017 12.777 2 12.501V6.49805C2 6.22204 2.21722 6.00022 2.49316 6H29.5039Z" fill="#36485C"/>
<path d="M25.5 10C25.7761 10 26 10.2239 26 10.5V21.5C26 21.7761 25.7761 22 25.5 22H14.7373C14.5204 22 14.3283 21.8597 14.2559 21.6553C12.9496 17.9707 10.0293 15.0504 6.34473 13.7441C6.14027 13.6717 6 13.4796 6 13.2627V10.5C6 10.2239 6.22386 10 6.5 10H25.5Z" fill="#36485C"/>
</svg>
