<svg width="32" height="32" viewBox="0 0 32 32" fill="none" xmlns="http://www.w3.org/2000/svg">
<path d="M15 25.5C15 25.7761 15.2239 26 15.5 26H29.5C29.7761 26 30 25.7761 30 25.5V6.5C30 6.22386 29.7798 6 29.5037 6H2.49357C2.21743 6 2 6.22166 2 6.49781V12.5007C2 12.7768 2.22386 13 2.5 13H3.5C3.77614 13 4 12.7761 4 12.5V8H28V24H15.5C15.2239 24 15 24.2239 15 24.5V25.5Z" fill="#36485C"/>
<path d="M12.9881 25.4996C13.0009 25.7756 12.7758 26 12.4994 26H11.4994C11.2235 26 11.0012 25.7763 10.9856 25.5008C10.8609 23.2967 9.93024 21.2082 8.36104 19.639C6.79183 18.0698 4.70331 17.1391 2.49923 17.0144C2.22374 16.9988 2 16.7765 2 16.5006V15.5006C2 15.2242 2.22437 14.9991 2.50044 15.0119C5.23464 15.1393 7.8306 16.2816 9.77452 18.2255C11.7184 20.1694 12.8607 22.7654 12.9881 25.4996Z" fill="#36485C"/>
<path d="M8.49944 26C8.7758 26 9.00161 25.7755 8.98159 25.4999C8.86007 23.8269 8.14138 22.2464 6.94747 21.0525C5.75355 19.8586 4.17312 19.1399 2.50014 19.0184C2.22451 18.9984 2 19.2242 2 19.5006V20.5006C2 20.7765 2.22407 20.9977 2.49859 21.0254C3.64101 21.1411 4.71478 21.647 5.53387 22.4661C6.35296 23.2852 6.85891 24.359 6.97455 25.5014C7.00234 25.7759 7.22351 26 7.49943 26H8.49944Z" fill="#36485C"/>
<path d="M2.5 26C2.22386 26 2 25.7761 2 25.5V23.5C2 23.2239 2.2254 22.9957 2.49771 23.0416C3.10873 23.1444 3.67742 23.4348 4.12132 23.8787C4.56522 24.3226 4.85564 24.8913 4.95844 25.5023C5.00425 25.7746 4.77614 26 4.5 26H2.5Z" fill="#36485C"/>
</svg>
