<svg width="32" height="32" viewBox="0 0 32 32" fill="none" xmlns="http://www.w3.org/2000/svg">
<path fill-rule="evenodd" clip-rule="evenodd" d="M16 3C8.82026 3 3 8.82026 3 16C3 23.1797 8.82026 29 16 29C23.1797 29 29 23.1797 29 16C29 8.82026 23.1797 3 16 3ZM27.3771 16C27.3771 16.5268 27.3389 17.0408 27.2709 17.5464C26.3533 16.8752 23.9487 15.0399 22.7082 14.4663C22.8356 13.4977 23.1373 8.20425 17.7291 4.75882C23.1882 5.58726 27.3771 10.3029 27.3771 16ZM16 4.62288C16.017 4.62288 16.0297 4.62288 16.0467 4.62288C16.0892 4.64837 16.1359 4.6781 16.1784 4.70359C14.7807 5.16242 9.40229 7.42255 5.05196 12.9072C6.39869 8.13203 10.7873 4.62288 16 4.62288ZM4.66961 15.0059C6.23725 12.8605 11.382 7.05294 17.249 5.44706C18.2134 6.19052 19.1948 7.18039 19.9935 8.45065C18.4216 8.97745 11.4967 11.6369 5.75294 20.9493C5.03072 19.4539 4.62288 17.7758 4.62288 16C4.62288 15.6644 4.64412 15.333 4.66961 15.0059ZM6.27549 21.901C7.65196 19.6154 12.9539 11.998 20.4183 9.18987C21.1193 10.5324 21.5951 12.151 21.6588 14.0755C15.0356 17.2533 10.8085 23.3539 9.66144 25.4441C8.29346 24.5265 7.13366 23.3157 6.27549 21.901ZM24.0167 24.0719C22.9163 25.1637 21.5908 26.0346 20.1167 26.6039C20.0997 26.5912 20.0827 26.5742 20.0614 26.5614C17.5039 25.5078 15.0399 22.8399 13.9863 21.4719C14.9846 20.3673 15.9958 19.4072 16.9516 18.583C18.6722 20.3716 22.2961 23.2435 24.0167 24.0719ZM10.6216 26.0261C11.4075 24.6922 12.2869 23.4771 13.1961 22.3853C14.4876 24.1951 16.9559 26.1748 18.5108 27.0925C17.7036 27.2752 16.8624 27.3729 16 27.3729C14.0542 27.3771 12.2232 26.8843 10.6216 26.0261ZM24.7771 23.235C22.9206 22.381 19.1735 19.0588 17.8523 17.8353C19.6324 16.4078 21.098 15.5242 21.6886 15.1843C22.5722 15.6389 25.5588 17.4869 27.0075 18.8719C26.5869 20.499 25.8137 21.9817 24.7771 23.235Z" fill="#36485C"/>
</svg>
