<svg width="32" height="32" viewBox="0 0 32 32" fill="none" xmlns="http://www.w3.org/2000/svg">
<path fill-rule="evenodd" clip-rule="evenodd" d="M16 4C22.9291 4 28.4433 9.51008 28.4434 16.4434C28.4434 20.7315 26.3338 24.4756 23.085 26.708C23.5064 27.0442 23.8435 27.2598 24.5225 27.2598C25.2783 27.2597 25.6097 26.9922 26.1064 26.5889C26.6885 26.1173 27.6278 25.5303 29 25.5303V27.2598C28.2395 27.2598 27.6953 27.5271 27.1982 27.9307L27.1973 27.9326C26.6156 28.4039 25.8932 28.9892 24.5225 28.9893C23.1517 28.9893 22.4294 28.4039 21.8477 27.9326L21.8457 27.9307C21.7148 27.8244 21.5952 27.7276 21.4766 27.6426C20.141 28.2893 18.6682 28.7055 17.1084 28.8398C16.7917 28.9324 16.4273 28.9893 16 28.9893C15.5727 28.9893 15.2083 28.9324 14.8916 28.8398C13.3315 28.7055 11.8588 28.2892 10.5234 27.6426C10.4048 27.7276 10.2851 27.8244 10.1543 27.9307L10.1523 27.9326C9.57065 28.4039 8.84825 28.9893 7.47754 28.9893C6.10685 28.9892 5.38442 28.4039 4.80273 27.9326L4.80176 27.9307C4.3047 27.5271 3.76046 27.2598 3 27.2598V25.5303C4.37222 25.5303 5.31153 26.1173 5.89355 26.5889L5.89844 26.5928C6.3925 26.9939 6.71993 27.2597 7.47754 27.2598C8.15649 27.2598 8.49362 27.0442 8.91504 26.708C5.66545 24.4749 3.55664 20.7297 3.55664 16.4434C3.5567 9.51008 9.07095 4 16 4ZM13.3359 22.625C12.4736 23.6785 11.6493 24.8557 10.9102 26.1514C12.4182 26.9628 14.1475 27.4215 16.0039 27.4258C16.8365 27.4258 17.6439 27.3275 18.417 27.1533C17.015 26.363 14.5806 24.4007 13.3359 22.625ZM21.0938 15.9082C20.2058 16.4351 17.1091 18.3597 14.1523 21.6689C15.1168 22.9605 17.3894 25.5096 19.7344 26.4951C19.8278 26.5503 19.8792 26.6228 19.9004 26.6992C23.0228 25.4884 25.4101 22.8668 26.3574 19.6084C26.3362 19.6381 26.3152 19.6724 26.2939 19.7021C25.1894 18.4235 22.1521 16.3798 21.1875 15.8486C21.1535 15.8699 21.1277 15.887 21.0938 15.9082ZM18.0264 7.69141C12.5631 9.16979 6.69613 15.1004 5.20898 17.1016C5.4129 20.5978 7.19313 23.6568 9.87793 25.5176C10.8553 23.6735 15.108 17.7392 21.0596 14.5615C20.8769 11.4262 19.5303 9.19958 18.0264 7.69141ZM16.8711 5.66504C22.2198 8.61341 22.1984 13.4911 22.0625 14.9482C23.2818 15.5559 25.8607 17.6206 26.6084 18.1729C26.6337 18.194 26.6468 18.2152 26.668 18.2363C26.7614 17.6501 26.8125 17.0511 26.8125 16.4395C26.8125 10.6702 22.5086 6.0942 16.8711 5.66504ZM15.252 5.65723C9.8908 6.00999 5.71522 10.0964 5.23926 15.415C9.35593 10.0369 15.5967 7.36497 17.0879 6.84668C16.4421 6.32838 15.8042 5.93762 15.252 5.65723Z" fill="#36485C"/>
</svg>
