<svg width="32" height="32" viewBox="0 0 32 32" fill="none" xmlns="http://www.w3.org/2000/svg">
<path d="M15.0938 20.04C14.8854 20.04 14.7812 19.94 14.7812 19.74L14.5 5.5C14.5 5.5 14.5 5 15 5H17C17.5 5 17.5 5.5 17.5 5.5L17.2188 19.74C17.2188 19.94 17.1146 20.04 16.9062 20.04H15.0938Z" fill="#36485C"/>
<path d="M16 27C17.1046 27 18 26.1046 18 25C18 23.8954 17.1046 23 16 23C14.8954 23 14 23.8954 14 25C14 26.1046 14.8954 27 16 27Z" fill="#36485C"/>
<path d="M12.5113 5.89469C12.5054 5.58742 12.2261 5.35779 11.9252 5.4206C8.36293 6.16429 5.04753 7.87448 2.35997 10.3949C2.15868 10.5837 2.15673 10.9005 2.35031 11.0972L3.05302 11.8112C3.2469 12.0082 3.56338 12.0099 3.76546 11.8214C6.12452 9.62013 9.01776 8.11067 12.1287 7.42287C12.3656 7.3705 12.5359 7.16031 12.5312 6.91776L12.5113 5.89469Z" fill="#36485C"/>
<path d="M19.4887 5.89474C19.4946 5.58746 19.7739 5.35783 20.0748 5.42064C23.6358 6.16412 26.9502 7.87342 29.6372 10.3925C29.8395 10.5822 29.8404 10.901 29.6444 11.0972L28.9362 11.8065C28.742 12.001 28.4277 12.0017 28.2267 11.8143C25.8689 9.6169 22.9786 8.11002 19.8713 7.42295C19.6344 7.37057 19.4641 7.16039 19.4688 6.91785L19.4887 5.89474Z" fill="#36485C"/>
<path d="M12.631 12.0431C12.6247 11.7219 12.3214 11.4896 12.0135 11.5814C10.0138 12.1775 8.1584 13.2191 6.59513 14.6457C6.38977 14.8331 6.38878 15.153 6.58537 15.3496L7.29244 16.0566C7.48614 16.2503 7.79898 16.2512 8.0026 16.0679C9.25265 14.9431 10.7166 14.1029 12.293 13.5888C12.5078 13.5188 12.6558 13.319 12.6514 13.0931L12.631 12.0431Z" fill="#36485C"/>
<path d="M19.3486 13.0937C19.3442 13.3195 19.4922 13.5193 19.7069 13.5893C21.2784 14.102 22.7381 14.9388 23.9855 16.0588C24.1892 16.2416 24.5017 16.2406 24.6953 16.047L25.4021 15.3402C25.5988 15.1435 25.5977 14.8232 25.392 14.6359C23.8315 13.2149 21.9807 12.177 19.9865 11.5821C19.6787 11.4903 19.3753 11.7226 19.369 12.0438L19.3486 13.0937Z" fill="#36485C"/>
<path d="M12.7573 18.4513C12.7496 18.0935 12.3797 17.8613 12.0684 18.038C11.6377 18.2825 11.2285 18.5679 10.8469 18.8918C10.6337 19.0727 10.6318 19.3955 10.8296 19.5932L11.5382 20.3016C11.7301 20.4934 12.0388 20.4953 12.2499 20.3248C12.3316 20.2588 12.4565 20.1685 12.5656 20.0917C12.7042 19.994 12.787 19.8344 12.7834 19.6648L12.7573 18.4513Z" fill="#36485C"/>
<path d="M19.217 19.6567C19.2131 19.8313 19.3016 19.9935 19.4443 20.0943C19.5448 20.1653 19.6432 20.2395 19.7395 20.317C19.9507 20.4867 20.2588 20.4845 20.4504 20.2929L21.1591 19.5841C21.3571 19.3861 21.3548 19.0629 21.1411 18.8821C20.7633 18.5627 20.3587 18.281 19.933 18.0392C19.6214 17.8621 19.251 18.0951 19.2433 18.4534C19.2338 18.8984 19.2234 19.3678 19.217 19.6567Z" fill="#36485C"/>
</svg>
