<svg width="32" height="32" viewBox="0 0 32 32" fill="none" xmlns="http://www.w3.org/2000/svg">
<path d="M29.6464 3.06059C29.8416 3.25585 29.8416 3.57244 29.6464 3.7677L25.8104 7.60355C27.1913 8.37906 28.4747 9.3154 29.634 10.3926C29.8379 10.582 29.8394 10.902 29.6428 11.0989L28.9344 11.8082C28.7409 12.0019 28.4281 12.0035 28.2269 11.8178C27.056 10.7377 25.7458 9.81783 24.3307 9.08305L21.3339 12.08C22.8242 12.6926 24.1962 13.5578 25.3899 14.6362C25.5968 14.8232 25.5986 15.1444 25.4015 15.3416L24.6949 16.0486C24.5019 16.2416 24.1904 16.2434 23.9866 16.0617C22.7669 14.9747 21.3365 14.1471 19.7824 13.6318L16.3949 17.0195C18.1425 17.1043 19.8086 17.7615 21.1399 18.8823C21.3543 19.0628 21.3569 19.3867 21.1586 19.5849L20.4511 20.2923C20.2592 20.4842 19.9506 20.486 19.7394 20.3157C19.0254 19.7398 18.1857 19.3357 17.2854 19.1381C16.2259 18.9055 15.1228 18.9677 14.0961 19.3179L3.76758 29.6465C3.57232 29.8418 3.25573 29.8418 3.06047 29.6465L2.35348 28.9395C2.15822 28.7442 2.15822 28.4277 2.35348 28.2324L28.2323 2.3536C28.4275 2.15834 28.7441 2.15834 28.9394 2.3536L29.6464 3.06059Z" fill="#36485C"/>
<path d="M17.9999 25C17.9999 26.1046 17.1045 27 15.9999 27C14.8954 27 13.9999 26.1046 13.9999 25C13.9999 23.8955 14.8954 23 15.9999 23C17.1045 23 17.9999 23.8955 17.9999 25Z" fill="#36485C"/>
<path d="M14.5052 13.0983C14.6179 13.0841 14.7232 13.0339 14.8035 12.9536L16.21 11.5471C16.4071 11.35 16.2781 11 15.9994 11C12.5137 10.9993 9.16046 12.3038 6.59502 14.6457C6.38973 14.8331 6.38876 15.1531 6.58531 15.3496L7.29284 16.0571C7.48639 16.2507 7.79891 16.2518 8.00256 16.0689C9.81492 14.4411 12.0833 13.4033 14.5052 13.0983Z" fill="#36485C"/>
<path d="M19.9576 7.45961C18.6599 7.15944 17.3325 7.00523 15.9999 7.00004C11.4521 6.99857 7.08055 8.72601 3.7655 11.8212C3.56343 12.0098 3.24686 12.0082 3.05294 11.8111L2.35044 11.0974C2.15682 10.9007 2.15884 10.5837 2.36023 10.395C4.86278 8.04943 7.93006 6.38654 11.2673 5.57076C14.4973 4.7812 17.8689 4.81233 21.0764 5.65515C21.4408 5.7509 21.5542 6.20359 21.2878 6.47001L20.4321 7.3257C20.3081 7.44965 20.1284 7.49911 19.9576 7.45961Z" fill="#36485C"/>
</svg>
