<svg width="32" height="32" viewBox="0 0 32 32" fill="none" xmlns="http://www.w3.org/2000/svg">
<path d="M18.7393 6C19.7143 6 20.5061 6.77815 20.5061 7.73939C20.5061 8.70063 19.7143 9.47878 18.7393 9.47878C17.7643 9.47878 16.9724 8.70063 16.9724 7.73939C16.9724 6.77815 17.7643 6 18.7393 6Z" fill="#36485C"/>
<path d="M28.8873 24.7534C27.7796 24.14 26.3743 23.1605 25.5229 22.5471C25.262 22.3594 24.9187 21.8102 24.85 21.1602L24.8159 20.8344C24.7047 19.7731 24.5616 18.4079 24.4747 17.7912C24.3917 17.2061 23.8798 17.5164 22.9936 18.0536C22.9023 18.1089 22.807 18.1667 22.7079 18.2261C22.3461 18.4438 22.129 18.5645 21.9822 18.6461C21.6998 18.8031 21.6771 18.8157 21.385 19.0958C21.3425 19.3273 21.2995 19.5597 21.2566 19.7919C20.8781 21.8376 20.5016 23.8728 20.5016 25.1882C20.5016 25.7833 18.6249 26.0808 18.7347 24.7534L18.7546 24.5181C18.9356 22.3776 19.0549 20.9669 19.1741 18.6609C19.2153 17.8919 20.7487 16.6652 21.8198 16.0519C22.1723 15.8825 22.7628 15.466 22.2593 14.7473C22.1155 14.5395 21.9905 14.3453 21.8776 14.1701C21.2572 13.2069 21.0057 12.8165 20.053 13.8776C19.9018 14.0462 19.7648 14.2009 19.6398 14.342C18.7134 15.3879 18.4497 15.6855 17.9657 15.379C17.3386 14.9853 16.8351 14.4818 16.9633 14.3125C17.5446 13.548 20.616 9.48336 20.8815 9.12633C21.1424 8.76929 22.0258 8.35276 22.7033 9.09429C23.0089 9.43018 23.7418 10.4037 24.5085 11.4221C25.0164 12.0967 25.5392 12.7912 25.9623 13.3329C26.4933 14.0149 26.5254 15.7314 26.5254 16.0519V20.8398C27.1811 21.4183 27.9791 22.0431 28.6976 22.6055C29.0874 22.9107 29.454 23.1977 29.7615 23.4488C30.4848 24.0347 29.4549 25.0692 28.8873 24.7534Z" fill="#36485C"/>
<path d="M16.533 17.7912C15.0591 16.6332 12.9215 15.1455 11.681 14.3125C11.5208 14.2072 10.6145 14.6741 9.91417 15.1822C9.91417 15.6262 9.96452 16.1205 10.7976 16.9215C11.6307 17.7226 12.1342 18.4092 12.5645 19.0958C12.9901 19.7824 15.1735 24.1675 15.2102 25.234C15.2285 25.7696 13.7729 25.9343 13.4433 25.234C13.3015 24.9307 13.1539 24.6087 13.0037 24.281C12.3875 22.9368 11.7265 21.4948 11.237 20.8398C10.6008 20.0799 9.36031 18.6289 7.97338 17.7409C7.8961 17.7409 7.81682 17.7327 7.73814 17.7246C7.38804 17.6885 7.0498 17.6537 6.95263 18.3451C6.89928 18.7239 6.80172 19.343 6.70236 19.9736C6.54595 20.9663 6.38504 21.9876 6.38504 22.1443C6.32553 22.5242 3.43723 24.3368 2.4119 24.7534C2.06402 24.703 1.67953 23.1605 2.43936 22.7165C2.57815 22.6366 2.71595 22.5591 2.85089 22.4832C3.80624 21.946 4.61818 21.4895 4.61818 20.8398V16.6561C4.61818 15.8962 4.99352 14.6329 5.48788 14.3079C6.43783 13.6841 7.37186 13.0211 8.1474 12.4706C8.98248 11.8778 9.63379 11.4155 9.92333 11.2731C10.143 11.1632 11.1455 10.9802 11.6764 11.2685C14.5602 13.9051 16.089 15.1455 18.2953 16.9261C18.7393 17.3198 17.0457 18.2124 16.533 17.7912Z" fill="#36485C"/>
<path d="M16.533 10.3485C16.533 9.38724 15.7411 8.60909 14.7662 8.60909C13.7912 8.60909 12.9993 9.39181 12.9993 10.3485C12.9993 11.3097 13.7912 12.0879 14.7662 12.0879C15.7411 12.0879 16.533 11.3097 16.533 10.3485Z" fill="#36485C"/>
</svg>
