<svg width="32" height="32" viewBox="0 0 32 32" fill="none" xmlns="http://www.w3.org/2000/svg">
<path d="M12 7.49999C12 7.22385 12.2239 6.99999 12.5 6.99999H13.5C13.7761 6.99999 14 7.22385 14 7.49999V12H18.5C18.7761 12 19 12.2239 19 12.5V13.5C19 13.7761 18.7761 14 18.5 14H14V18.5C14 18.7761 13.7761 19 13.5 19H12.5C12.2239 19 12 18.7761 12 18.5V14H7.5C7.22386 14 7 13.7761 7 13.5V12.5C7 12.2239 7.22386 12 7.5 12H12V7.49999Z" fill="#36485C"/>
<path fill-rule="evenodd" clip-rule="evenodd" d="M28.6467 27.2323C28.8419 27.4276 28.8419 27.7442 28.6467 27.9394L27.9397 28.6464C27.7444 28.8417 27.4278 28.8417 27.2326 28.6464L20.034 21.4479C17.8554 23.2626 15.061 24.1675 12.2322 23.9744C9.40331 23.7813 6.75782 22.505 4.84601 20.4111C2.9342 18.3171 1.90327 15.5667 1.96769 12.732C2.03211 9.8973 3.1869 7.19656 5.19186 5.19161C7.19681 3.18666 9.89755 2.03186 12.7322 1.96745C15.5669 1.90303 18.3173 2.93396 20.4113 4.84576C22.5053 6.75757 23.7815 9.40306 23.9747 12.2319C24.1678 15.0608 23.2629 17.8552 21.4481 20.0338L28.6467 27.2323ZM5.51701 7.99986C4.52808 9.4799 4.00024 11.22 4.00024 13C4.00288 15.3861 4.95194 17.6738 6.6392 19.361C8.32645 21.0483 10.6141 21.9973 13.0002 22C14.7803 22 16.5203 21.4722 18.0004 20.4832C19.4804 19.4943 20.634 18.0887 21.3152 16.4441C21.9963 14.7996 22.1746 12.99 21.8273 11.2442C21.48 9.49835 20.6229 7.8947 19.3642 6.63603C18.1055 5.37736 16.5019 4.52019 14.756 4.17292C13.0102 3.82566 11.2006 4.00389 9.55609 4.68508C7.91155 5.36627 6.50594 6.51982 5.51701 7.99986Z" fill="#36485C"/>
</svg>
