<svg width="26" height="26" viewBox="0 0 26 26" fill="none" xmlns="http://www.w3.org/2000/svg">
<path fill-rule="evenodd" clip-rule="evenodd" d="M18.7987 15.2866C18.7724 15.2879 18.7471 15.2761 18.7311 15.2552C18.7151 15.2342 18.7104 15.2067 18.7186 15.1816C19.1761 13.7067 19.3294 12.1542 19.1694 10.6183C19.1665 10.59 19.1488 10.5652 19.1229 10.5534C17.597 9.84099 16.6181 8.31185 16.6091 6.62639C16.6058 6.05902 16.7146 5.49658 16.9293 4.97145C16.9405 4.94481 16.9366 4.91417 16.9189 4.89128C16.6599 4.55161 16.3834 4.22579 16.0903 3.91514C14.4162 2.15516 12.2316 0.966702 9.8456 0.517899C9.80675 0.511197 9.77856 0.477199 9.77913 0.437778C9.77803 0.400032 9.80336 0.366696 9.83996 0.357613C13.2568 -0.524383 16.8892 0.24583 19.6554 2.43892C19.6697 2.45038 19.6875 2.45664 19.7058 2.45655C19.7138 2.45774 19.7219 2.45774 19.7298 2.45655C20.1224 2.33798 20.5302 2.27748 20.9403 2.27704C22.7203 2.27219 24.3222 3.35738 24.9795 5.01329C25.6368 6.66921 25.2157 8.55905 23.9178 9.77837C23.8986 9.79619 23.8893 9.8222 23.893 9.84809C23.9615 10.3512 23.9962 10.8583 23.997 11.366C23.997 11.4133 23.9971 11.4597 23.9907 11.5063L23.9851 11.5952C23.9848 11.613 23.9786 11.6302 23.9674 11.6441C22.6258 13.3126 20.845 14.5726 18.826 15.2818L18.7987 15.2866ZM4.59042 19.3297C4.56875 19.3299 4.54796 19.3212 4.53276 19.3057C2.07998 16.8102 0.921184 13.3175 1.3952 9.84888C1.39876 9.823 1.38951 9.79694 1.3704 9.77917C-0.0945863 8.40441 -0.42469 6.20246 0.572624 4.45778C1.56994 2.7131 3.63363 1.88234 5.55994 2.45016C5.58514 2.45761 5.61236 2.45219 5.6328 2.43574C6.11743 2.05035 6.6332 1.70587 7.17478 1.40589C7.1868 1.39937 7.20033 1.39606 7.21403 1.39628C9.33604 1.72505 11.3234 2.64299 12.9504 4.0458C12.9733 4.06551 12.9833 4.09651 12.976 4.12596C12.969 4.15608 12.9453 4.17945 12.9152 4.18606C11.3878 4.5308 9.94797 5.1872 8.68557 6.11431C8.66218 6.13115 8.64963 6.15933 8.65275 6.18804C8.66808 6.33395 8.67584 6.48052 8.67597 6.62723C8.66125 8.78336 7.07457 10.605 4.94277 10.9133C4.91401 10.917 4.88952 10.936 4.87872 10.963C4.72662 11.3364 4.5913 11.7227 4.4784 12.1114C3.79503 14.443 3.86168 16.9308 4.66896 19.2225C4.67804 19.2476 4.67407 19.2756 4.6583 19.2971C4.64249 19.3185 4.61707 19.3308 4.59042 19.3297ZM12.6869 25.2859C10.6803 25.2881 8.93392 23.9128 8.46374 21.96C8.45779 21.9346 8.43987 21.9137 8.41568 21.9039C7.84428 21.6739 7.29248 21.3978 6.76565 21.0785C6.75028 21.0693 6.73843 21.0552 6.73204 21.0384C5.96281 19.0418 5.76569 16.8699 6.1628 14.7672C6.16835 14.7373 6.19037 14.713 6.21962 14.7047H6.23565C6.25992 14.702 6.28411 14.7106 6.30129 14.728C7.36199 15.8757 8.64716 16.7928 10.0769 17.4224C10.0873 17.4268 10.0985 17.429 10.1098 17.4287C10.1267 17.4288 10.1432 17.4235 10.157 17.4135C12.045 16.056 14.6669 16.4332 16.0966 18.2678C16.1119 18.2877 16.1356 18.2993 16.1607 18.2991H16.1703C16.5658 18.2454 16.9709 18.1693 17.3648 18.0747C19.7271 17.5004 21.8487 16.196 23.4285 14.3465C23.4439 14.3284 23.4665 14.3182 23.4902 14.3184C23.5036 14.3183 23.5168 14.3217 23.5286 14.328C23.562 14.3459 23.5783 14.3846 23.5678 14.421C22.6161 17.7896 20.1773 20.5373 16.9477 21.8799C16.9235 21.8896 16.9056 21.9106 16.8996 21.936C16.4428 23.8964 14.6979 25.2839 12.6869 25.2859Z" fill="white"/>
</svg>
